M48
; DRILL file {KiCad 7.0.9-7.0.9~ubuntu22.04.1} date Sun Dec 10 02:07:27 2023
; FORMAT={2:4/ absolute / inch / suppress leading zeros}
; #@! TF.CreationDate,2023-12-10T02:07:27+00:00
; #@! TF.GenerationSoftware,Kicad,Pcbnew,7.0.9-7.0.9~ubuntu22.04.1
; #@! TF.FileFunction,MixedPlating,1,2
FMAT,2
INCH,TZ
; #@! TA.AperFunction,Plated,PTH,ViaDrill
T1C0.0118
; #@! TA.AperFunction,Plated,PTH,ViaDrill
T2C0.0157
; #@! TA.AperFunction,Plated,PTH,ComponentDrill
T3C0.0197
; #@! TA.AperFunction,Plated,PTH,ComponentDrill
T4C0.0394
; #@! TA.AperFunction,Plated,PTH,ComponentDrill
T5C0.0512
; #@! TA.AperFunction,Plated,PTH,ComponentDrill
T6C0.0610
; #@! TA.AperFunction,Plated,PTH,ComponentDrill
T7C0.1260
; #@! TA.AperFunction,NonPlated,NPTH,ComponentDrill
T8C0.1260
; #@! TA.AperFunction,NonPlated,NPTH,ComponentDrill
T9C0.1299
%
G90
G05
T1
X945Y4409
X1260Y27598
X1299Y58780
X1417Y18465
X1457Y50945
X1654Y10748
X5512Y63780
X5512Y1417
X7362Y56378
X9449Y3110
X10118Y11417
X10591Y40039
X11299Y5866
X11339Y15315
X11457Y30079
X11535Y20315
X12362Y48150
X12598Y1024
X12913Y24606
X14094Y56260
X14961Y18898
X15000Y12205
X15945Y35236
X17283Y63504
X17362Y6457
X17520Y44961
X18189Y52992
X18543Y40748
X19921Y4843
X20236Y31220
X20945Y33228
X20945Y22126
X21299Y32205
X21969Y15945
X22087Y10197
X23031Y34449
X23228Y1260
X23661Y29173
X23819Y24213
X23898Y43268
X24173Y48268
X24449Y55669
X26850Y31575
X27126Y1890
X27165Y21142
X27205Y14567
X27244Y43465
X27244Y39803
X27283Y46299
X27362Y18701
X27402Y36772
X28268Y3661
X28346Y63543
X28583Y10472
X28661Y48583
X29764Y26260
X29823Y18784
X29843Y20118
X30157Y30197
X30197Y41260
X30276Y38150
X30276Y32244
X30669Y47598
X30748Y28031
X30866Y27126
X30984Y7165
X31535Y23346
X31732Y9134
X31811Y14921
X32165Y5315
X32402Y55276
X32402Y7205
X33189Y6457
X33268Y8661
X33307Y30000
X33386Y24449
X33425Y43150
X33583Y3622
X33740Y18622
X33780Y57323
X33780Y46890
X33780Y34370
X33780Y26496
X33819Y39764
X33898Y12323
X33937Y22598
X33976Y20157
X34173Y54252
X34173Y31260
X34252Y56575
X34256Y9256
X34370Y55000
X34449Y33071
X34449Y32087
X34699Y54252
X34705Y31220
X34764Y57921
X34764Y34921
X34764Y12921
X34764Y9260
X35079Y7165
X35118Y43740
X35118Y43228
X35118Y42717
X35236Y9921
X35250Y56640
X35250Y33640
X35250Y11640
X35256Y54260
X35256Y31260
X35256Y9260
X35315Y41457
X35394Y22953
X35394Y50677
X35394Y27677
X35394Y5677
X35426Y60283
X35426Y37283
X35426Y15283
X35433Y50157
X35472Y15945
X35512Y54882
X35512Y37992
X35551Y18662
X35591Y4134
X35630Y24646
X35787Y50677
X35787Y27677
X35787Y5677
X35819Y60283
X35819Y37283
X35819Y15283
X35866Y31890
X35945Y26063
X36102Y23701
X36181Y50677
X36181Y27677
X36181Y5677
X36213Y60283
X36213Y37283
X36213Y15283
X36339Y32756
X36535Y55709
X36574Y50677
X36574Y27677
X36574Y5677
X36575Y46811
X36606Y60283
X36606Y37283
X36606Y15283
X36850Y39606
X36850Y551
X36929Y7165
X36969Y52323
X36969Y35669
X37127Y44682
X37165Y10787
X37284Y45072
X37323Y60354
X37402Y29764
X37441Y45456
X37480Y58189
X37520Y27283
X37559Y36772
X37559Y22047
X37559Y14646
X37598Y41063
X37598Y13307
X37599Y43346
X37638Y37677
X37638Y17835
X37756Y24843
X37874Y48307
X37874Y45866
X37992Y52283
X38031Y46693
X38031Y7165
X38071Y35827
X38071Y2638
X38228Y44173
X38268Y27244
X38307Y15669
X38307Y5236
X38386Y50236
X38386Y21378
X38394Y50677
X38394Y27677
X38394Y5677
X38425Y60748
X38425Y41811
X38426Y60283
X38426Y37283
X38426Y15283
X38543Y41063
X38583Y25394
X38583Y23189
X38780Y55748
X38787Y50677
X38787Y27677
X38787Y5677
X38819Y60283
X38819Y37283
X38819Y15283
X38898Y3425
X38902Y44413
X39181Y50677
X39181Y27677
X39181Y5677
X39213Y60283
X39213Y37283
X39213Y15283
X39331Y38780
X39449Y43858
X39574Y50677
X39574Y27677
X39574Y5677
X39606Y60283
X39606Y37283
X39606Y15283
X39764Y45039
X39803Y29606
X39843Y23150
X39882Y59488
X39882Y6417
X39911Y19423
X39921Y40630
X40000Y13583
X40079Y7520
X40118Y57323
X40118Y21890
X40157Y52598
X40276Y17046
X40315Y42795
X40315Y32717
X40354Y58307
X40433Y1654
X40459Y30650
X40476Y53650
X40479Y8655
X40512Y41575
X40512Y34370
X40512Y31890
X40512Y9921
X40551Y54921
X40551Y29528
X40748Y55748
X40787Y26457
X40906Y38898
X40984Y40709
X41024Y10748
X41063Y8228
X41102Y23622
X41142Y12913
X41181Y7717
X41220Y49567
X41220Y23150
X41220Y19449
X41339Y20748
X41339Y16929
X41378Y34803
X41417Y54882
X41457Y17677
X41535Y56890
X41535Y9843
X41614Y55709
X41693Y47047
X41693Y38307
X41693Y23858
X41850Y57283
X41890Y42913
X41890Y34331
X41890Y24449
X41929Y12323
X42087Y16969
X42126Y31850
X42205Y54764
X42244Y57953
X42244Y12953
X42480Y32598
X42598Y43858
X42677Y55591
X42677Y44921
X42756Y42559
X42795Y4134
X42835Y41732
X42953Y26654
X42992Y56693
X43346Y19291
X43504Y18583
X43504Y1339
X43661Y40433
X43898Y48150
X43976Y25669
X43976Y21850
X44134Y45748
X44173Y43898
X44252Y40039
X44291Y42717
X44331Y41732
X44449Y41102
X44488Y46575
X44567Y25567
X44685Y24252
X44724Y49449
X44764Y45378
X44764Y41378
X44882Y38740
X45197Y10669
X45236Y43937
X45354Y55394
X45354Y32638
X45394Y17874
X45394Y1693
X45512Y18858
X45551Y3701
X46142Y41969
X46260Y44606
X46260Y42717
X46260Y22756
X46299Y20236
X46378Y49646
X46417Y40236
X46496Y45748
X46535Y48189
X46693Y22283
X47087Y23701
X47441Y48780
X47441Y26732
X47480Y20079
X47559Y54528
X47559Y32480
X47598Y56457
X47598Y9646
X47598Y3228
X47953Y38425
X48228Y49646
X48425Y60952
X48425Y60559
X48425Y60165
X48425Y59772
X48425Y59378
X48425Y58985
X48425Y58591
X48425Y52369
X48425Y51976
X48425Y51582
X48425Y51189
X48425Y50795
X48425Y50402
X48425Y50008
X48425Y37952
X48425Y37559
X48425Y37165
X48425Y36772
X48425Y36378
X48425Y35985
X48425Y35591
X48425Y29369
X48425Y28976
X48425Y28582
X48425Y28189
X48425Y27795
X48425Y27402
X48425Y27008
X48425Y15952
X48425Y15559
X48425Y15165
X48425Y14772
X48425Y14378
X48425Y13985
X48425Y13591
X48425Y7369
X48425Y6976
X48425Y6582
X48425Y6189
X48425Y5795
X48425Y5402
X48425Y5008
X48431Y58198
X48431Y52763
X48431Y35198
X48431Y29763
X48431Y13198
X48431Y7763
X48460Y30674
X48465Y64134
X48474Y8650
X48475Y53651
X48543Y54764
X48583Y57362
X48583Y9803
X48661Y4567
X48780Y8189
X48819Y41260
X48819Y40512
X48858Y26063
X48858Y12953
X48937Y55236
X48937Y10276
X48976Y48661
X49016Y42047
X49016Y32323
X49094Y46575
X49173Y39646
X49331Y1260
X49409Y23583
X49449Y53504
X49488Y17362
X49606Y25354
X49685Y34291
X49724Y54764
X49764Y38386
X49764Y21850
X49803Y40630
X49882Y4606
X49961Y8504
X50079Y11614
X50118Y41256
X50354Y43780
X50394Y40945
X50394Y20669
X50709Y59094
X50827Y30118
X50866Y38386
X50906Y23150
X50906Y8228
X51024Y19055
X51063Y63031
X51535Y34291
X51614Y46378
X52165Y42323
X52402Y11024
X52992Y62165
X53189Y32677
X53268Y41969
X53465Y25906
X53543Y22205
X53543Y17047
X53701Y10748
X53740Y12913
X53780Y15276
X53819Y64370
X53819Y8701
X53858Y30039
X53898Y39016
X54094Y1260
X54134Y7047
X54134Y4685
X54252Y62992
X54331Y62441
X54370Y61890
X54961Y52913
X55039Y54331
X55039Y50079
X55118Y60039
X55118Y55748
X55118Y51496
X55157Y58583
X55236Y62913
X55236Y57205
X56220Y60039
X56220Y52874
X56220Y51496
X56220Y32205
X56260Y58583
X56260Y57165
X56260Y55748
X56260Y54331
X56260Y50079
X56496Y35709
X56772Y64094
X56772Y12047
X56811Y17165
X56850Y38425
X56850Y28110
X57008Y33583
X57008Y9567
X57087Y25472
X57126Y63386
X57126Y21693
X57205Y32362
X57677Y7165
X57677Y5039
X57835Y63898
X58031Y591
X58189Y44252
X58425Y61575
X59016Y64016
X59370Y20472
X59488Y18898
X59567Y61732
X59567Y48543
X59843Y9567
X59882Y62559
X60236Y39094
X60236Y31063
X60295Y62579
X60315Y34921
X60354Y27795
X60354Y24843
X60394Y7087
X60394Y2953
X60472Y14764
X60512Y16024
X60630Y5433
X60669Y16535
X60748Y12598
X60984Y45708
X61102Y62205
X61142Y19961
X61142Y18819
X61221Y43504
X61405Y19725
X61457Y45472
X61578Y18543
X61694Y43228
X61929Y45236
X62050Y18307
X62165Y56693
X62166Y42992
X62283Y29016
X62402Y58465
X62402Y45000
X62559Y18071
X62559Y630
X62598Y18780
X62638Y42756
X62756Y52913
X62795Y54528
X62795Y53622
X62830Y18543
X62835Y56102
X62835Y49567
X62835Y11024
X62835Y9449
X62868Y19016
X62874Y44764
X63067Y17834
X63110Y19252
X63110Y42519
X63268Y63425
X63268Y62677
X63268Y61654
X63268Y60906
X63303Y17362
X63346Y44527
X63346Y19488
X63425Y3465
X63603Y42283
X63622Y44291
X63622Y5512
X63661Y17362
X63976Y44055
X64055Y31024
X64134Y57874
X64803Y57992
X64921Y8622
X64960Y59409
X65197Y27362
X65197Y26772
X65197Y5512
X65197Y4764
X65315Y60197
X65512Y57717
X65669Y6693
X65669Y3543
X65709Y47323
X65709Y28543
X65709Y25551
X65787Y58346
X65984Y59449
X66102Y5551
X66142Y4764
X66220Y27362
X66220Y26772
X66378Y10079
X66417Y63425
X66417Y62677
X66457Y61654
X66457Y60906
X66496Y31024
X66535Y57953
X66535Y23465
X66535Y22402
X66575Y32126
X66772Y2126
X66890Y49134
X67205Y44370
X67638Y6772
X67795Y46969
X67913Y57953
X68110Y61220
X68307Y64370
X68307Y669
X68622Y50118
X68780Y58583
X68976Y60354
X69016Y47795
X69646Y7047
X69724Y9409
X69724Y3661
X70512Y18110
X70709Y12677
X70748Y37362
X70945Y56299
X71024Y5591
X71063Y50591
X71181Y42874
X71457Y61181
T2
X65197Y24764
T3
X433Y63583
X433Y32480
X433Y1378
X710Y64251
X710Y62915
X710Y33148
X710Y31812
X710Y2046
X710Y710
X1378Y64528
X1378Y62638
X1378Y33425
X1378Y31535
X1378Y2323
X1378Y433
X2046Y64251
X2046Y62915
X2046Y33148
X2046Y31812
X2046Y2046
X2046Y710
X2323Y63583
X2323Y32480
X2323Y1378
X30945Y1378
X31142Y63583
X31142Y32480
X31222Y2046
X31222Y710
X31418Y64251
X31418Y62915
X31418Y33148
X31418Y31812
X31890Y2323
X31890Y433
X32087Y64528
X32087Y62638
X32087Y33425
X32087Y31535
X32558Y2046
X32558Y710
X32755Y64251
X32755Y62915
X32755Y33148
X32755Y31812
X32835Y1378
X33031Y63583
X33031Y32480
X69494Y63583
X69494Y1378
X69771Y64251
X69771Y62915
X69771Y2046
X69771Y710
X70439Y64528
X70439Y62638
X70439Y2323
X70439Y433
X71107Y64251
X71107Y62915
X71107Y2046
X71107Y710
X71384Y63583
X71384Y1378
T4
X4232Y47717
X4232Y46717
X4232Y45717
X4232Y44717
X4232Y43717
X4232Y42717
X4232Y41717
X4232Y40717
X4232Y39717
X4232Y38717
X4232Y37717
X4232Y36717
X4232Y35717
X4232Y34717
X4232Y33717
X4232Y32717
X4232Y31717
X4232Y30717
X4232Y29717
X4232Y28717
X4232Y27717
X4232Y26717
X4232Y25717
X4232Y24717
X4232Y23717
X4232Y22717
X4232Y21717
X4232Y20717
X4232Y19717
X4232Y18717
X4232Y17717
X4232Y16717
X4232Y15717
X4232Y14717
X4232Y13717
X4232Y12717
X5232Y47717
X5232Y46717
X5232Y45717
X5232Y44717
X5232Y43717
X5232Y42717
X5232Y41717
X5232Y40717
X5232Y39717
X5232Y38717
X5232Y37717
X5232Y36717
X5232Y35717
X5232Y34717
X5232Y33717
X5232Y32717
X5232Y31717
X5232Y30717
X5232Y29717
X5232Y28717
X5232Y27717
X5232Y26717
X5232Y25717
X5232Y24717
X5232Y23717
X5232Y22717
X5232Y21717
X5232Y20717
X5232Y19717
X5232Y18717
X5232Y17717
X5232Y16717
X5232Y15717
X5232Y14717
X5232Y13717
X5232Y12717
X7232Y43717
X7232Y42717
X7232Y41717
X7232Y40717
X7232Y39717
X7232Y38717
X7232Y37717
X7232Y36717
X7232Y34717
X7232Y33717
X7232Y32717
X7232Y31717
X7232Y30717
X7232Y29717
X7232Y28717
X7232Y27717
X7232Y26717
X7232Y25717
X7232Y24717
X7232Y23717
X7232Y22717
X7232Y21717
X7232Y20717
X8232Y43717
X8232Y42717
X8232Y41717
X8232Y40717
X8232Y39717
X8232Y38717
X8232Y37717
X8232Y36717
X8232Y34717
X8232Y33717
X8232Y32717
X8232Y31717
X8232Y30717
X8232Y29717
X8232Y28717
X8232Y27717
X8232Y26717
X8232Y25717
X8232Y24717
X8232Y23717
X8232Y22717
X8232Y21717
X8232Y20717
X25232Y47317
X25232Y46317
X25232Y45317
X25232Y44317
X25232Y43317
X25232Y42317
X25232Y41317
X25232Y40317
X25232Y39317
X25232Y38317
X25232Y36717
X25232Y35717
X25232Y34717
X25232Y33717
X25232Y32717
X25232Y31717
X25232Y30717
X25232Y29717
X25232Y28717
X25232Y27717
X25232Y26717
X25232Y25717
X25232Y24717
X25232Y23717
X25232Y22717
X25232Y21717
X25232Y20717
X26232Y47317
X26232Y46317
X26232Y45317
X26232Y44317
X26232Y43317
X26232Y42317
X26232Y41317
X26232Y40317
X26232Y39317
X26232Y38317
X26232Y36717
X26232Y35717
X26232Y34717
X26232Y33717
X26232Y32717
X26232Y31717
X26232Y30717
X26232Y29717
X26232Y28717
X26232Y27717
X26232Y26717
X26232Y25717
X26232Y24717
X26232Y23717
X26232Y22717
X26232Y21717
X26232Y20717
X28232Y47709
X28232Y46709
X28232Y45709
X28232Y44709
X28232Y43709
X28232Y42709
X28232Y41709
X28232Y40709
X28232Y39709
X28232Y38709
X28232Y37709
X28232Y36709
X28232Y35709
X28232Y34709
X28232Y33709
X28232Y32709
X28232Y31709
X28232Y30709
X28232Y29709
X28232Y28709
X28232Y27709
X28232Y26709
X28232Y25709
X28232Y24709
X28232Y23709
X28232Y22709
X28232Y21709
X28232Y20709
X28232Y19709
X28232Y18709
X28232Y17709
X28232Y16709
X28232Y15709
X28232Y14709
X28232Y13709
X28232Y12709
X29232Y47709
X29232Y46709
X29232Y45709
X29232Y44709
X29232Y43709
X29232Y42709
X29232Y41709
X29232Y40709
X29232Y39709
X29232Y38709
X29232Y37709
X29232Y36709
X29232Y35709
X29232Y34709
X29232Y33709
X29232Y32709
X29232Y31709
X29232Y30709
X29232Y29709
X29232Y28709
X29232Y27709
X29232Y26709
X29232Y25709
X29232Y24709
X29232Y23709
X29232Y22709
X29232Y21709
X29232Y20709
X29232Y19709
X29232Y18709
X29232Y17709
X29232Y16709
X29232Y15709
X29232Y14709
X29232Y13709
X29232Y12709
X61500Y49465
X61500Y48465
X61500Y47465
X61500Y46465
X61500Y36965
X61500Y35965
X61500Y34965
X61500Y33965
X61500Y32965
X61500Y31965
X61500Y30965
X61500Y29965
X61500Y28965
X61516Y9000
X61516Y8000
X61516Y7000
X61516Y6000
T5
X15750Y3215
X17750Y3215
X55482Y47268
X55482Y45268
X55482Y43268
X55482Y41268
X55482Y39268
X55482Y37268
X55482Y35268
X55482Y33268
X55482Y31268
X55482Y29268
X55482Y27268
X55482Y25268
X55482Y23268
X55482Y21268
X55482Y19268
X55482Y17268
X55482Y15268
X55482Y13268
X55482Y11268
X55482Y9268
X55482Y7268
X55482Y5268
X55482Y3268
X55482Y1268
X64764Y56614
X64764Y55433
X64764Y54252
X64764Y53071
X64764Y51890
X64764Y50709
X64764Y49528
X64764Y43819
X64764Y42638
X64764Y41457
X64764Y40276
X64764Y39094
X64764Y37913
X64764Y36732
X64764Y35551
X64764Y34370
X64764Y20787
X64764Y19606
X64764Y18425
X64764Y17244
X64764Y16063
X64764Y14882
X64764Y13701
X64764Y12520
X64764Y11339
X65748Y56024
X65748Y54843
X65748Y53661
X65748Y52480
X65748Y51299
X65748Y50118
X65748Y43228
X65748Y42047
X65748Y40866
X65748Y39685
X65748Y38504
X65748Y37323
X65748Y36142
X65748Y34961
X65748Y20197
X65748Y19016
X65748Y17835
X65748Y16654
X65748Y15472
X65748Y14291
X65748Y13110
X65748Y11929
X66929Y56024
X66929Y54843
X66929Y53661
X66929Y52480
X66929Y51299
X66929Y50118
X66929Y43228
X66929Y42047
X66929Y40866
X66929Y39685
X66929Y38504
X66929Y37323
X66929Y36142
X66929Y34961
X66929Y20197
X66929Y19016
X66929Y17835
X66929Y16654
X66929Y15472
X66929Y14291
X66929Y13110
X66929Y11929
X67913Y56614
X67913Y55433
X67913Y54252
X67913Y53071
X67913Y51890
X67913Y50709
X67913Y49528
X67913Y43819
X67913Y42638
X67913Y41457
X67913Y40276
X67913Y39094
X67913Y37913
X67913Y36732
X67913Y35551
X67913Y34370
X67913Y20787
X67913Y19606
X67913Y18425
X67913Y17244
X67913Y16063
X67913Y14882
X67913Y13701
X67913Y12520
X67913Y11339
T6
X47866Y1268
T7
X1378Y63583
X1378Y32480
X1378Y1378
X31890Y1378
X32087Y63583
X32087Y32480
X70439Y63583
X70439Y1378
T8
X7232Y49217
X7732Y19217
X20232Y28717
X25732Y19217
X26232Y48717
T9
X70472Y59469
X70472Y46673
X70472Y31516
X70472Y23642
X70472Y8484
T0
M30
