G75*
G70*
%OFA0B0*%
%FSLAX25Y25*%
%IPPOS*%
%LPD*%
%AMOC8*
5,1,8,0,0,1.08239X$1,22.5*
%
%ADD10C,0.03150*%
%ADD11C,0.25197*%
%ADD12R,0.07677X0.07677*%
%ADD13C,0.07677*%
%ADD14R,0.06693X0.06693*%
%ADD15O,0.06693X0.06693*%
%ADD16R,0.10236X0.10236*%
%ADD17C,0.10236*%
%ADD20C,0.06693*%
%ADD23C,0.07874*%
%ADD29C,0.12992*%
%ADD30C,0.12598*%
X0000000Y0000000D02*
%LPD*%
G01*
D10*
X0309449Y0013780D03*
X0312216Y0020461D03*
X0312216Y0007098D03*
X0318898Y0023228D03*
D11*
X0318898Y0013780D03*
D10*
X0318898Y0004331D03*
X0325579Y0020461D03*
X0325579Y0007098D03*
X0328346Y0013780D03*
D29*
X0704724Y0594685D03*
X0704724Y0466732D03*
X0704724Y0315157D03*
D12*
X0647638Y0343701D03*
D13*
X0647638Y0355512D03*
X0647638Y0367323D03*
X0647638Y0379134D03*
X0647638Y0390945D03*
X0647638Y0402756D03*
X0647638Y0414567D03*
X0647638Y0426378D03*
X0647638Y0438189D03*
X0657480Y0349606D03*
X0657480Y0361417D03*
X0657480Y0373228D03*
X0657480Y0385039D03*
X0657480Y0396850D03*
X0657480Y0408661D03*
X0657480Y0420472D03*
X0657480Y0432283D03*
X0669291Y0349606D03*
X0669291Y0361417D03*
X0669291Y0373228D03*
X0669291Y0385039D03*
X0669291Y0396850D03*
X0669291Y0408661D03*
X0669291Y0420472D03*
X0669291Y0432283D03*
X0679134Y0343701D03*
X0679134Y0355512D03*
X0679134Y0367323D03*
X0679134Y0379134D03*
X0679134Y0390945D03*
X0679134Y0402756D03*
X0679134Y0414567D03*
X0679134Y0426378D03*
X0679134Y0438189D03*
X0647638Y0495276D03*
X0647638Y0507087D03*
X0647638Y0518898D03*
X0647638Y0530709D03*
X0647638Y0542520D03*
X0647638Y0554331D03*
X0647638Y0566142D03*
X0657480Y0501181D03*
X0657480Y0512992D03*
X0657480Y0524803D03*
X0657480Y0536614D03*
X0657480Y0548425D03*
X0657480Y0560236D03*
X0669291Y0501181D03*
X0669291Y0512992D03*
X0669291Y0524803D03*
X0669291Y0536614D03*
X0669291Y0548425D03*
X0669291Y0560236D03*
X0679134Y0495276D03*
X0679134Y0507087D03*
X0679134Y0518898D03*
X0679134Y0530709D03*
X0679134Y0542520D03*
X0679134Y0554331D03*
X0679134Y0566142D03*
D14*
X0252323Y0473165D03*
D15*
X0262323Y0473165D03*
X0252323Y0463165D03*
X0262323Y0463165D03*
X0252323Y0453165D03*
X0262323Y0453165D03*
X0252323Y0443165D03*
X0262323Y0443165D03*
X0252323Y0433165D03*
X0262323Y0433165D03*
X0252323Y0423165D03*
X0262323Y0423165D03*
X0252323Y0413165D03*
X0262323Y0413165D03*
X0252323Y0403165D03*
X0262323Y0403165D03*
X0252323Y0393165D03*
X0262323Y0393165D03*
X0252323Y0383165D03*
X0262323Y0383165D03*
D14*
X0042323Y0357165D03*
D15*
X0052323Y0357165D03*
X0042323Y0347165D03*
X0052323Y0347165D03*
X0042323Y0337165D03*
X0052323Y0337165D03*
X0042323Y0327165D03*
X0052323Y0327165D03*
X0042323Y0317165D03*
X0052323Y0317165D03*
X0042323Y0307165D03*
X0052323Y0307165D03*
X0042323Y0297165D03*
X0052323Y0297165D03*
X0042323Y0287165D03*
X0052323Y0287165D03*
X0042323Y0277165D03*
X0052323Y0277165D03*
X0042323Y0267165D03*
X0052323Y0267165D03*
X0042323Y0257165D03*
X0052323Y0257165D03*
X0042323Y0247165D03*
X0052323Y0247165D03*
X0042323Y0237165D03*
X0052323Y0237165D03*
X0042323Y0227165D03*
X0052323Y0227165D03*
X0042323Y0217165D03*
X0052323Y0217165D03*
X0042323Y0207165D03*
X0052323Y0207165D03*
X0042323Y0197165D03*
X0052323Y0197165D03*
X0042323Y0187165D03*
X0052323Y0187165D03*
X0042323Y0177165D03*
X0052323Y0177165D03*
X0042323Y0167165D03*
X0052323Y0167165D03*
X0042323Y0157165D03*
X0052323Y0157165D03*
X0042323Y0147165D03*
X0052323Y0147165D03*
X0042323Y0137165D03*
X0052323Y0137165D03*
X0042323Y0127165D03*
X0052323Y0127165D03*
D16*
X0554823Y0252677D03*
D17*
X0554823Y0272677D03*
X0554823Y0292677D03*
X0554823Y0312677D03*
D30*
X0262323Y0487165D03*
D16*
X0157500Y0032146D03*
D17*
X0177500Y0032146D03*
D20*
X0615000Y0494646D03*
X0615000Y0359646D03*
D14*
X0072323Y0347165D03*
D15*
X0082323Y0347165D03*
X0072323Y0337165D03*
X0082323Y0337165D03*
X0072323Y0327165D03*
X0082323Y0327165D03*
X0072323Y0317165D03*
X0082323Y0317165D03*
X0072323Y0307165D03*
X0082323Y0307165D03*
X0072323Y0297165D03*
X0082323Y0297165D03*
X0072323Y0287165D03*
X0082323Y0287165D03*
X0072323Y0277165D03*
X0082323Y0277165D03*
X0072323Y0267165D03*
X0082323Y0267165D03*
X0072323Y0257165D03*
X0082323Y0257165D03*
X0072323Y0247165D03*
X0082323Y0247165D03*
X0072323Y0237165D03*
X0082323Y0237165D03*
X0072323Y0227165D03*
X0082323Y0227165D03*
X0072323Y0217165D03*
X0082323Y0217165D03*
X0072323Y0207165D03*
X0082323Y0207165D03*
D20*
X0615000Y0319646D03*
X0615000Y0299646D03*
D14*
X0282323Y0317087D03*
D15*
X0292323Y0317087D03*
X0282323Y0307087D03*
X0292323Y0307087D03*
X0282323Y0297087D03*
X0292323Y0297087D03*
X0282323Y0287087D03*
X0292323Y0287087D03*
X0282323Y0277087D03*
X0292323Y0277087D03*
X0282323Y0267087D03*
X0292323Y0267087D03*
X0282323Y0257087D03*
X0292323Y0257087D03*
X0282323Y0247087D03*
X0292323Y0247087D03*
X0282323Y0237087D03*
X0292323Y0237087D03*
X0282323Y0227087D03*
X0292323Y0227087D03*
X0282323Y0217087D03*
X0292323Y0217087D03*
X0282323Y0207087D03*
X0292323Y0207087D03*
X0282323Y0197087D03*
X0292323Y0197087D03*
X0282323Y0187087D03*
X0292323Y0187087D03*
X0282323Y0177087D03*
X0292323Y0177087D03*
X0282323Y0167087D03*
X0292323Y0167087D03*
D30*
X0257323Y0192165D03*
D10*
X0311417Y0324803D03*
X0314185Y0331484D03*
X0314185Y0318122D03*
X0320866Y0334252D03*
D11*
X0320866Y0324803D03*
D10*
X0320866Y0315354D03*
X0327547Y0331484D03*
X0327547Y0318122D03*
X0330315Y0324803D03*
D14*
X0072323Y0437165D03*
D15*
X0082323Y0437165D03*
X0072323Y0427165D03*
X0082323Y0427165D03*
X0072323Y0417165D03*
X0082323Y0417165D03*
X0072323Y0407165D03*
X0082323Y0407165D03*
X0072323Y0397165D03*
X0082323Y0397165D03*
X0072323Y0387165D03*
X0082323Y0387165D03*
X0072323Y0377165D03*
X0082323Y0377165D03*
X0072323Y0367165D03*
X0082323Y0367165D03*
D16*
X0554823Y0332677D03*
D17*
X0554823Y0352677D03*
X0554823Y0372677D03*
X0554823Y0392677D03*
D16*
X0554823Y0412677D03*
D17*
X0554823Y0432677D03*
X0554823Y0452677D03*
X0554823Y0472677D03*
D16*
X0554823Y0012677D03*
D17*
X0554823Y0032677D03*
X0554823Y0052677D03*
X0554823Y0072677D03*
X0554823Y0092677D03*
X0554823Y0112677D03*
X0554823Y0132677D03*
X0554823Y0152677D03*
D10*
X0694938Y0013780D03*
X0697705Y0020461D03*
X0697705Y0007098D03*
X0704387Y0023228D03*
D11*
X0704387Y0013780D03*
D10*
X0704387Y0004331D03*
X0711068Y0020461D03*
X0711068Y0007098D03*
X0713835Y0013780D03*
D20*
X0615000Y0474646D03*
X0615000Y0289646D03*
D10*
X0694938Y0635827D03*
X0697705Y0642508D03*
X0697705Y0629145D03*
X0704387Y0645276D03*
D11*
X0704387Y0635827D03*
D10*
X0704387Y0626378D03*
X0711068Y0642508D03*
X0711068Y0629145D03*
X0713835Y0635827D03*
D20*
X0615000Y0309646D03*
X0615000Y0349646D03*
X0615157Y0080000D03*
D10*
X0004331Y0635827D03*
X0007098Y0642508D03*
X0007098Y0629145D03*
X0013780Y0645276D03*
D11*
X0013780Y0635827D03*
D10*
X0013780Y0626378D03*
X0020461Y0642508D03*
X0020461Y0629145D03*
X0023228Y0635827D03*
D14*
X0042323Y0407165D03*
D15*
X0052323Y0407165D03*
X0042323Y0397165D03*
X0052323Y0397165D03*
X0042323Y0387165D03*
X0052323Y0387165D03*
X0042323Y0377165D03*
X0052323Y0377165D03*
X0042323Y0367165D03*
X0052323Y0367165D03*
D20*
X0615000Y0369646D03*
X0615157Y0070000D03*
D10*
X0311417Y0635827D03*
X0314185Y0642508D03*
X0314185Y0629145D03*
X0320866Y0645276D03*
D11*
X0320866Y0635827D03*
D10*
X0320866Y0626378D03*
X0327547Y0642508D03*
X0327547Y0629145D03*
X0330315Y0635827D03*
D14*
X0282323Y0477087D03*
D15*
X0292323Y0477087D03*
X0282323Y0467087D03*
X0292323Y0467087D03*
X0282323Y0457087D03*
X0292323Y0457087D03*
X0282323Y0447087D03*
X0292323Y0447087D03*
X0282323Y0437087D03*
X0292323Y0437087D03*
X0282323Y0427087D03*
X0292323Y0427087D03*
X0282323Y0417087D03*
X0292323Y0417087D03*
X0282323Y0407087D03*
X0292323Y0407087D03*
X0282323Y0397087D03*
X0292323Y0397087D03*
X0282323Y0387087D03*
X0292323Y0387087D03*
D30*
X0202323Y0287165D03*
D20*
X0615157Y0060000D03*
G36*
G01*
X0473642Y0008642D02*
X0473642Y0016713D01*
G75*
G02*
X0474626Y0017697I0000984J0000000D01*
G01*
X0482697Y0017697D01*
G75*
G02*
X0483681Y0016713I0000000J-000984D01*
G01*
X0483681Y0008642D01*
G75*
G02*
X0482697Y0007657I-000984J0000000D01*
G01*
X0474626Y0007657D01*
G75*
G02*
X0473642Y0008642I0000000J0000984D01*
G01*
G37*
D14*
X0282323Y0157087D03*
D15*
X0292323Y0157087D03*
X0282323Y0147087D03*
X0292323Y0147087D03*
X0282323Y0137087D03*
X0292323Y0137087D03*
X0282323Y0127087D03*
X0292323Y0127087D03*
D14*
X0252323Y0367165D03*
D15*
X0262323Y0367165D03*
X0252323Y0357165D03*
X0262323Y0357165D03*
X0252323Y0347165D03*
X0262323Y0347165D03*
X0252323Y0337165D03*
X0262323Y0337165D03*
X0252323Y0327165D03*
X0262323Y0327165D03*
X0252323Y0317165D03*
X0262323Y0317165D03*
X0252323Y0307165D03*
X0262323Y0307165D03*
X0252323Y0297165D03*
X0262323Y0297165D03*
X0252323Y0287165D03*
X0262323Y0287165D03*
X0252323Y0277165D03*
X0262323Y0277165D03*
X0252323Y0267165D03*
X0262323Y0267165D03*
X0252323Y0257165D03*
X0262323Y0257165D03*
X0252323Y0247165D03*
X0262323Y0247165D03*
X0252323Y0237165D03*
X0262323Y0237165D03*
X0252323Y0227165D03*
X0262323Y0227165D03*
X0252323Y0217165D03*
X0262323Y0217165D03*
X0252323Y0207165D03*
X0262323Y0207165D03*
D20*
X0615000Y0339646D03*
D14*
X0042323Y0477165D03*
D15*
X0052323Y0477165D03*
X0042323Y0467165D03*
X0052323Y0467165D03*
X0042323Y0457165D03*
X0052323Y0457165D03*
X0042323Y0447165D03*
X0052323Y0447165D03*
X0042323Y0437165D03*
X0052323Y0437165D03*
X0042323Y0427165D03*
X0052323Y0427165D03*
X0042323Y0417165D03*
X0052323Y0417165D03*
D30*
X0077323Y0192165D03*
D20*
X0615157Y0090000D03*
D10*
X0004331Y0013780D03*
X0007098Y0020461D03*
X0007098Y0007098D03*
X0013780Y0023228D03*
D11*
X0013780Y0013780D03*
D10*
X0013780Y0004331D03*
X0020461Y0020461D03*
X0020461Y0007098D03*
X0023228Y0013780D03*
D14*
X0282323Y0377087D03*
D15*
X0292323Y0377087D03*
X0282323Y0367087D03*
X0292323Y0367087D03*
X0282323Y0357087D03*
X0292323Y0357087D03*
X0282323Y0347087D03*
X0292323Y0347087D03*
X0282323Y0337087D03*
X0292323Y0337087D03*
X0282323Y0327087D03*
X0292323Y0327087D03*
D20*
X0615000Y0484646D03*
D10*
X0004331Y0324803D03*
X0007098Y0331484D03*
X0007098Y0318122D03*
X0013780Y0334252D03*
D11*
X0013780Y0324803D03*
D10*
X0013780Y0315354D03*
X0020461Y0331484D03*
X0020461Y0318122D03*
X0023228Y0324803D03*
D20*
X0615000Y0464646D03*
D29*
X0704724Y0084843D03*
X0704724Y0236417D03*
D23*
X0647638Y0113386D03*
X0647638Y0125197D03*
X0647638Y0137008D03*
X0647638Y0148819D03*
X0647638Y0160630D03*
X0647638Y0172441D03*
X0647638Y0184252D03*
X0647638Y0196063D03*
X0647638Y0207874D03*
X0657480Y0119291D03*
X0657480Y0131102D03*
X0657480Y0142913D03*
X0657480Y0154724D03*
X0657480Y0166535D03*
X0657480Y0178346D03*
X0657480Y0190157D03*
X0657480Y0201969D03*
X0669291Y0119291D03*
X0669291Y0131102D03*
X0669291Y0142913D03*
X0669291Y0154724D03*
X0669291Y0166535D03*
X0669291Y0178346D03*
X0669291Y0190157D03*
X0669291Y0201969D03*
X0679134Y0113386D03*
X0679134Y0125197D03*
X0679134Y0137008D03*
X0679134Y0148819D03*
X0679134Y0160630D03*
X0679134Y0172441D03*
X0679134Y0184252D03*
X0679134Y0196063D03*
X0679134Y0207874D03*
D20*
X0615000Y0329646D03*
D16*
X0554823Y0172677D03*
D17*
X0554823Y0192677D03*
X0554823Y0212677D03*
X0554823Y0232677D03*
D30*
X0072323Y0492165D03*
M02*
