M48
; DRILL file {KiCad (5.99.0-10483-ga6ad7a4a70)} date Sun Jul 25 01:23:21 2021
; FORMAT={-:-/ absolute / metric / decimal}
; #@! TF.CreationDate,2021-07-25T01:23:21+03:00
; #@! TF.GenerationSoftware,Kicad,Pcbnew,(5.99.0-10483-ga6ad7a4a70)
; #@! TF.FileFunction,Plated,1,2,PTH
FMAT,2
METRIC
; #@! TA.AperFunction,Plated,PTH,ViaDrill
T1C0.300
; #@! TA.AperFunction,Plated,PTH,ComponentDrill
T2C0.500
; #@! TA.AperFunction,Plated,PTH,ComponentDrill
T3C1.020
; #@! TA.AperFunction,Plated,PTH,ComponentDrill
T4C1.300
; #@! TA.AperFunction,Plated,PTH,ComponentDrill
T5C1.550
; #@! TA.AperFunction,Plated,PTH,ComponentDrill
T6C3.200
%
G90
G05
T1
X129.4Y-200.8
X130.2Y-141.9
X130.3Y-62.7
X130.6Y-165.1
X130.7Y-82.6
X131.2Y-184.7
X141.0Y-50.0
X141.0Y-208.4
X145.7Y-68.8
X151.0Y-204.1
X152.7Y-183.0
X153.9Y-110.3
X155.7Y-197.1
X155.8Y-173.1
X156.1Y-135.6
X156.3Y-160.4
X158.4Y-90.5
X159.0Y-209.4
X159.8Y-149.5
X162.8Y-69.1
X165.0Y-164.0
X165.1Y-181.0
X167.5Y-122.5
X170.9Y-50.7
X171.1Y-195.6
X171.5Y-97.8
X173.2Y-77.4
X174.1Y-108.5
X177.6Y-199.7
X180.2Y-155.8
X182.8Y-171.5
X183.1Y-186.1
X184.6Y-89.1
X185.5Y-124.5
X186.0Y-208.8
X187.7Y-102.1
X189.1Y-70.6
X195.9Y-207.2
X196.1Y-144.5
X196.1Y-175.0
X196.2Y-101.6
X196.2Y-110.9
X196.2Y-164.8
X196.3Y-94.4
X196.3Y-132.5
X196.3Y-153.1
X196.6Y-118.6
X198.8Y-202.7
X199.0Y-50.6
X199.6Y-185.4
X199.8Y-88.6
X202.8Y-160.9
X202.8Y-164.2
X203.6Y-135.3
X203.7Y-107.2
X203.9Y-115.1
X203.9Y-130.1
X204.9Y-91.1
X205.1Y-140.8
X205.4Y-143.1
X205.7Y-193.8
X207.1Y-152.7
X207.6Y-188.8
X207.8Y-174.1
X208.7Y-71.3
X208.7Y-198.5
X209.3Y-193.7
X210.7Y-59.1
X211.3Y-195.6
X211.5Y-190.0
X211.6Y-135.8
X211.8Y-149.9
X211.9Y-102.4
X212.3Y-202.8
X212.7Y-164.7
X212.8Y-92.9
X212.8Y-124.7
X212.8Y-144.7
X212.9Y-111.0
X213.1Y-180.7
X213.2Y-154.6
X213.3Y-160.8
X213.8Y-74.2
X213.8Y-132.6
X214.0Y-68.3
X214.01Y-188.49
X214.3Y-72.3
X214.5Y-128.0
X214.5Y-130.5
X215.136Y-74.2
X215.151Y-132.7
X215.3Y-64.88
X215.3Y-123.3
X215.3Y-179.18
X215.3Y-188.48
X216.1Y-193.8
X216.2Y-100.9
X216.2Y-102.2
X216.2Y-103.5
X216.5Y-186.8
X216.535Y-68.135
X216.535Y-126.555
X216.535Y-182.435
X216.55Y-74.18
X216.55Y-132.6
X216.55Y-188.48
X216.7Y-106.7
X216.9Y-153.7
X216.9Y-83.28
X216.9Y-141.7
X216.9Y-197.58
X216.981Y-58.88
X216.981Y-117.3
X216.981Y-173.18
X217.0Y-84.6
X217.1Y-171.5
X217.2Y-72.6
X217.2Y-115.5
X217.3Y-164.0
X217.4Y-201.5
X217.5Y-149.4
X217.9Y-83.28
X217.9Y-141.7
X217.9Y-197.58
X217.98Y-58.88
X217.98Y-117.3
X217.98Y-173.18
X218.1Y-131.0
X218.3Y-145.8
X218.8Y-158.2
X218.9Y-83.28
X218.9Y-141.7
X218.9Y-197.58
X218.98Y-58.88
X218.98Y-117.3
X218.98Y-173.18
X219.3Y-128.8
X219.8Y-70.5
X219.899Y-83.28
X219.899Y-141.7
X219.899Y-197.58
X219.9Y-93.1
X219.98Y-58.88
X219.98Y-117.3
X219.98Y-173.18
X220.2Y-154.2
X220.4Y-50.9
X220.6Y-111.4
X220.6Y-149.2
X220.6Y-210.6
X220.8Y-193.8
X220.9Y-79.1
X220.9Y-121.4
X221.302Y-98.507
X221.4Y-184.6
X221.7Y-159.4
X221.701Y-97.516
X221.8Y-58.7
X222.0Y-136.4
X222.101Y-96.543
X222.2Y-64.2
X222.3Y-142.7
X222.3Y-154.3
X222.4Y-118.6
X222.4Y-174.8
X222.5Y-107.7
X222.5Y-178.2
X222.5Y-101.9
X222.6Y-116.3
X222.6Y-166.7
X222.7Y-156.5
X222.7Y-160.5
X223.2Y-89.3
X223.2Y-95.5
X223.5Y-79.2
X223.6Y-93.4
X223.6Y-193.8
X223.7Y-121.0
X223.7Y-205.3
X224.1Y-99.8
X224.1Y-153.9
X224.2Y-142.8
X224.3Y-172.2
X224.3Y-198.7
X224.4Y-152.2
X224.5Y-84.4
X224.52Y-83.28
X224.52Y-141.7
X224.52Y-197.58
X224.6Y-57.7
X224.6Y-105.8
X224.601Y-58.88
X224.601Y-117.3
X224.601Y-173.18
X224.8Y-148.4
X224.9Y-107.7
X225.5Y-70.4
X225.52Y-83.28
X225.52Y-141.7
X225.52Y-197.58
X225.6Y-58.88
X225.6Y-117.3
X225.6Y-173.18
X225.8Y-203.3
X225.81Y-99.19
X226.52Y-83.28
X226.52Y-141.7
X226.52Y-197.58
X226.6Y-58.88
X226.6Y-117.3
X226.6Y-173.18
X226.9Y-113.5
X227.2Y-100.6
X227.519Y-83.28
X227.519Y-141.7
X227.519Y-197.58
X227.6Y-58.88
X227.6Y-117.3
X227.6Y-173.18
X228.0Y-97.6
X228.1Y-136.8
X228.3Y-60.9
X228.3Y-195.7
X228.4Y-108.8
X228.6Y-150.2
X228.6Y-177.5
X228.8Y-192.9
X228.9Y-66.4
X228.9Y-154.1
X229.0Y-78.4
X229.1Y-157.1
X229.1Y-163.5
X229.4Y-103.3
X229.4Y-128.9
X229.5Y-63.9
X229.6Y-168.8
X229.7Y-207.8
X229.765Y-134.15
X229.81Y-75.73
X229.817Y-190.017
X229.9Y-106.4
X229.9Y-124.7
X229.9Y-131.0
X229.9Y-161.8
X229.9Y-186.8
X230.0Y-72.5
X230.0Y-137.0
X230.5Y-70.4
X230.6Y-144.8
X230.9Y-113.2
X231.1Y-108.6
X231.2Y-160.4
X231.2Y-184.7
X231.3Y-191.1
X231.5Y-179.2
X231.6Y-192.4
X231.7Y-86.1
X231.7Y-154.1
X232.0Y-169.0
X232.1Y-123.6
X232.2Y-72.6
X232.206Y-158.245
X232.3Y-167.1
X232.5Y-67.5
X232.5Y-156.1
X232.5Y-187.0
X232.7Y-70.5
X232.9Y-92.5
X232.9Y-114.7
X232.905Y-160.295
X233.3Y-66.5
X233.4Y-103.0
X233.4Y-124.8
X233.5Y-180.7
X233.8Y-150.0
X233.9Y-168.9
X234.0Y-131.1
X234.2Y-72.9
X234.3Y-64.8
X234.3Y-179.1
X234.5Y-156.8
X234.9Y-129.2
X235.2Y-100.6
X235.3Y-156.8
X235.4Y-70.8
X235.4Y-97.9
X235.6Y-103.9
X235.7Y-201.5
X235.8Y-106.0
X236.1Y-144.3
X236.2Y-51.0
X236.2Y-68.0
X237.1Y-150.2
X237.5Y-208.6
X237.9Y-109.3
X238.0Y-157.4
X238.5Y-89.7
X238.5Y-154.2
X239.1Y-95.8
X239.2Y-100.5
X239.4Y-110.3
X239.4Y-146.9
X239.5Y-103.5
X239.6Y-106.0
X239.9Y-107.6
X240.0Y-93.7
X240.6Y-86.4
X240.7Y-96.74
X240.7Y-106.9
X241.0Y-113.6
X241.8Y-184.9
X241.9Y-100.4
X241.9Y-157.1
X241.9Y-161.1
X242.2Y-71.3
X242.2Y-129.1
X242.3Y-166.6
X242.3Y-207.7
X242.6Y-164.1
X242.7Y-202.6
X243.4Y-53.7
X244.2Y-105.4
X244.5Y-98.7
X244.5Y-103.5
X244.5Y-154.2
X244.6Y-160.6
X244.8Y-85.9
X244.9Y-109.8
X245.1Y-95.8
X245.2Y-89.6
X245.6Y-155.4
X246.6Y-151.8
X247.5Y-88.1
X247.5Y-144.1
X247.6Y-161.0
X247.8Y-73.5
X247.8Y-129.5
X247.9Y-68.6
X247.9Y-187.5
X247.9Y-203.8
X248.6Y-158.1
X248.8Y-114.4
X249.5Y-85.9
X250.0Y-57.181
X250.0Y-58.181
X250.0Y-59.18
X250.0Y-60.18
X250.0Y-61.18
X250.0Y-62.179
X250.0Y-63.179
X250.0Y-78.981
X250.0Y-79.981
X250.0Y-80.98
X250.0Y-81.98
X250.0Y-82.98
X250.0Y-83.979
X250.0Y-84.979
X250.0Y-115.601
X250.0Y-116.601
X250.0Y-117.6
X250.0Y-118.6
X250.0Y-119.6
X250.0Y-120.599
X250.0Y-121.599
X250.0Y-137.401
X250.0Y-138.401
X250.0Y-139.4
X250.0Y-140.4
X250.0Y-141.4
X250.0Y-142.399
X250.0Y-143.399
X250.0Y-171.481
X250.0Y-172.481
X250.0Y-173.48
X250.0Y-174.48
X250.0Y-175.48
X250.0Y-176.479
X250.0Y-177.479
X250.0Y-193.281
X250.0Y-194.281
X250.0Y-195.28
X250.0Y-196.28
X250.0Y-197.28
X250.0Y-198.279
X250.0Y-199.279
X250.015Y-64.178
X250.015Y-77.982
X250.015Y-122.598
X250.015Y-136.402
X250.015Y-178.478
X250.015Y-192.282
X250.087Y-134.088
X250.1Y-49.1
X250.125Y-190.03
X250.127Y-75.727
X250.3Y-72.9
X250.4Y-66.3
X250.4Y-187.1
X250.6Y-200.4
X250.9Y-191.2
X251.0Y-107.2
X251.0Y-109.1
X251.1Y-145.8
X251.1Y-179.1
X251.3Y-71.7
X251.3Y-185.9
X251.4Y-88.4
X251.5Y-61.3
X251.5Y-105.2
X251.5Y-129.9
X251.5Y-174.0
X251.7Y-93.7
X251.9Y-111.3
X252.3Y-208.8
X252.5Y-152.1
X252.6Y-76.1
X252.7Y-167.9
X253.0Y-147.6
X253.2Y-124.9
X253.3Y-72.9
X253.4Y-77.8
X253.4Y-114.5
X253.4Y-156.5
X253.5Y-108.8
X253.7Y-200.3
X253.9Y-190.4
X254.2Y-182.5
X254.3Y-107.21
X254.3Y-173.6
X254.6Y-89.6
X254.9Y-100.8
X255.0Y-108.0
X255.0Y-158.0
X256.0Y-124.4
X256.1Y-135.5
X256.2Y-114.5
X256.3Y-153.2
X256.3Y-191.1
X256.4Y-164.5
X256.7Y-145.6
X256.9Y-53.9
X257.2Y-96.2
X257.9Y-87.3
X258.5Y-73.5
X259.5Y-104.5
X259.8Y-181.5
X260.9Y-129.9
X262.3Y-105.4
X262.5Y-94.8
X262.8Y-146.2
X263.0Y-155.6
X263.0Y-168.7
X263.0Y-184.1
X263.5Y-77.6
X263.5Y-179.2
X263.6Y-173.2
X263.7Y-48.5
X263.7Y-189.9
X263.8Y-135.7
X263.9Y-112.9
X264.0Y-66.5
X264.4Y-208.8
X264.5Y-54.1
X264.5Y-194.1
X264.5Y-200.1
X264.7Y-61.7
X266.3Y-125.1
X269.8Y-130.2
X271.0Y-77.5
X271.1Y-94.7
X271.2Y-105.2
X271.2Y-181.4
X271.3Y-168.4
X271.4Y-120.2
X271.4Y-140.6
X271.8Y-187.7
X272.0Y-147.3
X272.1Y-159.9
X272.3Y-129.8
X273.5Y-193.8
X273.5Y-199.2
X274.4Y-210.5
X274.6Y-49.9
X274.8Y-61.2
X275.4Y-55.6
X275.5Y-72.5
X279.0Y-187.7
X279.8Y-93.6
X279.8Y-164.4
X280.0Y-112.7
X280.0Y-133.1
X280.1Y-145.0
X280.2Y-123.3
X280.2Y-173.2
X280.3Y-103.4
X280.3Y-141.4
X280.3Y-148.9
X280.4Y-66.6
X280.4Y-155.4
X280.4Y-194.0
X280.4Y-204.5
X281.0Y-198.2
X281.3Y-180.0
X281.4Y-72.6
X281.7Y-86.9
X282.2Y-83.0
X283.1Y-49.2
X283.5Y-54.9
X285.6Y-81.2
X285.9Y-210.4
X286.1Y-137.7
X286.2Y-99.5
X286.6Y-188.0
X286.8Y-147.9
X286.9Y-168.6
X287.0Y-111.3
X287.3Y-92.1
X287.3Y-160.1
X287.9Y-78.2
X288.1Y-72.5
X288.1Y-203.2
X288.6Y-54.2
X288.7Y-193.7
X289.2Y-62.2
X289.4Y-85.5
X289.5Y-172.4
X289.5Y-181.0
X289.7Y-133.2
X289.9Y-127.4
X290.1Y-177.3
X295.9Y-91.7
X296.0Y-144.9
X296.2Y-109.1
X296.2Y-191.0
X296.3Y-201.2
X296.5Y-61.7
X296.6Y-158.7
X296.6Y-206.6
X296.8Y-78.0
X296.9Y-125.6
X296.9Y-184.2
X297.5Y-173.8
X298.8Y-194.8
X300.5Y-48.5
X300.5Y-210.3
X303.9Y-194.1
X304.1Y-188.1
X304.1Y-202.7
X305.4Y-150.6
X305.8Y-134.7
X306.1Y-166.0
X306.6Y-179.8
X306.7Y-117.1
X307.4Y-197.8
X307.5Y-83.5
X307.8Y-103.1
X308.5Y-56.6
X308.5Y-69.0
T2
X128.1Y-50.5
X128.1Y-129.5
X128.1Y-208.5
X128.803Y-48.803
X128.803Y-52.197
X128.803Y-127.803
X128.803Y-131.197
X128.803Y-206.803
X128.803Y-210.197
X130.5Y-48.1
X130.5Y-52.9
X130.5Y-127.1
X130.5Y-131.9
X130.5Y-206.1
X130.5Y-210.9
X132.197Y-48.803
X132.197Y-52.197
X132.197Y-127.803
X132.197Y-131.197
X132.197Y-206.803
X132.197Y-210.197
X132.9Y-50.5
X132.9Y-129.5
X132.9Y-208.5
X205.6Y-208.5
X206.1Y-50.5
X206.1Y-129.5
X206.303Y-206.803
X206.303Y-210.197
X206.803Y-48.803
X206.803Y-52.197
X206.803Y-127.803
X206.803Y-131.197
X208.0Y-206.1
X208.0Y-210.9
X208.5Y-48.1
X208.5Y-52.9
X208.5Y-127.1
X208.5Y-131.9
X209.697Y-206.803
X209.697Y-210.197
X210.197Y-48.803
X210.197Y-52.197
X210.197Y-127.803
X210.197Y-131.197
X210.4Y-208.5
X210.9Y-50.5
X210.9Y-129.5
X303.514Y-50.5
X303.514Y-208.5
X304.217Y-48.803
X304.217Y-52.197
X304.217Y-206.803
X304.217Y-210.197
X305.914Y-48.1
X305.914Y-52.9
X305.914Y-206.1
X305.914Y-210.9
X307.611Y-48.803
X307.611Y-52.197
X307.611Y-206.803
X307.611Y-210.197
X308.314Y-50.5
X308.314Y-208.5
T3
X137.75Y-90.8
X137.75Y-93.34
X137.75Y-95.88
X137.75Y-98.42
X137.75Y-100.96
X137.75Y-103.5
X137.75Y-106.04
X137.75Y-108.58
X137.75Y-111.12
X137.75Y-113.66
X137.75Y-116.2
X137.75Y-118.74
X137.75Y-121.28
X137.75Y-123.82
X137.75Y-126.36
X137.75Y-128.9
X137.75Y-131.44
X137.75Y-133.98
X137.75Y-136.52
X137.75Y-139.06
X137.75Y-141.6
X137.75Y-144.14
X137.75Y-146.68
X137.75Y-149.22
X137.75Y-151.76
X137.75Y-154.3
X137.75Y-156.84
X137.75Y-159.38
X137.75Y-161.92
X137.75Y-164.46
X137.75Y-167.0
X137.75Y-169.54
X137.75Y-172.08
X137.75Y-174.62
X137.75Y-177.16
X137.75Y-179.7
X140.29Y-90.8
X140.29Y-93.34
X140.29Y-95.88
X140.29Y-98.42
X140.29Y-100.96
X140.29Y-103.5
X140.29Y-106.04
X140.29Y-108.58
X140.29Y-111.12
X140.29Y-113.66
X140.29Y-116.2
X140.29Y-118.74
X140.29Y-121.28
X140.29Y-123.82
X140.29Y-126.36
X140.29Y-128.9
X140.29Y-131.44
X140.29Y-133.98
X140.29Y-136.52
X140.29Y-139.06
X140.29Y-141.6
X140.29Y-144.14
X140.29Y-146.68
X140.29Y-149.22
X140.29Y-151.76
X140.29Y-154.3
X140.29Y-156.84
X140.29Y-159.38
X140.29Y-161.92
X140.29Y-164.46
X140.29Y-167.0
X140.29Y-169.54
X140.29Y-172.08
X140.29Y-174.62
X140.29Y-177.16
X140.29Y-179.7
X145.37Y-100.96
X145.37Y-103.5
X145.37Y-106.04
X145.37Y-108.58
X145.37Y-111.12
X145.37Y-113.66
X145.37Y-116.2
X145.37Y-118.74
X145.37Y-123.82
X145.37Y-126.36
X145.37Y-128.9
X145.37Y-131.44
X145.37Y-133.98
X145.37Y-136.52
X145.37Y-139.06
X145.37Y-141.6
X145.37Y-144.14
X145.37Y-146.68
X145.37Y-149.22
X145.37Y-151.76
X145.37Y-154.3
X145.37Y-156.84
X145.37Y-159.38
X147.91Y-100.96
X147.91Y-103.5
X147.91Y-106.04
X147.91Y-108.58
X147.91Y-111.12
X147.91Y-113.66
X147.91Y-116.2
X147.91Y-118.74
X147.91Y-123.82
X147.91Y-126.36
X147.91Y-128.9
X147.91Y-131.44
X147.91Y-133.98
X147.91Y-136.52
X147.91Y-139.06
X147.91Y-141.6
X147.91Y-144.14
X147.91Y-146.68
X147.91Y-149.22
X147.91Y-151.76
X147.91Y-154.3
X147.91Y-156.84
X147.91Y-159.38
X191.09Y-91.816
X191.09Y-94.356
X191.09Y-96.896
X191.09Y-99.436
X191.09Y-101.976
X191.09Y-104.516
X191.09Y-107.056
X191.09Y-109.596
X191.09Y-112.136
X191.09Y-114.676
X191.09Y-118.74
X191.09Y-121.28
X191.09Y-123.82
X191.09Y-126.36
X191.09Y-128.9
X191.09Y-131.44
X191.09Y-133.98
X191.09Y-136.52
X191.09Y-139.06
X191.09Y-141.6
X191.09Y-144.14
X191.09Y-146.68
X191.09Y-149.22
X191.09Y-151.76
X191.09Y-154.3
X191.09Y-156.84
X191.09Y-159.38
X193.63Y-91.816
X193.63Y-94.356
X193.63Y-96.896
X193.63Y-99.436
X193.63Y-101.976
X193.63Y-104.516
X193.63Y-107.056
X193.63Y-109.596
X193.63Y-112.136
X193.63Y-114.676
X193.63Y-118.74
X193.63Y-121.28
X193.63Y-123.82
X193.63Y-126.36
X193.63Y-128.9
X193.63Y-131.44
X193.63Y-133.98
X193.63Y-136.52
X193.63Y-139.06
X193.63Y-141.6
X193.63Y-144.14
X193.63Y-146.68
X193.63Y-149.22
X193.63Y-151.76
X193.63Y-154.3
X193.63Y-156.84
X193.63Y-159.38
X198.71Y-90.82
X198.71Y-93.36
X198.71Y-95.9
X198.71Y-98.44
X198.71Y-100.98
X198.71Y-103.52
X198.71Y-106.06
X198.71Y-108.6
X198.71Y-111.14
X198.71Y-113.68
X198.71Y-116.22
X198.71Y-118.76
X198.71Y-121.3
X198.71Y-123.84
X198.71Y-126.38
X198.71Y-128.92
X198.71Y-131.46
X198.71Y-134.0
X198.71Y-136.54
X198.71Y-139.08
X198.71Y-141.62
X198.71Y-144.16
X198.71Y-146.7
X198.71Y-149.24
X198.71Y-151.78
X198.71Y-154.32
X198.71Y-156.86
X198.71Y-159.4
X198.71Y-161.94
X198.71Y-164.48
X198.71Y-167.02
X198.71Y-169.56
X198.71Y-172.1
X198.71Y-174.64
X198.71Y-177.18
X198.71Y-179.72
X201.25Y-90.82
X201.25Y-93.36
X201.25Y-95.9
X201.25Y-98.44
X201.25Y-100.98
X201.25Y-103.52
X201.25Y-106.06
X201.25Y-108.6
X201.25Y-111.14
X201.25Y-113.68
X201.25Y-116.22
X201.25Y-118.76
X201.25Y-121.3
X201.25Y-123.84
X201.25Y-126.38
X201.25Y-128.92
X201.25Y-131.46
X201.25Y-134.0
X201.25Y-136.54
X201.25Y-139.08
X201.25Y-141.62
X201.25Y-144.16
X201.25Y-146.7
X201.25Y-149.24
X201.25Y-151.78
X201.25Y-154.32
X201.25Y-156.86
X201.25Y-159.4
X201.25Y-161.94
X201.25Y-164.48
X201.25Y-167.02
X201.25Y-169.56
X201.25Y-172.1
X201.25Y-174.64
X201.25Y-177.18
X201.25Y-179.72
T4
X167.005Y-203.835
X172.085Y-203.835
X267.925Y-51.3
X267.925Y-56.38
X267.925Y-61.46
X267.925Y-66.54
X267.925Y-71.62
X267.925Y-76.7
X267.925Y-81.78
X267.925Y-86.86
X267.925Y-91.94
X267.925Y-97.02
X267.925Y-102.1
X267.925Y-107.18
X267.925Y-112.26
X267.925Y-117.34
X267.925Y-122.42
X267.925Y-127.5
X267.925Y-132.58
X267.925Y-137.66
X267.925Y-142.74
X267.925Y-147.82
X267.925Y-152.9
X267.925Y-157.98
X267.925Y-163.06
X267.925Y-168.14
X267.925Y-173.22
X267.925Y-178.3
X267.925Y-183.38
X267.925Y-188.46
X267.925Y-193.54
X267.925Y-198.62
X267.925Y-203.7
X267.925Y-208.78
X293.02Y-51.3
X293.02Y-56.38
X293.02Y-61.46
X293.02Y-66.54
X293.02Y-71.62
X293.02Y-76.7
X293.02Y-81.78
X293.02Y-86.86
X293.02Y-91.94
X293.02Y-97.02
X293.02Y-102.1
X293.02Y-107.18
X293.02Y-112.26
X293.02Y-117.34
X293.02Y-122.42
X293.02Y-127.5
X293.02Y-132.58
X293.02Y-137.66
X293.02Y-142.74
X293.02Y-147.82
X293.02Y-152.9
X293.02Y-157.98
X293.02Y-163.06
X293.02Y-168.14
X293.02Y-173.22
X293.02Y-178.3
X293.02Y-183.38
X293.02Y-188.46
X293.02Y-193.54
X293.02Y-198.62
X293.02Y-203.7
X293.02Y-208.78
T5
X248.58Y-208.78
T6
X130.5Y-50.5
X130.5Y-129.5
X130.5Y-208.5
X208.0Y-208.5
X208.5Y-50.5
X208.5Y-129.5
X305.914Y-50.5
X305.914Y-208.5
T0
M30
