%TF.GenerationSoftware,KiCad,Pcbnew,(5.99.0-10483-ga6ad7a4a70)*%
%TF.CreationDate,2021-07-25T01:23:19+03:00*%
%TF.ProjectId,stim,7374696d-2e6b-4696-9361-645f70636258,rev?*%
%TF.SameCoordinates,Original*%
%TF.FileFunction,Legend,Top*%
%TF.FilePolarity,Positive*%
%FSLAX46Y46*%
G04 Gerber Fmt 4.6, Leading zero omitted, Abs format (unit mm)*
G04 Created by KiCad (PCBNEW (5.99.0-10483-ga6ad7a4a70)) date 2021-07-25 01:23:19*
%MOMM*%
%LPD*%
G01*
G04 APERTURE LIST*
%ADD10C,0.300000*%
%ADD11C,0.150000*%
%ADD12C,0.120000*%
%ADD13C,0.127000*%
%ADD14C,0.200000*%
G04 APERTURE END LIST*
D10*
X274986190Y-70620000D02*
X274795714Y-70524761D01*
X274510000Y-70524761D01*
X274224285Y-70620000D01*
X274033809Y-70810476D01*
X273938571Y-71000952D01*
X273843333Y-71381904D01*
X273843333Y-71667619D01*
X273938571Y-72048571D01*
X274033809Y-72239047D01*
X274224285Y-72429523D01*
X274510000Y-72524761D01*
X274700476Y-72524761D01*
X274986190Y-72429523D01*
X275081428Y-72334285D01*
X275081428Y-71667619D01*
X274700476Y-71667619D01*
X275938571Y-72524761D02*
X275938571Y-70524761D01*
X277081428Y-72524761D01*
X277081428Y-70524761D01*
X278033809Y-72524761D02*
X278033809Y-70524761D01*
X278510000Y-70524761D01*
X278795714Y-70620000D01*
X278986190Y-70810476D01*
X279081428Y-71000952D01*
X279176666Y-71381904D01*
X279176666Y-71667619D01*
X279081428Y-72048571D01*
X278986190Y-72239047D01*
X278795714Y-72429523D01*
X278510000Y-72524761D01*
X278033809Y-72524761D01*
X285019047Y-97924761D02*
X283876190Y-97924761D01*
X284447619Y-97924761D02*
X284447619Y-95924761D01*
X284257142Y-96210476D01*
X284066666Y-96400952D01*
X283876190Y-96496190D01*
X286257142Y-95924761D02*
X286447619Y-95924761D01*
X286638095Y-96020000D01*
X286733333Y-96115238D01*
X286828571Y-96305714D01*
X286923809Y-96686666D01*
X286923809Y-97162857D01*
X286828571Y-97543809D01*
X286733333Y-97734285D01*
X286638095Y-97829523D01*
X286447619Y-97924761D01*
X286257142Y-97924761D01*
X286066666Y-97829523D01*
X285971428Y-97734285D01*
X285876190Y-97543809D01*
X285780952Y-97162857D01*
X285780952Y-96686666D01*
X285876190Y-96305714D01*
X285971428Y-96115238D01*
X286066666Y-96020000D01*
X286257142Y-95924761D01*
X284828571Y-182951428D02*
X284828571Y-184284761D01*
X284352380Y-182189523D02*
X283876190Y-183618095D01*
X285114285Y-183618095D01*
X285685714Y-182284761D02*
X286923809Y-182284761D01*
X286257142Y-183046666D01*
X286542857Y-183046666D01*
X286733333Y-183141904D01*
X286828571Y-183237142D01*
X286923809Y-183427619D01*
X286923809Y-183903809D01*
X286828571Y-184094285D01*
X286733333Y-184189523D01*
X286542857Y-184284761D01*
X285971428Y-184284761D01*
X285780952Y-184189523D01*
X285685714Y-184094285D01*
X285019047Y-108084761D02*
X283876190Y-108084761D01*
X284447619Y-108084761D02*
X284447619Y-106084761D01*
X284257142Y-106370476D01*
X284066666Y-106560952D01*
X283876190Y-106656190D01*
X285780952Y-106275238D02*
X285876190Y-106180000D01*
X286066666Y-106084761D01*
X286542857Y-106084761D01*
X286733333Y-106180000D01*
X286828571Y-106275238D01*
X286923809Y-106465714D01*
X286923809Y-106656190D01*
X286828571Y-106941904D01*
X285685714Y-108084761D01*
X286923809Y-108084761D01*
X301020952Y-66111428D02*
X301020952Y-67444761D01*
X300544761Y-65349523D02*
X300068571Y-66778095D01*
X301306666Y-66778095D01*
X257556190Y-152130238D02*
X257651428Y-152035000D01*
X257841904Y-151939761D01*
X258318095Y-151939761D01*
X258508571Y-152035000D01*
X258603809Y-152130238D01*
X258699047Y-152320714D01*
X258699047Y-152511190D01*
X258603809Y-152796904D01*
X257460952Y-153939761D01*
X258699047Y-153939761D01*
X259651428Y-153939761D02*
X260032380Y-153939761D01*
X260222857Y-153844523D01*
X260318095Y-153749285D01*
X260508571Y-153463571D01*
X260603809Y-153082619D01*
X260603809Y-152320714D01*
X260508571Y-152130238D01*
X260413333Y-152035000D01*
X260222857Y-151939761D01*
X259841904Y-151939761D01*
X259651428Y-152035000D01*
X259556190Y-152130238D01*
X259460952Y-152320714D01*
X259460952Y-152796904D01*
X259556190Y-152987380D01*
X259651428Y-153082619D01*
X259841904Y-153177857D01*
X260222857Y-153177857D01*
X260413333Y-153082619D01*
X260508571Y-152987380D01*
X260603809Y-152796904D01*
X273716190Y-111355238D02*
X273811428Y-111260000D01*
X274001904Y-111164761D01*
X274478095Y-111164761D01*
X274668571Y-111260000D01*
X274763809Y-111355238D01*
X274859047Y-111545714D01*
X274859047Y-111736190D01*
X274763809Y-112021904D01*
X273620952Y-113164761D01*
X274859047Y-113164761D01*
X276763809Y-113164761D02*
X275620952Y-113164761D01*
X276192380Y-113164761D02*
X276192380Y-111164761D01*
X276001904Y-111450476D01*
X275811428Y-111640952D01*
X275620952Y-111736190D01*
X285209523Y-86621904D02*
X285019047Y-86526666D01*
X284923809Y-86431428D01*
X284828571Y-86240952D01*
X284828571Y-86145714D01*
X284923809Y-85955238D01*
X285019047Y-85860000D01*
X285209523Y-85764761D01*
X285590476Y-85764761D01*
X285780952Y-85860000D01*
X285876190Y-85955238D01*
X285971428Y-86145714D01*
X285971428Y-86240952D01*
X285876190Y-86431428D01*
X285780952Y-86526666D01*
X285590476Y-86621904D01*
X285209523Y-86621904D01*
X285019047Y-86717142D01*
X284923809Y-86812380D01*
X284828571Y-87002857D01*
X284828571Y-87383809D01*
X284923809Y-87574285D01*
X285019047Y-87669523D01*
X285209523Y-87764761D01*
X285590476Y-87764761D01*
X285780952Y-87669523D01*
X285876190Y-87574285D01*
X285971428Y-87383809D01*
X285971428Y-87002857D01*
X285876190Y-86812380D01*
X285780952Y-86717142D01*
X285590476Y-86621904D01*
X284828571Y-198191428D02*
X284828571Y-199524761D01*
X284352380Y-197429523D02*
X283876190Y-198858095D01*
X285114285Y-198858095D01*
X286733333Y-197524761D02*
X286352380Y-197524761D01*
X286161904Y-197620000D01*
X286066666Y-197715238D01*
X285876190Y-198000952D01*
X285780952Y-198381904D01*
X285780952Y-199143809D01*
X285876190Y-199334285D01*
X285971428Y-199429523D01*
X286161904Y-199524761D01*
X286542857Y-199524761D01*
X286733333Y-199429523D01*
X286828571Y-199334285D01*
X286923809Y-199143809D01*
X286923809Y-198667619D01*
X286828571Y-198477142D01*
X286733333Y-198381904D01*
X286542857Y-198286666D01*
X286161904Y-198286666D01*
X285971428Y-198381904D01*
X285876190Y-198477142D01*
X285780952Y-198667619D01*
X300068571Y-198191428D02*
X300068571Y-199524761D01*
X299592380Y-197429523D02*
X299116190Y-198858095D01*
X300354285Y-198858095D01*
X301973333Y-197524761D02*
X301592380Y-197524761D01*
X301401904Y-197620000D01*
X301306666Y-197715238D01*
X301116190Y-198000952D01*
X301020952Y-198381904D01*
X301020952Y-199143809D01*
X301116190Y-199334285D01*
X301211428Y-199429523D01*
X301401904Y-199524761D01*
X301782857Y-199524761D01*
X301973333Y-199429523D01*
X302068571Y-199334285D01*
X302163809Y-199143809D01*
X302163809Y-198667619D01*
X302068571Y-198477142D01*
X301973333Y-198381904D01*
X301782857Y-198286666D01*
X301401904Y-198286666D01*
X301211428Y-198381904D01*
X301116190Y-198477142D01*
X301020952Y-198667619D01*
X257556190Y-131810238D02*
X257651428Y-131715000D01*
X257841904Y-131619761D01*
X258318095Y-131619761D01*
X258508571Y-131715000D01*
X258603809Y-131810238D01*
X258699047Y-132000714D01*
X258699047Y-132191190D01*
X258603809Y-132476904D01*
X257460952Y-133619761D01*
X258699047Y-133619761D01*
X260508571Y-131619761D02*
X259556190Y-131619761D01*
X259460952Y-132572142D01*
X259556190Y-132476904D01*
X259746666Y-132381666D01*
X260222857Y-132381666D01*
X260413333Y-132476904D01*
X260508571Y-132572142D01*
X260603809Y-132762619D01*
X260603809Y-133238809D01*
X260508571Y-133429285D01*
X260413333Y-133524523D01*
X260222857Y-133619761D01*
X259746666Y-133619761D01*
X259556190Y-133524523D01*
X259460952Y-133429285D01*
X300259047Y-113164761D02*
X299116190Y-113164761D01*
X299687619Y-113164761D02*
X299687619Y-111164761D01*
X299497142Y-111450476D01*
X299306666Y-111640952D01*
X299116190Y-111736190D01*
X300925714Y-111164761D02*
X302163809Y-111164761D01*
X301497142Y-111926666D01*
X301782857Y-111926666D01*
X301973333Y-112021904D01*
X302068571Y-112117142D01*
X302163809Y-112307619D01*
X302163809Y-112783809D01*
X302068571Y-112974285D01*
X301973333Y-113069523D01*
X301782857Y-113164761D01*
X301211428Y-113164761D01*
X301020952Y-113069523D01*
X300925714Y-112974285D01*
X273843333Y-203842857D02*
X275367142Y-203842857D01*
X274605238Y-204604761D02*
X274605238Y-203080952D01*
X277367142Y-204604761D02*
X276224285Y-204604761D01*
X276795714Y-204604761D02*
X276795714Y-202604761D01*
X276605238Y-202890476D01*
X276414761Y-203080952D01*
X276224285Y-203176190D01*
X278129047Y-202795238D02*
X278224285Y-202700000D01*
X278414761Y-202604761D01*
X278890952Y-202604761D01*
X279081428Y-202700000D01*
X279176666Y-202795238D01*
X279271904Y-202985714D01*
X279271904Y-203176190D01*
X279176666Y-203461904D01*
X278033809Y-204604761D01*
X279271904Y-204604761D01*
X163073333Y-210657857D02*
X164597142Y-210657857D01*
X163835238Y-211419761D02*
X163835238Y-209895952D01*
X166597142Y-211419761D02*
X165454285Y-211419761D01*
X166025714Y-211419761D02*
X166025714Y-209419761D01*
X165835238Y-209705476D01*
X165644761Y-209895952D01*
X165454285Y-209991190D01*
X167359047Y-209610238D02*
X167454285Y-209515000D01*
X167644761Y-209419761D01*
X168120952Y-209419761D01*
X168311428Y-209515000D01*
X168406666Y-209610238D01*
X168501904Y-209800714D01*
X168501904Y-209991190D01*
X168406666Y-210276904D01*
X167263809Y-211419761D01*
X168501904Y-211419761D01*
X300259047Y-128404761D02*
X299116190Y-128404761D01*
X299687619Y-128404761D02*
X299687619Y-126404761D01*
X299497142Y-126690476D01*
X299306666Y-126880952D01*
X299116190Y-126976190D01*
X301973333Y-126404761D02*
X301592380Y-126404761D01*
X301401904Y-126500000D01*
X301306666Y-126595238D01*
X301116190Y-126880952D01*
X301020952Y-127261904D01*
X301020952Y-128023809D01*
X301116190Y-128214285D01*
X301211428Y-128309523D01*
X301401904Y-128404761D01*
X301782857Y-128404761D01*
X301973333Y-128309523D01*
X302068571Y-128214285D01*
X302163809Y-128023809D01*
X302163809Y-127547619D01*
X302068571Y-127357142D01*
X301973333Y-127261904D01*
X301782857Y-127166666D01*
X301401904Y-127166666D01*
X301211428Y-127261904D01*
X301116190Y-127357142D01*
X301020952Y-127547619D01*
X273716190Y-136755238D02*
X273811428Y-136660000D01*
X274001904Y-136564761D01*
X274478095Y-136564761D01*
X274668571Y-136660000D01*
X274763809Y-136755238D01*
X274859047Y-136945714D01*
X274859047Y-137136190D01*
X274763809Y-137421904D01*
X273620952Y-138564761D01*
X274859047Y-138564761D01*
X276573333Y-136564761D02*
X276192380Y-136564761D01*
X276001904Y-136660000D01*
X275906666Y-136755238D01*
X275716190Y-137040952D01*
X275620952Y-137421904D01*
X275620952Y-138183809D01*
X275716190Y-138374285D01*
X275811428Y-138469523D01*
X276001904Y-138564761D01*
X276382857Y-138564761D01*
X276573333Y-138469523D01*
X276668571Y-138374285D01*
X276763809Y-138183809D01*
X276763809Y-137707619D01*
X276668571Y-137517142D01*
X276573333Y-137421904D01*
X276382857Y-137326666D01*
X276001904Y-137326666D01*
X275811428Y-137421904D01*
X275716190Y-137517142D01*
X275620952Y-137707619D01*
X257556190Y-187595000D02*
X257365714Y-187499761D01*
X257080000Y-187499761D01*
X256794285Y-187595000D01*
X256603809Y-187785476D01*
X256508571Y-187975952D01*
X256413333Y-188356904D01*
X256413333Y-188642619D01*
X256508571Y-189023571D01*
X256603809Y-189214047D01*
X256794285Y-189404523D01*
X257080000Y-189499761D01*
X257270476Y-189499761D01*
X257556190Y-189404523D01*
X257651428Y-189309285D01*
X257651428Y-188642619D01*
X257270476Y-188642619D01*
X258508571Y-189499761D02*
X258508571Y-187499761D01*
X259651428Y-189499761D01*
X259651428Y-187499761D01*
X260603809Y-189499761D02*
X260603809Y-187499761D01*
X261080000Y-187499761D01*
X261365714Y-187595000D01*
X261556190Y-187785476D01*
X261651428Y-187975952D01*
X261746666Y-188356904D01*
X261746666Y-188642619D01*
X261651428Y-189023571D01*
X261556190Y-189214047D01*
X261365714Y-189404523D01*
X261080000Y-189499761D01*
X260603809Y-189499761D01*
X283780952Y-156884761D02*
X285019047Y-156884761D01*
X284352380Y-157646666D01*
X284638095Y-157646666D01*
X284828571Y-157741904D01*
X284923809Y-157837142D01*
X285019047Y-158027619D01*
X285019047Y-158503809D01*
X284923809Y-158694285D01*
X284828571Y-158789523D01*
X284638095Y-158884761D01*
X284066666Y-158884761D01*
X283876190Y-158789523D01*
X283780952Y-158694285D01*
X286161904Y-157741904D02*
X285971428Y-157646666D01*
X285876190Y-157551428D01*
X285780952Y-157360952D01*
X285780952Y-157265714D01*
X285876190Y-157075238D01*
X285971428Y-156980000D01*
X286161904Y-156884761D01*
X286542857Y-156884761D01*
X286733333Y-156980000D01*
X286828571Y-157075238D01*
X286923809Y-157265714D01*
X286923809Y-157360952D01*
X286828571Y-157551428D01*
X286733333Y-157646666D01*
X286542857Y-157741904D01*
X286161904Y-157741904D01*
X285971428Y-157837142D01*
X285876190Y-157932380D01*
X285780952Y-158122857D01*
X285780952Y-158503809D01*
X285876190Y-158694285D01*
X285971428Y-158789523D01*
X286161904Y-158884761D01*
X286542857Y-158884761D01*
X286733333Y-158789523D01*
X286828571Y-158694285D01*
X286923809Y-158503809D01*
X286923809Y-158122857D01*
X286828571Y-157932380D01*
X286733333Y-157837142D01*
X286542857Y-157741904D01*
X300068571Y-193111428D02*
X300068571Y-194444761D01*
X299592380Y-192349523D02*
X299116190Y-193778095D01*
X300354285Y-193778095D01*
X302068571Y-192444761D02*
X301116190Y-192444761D01*
X301020952Y-193397142D01*
X301116190Y-193301904D01*
X301306666Y-193206666D01*
X301782857Y-193206666D01*
X301973333Y-193301904D01*
X302068571Y-193397142D01*
X302163809Y-193587619D01*
X302163809Y-194063809D01*
X302068571Y-194254285D01*
X301973333Y-194349523D01*
X301782857Y-194444761D01*
X301306666Y-194444761D01*
X301116190Y-194349523D01*
X301020952Y-194254285D01*
X257556190Y-172355000D02*
X257365714Y-172259761D01*
X257080000Y-172259761D01*
X256794285Y-172355000D01*
X256603809Y-172545476D01*
X256508571Y-172735952D01*
X256413333Y-173116904D01*
X256413333Y-173402619D01*
X256508571Y-173783571D01*
X256603809Y-173974047D01*
X256794285Y-174164523D01*
X257080000Y-174259761D01*
X257270476Y-174259761D01*
X257556190Y-174164523D01*
X257651428Y-174069285D01*
X257651428Y-173402619D01*
X257270476Y-173402619D01*
X258508571Y-174259761D02*
X258508571Y-172259761D01*
X259651428Y-174259761D01*
X259651428Y-172259761D01*
X260603809Y-174259761D02*
X260603809Y-172259761D01*
X261080000Y-172259761D01*
X261365714Y-172355000D01*
X261556190Y-172545476D01*
X261651428Y-172735952D01*
X261746666Y-173116904D01*
X261746666Y-173402619D01*
X261651428Y-173783571D01*
X261556190Y-173974047D01*
X261365714Y-174164523D01*
X261080000Y-174259761D01*
X260603809Y-174259761D01*
X273716190Y-151995238D02*
X273811428Y-151900000D01*
X274001904Y-151804761D01*
X274478095Y-151804761D01*
X274668571Y-151900000D01*
X274763809Y-151995238D01*
X274859047Y-152185714D01*
X274859047Y-152376190D01*
X274763809Y-152661904D01*
X273620952Y-153804761D01*
X274859047Y-153804761D01*
X275811428Y-153804761D02*
X276192380Y-153804761D01*
X276382857Y-153709523D01*
X276478095Y-153614285D01*
X276668571Y-153328571D01*
X276763809Y-152947619D01*
X276763809Y-152185714D01*
X276668571Y-151995238D01*
X276573333Y-151900000D01*
X276382857Y-151804761D01*
X276001904Y-151804761D01*
X275811428Y-151900000D01*
X275716190Y-151995238D01*
X275620952Y-152185714D01*
X275620952Y-152661904D01*
X275716190Y-152852380D01*
X275811428Y-152947619D01*
X276001904Y-153042857D01*
X276382857Y-153042857D01*
X276573333Y-152947619D01*
X276668571Y-152852380D01*
X276763809Y-152661904D01*
X300259047Y-103004761D02*
X299116190Y-103004761D01*
X299687619Y-103004761D02*
X299687619Y-101004761D01*
X299497142Y-101290476D01*
X299306666Y-101480952D01*
X299116190Y-101576190D01*
X302163809Y-103004761D02*
X301020952Y-103004761D01*
X301592380Y-103004761D02*
X301592380Y-101004761D01*
X301401904Y-101290476D01*
X301211428Y-101480952D01*
X301020952Y-101576190D01*
X283780952Y-131484761D02*
X285019047Y-131484761D01*
X284352380Y-132246666D01*
X284638095Y-132246666D01*
X284828571Y-132341904D01*
X284923809Y-132437142D01*
X285019047Y-132627619D01*
X285019047Y-133103809D01*
X284923809Y-133294285D01*
X284828571Y-133389523D01*
X284638095Y-133484761D01*
X284066666Y-133484761D01*
X283876190Y-133389523D01*
X283780952Y-133294285D01*
X285685714Y-131484761D02*
X286923809Y-131484761D01*
X286257142Y-132246666D01*
X286542857Y-132246666D01*
X286733333Y-132341904D01*
X286828571Y-132437142D01*
X286923809Y-132627619D01*
X286923809Y-133103809D01*
X286828571Y-133294285D01*
X286733333Y-133389523D01*
X286542857Y-133484761D01*
X285971428Y-133484761D01*
X285780952Y-133389523D01*
X285685714Y-133294285D01*
X300259047Y-123324761D02*
X299116190Y-123324761D01*
X299687619Y-123324761D02*
X299687619Y-121324761D01*
X299497142Y-121610476D01*
X299306666Y-121800952D01*
X299116190Y-121896190D01*
X302068571Y-121324761D02*
X301116190Y-121324761D01*
X301020952Y-122277142D01*
X301116190Y-122181904D01*
X301306666Y-122086666D01*
X301782857Y-122086666D01*
X301973333Y-122181904D01*
X302068571Y-122277142D01*
X302163809Y-122467619D01*
X302163809Y-122943809D01*
X302068571Y-123134285D01*
X301973333Y-123229523D01*
X301782857Y-123324761D01*
X301306666Y-123324761D01*
X301116190Y-123229523D01*
X301020952Y-123134285D01*
X285876190Y-70524761D02*
X284923809Y-70524761D01*
X284828571Y-71477142D01*
X284923809Y-71381904D01*
X285114285Y-71286666D01*
X285590476Y-71286666D01*
X285780952Y-71381904D01*
X285876190Y-71477142D01*
X285971428Y-71667619D01*
X285971428Y-72143809D01*
X285876190Y-72334285D01*
X285780952Y-72429523D01*
X285590476Y-72524761D01*
X285114285Y-72524761D01*
X284923809Y-72429523D01*
X284828571Y-72334285D01*
X273843333Y-208922857D02*
X275367142Y-208922857D01*
X274605238Y-209684761D02*
X274605238Y-208160952D01*
X277367142Y-209684761D02*
X276224285Y-209684761D01*
X276795714Y-209684761D02*
X276795714Y-207684761D01*
X276605238Y-207970476D01*
X276414761Y-208160952D01*
X276224285Y-208256190D01*
X278129047Y-207875238D02*
X278224285Y-207780000D01*
X278414761Y-207684761D01*
X278890952Y-207684761D01*
X279081428Y-207780000D01*
X279176666Y-207875238D01*
X279271904Y-208065714D01*
X279271904Y-208256190D01*
X279176666Y-208541904D01*
X278033809Y-209684761D01*
X279271904Y-209684761D01*
X300259047Y-92844761D02*
X300640000Y-92844761D01*
X300830476Y-92749523D01*
X300925714Y-92654285D01*
X301116190Y-92368571D01*
X301211428Y-91987619D01*
X301211428Y-91225714D01*
X301116190Y-91035238D01*
X301020952Y-90940000D01*
X300830476Y-90844761D01*
X300449523Y-90844761D01*
X300259047Y-90940000D01*
X300163809Y-91035238D01*
X300068571Y-91225714D01*
X300068571Y-91701904D01*
X300163809Y-91892380D01*
X300259047Y-91987619D01*
X300449523Y-92082857D01*
X300830476Y-92082857D01*
X301020952Y-91987619D01*
X301116190Y-91892380D01*
X301211428Y-91701904D01*
X273716190Y-131675238D02*
X273811428Y-131580000D01*
X274001904Y-131484761D01*
X274478095Y-131484761D01*
X274668571Y-131580000D01*
X274763809Y-131675238D01*
X274859047Y-131865714D01*
X274859047Y-132056190D01*
X274763809Y-132341904D01*
X273620952Y-133484761D01*
X274859047Y-133484761D01*
X276668571Y-131484761D02*
X275716190Y-131484761D01*
X275620952Y-132437142D01*
X275716190Y-132341904D01*
X275906666Y-132246666D01*
X276382857Y-132246666D01*
X276573333Y-132341904D01*
X276668571Y-132437142D01*
X276763809Y-132627619D01*
X276763809Y-133103809D01*
X276668571Y-133294285D01*
X276573333Y-133389523D01*
X276382857Y-133484761D01*
X275906666Y-133484761D01*
X275716190Y-133389523D01*
X275620952Y-133294285D01*
X300449523Y-86621904D02*
X300259047Y-86526666D01*
X300163809Y-86431428D01*
X300068571Y-86240952D01*
X300068571Y-86145714D01*
X300163809Y-85955238D01*
X300259047Y-85860000D01*
X300449523Y-85764761D01*
X300830476Y-85764761D01*
X301020952Y-85860000D01*
X301116190Y-85955238D01*
X301211428Y-86145714D01*
X301211428Y-86240952D01*
X301116190Y-86431428D01*
X301020952Y-86526666D01*
X300830476Y-86621904D01*
X300449523Y-86621904D01*
X300259047Y-86717142D01*
X300163809Y-86812380D01*
X300068571Y-87002857D01*
X300068571Y-87383809D01*
X300163809Y-87574285D01*
X300259047Y-87669523D01*
X300449523Y-87764761D01*
X300830476Y-87764761D01*
X301020952Y-87669523D01*
X301116190Y-87574285D01*
X301211428Y-87383809D01*
X301211428Y-87002857D01*
X301116190Y-86812380D01*
X301020952Y-86717142D01*
X300830476Y-86621904D01*
X274986190Y-75700000D02*
X274795714Y-75604761D01*
X274510000Y-75604761D01*
X274224285Y-75700000D01*
X274033809Y-75890476D01*
X273938571Y-76080952D01*
X273843333Y-76461904D01*
X273843333Y-76747619D01*
X273938571Y-77128571D01*
X274033809Y-77319047D01*
X274224285Y-77509523D01*
X274510000Y-77604761D01*
X274700476Y-77604761D01*
X274986190Y-77509523D01*
X275081428Y-77414285D01*
X275081428Y-76747619D01*
X274700476Y-76747619D01*
X275938571Y-77604761D02*
X275938571Y-75604761D01*
X277081428Y-77604761D01*
X277081428Y-75604761D01*
X278033809Y-77604761D02*
X278033809Y-75604761D01*
X278510000Y-75604761D01*
X278795714Y-75700000D01*
X278986190Y-75890476D01*
X279081428Y-76080952D01*
X279176666Y-76461904D01*
X279176666Y-76747619D01*
X279081428Y-77128571D01*
X278986190Y-77319047D01*
X278795714Y-77509523D01*
X278510000Y-77604761D01*
X278033809Y-77604761D01*
X256413333Y-51577857D02*
X257937142Y-51577857D01*
X257175238Y-52339761D02*
X257175238Y-50815952D01*
X259937142Y-52339761D02*
X258794285Y-52339761D01*
X259365714Y-52339761D02*
X259365714Y-50339761D01*
X259175238Y-50625476D01*
X258984761Y-50815952D01*
X258794285Y-50911190D01*
X260699047Y-50530238D02*
X260794285Y-50435000D01*
X260984761Y-50339761D01*
X261460952Y-50339761D01*
X261651428Y-50435000D01*
X261746666Y-50530238D01*
X261841904Y-50720714D01*
X261841904Y-50911190D01*
X261746666Y-51196904D01*
X260603809Y-52339761D01*
X261841904Y-52339761D01*
X301020952Y-75604761D02*
X300640000Y-75604761D01*
X300449523Y-75700000D01*
X300354285Y-75795238D01*
X300163809Y-76080952D01*
X300068571Y-76461904D01*
X300068571Y-77223809D01*
X300163809Y-77414285D01*
X300259047Y-77509523D01*
X300449523Y-77604761D01*
X300830476Y-77604761D01*
X301020952Y-77509523D01*
X301116190Y-77414285D01*
X301211428Y-77223809D01*
X301211428Y-76747619D01*
X301116190Y-76557142D01*
X301020952Y-76461904D01*
X300830476Y-76366666D01*
X300449523Y-76366666D01*
X300259047Y-76461904D01*
X300163809Y-76557142D01*
X300068571Y-76747619D01*
X285780952Y-75604761D02*
X285400000Y-75604761D01*
X285209523Y-75700000D01*
X285114285Y-75795238D01*
X284923809Y-76080952D01*
X284828571Y-76461904D01*
X284828571Y-77223809D01*
X284923809Y-77414285D01*
X285019047Y-77509523D01*
X285209523Y-77604761D01*
X285590476Y-77604761D01*
X285780952Y-77509523D01*
X285876190Y-77414285D01*
X285971428Y-77223809D01*
X285971428Y-76747619D01*
X285876190Y-76557142D01*
X285780952Y-76461904D01*
X285590476Y-76366666D01*
X285209523Y-76366666D01*
X285019047Y-76461904D01*
X284923809Y-76557142D01*
X284828571Y-76747619D01*
X299020952Y-161964761D02*
X300259047Y-161964761D01*
X299592380Y-162726666D01*
X299878095Y-162726666D01*
X300068571Y-162821904D01*
X300163809Y-162917142D01*
X300259047Y-163107619D01*
X300259047Y-163583809D01*
X300163809Y-163774285D01*
X300068571Y-163869523D01*
X299878095Y-163964761D01*
X299306666Y-163964761D01*
X299116190Y-163869523D01*
X299020952Y-163774285D01*
X301211428Y-163964761D02*
X301592380Y-163964761D01*
X301782857Y-163869523D01*
X301878095Y-163774285D01*
X302068571Y-163488571D01*
X302163809Y-163107619D01*
X302163809Y-162345714D01*
X302068571Y-162155238D01*
X301973333Y-162060000D01*
X301782857Y-161964761D01*
X301401904Y-161964761D01*
X301211428Y-162060000D01*
X301116190Y-162155238D01*
X301020952Y-162345714D01*
X301020952Y-162821904D01*
X301116190Y-163012380D01*
X301211428Y-163107619D01*
X301401904Y-163202857D01*
X301782857Y-163202857D01*
X301973333Y-163107619D01*
X302068571Y-163012380D01*
X302163809Y-162821904D01*
X274986190Y-187460000D02*
X274795714Y-187364761D01*
X274510000Y-187364761D01*
X274224285Y-187460000D01*
X274033809Y-187650476D01*
X273938571Y-187840952D01*
X273843333Y-188221904D01*
X273843333Y-188507619D01*
X273938571Y-188888571D01*
X274033809Y-189079047D01*
X274224285Y-189269523D01*
X274510000Y-189364761D01*
X274700476Y-189364761D01*
X274986190Y-189269523D01*
X275081428Y-189174285D01*
X275081428Y-188507619D01*
X274700476Y-188507619D01*
X275938571Y-189364761D02*
X275938571Y-187364761D01*
X277081428Y-189364761D01*
X277081428Y-187364761D01*
X278033809Y-189364761D02*
X278033809Y-187364761D01*
X278510000Y-187364761D01*
X278795714Y-187460000D01*
X278986190Y-187650476D01*
X279081428Y-187840952D01*
X279176666Y-188221904D01*
X279176666Y-188507619D01*
X279081428Y-188888571D01*
X278986190Y-189079047D01*
X278795714Y-189269523D01*
X278510000Y-189364761D01*
X278033809Y-189364761D01*
X299020952Y-151804761D02*
X300259047Y-151804761D01*
X299592380Y-152566666D01*
X299878095Y-152566666D01*
X300068571Y-152661904D01*
X300163809Y-152757142D01*
X300259047Y-152947619D01*
X300259047Y-153423809D01*
X300163809Y-153614285D01*
X300068571Y-153709523D01*
X299878095Y-153804761D01*
X299306666Y-153804761D01*
X299116190Y-153709523D01*
X299020952Y-153614285D01*
X300925714Y-151804761D02*
X302259047Y-151804761D01*
X301401904Y-153804761D01*
X273716190Y-121515238D02*
X273811428Y-121420000D01*
X274001904Y-121324761D01*
X274478095Y-121324761D01*
X274668571Y-121420000D01*
X274763809Y-121515238D01*
X274859047Y-121705714D01*
X274859047Y-121896190D01*
X274763809Y-122181904D01*
X273620952Y-123324761D01*
X274859047Y-123324761D01*
X275525714Y-121324761D02*
X276763809Y-121324761D01*
X276097142Y-122086666D01*
X276382857Y-122086666D01*
X276573333Y-122181904D01*
X276668571Y-122277142D01*
X276763809Y-122467619D01*
X276763809Y-122943809D01*
X276668571Y-123134285D01*
X276573333Y-123229523D01*
X276382857Y-123324761D01*
X275811428Y-123324761D01*
X275620952Y-123229523D01*
X275525714Y-123134285D01*
X283780952Y-141644761D02*
X285019047Y-141644761D01*
X284352380Y-142406666D01*
X284638095Y-142406666D01*
X284828571Y-142501904D01*
X284923809Y-142597142D01*
X285019047Y-142787619D01*
X285019047Y-143263809D01*
X284923809Y-143454285D01*
X284828571Y-143549523D01*
X284638095Y-143644761D01*
X284066666Y-143644761D01*
X283876190Y-143549523D01*
X283780952Y-143454285D01*
X286828571Y-141644761D02*
X285876190Y-141644761D01*
X285780952Y-142597142D01*
X285876190Y-142501904D01*
X286066666Y-142406666D01*
X286542857Y-142406666D01*
X286733333Y-142501904D01*
X286828571Y-142597142D01*
X286923809Y-142787619D01*
X286923809Y-143263809D01*
X286828571Y-143454285D01*
X286733333Y-143549523D01*
X286542857Y-143644761D01*
X286066666Y-143644761D01*
X285876190Y-143549523D01*
X285780952Y-143454285D01*
X257460952Y-157019761D02*
X258699047Y-157019761D01*
X258032380Y-157781666D01*
X258318095Y-157781666D01*
X258508571Y-157876904D01*
X258603809Y-157972142D01*
X258699047Y-158162619D01*
X258699047Y-158638809D01*
X258603809Y-158829285D01*
X258508571Y-158924523D01*
X258318095Y-159019761D01*
X257746666Y-159019761D01*
X257556190Y-158924523D01*
X257460952Y-158829285D01*
X259937142Y-157019761D02*
X260127619Y-157019761D01*
X260318095Y-157115000D01*
X260413333Y-157210238D01*
X260508571Y-157400714D01*
X260603809Y-157781666D01*
X260603809Y-158257857D01*
X260508571Y-158638809D01*
X260413333Y-158829285D01*
X260318095Y-158924523D01*
X260127619Y-159019761D01*
X259937142Y-159019761D01*
X259746666Y-158924523D01*
X259651428Y-158829285D01*
X259556190Y-158638809D01*
X259460952Y-158257857D01*
X259460952Y-157781666D01*
X259556190Y-157400714D01*
X259651428Y-157210238D01*
X259746666Y-157115000D01*
X259937142Y-157019761D01*
X273620952Y-161964761D02*
X274859047Y-161964761D01*
X274192380Y-162726666D01*
X274478095Y-162726666D01*
X274668571Y-162821904D01*
X274763809Y-162917142D01*
X274859047Y-163107619D01*
X274859047Y-163583809D01*
X274763809Y-163774285D01*
X274668571Y-163869523D01*
X274478095Y-163964761D01*
X273906666Y-163964761D01*
X273716190Y-163869523D01*
X273620952Y-163774285D01*
X276763809Y-163964761D02*
X275620952Y-163964761D01*
X276192380Y-163964761D02*
X276192380Y-161964761D01*
X276001904Y-162250476D01*
X275811428Y-162440952D01*
X275620952Y-162536190D01*
X283780952Y-161964761D02*
X285019047Y-161964761D01*
X284352380Y-162726666D01*
X284638095Y-162726666D01*
X284828571Y-162821904D01*
X284923809Y-162917142D01*
X285019047Y-163107619D01*
X285019047Y-163583809D01*
X284923809Y-163774285D01*
X284828571Y-163869523D01*
X284638095Y-163964761D01*
X284066666Y-163964761D01*
X283876190Y-163869523D01*
X283780952Y-163774285D01*
X285971428Y-163964761D02*
X286352380Y-163964761D01*
X286542857Y-163869523D01*
X286638095Y-163774285D01*
X286828571Y-163488571D01*
X286923809Y-163107619D01*
X286923809Y-162345714D01*
X286828571Y-162155238D01*
X286733333Y-162060000D01*
X286542857Y-161964761D01*
X286161904Y-161964761D01*
X285971428Y-162060000D01*
X285876190Y-162155238D01*
X285780952Y-162345714D01*
X285780952Y-162821904D01*
X285876190Y-163012380D01*
X285971428Y-163107619D01*
X286161904Y-163202857D01*
X286542857Y-163202857D01*
X286733333Y-163107619D01*
X286828571Y-163012380D01*
X286923809Y-162821904D01*
X273716190Y-106275238D02*
X273811428Y-106180000D01*
X274001904Y-106084761D01*
X274478095Y-106084761D01*
X274668571Y-106180000D01*
X274763809Y-106275238D01*
X274859047Y-106465714D01*
X274859047Y-106656190D01*
X274763809Y-106941904D01*
X273620952Y-108084761D01*
X274859047Y-108084761D01*
X276097142Y-106084761D02*
X276287619Y-106084761D01*
X276478095Y-106180000D01*
X276573333Y-106275238D01*
X276668571Y-106465714D01*
X276763809Y-106846666D01*
X276763809Y-107322857D01*
X276668571Y-107703809D01*
X276573333Y-107894285D01*
X276478095Y-107989523D01*
X276287619Y-108084761D01*
X276097142Y-108084761D01*
X275906666Y-107989523D01*
X275811428Y-107894285D01*
X275716190Y-107703809D01*
X275620952Y-107322857D01*
X275620952Y-106846666D01*
X275716190Y-106465714D01*
X275811428Y-106275238D01*
X275906666Y-106180000D01*
X276097142Y-106084761D01*
X257556190Y-75835000D02*
X257365714Y-75739761D01*
X257080000Y-75739761D01*
X256794285Y-75835000D01*
X256603809Y-76025476D01*
X256508571Y-76215952D01*
X256413333Y-76596904D01*
X256413333Y-76882619D01*
X256508571Y-77263571D01*
X256603809Y-77454047D01*
X256794285Y-77644523D01*
X257080000Y-77739761D01*
X257270476Y-77739761D01*
X257556190Y-77644523D01*
X257651428Y-77549285D01*
X257651428Y-76882619D01*
X257270476Y-76882619D01*
X258508571Y-77739761D02*
X258508571Y-75739761D01*
X259651428Y-77739761D01*
X259651428Y-75739761D01*
X260603809Y-77739761D02*
X260603809Y-75739761D01*
X261080000Y-75739761D01*
X261365714Y-75835000D01*
X261556190Y-76025476D01*
X261651428Y-76215952D01*
X261746666Y-76596904D01*
X261746666Y-76882619D01*
X261651428Y-77263571D01*
X261556190Y-77454047D01*
X261365714Y-77644523D01*
X261080000Y-77739761D01*
X260603809Y-77739761D01*
X284733333Y-80684761D02*
X286066666Y-80684761D01*
X285209523Y-82684761D01*
X257556190Y-141970238D02*
X257651428Y-141875000D01*
X257841904Y-141779761D01*
X258318095Y-141779761D01*
X258508571Y-141875000D01*
X258603809Y-141970238D01*
X258699047Y-142160714D01*
X258699047Y-142351190D01*
X258603809Y-142636904D01*
X257460952Y-143779761D01*
X258699047Y-143779761D01*
X259365714Y-141779761D02*
X260699047Y-141779761D01*
X259841904Y-143779761D01*
X284828571Y-172791428D02*
X284828571Y-174124761D01*
X284352380Y-172029523D02*
X283876190Y-173458095D01*
X285114285Y-173458095D01*
X286923809Y-174124761D02*
X285780952Y-174124761D01*
X286352380Y-174124761D02*
X286352380Y-172124761D01*
X286161904Y-172410476D01*
X285971428Y-172600952D01*
X285780952Y-172696190D01*
X285019047Y-128404761D02*
X283876190Y-128404761D01*
X284447619Y-128404761D02*
X284447619Y-126404761D01*
X284257142Y-126690476D01*
X284066666Y-126880952D01*
X283876190Y-126976190D01*
X286733333Y-126404761D02*
X286352380Y-126404761D01*
X286161904Y-126500000D01*
X286066666Y-126595238D01*
X285876190Y-126880952D01*
X285780952Y-127261904D01*
X285780952Y-128023809D01*
X285876190Y-128214285D01*
X285971428Y-128309523D01*
X286161904Y-128404761D01*
X286542857Y-128404761D01*
X286733333Y-128309523D01*
X286828571Y-128214285D01*
X286923809Y-128023809D01*
X286923809Y-127547619D01*
X286828571Y-127357142D01*
X286733333Y-127261904D01*
X286542857Y-127166666D01*
X286161904Y-127166666D01*
X285971428Y-127261904D01*
X285876190Y-127357142D01*
X285780952Y-127547619D01*
X300259047Y-108084761D02*
X299116190Y-108084761D01*
X299687619Y-108084761D02*
X299687619Y-106084761D01*
X299497142Y-106370476D01*
X299306666Y-106560952D01*
X299116190Y-106656190D01*
X301020952Y-106275238D02*
X301116190Y-106180000D01*
X301306666Y-106084761D01*
X301782857Y-106084761D01*
X301973333Y-106180000D01*
X302068571Y-106275238D01*
X302163809Y-106465714D01*
X302163809Y-106656190D01*
X302068571Y-106941904D01*
X300925714Y-108084761D01*
X302163809Y-108084761D01*
X285019047Y-123324761D02*
X283876190Y-123324761D01*
X284447619Y-123324761D02*
X284447619Y-121324761D01*
X284257142Y-121610476D01*
X284066666Y-121800952D01*
X283876190Y-121896190D01*
X286828571Y-121324761D02*
X285876190Y-121324761D01*
X285780952Y-122277142D01*
X285876190Y-122181904D01*
X286066666Y-122086666D01*
X286542857Y-122086666D01*
X286733333Y-122181904D01*
X286828571Y-122277142D01*
X286923809Y-122467619D01*
X286923809Y-122943809D01*
X286828571Y-123134285D01*
X286733333Y-123229523D01*
X286542857Y-123324761D01*
X286066666Y-123324761D01*
X285876190Y-123229523D01*
X285780952Y-123134285D01*
X273716190Y-126595238D02*
X273811428Y-126500000D01*
X274001904Y-126404761D01*
X274478095Y-126404761D01*
X274668571Y-126500000D01*
X274763809Y-126595238D01*
X274859047Y-126785714D01*
X274859047Y-126976190D01*
X274763809Y-127261904D01*
X273620952Y-128404761D01*
X274859047Y-128404761D01*
X276573333Y-127071428D02*
X276573333Y-128404761D01*
X276097142Y-126309523D02*
X275620952Y-127738095D01*
X276859047Y-127738095D01*
X257460952Y-167179761D02*
X258699047Y-167179761D01*
X258032380Y-167941666D01*
X258318095Y-167941666D01*
X258508571Y-168036904D01*
X258603809Y-168132142D01*
X258699047Y-168322619D01*
X258699047Y-168798809D01*
X258603809Y-168989285D01*
X258508571Y-169084523D01*
X258318095Y-169179761D01*
X257746666Y-169179761D01*
X257556190Y-169084523D01*
X257460952Y-168989285D01*
X259460952Y-167370238D02*
X259556190Y-167275000D01*
X259746666Y-167179761D01*
X260222857Y-167179761D01*
X260413333Y-167275000D01*
X260508571Y-167370238D01*
X260603809Y-167560714D01*
X260603809Y-167751190D01*
X260508571Y-168036904D01*
X259365714Y-169179761D01*
X260603809Y-169179761D01*
X257556190Y-126730238D02*
X257651428Y-126635000D01*
X257841904Y-126539761D01*
X258318095Y-126539761D01*
X258508571Y-126635000D01*
X258603809Y-126730238D01*
X258699047Y-126920714D01*
X258699047Y-127111190D01*
X258603809Y-127396904D01*
X257460952Y-128539761D01*
X258699047Y-128539761D01*
X260413333Y-127206428D02*
X260413333Y-128539761D01*
X259937142Y-126444523D02*
X259460952Y-127873095D01*
X260699047Y-127873095D01*
X257556190Y-106410238D02*
X257651428Y-106315000D01*
X257841904Y-106219761D01*
X258318095Y-106219761D01*
X258508571Y-106315000D01*
X258603809Y-106410238D01*
X258699047Y-106600714D01*
X258699047Y-106791190D01*
X258603809Y-107076904D01*
X257460952Y-108219761D01*
X258699047Y-108219761D01*
X259937142Y-106219761D02*
X260127619Y-106219761D01*
X260318095Y-106315000D01*
X260413333Y-106410238D01*
X260508571Y-106600714D01*
X260603809Y-106981666D01*
X260603809Y-107457857D01*
X260508571Y-107838809D01*
X260413333Y-108029285D01*
X260318095Y-108124523D01*
X260127619Y-108219761D01*
X259937142Y-108219761D01*
X259746666Y-108124523D01*
X259651428Y-108029285D01*
X259556190Y-107838809D01*
X259460952Y-107457857D01*
X259460952Y-106981666D01*
X259556190Y-106600714D01*
X259651428Y-106410238D01*
X259746666Y-106315000D01*
X259937142Y-106219761D01*
X285019047Y-92844761D02*
X285400000Y-92844761D01*
X285590476Y-92749523D01*
X285685714Y-92654285D01*
X285876190Y-92368571D01*
X285971428Y-91987619D01*
X285971428Y-91225714D01*
X285876190Y-91035238D01*
X285780952Y-90940000D01*
X285590476Y-90844761D01*
X285209523Y-90844761D01*
X285019047Y-90940000D01*
X284923809Y-91035238D01*
X284828571Y-91225714D01*
X284828571Y-91701904D01*
X284923809Y-91892380D01*
X285019047Y-91987619D01*
X285209523Y-92082857D01*
X285590476Y-92082857D01*
X285780952Y-91987619D01*
X285876190Y-91892380D01*
X285971428Y-91701904D01*
X273716190Y-116435238D02*
X273811428Y-116340000D01*
X274001904Y-116244761D01*
X274478095Y-116244761D01*
X274668571Y-116340000D01*
X274763809Y-116435238D01*
X274859047Y-116625714D01*
X274859047Y-116816190D01*
X274763809Y-117101904D01*
X273620952Y-118244761D01*
X274859047Y-118244761D01*
X275620952Y-116435238D02*
X275716190Y-116340000D01*
X275906666Y-116244761D01*
X276382857Y-116244761D01*
X276573333Y-116340000D01*
X276668571Y-116435238D01*
X276763809Y-116625714D01*
X276763809Y-116816190D01*
X276668571Y-117101904D01*
X275525714Y-118244761D01*
X276763809Y-118244761D01*
X274986190Y-177300000D02*
X274795714Y-177204761D01*
X274510000Y-177204761D01*
X274224285Y-177300000D01*
X274033809Y-177490476D01*
X273938571Y-177680952D01*
X273843333Y-178061904D01*
X273843333Y-178347619D01*
X273938571Y-178728571D01*
X274033809Y-178919047D01*
X274224285Y-179109523D01*
X274510000Y-179204761D01*
X274700476Y-179204761D01*
X274986190Y-179109523D01*
X275081428Y-179014285D01*
X275081428Y-178347619D01*
X274700476Y-178347619D01*
X275938571Y-179204761D02*
X275938571Y-177204761D01*
X277081428Y-179204761D01*
X277081428Y-177204761D01*
X278033809Y-179204761D02*
X278033809Y-177204761D01*
X278510000Y-177204761D01*
X278795714Y-177300000D01*
X278986190Y-177490476D01*
X279081428Y-177680952D01*
X279176666Y-178061904D01*
X279176666Y-178347619D01*
X279081428Y-178728571D01*
X278986190Y-178919047D01*
X278795714Y-179109523D01*
X278510000Y-179204761D01*
X278033809Y-179204761D01*
X273620952Y-167044761D02*
X274859047Y-167044761D01*
X274192380Y-167806666D01*
X274478095Y-167806666D01*
X274668571Y-167901904D01*
X274763809Y-167997142D01*
X274859047Y-168187619D01*
X274859047Y-168663809D01*
X274763809Y-168854285D01*
X274668571Y-168949523D01*
X274478095Y-169044761D01*
X273906666Y-169044761D01*
X273716190Y-168949523D01*
X273620952Y-168854285D01*
X275620952Y-167235238D02*
X275716190Y-167140000D01*
X275906666Y-167044761D01*
X276382857Y-167044761D01*
X276573333Y-167140000D01*
X276668571Y-167235238D01*
X276763809Y-167425714D01*
X276763809Y-167616190D01*
X276668571Y-167901904D01*
X275525714Y-169044761D01*
X276763809Y-169044761D01*
X171836190Y-209515000D02*
X171645714Y-209419761D01*
X171360000Y-209419761D01*
X171074285Y-209515000D01*
X170883809Y-209705476D01*
X170788571Y-209895952D01*
X170693333Y-210276904D01*
X170693333Y-210562619D01*
X170788571Y-210943571D01*
X170883809Y-211134047D01*
X171074285Y-211324523D01*
X171360000Y-211419761D01*
X171550476Y-211419761D01*
X171836190Y-211324523D01*
X171931428Y-211229285D01*
X171931428Y-210562619D01*
X171550476Y-210562619D01*
X172788571Y-211419761D02*
X172788571Y-209419761D01*
X173931428Y-211419761D01*
X173931428Y-209419761D01*
X174883809Y-211419761D02*
X174883809Y-209419761D01*
X175360000Y-209419761D01*
X175645714Y-209515000D01*
X175836190Y-209705476D01*
X175931428Y-209895952D01*
X176026666Y-210276904D01*
X176026666Y-210562619D01*
X175931428Y-210943571D01*
X175836190Y-211134047D01*
X175645714Y-211324523D01*
X175360000Y-211419761D01*
X174883809Y-211419761D01*
X273843333Y-198762857D02*
X275367142Y-198762857D01*
X274605238Y-199524761D02*
X274605238Y-198000952D01*
X277367142Y-199524761D02*
X276224285Y-199524761D01*
X276795714Y-199524761D02*
X276795714Y-197524761D01*
X276605238Y-197810476D01*
X276414761Y-198000952D01*
X276224285Y-198096190D01*
X278129047Y-197715238D02*
X278224285Y-197620000D01*
X278414761Y-197524761D01*
X278890952Y-197524761D01*
X279081428Y-197620000D01*
X279176666Y-197715238D01*
X279271904Y-197905714D01*
X279271904Y-198096190D01*
X279176666Y-198381904D01*
X278033809Y-199524761D01*
X279271904Y-199524761D01*
X257556190Y-111490238D02*
X257651428Y-111395000D01*
X257841904Y-111299761D01*
X258318095Y-111299761D01*
X258508571Y-111395000D01*
X258603809Y-111490238D01*
X258699047Y-111680714D01*
X258699047Y-111871190D01*
X258603809Y-112156904D01*
X257460952Y-113299761D01*
X258699047Y-113299761D01*
X260603809Y-113299761D02*
X259460952Y-113299761D01*
X260032380Y-113299761D02*
X260032380Y-111299761D01*
X259841904Y-111585476D01*
X259651428Y-111775952D01*
X259460952Y-111871190D01*
X300068571Y-208351428D02*
X300068571Y-209684761D01*
X299592380Y-207589523D02*
X299116190Y-209018095D01*
X300354285Y-209018095D01*
X301401904Y-208541904D02*
X301211428Y-208446666D01*
X301116190Y-208351428D01*
X301020952Y-208160952D01*
X301020952Y-208065714D01*
X301116190Y-207875238D01*
X301211428Y-207780000D01*
X301401904Y-207684761D01*
X301782857Y-207684761D01*
X301973333Y-207780000D01*
X302068571Y-207875238D01*
X302163809Y-208065714D01*
X302163809Y-208160952D01*
X302068571Y-208351428D01*
X301973333Y-208446666D01*
X301782857Y-208541904D01*
X301401904Y-208541904D01*
X301211428Y-208637142D01*
X301116190Y-208732380D01*
X301020952Y-208922857D01*
X301020952Y-209303809D01*
X301116190Y-209494285D01*
X301211428Y-209589523D01*
X301401904Y-209684761D01*
X301782857Y-209684761D01*
X301973333Y-209589523D01*
X302068571Y-209494285D01*
X302163809Y-209303809D01*
X302163809Y-208922857D01*
X302068571Y-208732380D01*
X301973333Y-208637142D01*
X301782857Y-208541904D01*
X257460952Y-162099761D02*
X258699047Y-162099761D01*
X258032380Y-162861666D01*
X258318095Y-162861666D01*
X258508571Y-162956904D01*
X258603809Y-163052142D01*
X258699047Y-163242619D01*
X258699047Y-163718809D01*
X258603809Y-163909285D01*
X258508571Y-164004523D01*
X258318095Y-164099761D01*
X257746666Y-164099761D01*
X257556190Y-164004523D01*
X257460952Y-163909285D01*
X260603809Y-164099761D02*
X259460952Y-164099761D01*
X260032380Y-164099761D02*
X260032380Y-162099761D01*
X259841904Y-162385476D01*
X259651428Y-162575952D01*
X259460952Y-162671190D01*
X257556190Y-116570238D02*
X257651428Y-116475000D01*
X257841904Y-116379761D01*
X258318095Y-116379761D01*
X258508571Y-116475000D01*
X258603809Y-116570238D01*
X258699047Y-116760714D01*
X258699047Y-116951190D01*
X258603809Y-117236904D01*
X257460952Y-118379761D01*
X258699047Y-118379761D01*
X259460952Y-116570238D02*
X259556190Y-116475000D01*
X259746666Y-116379761D01*
X260222857Y-116379761D01*
X260413333Y-116475000D01*
X260508571Y-116570238D01*
X260603809Y-116760714D01*
X260603809Y-116951190D01*
X260508571Y-117236904D01*
X259365714Y-118379761D01*
X260603809Y-118379761D01*
X284828571Y-167711428D02*
X284828571Y-169044761D01*
X284352380Y-166949523D02*
X283876190Y-168378095D01*
X285114285Y-168378095D01*
X286257142Y-167044761D02*
X286447619Y-167044761D01*
X286638095Y-167140000D01*
X286733333Y-167235238D01*
X286828571Y-167425714D01*
X286923809Y-167806666D01*
X286923809Y-168282857D01*
X286828571Y-168663809D01*
X286733333Y-168854285D01*
X286638095Y-168949523D01*
X286447619Y-169044761D01*
X286257142Y-169044761D01*
X286066666Y-168949523D01*
X285971428Y-168854285D01*
X285876190Y-168663809D01*
X285780952Y-168282857D01*
X285780952Y-167806666D01*
X285876190Y-167425714D01*
X285971428Y-167235238D01*
X286066666Y-167140000D01*
X286257142Y-167044761D01*
X258699047Y-103139761D02*
X257556190Y-103139761D01*
X258127619Y-103139761D02*
X258127619Y-101139761D01*
X257937142Y-101425476D01*
X257746666Y-101615952D01*
X257556190Y-101711190D01*
X259651428Y-103139761D02*
X260032380Y-103139761D01*
X260222857Y-103044523D01*
X260318095Y-102949285D01*
X260508571Y-102663571D01*
X260603809Y-102282619D01*
X260603809Y-101520714D01*
X260508571Y-101330238D01*
X260413333Y-101235000D01*
X260222857Y-101139761D01*
X259841904Y-101139761D01*
X259651428Y-101235000D01*
X259556190Y-101330238D01*
X259460952Y-101520714D01*
X259460952Y-101996904D01*
X259556190Y-102187380D01*
X259651428Y-102282619D01*
X259841904Y-102377857D01*
X260222857Y-102377857D01*
X260413333Y-102282619D01*
X260508571Y-102187380D01*
X260603809Y-101996904D01*
X274986190Y-172220000D02*
X274795714Y-172124761D01*
X274510000Y-172124761D01*
X274224285Y-172220000D01*
X274033809Y-172410476D01*
X273938571Y-172600952D01*
X273843333Y-172981904D01*
X273843333Y-173267619D01*
X273938571Y-173648571D01*
X274033809Y-173839047D01*
X274224285Y-174029523D01*
X274510000Y-174124761D01*
X274700476Y-174124761D01*
X274986190Y-174029523D01*
X275081428Y-173934285D01*
X275081428Y-173267619D01*
X274700476Y-173267619D01*
X275938571Y-174124761D02*
X275938571Y-172124761D01*
X277081428Y-174124761D01*
X277081428Y-172124761D01*
X278033809Y-174124761D02*
X278033809Y-172124761D01*
X278510000Y-172124761D01*
X278795714Y-172220000D01*
X278986190Y-172410476D01*
X279081428Y-172600952D01*
X279176666Y-172981904D01*
X279176666Y-173267619D01*
X279081428Y-173648571D01*
X278986190Y-173839047D01*
X278795714Y-174029523D01*
X278510000Y-174124761D01*
X278033809Y-174124761D01*
X285019047Y-113164761D02*
X283876190Y-113164761D01*
X284447619Y-113164761D02*
X284447619Y-111164761D01*
X284257142Y-111450476D01*
X284066666Y-111640952D01*
X283876190Y-111736190D01*
X285685714Y-111164761D02*
X286923809Y-111164761D01*
X286257142Y-111926666D01*
X286542857Y-111926666D01*
X286733333Y-112021904D01*
X286828571Y-112117142D01*
X286923809Y-112307619D01*
X286923809Y-112783809D01*
X286828571Y-112974285D01*
X286733333Y-113069523D01*
X286542857Y-113164761D01*
X285971428Y-113164761D01*
X285780952Y-113069523D01*
X285685714Y-112974285D01*
X257556190Y-70755000D02*
X257365714Y-70659761D01*
X257080000Y-70659761D01*
X256794285Y-70755000D01*
X256603809Y-70945476D01*
X256508571Y-71135952D01*
X256413333Y-71516904D01*
X256413333Y-71802619D01*
X256508571Y-72183571D01*
X256603809Y-72374047D01*
X256794285Y-72564523D01*
X257080000Y-72659761D01*
X257270476Y-72659761D01*
X257556190Y-72564523D01*
X257651428Y-72469285D01*
X257651428Y-71802619D01*
X257270476Y-71802619D01*
X258508571Y-72659761D02*
X258508571Y-70659761D01*
X259651428Y-72659761D01*
X259651428Y-70659761D01*
X260603809Y-72659761D02*
X260603809Y-70659761D01*
X261080000Y-70659761D01*
X261365714Y-70755000D01*
X261556190Y-70945476D01*
X261651428Y-71135952D01*
X261746666Y-71516904D01*
X261746666Y-71802619D01*
X261651428Y-72183571D01*
X261556190Y-72374047D01*
X261365714Y-72564523D01*
X261080000Y-72659761D01*
X260603809Y-72659761D01*
X284733333Y-60364761D02*
X285971428Y-60364761D01*
X285304761Y-61126666D01*
X285590476Y-61126666D01*
X285780952Y-61221904D01*
X285876190Y-61317142D01*
X285971428Y-61507619D01*
X285971428Y-61983809D01*
X285876190Y-62174285D01*
X285780952Y-62269523D01*
X285590476Y-62364761D01*
X285019047Y-62364761D01*
X284828571Y-62269523D01*
X284733333Y-62174285D01*
X257556190Y-80915000D02*
X257365714Y-80819761D01*
X257080000Y-80819761D01*
X256794285Y-80915000D01*
X256603809Y-81105476D01*
X256508571Y-81295952D01*
X256413333Y-81676904D01*
X256413333Y-81962619D01*
X256508571Y-82343571D01*
X256603809Y-82534047D01*
X256794285Y-82724523D01*
X257080000Y-82819761D01*
X257270476Y-82819761D01*
X257556190Y-82724523D01*
X257651428Y-82629285D01*
X257651428Y-81962619D01*
X257270476Y-81962619D01*
X258508571Y-82819761D02*
X258508571Y-80819761D01*
X259651428Y-82819761D01*
X259651428Y-80819761D01*
X260603809Y-82819761D02*
X260603809Y-80819761D01*
X261080000Y-80819761D01*
X261365714Y-80915000D01*
X261556190Y-81105476D01*
X261651428Y-81295952D01*
X261746666Y-81676904D01*
X261746666Y-81962619D01*
X261651428Y-82343571D01*
X261556190Y-82534047D01*
X261365714Y-82724523D01*
X261080000Y-82819761D01*
X260603809Y-82819761D01*
X285780952Y-66111428D02*
X285780952Y-67444761D01*
X285304761Y-65349523D02*
X284828571Y-66778095D01*
X286066666Y-66778095D01*
X273843333Y-56522857D02*
X275367142Y-56522857D01*
X274605238Y-57284761D02*
X274605238Y-55760952D01*
X277367142Y-57284761D02*
X276224285Y-57284761D01*
X276795714Y-57284761D02*
X276795714Y-55284761D01*
X276605238Y-55570476D01*
X276414761Y-55760952D01*
X276224285Y-55856190D01*
X278129047Y-55475238D02*
X278224285Y-55380000D01*
X278414761Y-55284761D01*
X278890952Y-55284761D01*
X279081428Y-55380000D01*
X279176666Y-55475238D01*
X279271904Y-55665714D01*
X279271904Y-55856190D01*
X279176666Y-56141904D01*
X278033809Y-57284761D01*
X279271904Y-57284761D01*
X299973333Y-60364761D02*
X301211428Y-60364761D01*
X300544761Y-61126666D01*
X300830476Y-61126666D01*
X301020952Y-61221904D01*
X301116190Y-61317142D01*
X301211428Y-61507619D01*
X301211428Y-61983809D01*
X301116190Y-62174285D01*
X301020952Y-62269523D01*
X300830476Y-62364761D01*
X300259047Y-62364761D01*
X300068571Y-62269523D01*
X299973333Y-62174285D01*
X274986190Y-80780000D02*
X274795714Y-80684761D01*
X274510000Y-80684761D01*
X274224285Y-80780000D01*
X274033809Y-80970476D01*
X273938571Y-81160952D01*
X273843333Y-81541904D01*
X273843333Y-81827619D01*
X273938571Y-82208571D01*
X274033809Y-82399047D01*
X274224285Y-82589523D01*
X274510000Y-82684761D01*
X274700476Y-82684761D01*
X274986190Y-82589523D01*
X275081428Y-82494285D01*
X275081428Y-81827619D01*
X274700476Y-81827619D01*
X275938571Y-82684761D02*
X275938571Y-80684761D01*
X277081428Y-82684761D01*
X277081428Y-80684761D01*
X278033809Y-82684761D02*
X278033809Y-80684761D01*
X278510000Y-80684761D01*
X278795714Y-80780000D01*
X278986190Y-80970476D01*
X279081428Y-81160952D01*
X279176666Y-81541904D01*
X279176666Y-81827619D01*
X279081428Y-82208571D01*
X278986190Y-82399047D01*
X278795714Y-82589523D01*
X278510000Y-82684761D01*
X278033809Y-82684761D01*
X285019047Y-118244761D02*
X283876190Y-118244761D01*
X284447619Y-118244761D02*
X284447619Y-116244761D01*
X284257142Y-116530476D01*
X284066666Y-116720952D01*
X283876190Y-116816190D01*
X286733333Y-116911428D02*
X286733333Y-118244761D01*
X286257142Y-116149523D02*
X285780952Y-117578095D01*
X287019047Y-117578095D01*
X283780952Y-146724761D02*
X285019047Y-146724761D01*
X284352380Y-147486666D01*
X284638095Y-147486666D01*
X284828571Y-147581904D01*
X284923809Y-147677142D01*
X285019047Y-147867619D01*
X285019047Y-148343809D01*
X284923809Y-148534285D01*
X284828571Y-148629523D01*
X284638095Y-148724761D01*
X284066666Y-148724761D01*
X283876190Y-148629523D01*
X283780952Y-148534285D01*
X286733333Y-146724761D02*
X286352380Y-146724761D01*
X286161904Y-146820000D01*
X286066666Y-146915238D01*
X285876190Y-147200952D01*
X285780952Y-147581904D01*
X285780952Y-148343809D01*
X285876190Y-148534285D01*
X285971428Y-148629523D01*
X286161904Y-148724761D01*
X286542857Y-148724761D01*
X286733333Y-148629523D01*
X286828571Y-148534285D01*
X286923809Y-148343809D01*
X286923809Y-147867619D01*
X286828571Y-147677142D01*
X286733333Y-147581904D01*
X286542857Y-147486666D01*
X286161904Y-147486666D01*
X285971428Y-147581904D01*
X285876190Y-147677142D01*
X285780952Y-147867619D01*
X300068571Y-182951428D02*
X300068571Y-184284761D01*
X299592380Y-182189523D02*
X299116190Y-183618095D01*
X300354285Y-183618095D01*
X300925714Y-182284761D02*
X302163809Y-182284761D01*
X301497142Y-183046666D01*
X301782857Y-183046666D01*
X301973333Y-183141904D01*
X302068571Y-183237142D01*
X302163809Y-183427619D01*
X302163809Y-183903809D01*
X302068571Y-184094285D01*
X301973333Y-184189523D01*
X301782857Y-184284761D01*
X301211428Y-184284761D01*
X301020952Y-184189523D01*
X300925714Y-184094285D01*
X256413333Y-193817857D02*
X257937142Y-193817857D01*
X257175238Y-194579761D02*
X257175238Y-193055952D01*
X259937142Y-194579761D02*
X258794285Y-194579761D01*
X259365714Y-194579761D02*
X259365714Y-192579761D01*
X259175238Y-192865476D01*
X258984761Y-193055952D01*
X258794285Y-193151190D01*
X260699047Y-192770238D02*
X260794285Y-192675000D01*
X260984761Y-192579761D01*
X261460952Y-192579761D01*
X261651428Y-192675000D01*
X261746666Y-192770238D01*
X261841904Y-192960714D01*
X261841904Y-193151190D01*
X261746666Y-193436904D01*
X260603809Y-194579761D01*
X261841904Y-194579761D01*
X301116190Y-70524761D02*
X300163809Y-70524761D01*
X300068571Y-71477142D01*
X300163809Y-71381904D01*
X300354285Y-71286666D01*
X300830476Y-71286666D01*
X301020952Y-71381904D01*
X301116190Y-71477142D01*
X301211428Y-71667619D01*
X301211428Y-72143809D01*
X301116190Y-72334285D01*
X301020952Y-72429523D01*
X300830476Y-72524761D01*
X300354285Y-72524761D01*
X300163809Y-72429523D01*
X300068571Y-72334285D01*
X299020952Y-131484761D02*
X300259047Y-131484761D01*
X299592380Y-132246666D01*
X299878095Y-132246666D01*
X300068571Y-132341904D01*
X300163809Y-132437142D01*
X300259047Y-132627619D01*
X300259047Y-133103809D01*
X300163809Y-133294285D01*
X300068571Y-133389523D01*
X299878095Y-133484761D01*
X299306666Y-133484761D01*
X299116190Y-133389523D01*
X299020952Y-133294285D01*
X300925714Y-131484761D02*
X302163809Y-131484761D01*
X301497142Y-132246666D01*
X301782857Y-132246666D01*
X301973333Y-132341904D01*
X302068571Y-132437142D01*
X302163809Y-132627619D01*
X302163809Y-133103809D01*
X302068571Y-133294285D01*
X301973333Y-133389523D01*
X301782857Y-133484761D01*
X301211428Y-133484761D01*
X301020952Y-133389523D01*
X300925714Y-133294285D01*
X258699047Y-98059761D02*
X257556190Y-98059761D01*
X258127619Y-98059761D02*
X258127619Y-96059761D01*
X257937142Y-96345476D01*
X257746666Y-96535952D01*
X257556190Y-96631190D01*
X259841904Y-96916904D02*
X259651428Y-96821666D01*
X259556190Y-96726428D01*
X259460952Y-96535952D01*
X259460952Y-96440714D01*
X259556190Y-96250238D01*
X259651428Y-96155000D01*
X259841904Y-96059761D01*
X260222857Y-96059761D01*
X260413333Y-96155000D01*
X260508571Y-96250238D01*
X260603809Y-96440714D01*
X260603809Y-96535952D01*
X260508571Y-96726428D01*
X260413333Y-96821666D01*
X260222857Y-96916904D01*
X259841904Y-96916904D01*
X259651428Y-97012142D01*
X259556190Y-97107380D01*
X259460952Y-97297857D01*
X259460952Y-97678809D01*
X259556190Y-97869285D01*
X259651428Y-97964523D01*
X259841904Y-98059761D01*
X260222857Y-98059761D01*
X260413333Y-97964523D01*
X260508571Y-97869285D01*
X260603809Y-97678809D01*
X260603809Y-97297857D01*
X260508571Y-97107380D01*
X260413333Y-97012142D01*
X260222857Y-96916904D01*
X257556190Y-136890238D02*
X257651428Y-136795000D01*
X257841904Y-136699761D01*
X258318095Y-136699761D01*
X258508571Y-136795000D01*
X258603809Y-136890238D01*
X258699047Y-137080714D01*
X258699047Y-137271190D01*
X258603809Y-137556904D01*
X257460952Y-138699761D01*
X258699047Y-138699761D01*
X260413333Y-136699761D02*
X260032380Y-136699761D01*
X259841904Y-136795000D01*
X259746666Y-136890238D01*
X259556190Y-137175952D01*
X259460952Y-137556904D01*
X259460952Y-138318809D01*
X259556190Y-138509285D01*
X259651428Y-138604523D01*
X259841904Y-138699761D01*
X260222857Y-138699761D01*
X260413333Y-138604523D01*
X260508571Y-138509285D01*
X260603809Y-138318809D01*
X260603809Y-137842619D01*
X260508571Y-137652142D01*
X260413333Y-137556904D01*
X260222857Y-137461666D01*
X259841904Y-137461666D01*
X259651428Y-137556904D01*
X259556190Y-137652142D01*
X259460952Y-137842619D01*
X273843333Y-66682857D02*
X275367142Y-66682857D01*
X274605238Y-67444761D02*
X274605238Y-65920952D01*
X277367142Y-67444761D02*
X276224285Y-67444761D01*
X276795714Y-67444761D02*
X276795714Y-65444761D01*
X276605238Y-65730476D01*
X276414761Y-65920952D01*
X276224285Y-66016190D01*
X278129047Y-65635238D02*
X278224285Y-65540000D01*
X278414761Y-65444761D01*
X278890952Y-65444761D01*
X279081428Y-65540000D01*
X279176666Y-65635238D01*
X279271904Y-65825714D01*
X279271904Y-66016190D01*
X279176666Y-66301904D01*
X278033809Y-67444761D01*
X279271904Y-67444761D01*
X256413333Y-209057857D02*
X257937142Y-209057857D01*
X257175238Y-209819761D02*
X257175238Y-208295952D01*
X259937142Y-209819761D02*
X258794285Y-209819761D01*
X259365714Y-209819761D02*
X259365714Y-207819761D01*
X259175238Y-208105476D01*
X258984761Y-208295952D01*
X258794285Y-208391190D01*
X260699047Y-208010238D02*
X260794285Y-207915000D01*
X260984761Y-207819761D01*
X261460952Y-207819761D01*
X261651428Y-207915000D01*
X261746666Y-208010238D01*
X261841904Y-208200714D01*
X261841904Y-208391190D01*
X261746666Y-208676904D01*
X260603809Y-209819761D01*
X261841904Y-209819761D01*
X274859047Y-92844761D02*
X273716190Y-92844761D01*
X274287619Y-92844761D02*
X274287619Y-90844761D01*
X274097142Y-91130476D01*
X273906666Y-91320952D01*
X273716190Y-91416190D01*
X275525714Y-90844761D02*
X276859047Y-90844761D01*
X276001904Y-92844761D01*
X273716190Y-141835238D02*
X273811428Y-141740000D01*
X274001904Y-141644761D01*
X274478095Y-141644761D01*
X274668571Y-141740000D01*
X274763809Y-141835238D01*
X274859047Y-142025714D01*
X274859047Y-142216190D01*
X274763809Y-142501904D01*
X273620952Y-143644761D01*
X274859047Y-143644761D01*
X275525714Y-141644761D02*
X276859047Y-141644761D01*
X276001904Y-143644761D01*
X300068571Y-55475238D02*
X300163809Y-55380000D01*
X300354285Y-55284761D01*
X300830476Y-55284761D01*
X301020952Y-55380000D01*
X301116190Y-55475238D01*
X301211428Y-55665714D01*
X301211428Y-55856190D01*
X301116190Y-56141904D01*
X299973333Y-57284761D01*
X301211428Y-57284761D01*
X258699047Y-92979761D02*
X257556190Y-92979761D01*
X258127619Y-92979761D02*
X258127619Y-90979761D01*
X257937142Y-91265476D01*
X257746666Y-91455952D01*
X257556190Y-91551190D01*
X259365714Y-90979761D02*
X260699047Y-90979761D01*
X259841904Y-92979761D01*
X285971428Y-52204761D02*
X284828571Y-52204761D01*
X285400000Y-52204761D02*
X285400000Y-50204761D01*
X285209523Y-50490476D01*
X285019047Y-50680952D01*
X284828571Y-50776190D01*
X273843333Y-61602857D02*
X275367142Y-61602857D01*
X274605238Y-62364761D02*
X274605238Y-60840952D01*
X277367142Y-62364761D02*
X276224285Y-62364761D01*
X276795714Y-62364761D02*
X276795714Y-60364761D01*
X276605238Y-60650476D01*
X276414761Y-60840952D01*
X276224285Y-60936190D01*
X278129047Y-60555238D02*
X278224285Y-60460000D01*
X278414761Y-60364761D01*
X278890952Y-60364761D01*
X279081428Y-60460000D01*
X279176666Y-60555238D01*
X279271904Y-60745714D01*
X279271904Y-60936190D01*
X279176666Y-61221904D01*
X278033809Y-62364761D01*
X279271904Y-62364761D01*
X300259047Y-97924761D02*
X299116190Y-97924761D01*
X299687619Y-97924761D02*
X299687619Y-95924761D01*
X299497142Y-96210476D01*
X299306666Y-96400952D01*
X299116190Y-96496190D01*
X301497142Y-95924761D02*
X301687619Y-95924761D01*
X301878095Y-96020000D01*
X301973333Y-96115238D01*
X302068571Y-96305714D01*
X302163809Y-96686666D01*
X302163809Y-97162857D01*
X302068571Y-97543809D01*
X301973333Y-97734285D01*
X301878095Y-97829523D01*
X301687619Y-97924761D01*
X301497142Y-97924761D01*
X301306666Y-97829523D01*
X301211428Y-97734285D01*
X301116190Y-97543809D01*
X301020952Y-97162857D01*
X301020952Y-96686666D01*
X301116190Y-96305714D01*
X301211428Y-96115238D01*
X301306666Y-96020000D01*
X301497142Y-95924761D01*
X257556190Y-177435000D02*
X257365714Y-177339761D01*
X257080000Y-177339761D01*
X256794285Y-177435000D01*
X256603809Y-177625476D01*
X256508571Y-177815952D01*
X256413333Y-178196904D01*
X256413333Y-178482619D01*
X256508571Y-178863571D01*
X256603809Y-179054047D01*
X256794285Y-179244523D01*
X257080000Y-179339761D01*
X257270476Y-179339761D01*
X257556190Y-179244523D01*
X257651428Y-179149285D01*
X257651428Y-178482619D01*
X257270476Y-178482619D01*
X258508571Y-179339761D02*
X258508571Y-177339761D01*
X259651428Y-179339761D01*
X259651428Y-177339761D01*
X260603809Y-179339761D02*
X260603809Y-177339761D01*
X261080000Y-177339761D01*
X261365714Y-177435000D01*
X261556190Y-177625476D01*
X261651428Y-177815952D01*
X261746666Y-178196904D01*
X261746666Y-178482619D01*
X261651428Y-178863571D01*
X261556190Y-179054047D01*
X261365714Y-179244523D01*
X261080000Y-179339761D01*
X260603809Y-179339761D01*
X274986190Y-182380000D02*
X274795714Y-182284761D01*
X274510000Y-182284761D01*
X274224285Y-182380000D01*
X274033809Y-182570476D01*
X273938571Y-182760952D01*
X273843333Y-183141904D01*
X273843333Y-183427619D01*
X273938571Y-183808571D01*
X274033809Y-183999047D01*
X274224285Y-184189523D01*
X274510000Y-184284761D01*
X274700476Y-184284761D01*
X274986190Y-184189523D01*
X275081428Y-184094285D01*
X275081428Y-183427619D01*
X274700476Y-183427619D01*
X275938571Y-184284761D02*
X275938571Y-182284761D01*
X277081428Y-184284761D01*
X277081428Y-182284761D01*
X278033809Y-184284761D02*
X278033809Y-182284761D01*
X278510000Y-182284761D01*
X278795714Y-182380000D01*
X278986190Y-182570476D01*
X279081428Y-182760952D01*
X279176666Y-183141904D01*
X279176666Y-183427619D01*
X279081428Y-183808571D01*
X278986190Y-183999047D01*
X278795714Y-184189523D01*
X278510000Y-184284761D01*
X278033809Y-184284761D01*
X300068571Y-172791428D02*
X300068571Y-174124761D01*
X299592380Y-172029523D02*
X299116190Y-173458095D01*
X300354285Y-173458095D01*
X302163809Y-174124761D02*
X301020952Y-174124761D01*
X301592380Y-174124761D02*
X301592380Y-172124761D01*
X301401904Y-172410476D01*
X301211428Y-172600952D01*
X301020952Y-172696190D01*
X299973333Y-80684761D02*
X301306666Y-80684761D01*
X300449523Y-82684761D01*
X273843333Y-51442857D02*
X275367142Y-51442857D01*
X274605238Y-52204761D02*
X274605238Y-50680952D01*
X277367142Y-52204761D02*
X276224285Y-52204761D01*
X276795714Y-52204761D02*
X276795714Y-50204761D01*
X276605238Y-50490476D01*
X276414761Y-50680952D01*
X276224285Y-50776190D01*
X278129047Y-50395238D02*
X278224285Y-50300000D01*
X278414761Y-50204761D01*
X278890952Y-50204761D01*
X279081428Y-50300000D01*
X279176666Y-50395238D01*
X279271904Y-50585714D01*
X279271904Y-50776190D01*
X279176666Y-51061904D01*
X278033809Y-52204761D01*
X279271904Y-52204761D01*
X283780952Y-136564761D02*
X285019047Y-136564761D01*
X284352380Y-137326666D01*
X284638095Y-137326666D01*
X284828571Y-137421904D01*
X284923809Y-137517142D01*
X285019047Y-137707619D01*
X285019047Y-138183809D01*
X284923809Y-138374285D01*
X284828571Y-138469523D01*
X284638095Y-138564761D01*
X284066666Y-138564761D01*
X283876190Y-138469523D01*
X283780952Y-138374285D01*
X286733333Y-137231428D02*
X286733333Y-138564761D01*
X286257142Y-136469523D02*
X285780952Y-137898095D01*
X287019047Y-137898095D01*
X256413333Y-198897857D02*
X257937142Y-198897857D01*
X257175238Y-199659761D02*
X257175238Y-198135952D01*
X259937142Y-199659761D02*
X258794285Y-199659761D01*
X259365714Y-199659761D02*
X259365714Y-197659761D01*
X259175238Y-197945476D01*
X258984761Y-198135952D01*
X258794285Y-198231190D01*
X260699047Y-197850238D02*
X260794285Y-197755000D01*
X260984761Y-197659761D01*
X261460952Y-197659761D01*
X261651428Y-197755000D01*
X261746666Y-197850238D01*
X261841904Y-198040714D01*
X261841904Y-198231190D01*
X261746666Y-198516904D01*
X260603809Y-199659761D01*
X261841904Y-199659761D01*
X299020952Y-136564761D02*
X300259047Y-136564761D01*
X299592380Y-137326666D01*
X299878095Y-137326666D01*
X300068571Y-137421904D01*
X300163809Y-137517142D01*
X300259047Y-137707619D01*
X300259047Y-138183809D01*
X300163809Y-138374285D01*
X300068571Y-138469523D01*
X299878095Y-138564761D01*
X299306666Y-138564761D01*
X299116190Y-138469523D01*
X299020952Y-138374285D01*
X301973333Y-137231428D02*
X301973333Y-138564761D01*
X301497142Y-136469523D02*
X301020952Y-137898095D01*
X302259047Y-137898095D01*
X273843333Y-193682857D02*
X275367142Y-193682857D01*
X274605238Y-194444761D02*
X274605238Y-192920952D01*
X277367142Y-194444761D02*
X276224285Y-194444761D01*
X276795714Y-194444761D02*
X276795714Y-192444761D01*
X276605238Y-192730476D01*
X276414761Y-192920952D01*
X276224285Y-193016190D01*
X278129047Y-192635238D02*
X278224285Y-192540000D01*
X278414761Y-192444761D01*
X278890952Y-192444761D01*
X279081428Y-192540000D01*
X279176666Y-192635238D01*
X279271904Y-192825714D01*
X279271904Y-193016190D01*
X279176666Y-193301904D01*
X278033809Y-194444761D01*
X279271904Y-194444761D01*
X256413333Y-56657857D02*
X257937142Y-56657857D01*
X257175238Y-57419761D02*
X257175238Y-55895952D01*
X259937142Y-57419761D02*
X258794285Y-57419761D01*
X259365714Y-57419761D02*
X259365714Y-55419761D01*
X259175238Y-55705476D01*
X258984761Y-55895952D01*
X258794285Y-55991190D01*
X260699047Y-55610238D02*
X260794285Y-55515000D01*
X260984761Y-55419761D01*
X261460952Y-55419761D01*
X261651428Y-55515000D01*
X261746666Y-55610238D01*
X261841904Y-55800714D01*
X261841904Y-55991190D01*
X261746666Y-56276904D01*
X260603809Y-57419761D01*
X261841904Y-57419761D01*
X274986190Y-85860000D02*
X274795714Y-85764761D01*
X274510000Y-85764761D01*
X274224285Y-85860000D01*
X274033809Y-86050476D01*
X273938571Y-86240952D01*
X273843333Y-86621904D01*
X273843333Y-86907619D01*
X273938571Y-87288571D01*
X274033809Y-87479047D01*
X274224285Y-87669523D01*
X274510000Y-87764761D01*
X274700476Y-87764761D01*
X274986190Y-87669523D01*
X275081428Y-87574285D01*
X275081428Y-86907619D01*
X274700476Y-86907619D01*
X275938571Y-87764761D02*
X275938571Y-85764761D01*
X277081428Y-87764761D01*
X277081428Y-85764761D01*
X278033809Y-87764761D02*
X278033809Y-85764761D01*
X278510000Y-85764761D01*
X278795714Y-85860000D01*
X278986190Y-86050476D01*
X279081428Y-86240952D01*
X279176666Y-86621904D01*
X279176666Y-86907619D01*
X279081428Y-87288571D01*
X278986190Y-87479047D01*
X278795714Y-87669523D01*
X278510000Y-87764761D01*
X278033809Y-87764761D01*
X257556190Y-121650238D02*
X257651428Y-121555000D01*
X257841904Y-121459761D01*
X258318095Y-121459761D01*
X258508571Y-121555000D01*
X258603809Y-121650238D01*
X258699047Y-121840714D01*
X258699047Y-122031190D01*
X258603809Y-122316904D01*
X257460952Y-123459761D01*
X258699047Y-123459761D01*
X259365714Y-121459761D02*
X260603809Y-121459761D01*
X259937142Y-122221666D01*
X260222857Y-122221666D01*
X260413333Y-122316904D01*
X260508571Y-122412142D01*
X260603809Y-122602619D01*
X260603809Y-123078809D01*
X260508571Y-123269285D01*
X260413333Y-123364523D01*
X260222857Y-123459761D01*
X259651428Y-123459761D01*
X259460952Y-123364523D01*
X259365714Y-123269285D01*
X300068571Y-188031428D02*
X300068571Y-189364761D01*
X299592380Y-187269523D02*
X299116190Y-188698095D01*
X300354285Y-188698095D01*
X301973333Y-188031428D02*
X301973333Y-189364761D01*
X301497142Y-187269523D02*
X301020952Y-188698095D01*
X302259047Y-188698095D01*
X285019047Y-103004761D02*
X283876190Y-103004761D01*
X284447619Y-103004761D02*
X284447619Y-101004761D01*
X284257142Y-101290476D01*
X284066666Y-101480952D01*
X283876190Y-101576190D01*
X286923809Y-103004761D02*
X285780952Y-103004761D01*
X286352380Y-103004761D02*
X286352380Y-101004761D01*
X286161904Y-101290476D01*
X285971428Y-101480952D01*
X285780952Y-101576190D01*
X256413333Y-203977857D02*
X257937142Y-203977857D01*
X257175238Y-204739761D02*
X257175238Y-203215952D01*
X259937142Y-204739761D02*
X258794285Y-204739761D01*
X259365714Y-204739761D02*
X259365714Y-202739761D01*
X259175238Y-203025476D01*
X258984761Y-203215952D01*
X258794285Y-203311190D01*
X260699047Y-202930238D02*
X260794285Y-202835000D01*
X260984761Y-202739761D01*
X261460952Y-202739761D01*
X261651428Y-202835000D01*
X261746666Y-202930238D01*
X261841904Y-203120714D01*
X261841904Y-203311190D01*
X261746666Y-203596904D01*
X260603809Y-204739761D01*
X261841904Y-204739761D01*
X299020952Y-141644761D02*
X300259047Y-141644761D01*
X299592380Y-142406666D01*
X299878095Y-142406666D01*
X300068571Y-142501904D01*
X300163809Y-142597142D01*
X300259047Y-142787619D01*
X300259047Y-143263809D01*
X300163809Y-143454285D01*
X300068571Y-143549523D01*
X299878095Y-143644761D01*
X299306666Y-143644761D01*
X299116190Y-143549523D01*
X299020952Y-143454285D01*
X302068571Y-141644761D02*
X301116190Y-141644761D01*
X301020952Y-142597142D01*
X301116190Y-142501904D01*
X301306666Y-142406666D01*
X301782857Y-142406666D01*
X301973333Y-142501904D01*
X302068571Y-142597142D01*
X302163809Y-142787619D01*
X302163809Y-143263809D01*
X302068571Y-143454285D01*
X301973333Y-143549523D01*
X301782857Y-143644761D01*
X301306666Y-143644761D01*
X301116190Y-143549523D01*
X301020952Y-143454285D01*
X273620952Y-156884761D02*
X274859047Y-156884761D01*
X274192380Y-157646666D01*
X274478095Y-157646666D01*
X274668571Y-157741904D01*
X274763809Y-157837142D01*
X274859047Y-158027619D01*
X274859047Y-158503809D01*
X274763809Y-158694285D01*
X274668571Y-158789523D01*
X274478095Y-158884761D01*
X273906666Y-158884761D01*
X273716190Y-158789523D01*
X273620952Y-158694285D01*
X276097142Y-156884761D02*
X276287619Y-156884761D01*
X276478095Y-156980000D01*
X276573333Y-157075238D01*
X276668571Y-157265714D01*
X276763809Y-157646666D01*
X276763809Y-158122857D01*
X276668571Y-158503809D01*
X276573333Y-158694285D01*
X276478095Y-158789523D01*
X276287619Y-158884761D01*
X276097142Y-158884761D01*
X275906666Y-158789523D01*
X275811428Y-158694285D01*
X275716190Y-158503809D01*
X275620952Y-158122857D01*
X275620952Y-157646666D01*
X275716190Y-157265714D01*
X275811428Y-157075238D01*
X275906666Y-156980000D01*
X276097142Y-156884761D01*
X247928571Y-205071428D02*
X247928571Y-206404761D01*
X247452380Y-204309523D02*
X246976190Y-205738095D01*
X248214285Y-205738095D01*
X249071428Y-206404761D02*
X249452380Y-206404761D01*
X249642857Y-206309523D01*
X249738095Y-206214285D01*
X249928571Y-205928571D01*
X250023809Y-205547619D01*
X250023809Y-204785714D01*
X249928571Y-204595238D01*
X249833333Y-204500000D01*
X249642857Y-204404761D01*
X249261904Y-204404761D01*
X249071428Y-204500000D01*
X248976190Y-204595238D01*
X248880952Y-204785714D01*
X248880952Y-205261904D01*
X248976190Y-205452380D01*
X249071428Y-205547619D01*
X249261904Y-205642857D01*
X249642857Y-205642857D01*
X249833333Y-205547619D01*
X249928571Y-205452380D01*
X250023809Y-205261904D01*
X284828571Y-188031428D02*
X284828571Y-189364761D01*
X284352380Y-187269523D02*
X283876190Y-188698095D01*
X285114285Y-188698095D01*
X286733333Y-188031428D02*
X286733333Y-189364761D01*
X286257142Y-187269523D02*
X285780952Y-188698095D01*
X287019047Y-188698095D01*
X299020952Y-156884761D02*
X300259047Y-156884761D01*
X299592380Y-157646666D01*
X299878095Y-157646666D01*
X300068571Y-157741904D01*
X300163809Y-157837142D01*
X300259047Y-158027619D01*
X300259047Y-158503809D01*
X300163809Y-158694285D01*
X300068571Y-158789523D01*
X299878095Y-158884761D01*
X299306666Y-158884761D01*
X299116190Y-158789523D01*
X299020952Y-158694285D01*
X301401904Y-157741904D02*
X301211428Y-157646666D01*
X301116190Y-157551428D01*
X301020952Y-157360952D01*
X301020952Y-157265714D01*
X301116190Y-157075238D01*
X301211428Y-156980000D01*
X301401904Y-156884761D01*
X301782857Y-156884761D01*
X301973333Y-156980000D01*
X302068571Y-157075238D01*
X302163809Y-157265714D01*
X302163809Y-157360952D01*
X302068571Y-157551428D01*
X301973333Y-157646666D01*
X301782857Y-157741904D01*
X301401904Y-157741904D01*
X301211428Y-157837142D01*
X301116190Y-157932380D01*
X301020952Y-158122857D01*
X301020952Y-158503809D01*
X301116190Y-158694285D01*
X301211428Y-158789523D01*
X301401904Y-158884761D01*
X301782857Y-158884761D01*
X301973333Y-158789523D01*
X302068571Y-158694285D01*
X302163809Y-158503809D01*
X302163809Y-158122857D01*
X302068571Y-157932380D01*
X301973333Y-157837142D01*
X301782857Y-157741904D01*
X283780952Y-151804761D02*
X285019047Y-151804761D01*
X284352380Y-152566666D01*
X284638095Y-152566666D01*
X284828571Y-152661904D01*
X284923809Y-152757142D01*
X285019047Y-152947619D01*
X285019047Y-153423809D01*
X284923809Y-153614285D01*
X284828571Y-153709523D01*
X284638095Y-153804761D01*
X284066666Y-153804761D01*
X283876190Y-153709523D01*
X283780952Y-153614285D01*
X285685714Y-151804761D02*
X287019047Y-151804761D01*
X286161904Y-153804761D01*
X257556190Y-182515000D02*
X257365714Y-182419761D01*
X257080000Y-182419761D01*
X256794285Y-182515000D01*
X256603809Y-182705476D01*
X256508571Y-182895952D01*
X256413333Y-183276904D01*
X256413333Y-183562619D01*
X256508571Y-183943571D01*
X256603809Y-184134047D01*
X256794285Y-184324523D01*
X257080000Y-184419761D01*
X257270476Y-184419761D01*
X257556190Y-184324523D01*
X257651428Y-184229285D01*
X257651428Y-183562619D01*
X257270476Y-183562619D01*
X258508571Y-184419761D02*
X258508571Y-182419761D01*
X259651428Y-184419761D01*
X259651428Y-182419761D01*
X260603809Y-184419761D02*
X260603809Y-182419761D01*
X261080000Y-182419761D01*
X261365714Y-182515000D01*
X261556190Y-182705476D01*
X261651428Y-182895952D01*
X261746666Y-183276904D01*
X261746666Y-183562619D01*
X261651428Y-183943571D01*
X261556190Y-184134047D01*
X261365714Y-184324523D01*
X261080000Y-184419761D01*
X260603809Y-184419761D01*
X257556190Y-85995000D02*
X257365714Y-85899761D01*
X257080000Y-85899761D01*
X256794285Y-85995000D01*
X256603809Y-86185476D01*
X256508571Y-86375952D01*
X256413333Y-86756904D01*
X256413333Y-87042619D01*
X256508571Y-87423571D01*
X256603809Y-87614047D01*
X256794285Y-87804523D01*
X257080000Y-87899761D01*
X257270476Y-87899761D01*
X257556190Y-87804523D01*
X257651428Y-87709285D01*
X257651428Y-87042619D01*
X257270476Y-87042619D01*
X258508571Y-87899761D02*
X258508571Y-85899761D01*
X259651428Y-87899761D01*
X259651428Y-85899761D01*
X260603809Y-87899761D02*
X260603809Y-85899761D01*
X261080000Y-85899761D01*
X261365714Y-85995000D01*
X261556190Y-86185476D01*
X261651428Y-86375952D01*
X261746666Y-86756904D01*
X261746666Y-87042619D01*
X261651428Y-87423571D01*
X261556190Y-87614047D01*
X261365714Y-87804523D01*
X261080000Y-87899761D01*
X260603809Y-87899761D01*
X274859047Y-97924761D02*
X273716190Y-97924761D01*
X274287619Y-97924761D02*
X274287619Y-95924761D01*
X274097142Y-96210476D01*
X273906666Y-96400952D01*
X273716190Y-96496190D01*
X276001904Y-96781904D02*
X275811428Y-96686666D01*
X275716190Y-96591428D01*
X275620952Y-96400952D01*
X275620952Y-96305714D01*
X275716190Y-96115238D01*
X275811428Y-96020000D01*
X276001904Y-95924761D01*
X276382857Y-95924761D01*
X276573333Y-96020000D01*
X276668571Y-96115238D01*
X276763809Y-96305714D01*
X276763809Y-96400952D01*
X276668571Y-96591428D01*
X276573333Y-96686666D01*
X276382857Y-96781904D01*
X276001904Y-96781904D01*
X275811428Y-96877142D01*
X275716190Y-96972380D01*
X275620952Y-97162857D01*
X275620952Y-97543809D01*
X275716190Y-97734285D01*
X275811428Y-97829523D01*
X276001904Y-97924761D01*
X276382857Y-97924761D01*
X276573333Y-97829523D01*
X276668571Y-97734285D01*
X276763809Y-97543809D01*
X276763809Y-97162857D01*
X276668571Y-96972380D01*
X276573333Y-96877142D01*
X276382857Y-96781904D01*
X257556190Y-147050238D02*
X257651428Y-146955000D01*
X257841904Y-146859761D01*
X258318095Y-146859761D01*
X258508571Y-146955000D01*
X258603809Y-147050238D01*
X258699047Y-147240714D01*
X258699047Y-147431190D01*
X258603809Y-147716904D01*
X257460952Y-148859761D01*
X258699047Y-148859761D01*
X259841904Y-147716904D02*
X259651428Y-147621666D01*
X259556190Y-147526428D01*
X259460952Y-147335952D01*
X259460952Y-147240714D01*
X259556190Y-147050238D01*
X259651428Y-146955000D01*
X259841904Y-146859761D01*
X260222857Y-146859761D01*
X260413333Y-146955000D01*
X260508571Y-147050238D01*
X260603809Y-147240714D01*
X260603809Y-147335952D01*
X260508571Y-147526428D01*
X260413333Y-147621666D01*
X260222857Y-147716904D01*
X259841904Y-147716904D01*
X259651428Y-147812142D01*
X259556190Y-147907380D01*
X259460952Y-148097857D01*
X259460952Y-148478809D01*
X259556190Y-148669285D01*
X259651428Y-148764523D01*
X259841904Y-148859761D01*
X260222857Y-148859761D01*
X260413333Y-148764523D01*
X260508571Y-148669285D01*
X260603809Y-148478809D01*
X260603809Y-148097857D01*
X260508571Y-147907380D01*
X260413333Y-147812142D01*
X260222857Y-147716904D01*
X300068571Y-203271428D02*
X300068571Y-204604761D01*
X299592380Y-202509523D02*
X299116190Y-203938095D01*
X300354285Y-203938095D01*
X300925714Y-202604761D02*
X302259047Y-202604761D01*
X301401904Y-204604761D01*
X301211428Y-52204761D02*
X300068571Y-52204761D01*
X300640000Y-52204761D02*
X300640000Y-50204761D01*
X300449523Y-50490476D01*
X300259047Y-50680952D01*
X300068571Y-50776190D01*
X299020952Y-146724761D02*
X300259047Y-146724761D01*
X299592380Y-147486666D01*
X299878095Y-147486666D01*
X300068571Y-147581904D01*
X300163809Y-147677142D01*
X300259047Y-147867619D01*
X300259047Y-148343809D01*
X300163809Y-148534285D01*
X300068571Y-148629523D01*
X299878095Y-148724761D01*
X299306666Y-148724761D01*
X299116190Y-148629523D01*
X299020952Y-148534285D01*
X301973333Y-146724761D02*
X301592380Y-146724761D01*
X301401904Y-146820000D01*
X301306666Y-146915238D01*
X301116190Y-147200952D01*
X301020952Y-147581904D01*
X301020952Y-148343809D01*
X301116190Y-148534285D01*
X301211428Y-148629523D01*
X301401904Y-148724761D01*
X301782857Y-148724761D01*
X301973333Y-148629523D01*
X302068571Y-148534285D01*
X302163809Y-148343809D01*
X302163809Y-147867619D01*
X302068571Y-147677142D01*
X301973333Y-147581904D01*
X301782857Y-147486666D01*
X301401904Y-147486666D01*
X301211428Y-147581904D01*
X301116190Y-147677142D01*
X301020952Y-147867619D01*
X284828571Y-177871428D02*
X284828571Y-179204761D01*
X284352380Y-177109523D02*
X283876190Y-178538095D01*
X285114285Y-178538095D01*
X285780952Y-177395238D02*
X285876190Y-177300000D01*
X286066666Y-177204761D01*
X286542857Y-177204761D01*
X286733333Y-177300000D01*
X286828571Y-177395238D01*
X286923809Y-177585714D01*
X286923809Y-177776190D01*
X286828571Y-178061904D01*
X285685714Y-179204761D01*
X286923809Y-179204761D01*
X284828571Y-55475238D02*
X284923809Y-55380000D01*
X285114285Y-55284761D01*
X285590476Y-55284761D01*
X285780952Y-55380000D01*
X285876190Y-55475238D01*
X285971428Y-55665714D01*
X285971428Y-55856190D01*
X285876190Y-56141904D01*
X284733333Y-57284761D01*
X285971428Y-57284761D01*
X284828571Y-203271428D02*
X284828571Y-204604761D01*
X284352380Y-202509523D02*
X283876190Y-203938095D01*
X285114285Y-203938095D01*
X285685714Y-202604761D02*
X287019047Y-202604761D01*
X286161904Y-204604761D01*
X256413333Y-66817857D02*
X257937142Y-66817857D01*
X257175238Y-67579761D02*
X257175238Y-66055952D01*
X259937142Y-67579761D02*
X258794285Y-67579761D01*
X259365714Y-67579761D02*
X259365714Y-65579761D01*
X259175238Y-65865476D01*
X258984761Y-66055952D01*
X258794285Y-66151190D01*
X260699047Y-65770238D02*
X260794285Y-65675000D01*
X260984761Y-65579761D01*
X261460952Y-65579761D01*
X261651428Y-65675000D01*
X261746666Y-65770238D01*
X261841904Y-65960714D01*
X261841904Y-66151190D01*
X261746666Y-66436904D01*
X260603809Y-67579761D01*
X261841904Y-67579761D01*
X273716190Y-146915238D02*
X273811428Y-146820000D01*
X274001904Y-146724761D01*
X274478095Y-146724761D01*
X274668571Y-146820000D01*
X274763809Y-146915238D01*
X274859047Y-147105714D01*
X274859047Y-147296190D01*
X274763809Y-147581904D01*
X273620952Y-148724761D01*
X274859047Y-148724761D01*
X276001904Y-147581904D02*
X275811428Y-147486666D01*
X275716190Y-147391428D01*
X275620952Y-147200952D01*
X275620952Y-147105714D01*
X275716190Y-146915238D01*
X275811428Y-146820000D01*
X276001904Y-146724761D01*
X276382857Y-146724761D01*
X276573333Y-146820000D01*
X276668571Y-146915238D01*
X276763809Y-147105714D01*
X276763809Y-147200952D01*
X276668571Y-147391428D01*
X276573333Y-147486666D01*
X276382857Y-147581904D01*
X276001904Y-147581904D01*
X275811428Y-147677142D01*
X275716190Y-147772380D01*
X275620952Y-147962857D01*
X275620952Y-148343809D01*
X275716190Y-148534285D01*
X275811428Y-148629523D01*
X276001904Y-148724761D01*
X276382857Y-148724761D01*
X276573333Y-148629523D01*
X276668571Y-148534285D01*
X276763809Y-148343809D01*
X276763809Y-147962857D01*
X276668571Y-147772380D01*
X276573333Y-147677142D01*
X276382857Y-147581904D01*
X300068571Y-167711428D02*
X300068571Y-169044761D01*
X299592380Y-166949523D02*
X299116190Y-168378095D01*
X300354285Y-168378095D01*
X301497142Y-167044761D02*
X301687619Y-167044761D01*
X301878095Y-167140000D01*
X301973333Y-167235238D01*
X302068571Y-167425714D01*
X302163809Y-167806666D01*
X302163809Y-168282857D01*
X302068571Y-168663809D01*
X301973333Y-168854285D01*
X301878095Y-168949523D01*
X301687619Y-169044761D01*
X301497142Y-169044761D01*
X301306666Y-168949523D01*
X301211428Y-168854285D01*
X301116190Y-168663809D01*
X301020952Y-168282857D01*
X301020952Y-167806666D01*
X301116190Y-167425714D01*
X301211428Y-167235238D01*
X301306666Y-167140000D01*
X301497142Y-167044761D01*
X300259047Y-118244761D02*
X299116190Y-118244761D01*
X299687619Y-118244761D02*
X299687619Y-116244761D01*
X299497142Y-116530476D01*
X299306666Y-116720952D01*
X299116190Y-116816190D01*
X301973333Y-116911428D02*
X301973333Y-118244761D01*
X301497142Y-116149523D02*
X301020952Y-117578095D01*
X302259047Y-117578095D01*
X284828571Y-208351428D02*
X284828571Y-209684761D01*
X284352380Y-207589523D02*
X283876190Y-209018095D01*
X285114285Y-209018095D01*
X286161904Y-208541904D02*
X285971428Y-208446666D01*
X285876190Y-208351428D01*
X285780952Y-208160952D01*
X285780952Y-208065714D01*
X285876190Y-207875238D01*
X285971428Y-207780000D01*
X286161904Y-207684761D01*
X286542857Y-207684761D01*
X286733333Y-207780000D01*
X286828571Y-207875238D01*
X286923809Y-208065714D01*
X286923809Y-208160952D01*
X286828571Y-208351428D01*
X286733333Y-208446666D01*
X286542857Y-208541904D01*
X286161904Y-208541904D01*
X285971428Y-208637142D01*
X285876190Y-208732380D01*
X285780952Y-208922857D01*
X285780952Y-209303809D01*
X285876190Y-209494285D01*
X285971428Y-209589523D01*
X286161904Y-209684761D01*
X286542857Y-209684761D01*
X286733333Y-209589523D01*
X286828571Y-209494285D01*
X286923809Y-209303809D01*
X286923809Y-208922857D01*
X286828571Y-208732380D01*
X286733333Y-208637142D01*
X286542857Y-208541904D01*
X300068571Y-177871428D02*
X300068571Y-179204761D01*
X299592380Y-177109523D02*
X299116190Y-178538095D01*
X300354285Y-178538095D01*
X301020952Y-177395238D02*
X301116190Y-177300000D01*
X301306666Y-177204761D01*
X301782857Y-177204761D01*
X301973333Y-177300000D01*
X302068571Y-177395238D01*
X302163809Y-177585714D01*
X302163809Y-177776190D01*
X302068571Y-178061904D01*
X300925714Y-179204761D01*
X302163809Y-179204761D01*
X284828571Y-193111428D02*
X284828571Y-194444761D01*
X284352380Y-192349523D02*
X283876190Y-193778095D01*
X285114285Y-193778095D01*
X286828571Y-192444761D02*
X285876190Y-192444761D01*
X285780952Y-193397142D01*
X285876190Y-193301904D01*
X286066666Y-193206666D01*
X286542857Y-193206666D01*
X286733333Y-193301904D01*
X286828571Y-193397142D01*
X286923809Y-193587619D01*
X286923809Y-194063809D01*
X286828571Y-194254285D01*
X286733333Y-194349523D01*
X286542857Y-194444761D01*
X286066666Y-194444761D01*
X285876190Y-194349523D01*
X285780952Y-194254285D01*
X256413333Y-61737857D02*
X257937142Y-61737857D01*
X257175238Y-62499761D02*
X257175238Y-60975952D01*
X259937142Y-62499761D02*
X258794285Y-62499761D01*
X259365714Y-62499761D02*
X259365714Y-60499761D01*
X259175238Y-60785476D01*
X258984761Y-60975952D01*
X258794285Y-61071190D01*
X260699047Y-60690238D02*
X260794285Y-60595000D01*
X260984761Y-60499761D01*
X261460952Y-60499761D01*
X261651428Y-60595000D01*
X261746666Y-60690238D01*
X261841904Y-60880714D01*
X261841904Y-61071190D01*
X261746666Y-61356904D01*
X260603809Y-62499761D01*
X261841904Y-62499761D01*
X274859047Y-103004761D02*
X273716190Y-103004761D01*
X274287619Y-103004761D02*
X274287619Y-101004761D01*
X274097142Y-101290476D01*
X273906666Y-101480952D01*
X273716190Y-101576190D01*
X275811428Y-103004761D02*
X276192380Y-103004761D01*
X276382857Y-102909523D01*
X276478095Y-102814285D01*
X276668571Y-102528571D01*
X276763809Y-102147619D01*
X276763809Y-101385714D01*
X276668571Y-101195238D01*
X276573333Y-101100000D01*
X276382857Y-101004761D01*
X276001904Y-101004761D01*
X275811428Y-101100000D01*
X275716190Y-101195238D01*
X275620952Y-101385714D01*
X275620952Y-101861904D01*
X275716190Y-102052380D01*
X275811428Y-102147619D01*
X276001904Y-102242857D01*
X276382857Y-102242857D01*
X276573333Y-102147619D01*
X276668571Y-102052380D01*
X276763809Y-101861904D01*
D11*
%TO.C,D1*%
X177102380Y-204438095D02*
X176102380Y-204438095D01*
X176102380Y-204200000D01*
X176150000Y-204057142D01*
X176245238Y-203961904D01*
X176340476Y-203914285D01*
X176530952Y-203866666D01*
X176673809Y-203866666D01*
X176864285Y-203914285D01*
X176959523Y-203961904D01*
X177054761Y-204057142D01*
X177102380Y-204200000D01*
X177102380Y-204438095D01*
X177102380Y-202914285D02*
X177102380Y-203485714D01*
X177102380Y-203200000D02*
X176102380Y-203200000D01*
X176245238Y-203295238D01*
X176340476Y-203390476D01*
X176388095Y-203485714D01*
%TO.C,J5*%
X169211666Y-197027380D02*
X169211666Y-197741666D01*
X169164047Y-197884523D01*
X169068809Y-197979761D01*
X168925952Y-198027380D01*
X168830714Y-198027380D01*
X170164047Y-197027380D02*
X169687857Y-197027380D01*
X169640238Y-197503571D01*
X169687857Y-197455952D01*
X169783095Y-197408333D01*
X170021190Y-197408333D01*
X170116428Y-197455952D01*
X170164047Y-197503571D01*
X170211666Y-197598809D01*
X170211666Y-197836904D01*
X170164047Y-197932142D01*
X170116428Y-197979761D01*
X170021190Y-198027380D01*
X169783095Y-198027380D01*
X169687857Y-197979761D01*
X169640238Y-197932142D01*
%TO.C,R1*%
X247483333Y-96212380D02*
X247150000Y-95736190D01*
X246911904Y-96212380D02*
X246911904Y-95212380D01*
X247292857Y-95212380D01*
X247388095Y-95260000D01*
X247435714Y-95307619D01*
X247483333Y-95402857D01*
X247483333Y-95545714D01*
X247435714Y-95640952D01*
X247388095Y-95688571D01*
X247292857Y-95736190D01*
X246911904Y-95736190D01*
X248435714Y-96212380D02*
X247864285Y-96212380D01*
X248150000Y-96212380D02*
X248150000Y-95212380D01*
X248054761Y-95355238D01*
X247959523Y-95450476D01*
X247864285Y-95498095D01*
%TO.C,RN12*%
X216092380Y-196706666D02*
X215616190Y-197040000D01*
X216092380Y-197278095D02*
X215092380Y-197278095D01*
X215092380Y-196897142D01*
X215140000Y-196801904D01*
X215187619Y-196754285D01*
X215282857Y-196706666D01*
X215425714Y-196706666D01*
X215520952Y-196754285D01*
X215568571Y-196801904D01*
X215616190Y-196897142D01*
X215616190Y-197278095D01*
X216092380Y-196278095D02*
X215092380Y-196278095D01*
X216092380Y-195706666D01*
X215092380Y-195706666D01*
X216092380Y-194706666D02*
X216092380Y-195278095D01*
X216092380Y-194992380D02*
X215092380Y-194992380D01*
X215235238Y-195087619D01*
X215330476Y-195182857D01*
X215378095Y-195278095D01*
X215187619Y-194325714D02*
X215140000Y-194278095D01*
X215092380Y-194182857D01*
X215092380Y-193944761D01*
X215140000Y-193849523D01*
X215187619Y-193801904D01*
X215282857Y-193754285D01*
X215378095Y-193754285D01*
X215520952Y-193801904D01*
X216092380Y-194373333D01*
X216092380Y-193754285D01*
%TO.C,R7*%
X223398333Y-158522380D02*
X223065000Y-158046190D01*
X222826904Y-158522380D02*
X222826904Y-157522380D01*
X223207857Y-157522380D01*
X223303095Y-157570000D01*
X223350714Y-157617619D01*
X223398333Y-157712857D01*
X223398333Y-157855714D01*
X223350714Y-157950952D01*
X223303095Y-157998571D01*
X223207857Y-158046190D01*
X222826904Y-158046190D01*
X223731666Y-157522380D02*
X224398333Y-157522380D01*
X223969761Y-158522380D01*
%TO.C,C8*%
X239863333Y-100807142D02*
X239815714Y-100854761D01*
X239672857Y-100902380D01*
X239577619Y-100902380D01*
X239434761Y-100854761D01*
X239339523Y-100759523D01*
X239291904Y-100664285D01*
X239244285Y-100473809D01*
X239244285Y-100330952D01*
X239291904Y-100140476D01*
X239339523Y-100045238D01*
X239434761Y-99950000D01*
X239577619Y-99902380D01*
X239672857Y-99902380D01*
X239815714Y-99950000D01*
X239863333Y-99997619D01*
X240434761Y-100330952D02*
X240339523Y-100283333D01*
X240291904Y-100235714D01*
X240244285Y-100140476D01*
X240244285Y-100092857D01*
X240291904Y-99997619D01*
X240339523Y-99950000D01*
X240434761Y-99902380D01*
X240625238Y-99902380D01*
X240720476Y-99950000D01*
X240768095Y-99997619D01*
X240815714Y-100092857D01*
X240815714Y-100140476D01*
X240768095Y-100235714D01*
X240720476Y-100283333D01*
X240625238Y-100330952D01*
X240434761Y-100330952D01*
X240339523Y-100378571D01*
X240291904Y-100426190D01*
X240244285Y-100521428D01*
X240244285Y-100711904D01*
X240291904Y-100807142D01*
X240339523Y-100854761D01*
X240434761Y-100902380D01*
X240625238Y-100902380D01*
X240720476Y-100854761D01*
X240768095Y-100807142D01*
X240815714Y-100711904D01*
X240815714Y-100521428D01*
X240768095Y-100426190D01*
X240720476Y-100378571D01*
X240625238Y-100330952D01*
%TO.C,RN9*%
X221692380Y-175910476D02*
X221216190Y-176243809D01*
X221692380Y-176481904D02*
X220692380Y-176481904D01*
X220692380Y-176100952D01*
X220740000Y-176005714D01*
X220787619Y-175958095D01*
X220882857Y-175910476D01*
X221025714Y-175910476D01*
X221120952Y-175958095D01*
X221168571Y-176005714D01*
X221216190Y-176100952D01*
X221216190Y-176481904D01*
X221692380Y-175481904D02*
X220692380Y-175481904D01*
X221692380Y-174910476D01*
X220692380Y-174910476D01*
X221692380Y-174386666D02*
X221692380Y-174196190D01*
X221644761Y-174100952D01*
X221597142Y-174053333D01*
X221454285Y-173958095D01*
X221263809Y-173910476D01*
X220882857Y-173910476D01*
X220787619Y-173958095D01*
X220740000Y-174005714D01*
X220692380Y-174100952D01*
X220692380Y-174291428D01*
X220740000Y-174386666D01*
X220787619Y-174434285D01*
X220882857Y-174481904D01*
X221120952Y-174481904D01*
X221216190Y-174434285D01*
X221263809Y-174386666D01*
X221311428Y-174291428D01*
X221311428Y-174100952D01*
X221263809Y-174005714D01*
X221216190Y-173958095D01*
X221120952Y-173910476D01*
%TO.C,R12*%
X247007142Y-110182380D02*
X246673809Y-109706190D01*
X246435714Y-110182380D02*
X246435714Y-109182380D01*
X246816666Y-109182380D01*
X246911904Y-109230000D01*
X246959523Y-109277619D01*
X247007142Y-109372857D01*
X247007142Y-109515714D01*
X246959523Y-109610952D01*
X246911904Y-109658571D01*
X246816666Y-109706190D01*
X246435714Y-109706190D01*
X247959523Y-110182380D02*
X247388095Y-110182380D01*
X247673809Y-110182380D02*
X247673809Y-109182380D01*
X247578571Y-109325238D01*
X247483333Y-109420476D01*
X247388095Y-109468095D01*
X248340476Y-109277619D02*
X248388095Y-109230000D01*
X248483333Y-109182380D01*
X248721428Y-109182380D01*
X248816666Y-109230000D01*
X248864285Y-109277619D01*
X248911904Y-109372857D01*
X248911904Y-109468095D01*
X248864285Y-109610952D01*
X248292857Y-110182380D01*
X248911904Y-110182380D01*
%TO.C,U1*%
X232918095Y-153442380D02*
X232918095Y-154251904D01*
X232965714Y-154347142D01*
X233013333Y-154394761D01*
X233108571Y-154442380D01*
X233299047Y-154442380D01*
X233394285Y-154394761D01*
X233441904Y-154347142D01*
X233489523Y-154251904D01*
X233489523Y-153442380D01*
X234489523Y-154442380D02*
X233918095Y-154442380D01*
X234203809Y-154442380D02*
X234203809Y-153442380D01*
X234108571Y-153585238D01*
X234013333Y-153680476D01*
X233918095Y-153728095D01*
%TO.C,F1*%
X168066666Y-193603571D02*
X167733333Y-193603571D01*
X167733333Y-194127380D02*
X167733333Y-193127380D01*
X168209523Y-193127380D01*
X169114285Y-194127380D02*
X168542857Y-194127380D01*
X168828571Y-194127380D02*
X168828571Y-193127380D01*
X168733333Y-193270238D01*
X168638095Y-193365476D01*
X168542857Y-193413095D01*
%TO.C,R11*%
X243092142Y-157282380D02*
X242758809Y-156806190D01*
X242520714Y-157282380D02*
X242520714Y-156282380D01*
X242901666Y-156282380D01*
X242996904Y-156330000D01*
X243044523Y-156377619D01*
X243092142Y-156472857D01*
X243092142Y-156615714D01*
X243044523Y-156710952D01*
X242996904Y-156758571D01*
X242901666Y-156806190D01*
X242520714Y-156806190D01*
X244044523Y-157282380D02*
X243473095Y-157282380D01*
X243758809Y-157282380D02*
X243758809Y-156282380D01*
X243663571Y-156425238D01*
X243568333Y-156520476D01*
X243473095Y-156568095D01*
X244996904Y-157282380D02*
X244425476Y-157282380D01*
X244711190Y-157282380D02*
X244711190Y-156282380D01*
X244615952Y-156425238D01*
X244520714Y-156520476D01*
X244425476Y-156568095D01*
%TO.C,C9*%
X239863333Y-110967142D02*
X239815714Y-111014761D01*
X239672857Y-111062380D01*
X239577619Y-111062380D01*
X239434761Y-111014761D01*
X239339523Y-110919523D01*
X239291904Y-110824285D01*
X239244285Y-110633809D01*
X239244285Y-110490952D01*
X239291904Y-110300476D01*
X239339523Y-110205238D01*
X239434761Y-110110000D01*
X239577619Y-110062380D01*
X239672857Y-110062380D01*
X239815714Y-110110000D01*
X239863333Y-110157619D01*
X240339523Y-111062380D02*
X240530000Y-111062380D01*
X240625238Y-111014761D01*
X240672857Y-110967142D01*
X240768095Y-110824285D01*
X240815714Y-110633809D01*
X240815714Y-110252857D01*
X240768095Y-110157619D01*
X240720476Y-110110000D01*
X240625238Y-110062380D01*
X240434761Y-110062380D01*
X240339523Y-110110000D01*
X240291904Y-110157619D01*
X240244285Y-110252857D01*
X240244285Y-110490952D01*
X240291904Y-110586190D01*
X240339523Y-110633809D01*
X240434761Y-110681428D01*
X240625238Y-110681428D01*
X240720476Y-110633809D01*
X240768095Y-110586190D01*
X240815714Y-110490952D01*
%TO.C,C2*%
X253247142Y-74421666D02*
X253294761Y-74469285D01*
X253342380Y-74612142D01*
X253342380Y-74707380D01*
X253294761Y-74850238D01*
X253199523Y-74945476D01*
X253104285Y-74993095D01*
X252913809Y-75040714D01*
X252770952Y-75040714D01*
X252580476Y-74993095D01*
X252485238Y-74945476D01*
X252390000Y-74850238D01*
X252342380Y-74707380D01*
X252342380Y-74612142D01*
X252390000Y-74469285D01*
X252437619Y-74421666D01*
X252437619Y-74040714D02*
X252390000Y-73993095D01*
X252342380Y-73897857D01*
X252342380Y-73659761D01*
X252390000Y-73564523D01*
X252437619Y-73516904D01*
X252532857Y-73469285D01*
X252628095Y-73469285D01*
X252770952Y-73516904D01*
X253342380Y-74088333D01*
X253342380Y-73469285D01*
%TO.C,R5*%
X223353333Y-154422380D02*
X223020000Y-153946190D01*
X222781904Y-154422380D02*
X222781904Y-153422380D01*
X223162857Y-153422380D01*
X223258095Y-153470000D01*
X223305714Y-153517619D01*
X223353333Y-153612857D01*
X223353333Y-153755714D01*
X223305714Y-153850952D01*
X223258095Y-153898571D01*
X223162857Y-153946190D01*
X222781904Y-153946190D01*
X224258095Y-153422380D02*
X223781904Y-153422380D01*
X223734285Y-153898571D01*
X223781904Y-153850952D01*
X223877142Y-153803333D01*
X224115238Y-153803333D01*
X224210476Y-153850952D01*
X224258095Y-153898571D01*
X224305714Y-153993809D01*
X224305714Y-154231904D01*
X224258095Y-154327142D01*
X224210476Y-154374761D01*
X224115238Y-154422380D01*
X223877142Y-154422380D01*
X223781904Y-154374761D01*
X223734285Y-154327142D01*
%TO.C,U2*%
X249402380Y-71841904D02*
X250211904Y-71841904D01*
X250307142Y-71794285D01*
X250354761Y-71746666D01*
X250402380Y-71651428D01*
X250402380Y-71460952D01*
X250354761Y-71365714D01*
X250307142Y-71318095D01*
X250211904Y-71270476D01*
X249402380Y-71270476D01*
X249497619Y-70841904D02*
X249450000Y-70794285D01*
X249402380Y-70699047D01*
X249402380Y-70460952D01*
X249450000Y-70365714D01*
X249497619Y-70318095D01*
X249592857Y-70270476D01*
X249688095Y-70270476D01*
X249830952Y-70318095D01*
X250402380Y-70889523D01*
X250402380Y-70270476D01*
%TO.C,RN3*%
X229312380Y-81930476D02*
X228836190Y-82263809D01*
X229312380Y-82501904D02*
X228312380Y-82501904D01*
X228312380Y-82120952D01*
X228360000Y-82025714D01*
X228407619Y-81978095D01*
X228502857Y-81930476D01*
X228645714Y-81930476D01*
X228740952Y-81978095D01*
X228788571Y-82025714D01*
X228836190Y-82120952D01*
X228836190Y-82501904D01*
X229312380Y-81501904D02*
X228312380Y-81501904D01*
X229312380Y-80930476D01*
X228312380Y-80930476D01*
X228312380Y-80549523D02*
X228312380Y-79930476D01*
X228693333Y-80263809D01*
X228693333Y-80120952D01*
X228740952Y-80025714D01*
X228788571Y-79978095D01*
X228883809Y-79930476D01*
X229121904Y-79930476D01*
X229217142Y-79978095D01*
X229264761Y-80025714D01*
X229312380Y-80120952D01*
X229312380Y-80406666D01*
X229264761Y-80501904D01*
X229217142Y-80549523D01*
%TO.C,U4*%
X249402380Y-186141904D02*
X250211904Y-186141904D01*
X250307142Y-186094285D01*
X250354761Y-186046666D01*
X250402380Y-185951428D01*
X250402380Y-185760952D01*
X250354761Y-185665714D01*
X250307142Y-185618095D01*
X250211904Y-185570476D01*
X249402380Y-185570476D01*
X249735714Y-184665714D02*
X250402380Y-184665714D01*
X249354761Y-184903809D02*
X250069047Y-185141904D01*
X250069047Y-184522857D01*
%TO.C,RN10*%
X229312380Y-176386666D02*
X228836190Y-176720000D01*
X229312380Y-176958095D02*
X228312380Y-176958095D01*
X228312380Y-176577142D01*
X228360000Y-176481904D01*
X228407619Y-176434285D01*
X228502857Y-176386666D01*
X228645714Y-176386666D01*
X228740952Y-176434285D01*
X228788571Y-176481904D01*
X228836190Y-176577142D01*
X228836190Y-176958095D01*
X229312380Y-175958095D02*
X228312380Y-175958095D01*
X229312380Y-175386666D01*
X228312380Y-175386666D01*
X229312380Y-174386666D02*
X229312380Y-174958095D01*
X229312380Y-174672380D02*
X228312380Y-174672380D01*
X228455238Y-174767619D01*
X228550476Y-174862857D01*
X228598095Y-174958095D01*
X228312380Y-173767619D02*
X228312380Y-173672380D01*
X228360000Y-173577142D01*
X228407619Y-173529523D01*
X228502857Y-173481904D01*
X228693333Y-173434285D01*
X228931428Y-173434285D01*
X229121904Y-173481904D01*
X229217142Y-173529523D01*
X229264761Y-173577142D01*
X229312380Y-173672380D01*
X229312380Y-173767619D01*
X229264761Y-173862857D01*
X229217142Y-173910476D01*
X229121904Y-173958095D01*
X228931428Y-174005714D01*
X228693333Y-174005714D01*
X228502857Y-173958095D01*
X228407619Y-173910476D01*
X228360000Y-173862857D01*
X228312380Y-173767619D01*
%TO.C,C7*%
X232927142Y-187991666D02*
X232974761Y-188039285D01*
X233022380Y-188182142D01*
X233022380Y-188277380D01*
X232974761Y-188420238D01*
X232879523Y-188515476D01*
X232784285Y-188563095D01*
X232593809Y-188610714D01*
X232450952Y-188610714D01*
X232260476Y-188563095D01*
X232165238Y-188515476D01*
X232070000Y-188420238D01*
X232022380Y-188277380D01*
X232022380Y-188182142D01*
X232070000Y-188039285D01*
X232117619Y-187991666D01*
X232022380Y-187658333D02*
X232022380Y-186991666D01*
X233022380Y-187420238D01*
%TO.C,R13*%
X177322380Y-207942857D02*
X176846190Y-208276190D01*
X177322380Y-208514285D02*
X176322380Y-208514285D01*
X176322380Y-208133333D01*
X176370000Y-208038095D01*
X176417619Y-207990476D01*
X176512857Y-207942857D01*
X176655714Y-207942857D01*
X176750952Y-207990476D01*
X176798571Y-208038095D01*
X176846190Y-208133333D01*
X176846190Y-208514285D01*
X177322380Y-206990476D02*
X177322380Y-207561904D01*
X177322380Y-207276190D02*
X176322380Y-207276190D01*
X176465238Y-207371428D01*
X176560476Y-207466666D01*
X176608095Y-207561904D01*
X176322380Y-206657142D02*
X176322380Y-206038095D01*
X176703333Y-206371428D01*
X176703333Y-206228571D01*
X176750952Y-206133333D01*
X176798571Y-206085714D01*
X176893809Y-206038095D01*
X177131904Y-206038095D01*
X177227142Y-206085714D01*
X177274761Y-206133333D01*
X177322380Y-206228571D01*
X177322380Y-206514285D01*
X177274761Y-206609523D01*
X177227142Y-206657142D01*
%TO.C,RN13*%
X223743333Y-99942380D02*
X223410000Y-99466190D01*
X223171904Y-99942380D02*
X223171904Y-98942380D01*
X223552857Y-98942380D01*
X223648095Y-98990000D01*
X223695714Y-99037619D01*
X223743333Y-99132857D01*
X223743333Y-99275714D01*
X223695714Y-99370952D01*
X223648095Y-99418571D01*
X223552857Y-99466190D01*
X223171904Y-99466190D01*
X224171904Y-99942380D02*
X224171904Y-98942380D01*
X224743333Y-99942380D01*
X224743333Y-98942380D01*
X225743333Y-99942380D02*
X225171904Y-99942380D01*
X225457619Y-99942380D02*
X225457619Y-98942380D01*
X225362380Y-99085238D01*
X225267142Y-99180476D01*
X225171904Y-99228095D01*
X226076666Y-98942380D02*
X226695714Y-98942380D01*
X226362380Y-99323333D01*
X226505238Y-99323333D01*
X226600476Y-99370952D01*
X226648095Y-99418571D01*
X226695714Y-99513809D01*
X226695714Y-99751904D01*
X226648095Y-99847142D01*
X226600476Y-99894761D01*
X226505238Y-99942380D01*
X226219523Y-99942380D01*
X226124285Y-99894761D01*
X226076666Y-99847142D01*
%TO.C,U11*%
X137461666Y-56744333D02*
X137461666Y-57877666D01*
X137528333Y-58011000D01*
X137595000Y-58077666D01*
X137728333Y-58144333D01*
X137995000Y-58144333D01*
X138128333Y-58077666D01*
X138195000Y-58011000D01*
X138261666Y-57877666D01*
X138261666Y-56744333D01*
X139661666Y-58144333D02*
X138861666Y-58144333D01*
X139261666Y-58144333D02*
X139261666Y-56744333D01*
X139128333Y-56944333D01*
X138995000Y-57077666D01*
X138861666Y-57144333D01*
X140995000Y-58144333D02*
X140195000Y-58144333D01*
X140595000Y-58144333D02*
X140595000Y-56744333D01*
X140461666Y-56944333D01*
X140328333Y-57077666D01*
X140195000Y-57144333D01*
%TO.C,C6*%
X232927142Y-132166666D02*
X232974761Y-132214285D01*
X233022380Y-132357142D01*
X233022380Y-132452380D01*
X232974761Y-132595238D01*
X232879523Y-132690476D01*
X232784285Y-132738095D01*
X232593809Y-132785714D01*
X232450952Y-132785714D01*
X232260476Y-132738095D01*
X232165238Y-132690476D01*
X232070000Y-132595238D01*
X232022380Y-132452380D01*
X232022380Y-132357142D01*
X232070000Y-132214285D01*
X232117619Y-132166666D01*
X232022380Y-131309523D02*
X232022380Y-131500000D01*
X232070000Y-131595238D01*
X232117619Y-131642857D01*
X232260476Y-131738095D01*
X232450952Y-131785714D01*
X232831904Y-131785714D01*
X232927142Y-131738095D01*
X232974761Y-131690476D01*
X233022380Y-131595238D01*
X233022380Y-131404761D01*
X232974761Y-131309523D01*
X232927142Y-131261904D01*
X232831904Y-131214285D01*
X232593809Y-131214285D01*
X232498571Y-131261904D01*
X232450952Y-131309523D01*
X232403333Y-131404761D01*
X232403333Y-131595238D01*
X232450952Y-131690476D01*
X232498571Y-131738095D01*
X232593809Y-131785714D01*
%TO.C,C1*%
X233513333Y-163037142D02*
X233465714Y-163084761D01*
X233322857Y-163132380D01*
X233227619Y-163132380D01*
X233084761Y-163084761D01*
X232989523Y-162989523D01*
X232941904Y-162894285D01*
X232894285Y-162703809D01*
X232894285Y-162560952D01*
X232941904Y-162370476D01*
X232989523Y-162275238D01*
X233084761Y-162180000D01*
X233227619Y-162132380D01*
X233322857Y-162132380D01*
X233465714Y-162180000D01*
X233513333Y-162227619D01*
X234465714Y-163132380D02*
X233894285Y-163132380D01*
X234180000Y-163132380D02*
X234180000Y-162132380D01*
X234084761Y-162275238D01*
X233989523Y-162370476D01*
X233894285Y-162418095D01*
%TO.C,R3*%
X247483333Y-106372380D02*
X247150000Y-105896190D01*
X246911904Y-106372380D02*
X246911904Y-105372380D01*
X247292857Y-105372380D01*
X247388095Y-105420000D01*
X247435714Y-105467619D01*
X247483333Y-105562857D01*
X247483333Y-105705714D01*
X247435714Y-105800952D01*
X247388095Y-105848571D01*
X247292857Y-105896190D01*
X246911904Y-105896190D01*
X247816666Y-105372380D02*
X248435714Y-105372380D01*
X248102380Y-105753333D01*
X248245238Y-105753333D01*
X248340476Y-105800952D01*
X248388095Y-105848571D01*
X248435714Y-105943809D01*
X248435714Y-106181904D01*
X248388095Y-106277142D01*
X248340476Y-106324761D01*
X248245238Y-106372380D01*
X247959523Y-106372380D01*
X247864285Y-106324761D01*
X247816666Y-106277142D01*
%TO.C,U5*%
X229082380Y-71841904D02*
X229891904Y-71841904D01*
X229987142Y-71794285D01*
X230034761Y-71746666D01*
X230082380Y-71651428D01*
X230082380Y-71460952D01*
X230034761Y-71365714D01*
X229987142Y-71318095D01*
X229891904Y-71270476D01*
X229082380Y-71270476D01*
X229082380Y-70318095D02*
X229082380Y-70794285D01*
X229558571Y-70841904D01*
X229510952Y-70794285D01*
X229463333Y-70699047D01*
X229463333Y-70460952D01*
X229510952Y-70365714D01*
X229558571Y-70318095D01*
X229653809Y-70270476D01*
X229891904Y-70270476D01*
X229987142Y-70318095D01*
X230034761Y-70365714D01*
X230082380Y-70460952D01*
X230082380Y-70699047D01*
X230034761Y-70794285D01*
X229987142Y-70841904D01*
%TO.C,R2*%
X247483333Y-100022380D02*
X247150000Y-99546190D01*
X246911904Y-100022380D02*
X246911904Y-99022380D01*
X247292857Y-99022380D01*
X247388095Y-99070000D01*
X247435714Y-99117619D01*
X247483333Y-99212857D01*
X247483333Y-99355714D01*
X247435714Y-99450952D01*
X247388095Y-99498571D01*
X247292857Y-99546190D01*
X246911904Y-99546190D01*
X247864285Y-99117619D02*
X247911904Y-99070000D01*
X248007142Y-99022380D01*
X248245238Y-99022380D01*
X248340476Y-99070000D01*
X248388095Y-99117619D01*
X248435714Y-99212857D01*
X248435714Y-99308095D01*
X248388095Y-99450952D01*
X247816666Y-100022380D01*
X248435714Y-100022380D01*
%TO.C,RN6*%
X229312380Y-120030476D02*
X228836190Y-120363809D01*
X229312380Y-120601904D02*
X228312380Y-120601904D01*
X228312380Y-120220952D01*
X228360000Y-120125714D01*
X228407619Y-120078095D01*
X228502857Y-120030476D01*
X228645714Y-120030476D01*
X228740952Y-120078095D01*
X228788571Y-120125714D01*
X228836190Y-120220952D01*
X228836190Y-120601904D01*
X229312380Y-119601904D02*
X228312380Y-119601904D01*
X229312380Y-119030476D01*
X228312380Y-119030476D01*
X228312380Y-118125714D02*
X228312380Y-118316190D01*
X228360000Y-118411428D01*
X228407619Y-118459047D01*
X228550476Y-118554285D01*
X228740952Y-118601904D01*
X229121904Y-118601904D01*
X229217142Y-118554285D01*
X229264761Y-118506666D01*
X229312380Y-118411428D01*
X229312380Y-118220952D01*
X229264761Y-118125714D01*
X229217142Y-118078095D01*
X229121904Y-118030476D01*
X228883809Y-118030476D01*
X228788571Y-118078095D01*
X228740952Y-118125714D01*
X228693333Y-118220952D01*
X228693333Y-118411428D01*
X228740952Y-118506666D01*
X228788571Y-118554285D01*
X228883809Y-118601904D01*
%TO.C,RN11*%
X223712380Y-196706666D02*
X223236190Y-197040000D01*
X223712380Y-197278095D02*
X222712380Y-197278095D01*
X222712380Y-196897142D01*
X222760000Y-196801904D01*
X222807619Y-196754285D01*
X222902857Y-196706666D01*
X223045714Y-196706666D01*
X223140952Y-196754285D01*
X223188571Y-196801904D01*
X223236190Y-196897142D01*
X223236190Y-197278095D01*
X223712380Y-196278095D02*
X222712380Y-196278095D01*
X223712380Y-195706666D01*
X222712380Y-195706666D01*
X223712380Y-194706666D02*
X223712380Y-195278095D01*
X223712380Y-194992380D02*
X222712380Y-194992380D01*
X222855238Y-195087619D01*
X222950476Y-195182857D01*
X222998095Y-195278095D01*
X223712380Y-193754285D02*
X223712380Y-194325714D01*
X223712380Y-194040000D02*
X222712380Y-194040000D01*
X222855238Y-194135238D01*
X222950476Y-194230476D01*
X222998095Y-194325714D01*
%TO.C,U10*%
X215931904Y-92572380D02*
X215931904Y-93381904D01*
X215979523Y-93477142D01*
X216027142Y-93524761D01*
X216122380Y-93572380D01*
X216312857Y-93572380D01*
X216408095Y-93524761D01*
X216455714Y-93477142D01*
X216503333Y-93381904D01*
X216503333Y-92572380D01*
X217503333Y-93572380D02*
X216931904Y-93572380D01*
X217217619Y-93572380D02*
X217217619Y-92572380D01*
X217122380Y-92715238D01*
X217027142Y-92810476D01*
X216931904Y-92858095D01*
X218122380Y-92572380D02*
X218217619Y-92572380D01*
X218312857Y-92620000D01*
X218360476Y-92667619D01*
X218408095Y-92762857D01*
X218455714Y-92953333D01*
X218455714Y-93191428D01*
X218408095Y-93381904D01*
X218360476Y-93477142D01*
X218312857Y-93524761D01*
X218217619Y-93572380D01*
X218122380Y-93572380D01*
X218027142Y-93524761D01*
X217979523Y-93477142D01*
X217931904Y-93381904D01*
X217884285Y-93191428D01*
X217884285Y-92953333D01*
X217931904Y-92762857D01*
X217979523Y-92667619D01*
X218027142Y-92620000D01*
X218122380Y-92572380D01*
%TO.C,R8*%
X239758333Y-161382380D02*
X239425000Y-160906190D01*
X239186904Y-161382380D02*
X239186904Y-160382380D01*
X239567857Y-160382380D01*
X239663095Y-160430000D01*
X239710714Y-160477619D01*
X239758333Y-160572857D01*
X239758333Y-160715714D01*
X239710714Y-160810952D01*
X239663095Y-160858571D01*
X239567857Y-160906190D01*
X239186904Y-160906190D01*
X240329761Y-160810952D02*
X240234523Y-160763333D01*
X240186904Y-160715714D01*
X240139285Y-160620476D01*
X240139285Y-160572857D01*
X240186904Y-160477619D01*
X240234523Y-160430000D01*
X240329761Y-160382380D01*
X240520238Y-160382380D01*
X240615476Y-160430000D01*
X240663095Y-160477619D01*
X240710714Y-160572857D01*
X240710714Y-160620476D01*
X240663095Y-160715714D01*
X240615476Y-160763333D01*
X240520238Y-160810952D01*
X240329761Y-160810952D01*
X240234523Y-160858571D01*
X240186904Y-160906190D01*
X240139285Y-161001428D01*
X240139285Y-161191904D01*
X240186904Y-161287142D01*
X240234523Y-161334761D01*
X240329761Y-161382380D01*
X240520238Y-161382380D01*
X240615476Y-161334761D01*
X240663095Y-161287142D01*
X240710714Y-161191904D01*
X240710714Y-161001428D01*
X240663095Y-160906190D01*
X240615476Y-160858571D01*
X240520238Y-160810952D01*
%TO.C,R6*%
X227208333Y-158522380D02*
X226875000Y-158046190D01*
X226636904Y-158522380D02*
X226636904Y-157522380D01*
X227017857Y-157522380D01*
X227113095Y-157570000D01*
X227160714Y-157617619D01*
X227208333Y-157712857D01*
X227208333Y-157855714D01*
X227160714Y-157950952D01*
X227113095Y-157998571D01*
X227017857Y-158046190D01*
X226636904Y-158046190D01*
X228065476Y-157522380D02*
X227875000Y-157522380D01*
X227779761Y-157570000D01*
X227732142Y-157617619D01*
X227636904Y-157760476D01*
X227589285Y-157950952D01*
X227589285Y-158331904D01*
X227636904Y-158427142D01*
X227684523Y-158474761D01*
X227779761Y-158522380D01*
X227970238Y-158522380D01*
X228065476Y-158474761D01*
X228113095Y-158427142D01*
X228160714Y-158331904D01*
X228160714Y-158093809D01*
X228113095Y-157998571D01*
X228065476Y-157950952D01*
X227970238Y-157903333D01*
X227779761Y-157903333D01*
X227684523Y-157950952D01*
X227636904Y-157998571D01*
X227589285Y-158093809D01*
%TO.C,U8*%
X239268095Y-91262380D02*
X239268095Y-92071904D01*
X239315714Y-92167142D01*
X239363333Y-92214761D01*
X239458571Y-92262380D01*
X239649047Y-92262380D01*
X239744285Y-92214761D01*
X239791904Y-92167142D01*
X239839523Y-92071904D01*
X239839523Y-91262380D01*
X240458571Y-91690952D02*
X240363333Y-91643333D01*
X240315714Y-91595714D01*
X240268095Y-91500476D01*
X240268095Y-91452857D01*
X240315714Y-91357619D01*
X240363333Y-91310000D01*
X240458571Y-91262380D01*
X240649047Y-91262380D01*
X240744285Y-91310000D01*
X240791904Y-91357619D01*
X240839523Y-91452857D01*
X240839523Y-91500476D01*
X240791904Y-91595714D01*
X240744285Y-91643333D01*
X240649047Y-91690952D01*
X240458571Y-91690952D01*
X240363333Y-91738571D01*
X240315714Y-91786190D01*
X240268095Y-91881428D01*
X240268095Y-92071904D01*
X240315714Y-92167142D01*
X240363333Y-92214761D01*
X240458571Y-92262380D01*
X240649047Y-92262380D01*
X240744285Y-92214761D01*
X240791904Y-92167142D01*
X240839523Y-92071904D01*
X240839523Y-91881428D01*
X240791904Y-91786190D01*
X240744285Y-91738571D01*
X240649047Y-91690952D01*
%TO.C,RN2*%
X223712380Y-61610476D02*
X223236190Y-61943809D01*
X223712380Y-62181904D02*
X222712380Y-62181904D01*
X222712380Y-61800952D01*
X222760000Y-61705714D01*
X222807619Y-61658095D01*
X222902857Y-61610476D01*
X223045714Y-61610476D01*
X223140952Y-61658095D01*
X223188571Y-61705714D01*
X223236190Y-61800952D01*
X223236190Y-62181904D01*
X223712380Y-61181904D02*
X222712380Y-61181904D01*
X223712380Y-60610476D01*
X222712380Y-60610476D01*
X222807619Y-60181904D02*
X222760000Y-60134285D01*
X222712380Y-60039047D01*
X222712380Y-59800952D01*
X222760000Y-59705714D01*
X222807619Y-59658095D01*
X222902857Y-59610476D01*
X222998095Y-59610476D01*
X223140952Y-59658095D01*
X223712380Y-60229523D01*
X223712380Y-59610476D01*
%TO.C,R4*%
X227163333Y-154422380D02*
X226830000Y-153946190D01*
X226591904Y-154422380D02*
X226591904Y-153422380D01*
X226972857Y-153422380D01*
X227068095Y-153470000D01*
X227115714Y-153517619D01*
X227163333Y-153612857D01*
X227163333Y-153755714D01*
X227115714Y-153850952D01*
X227068095Y-153898571D01*
X226972857Y-153946190D01*
X226591904Y-153946190D01*
X228020476Y-153755714D02*
X228020476Y-154422380D01*
X227782380Y-153374761D02*
X227544285Y-154089047D01*
X228163333Y-154089047D01*
%TO.C,RN8*%
X216092380Y-140350476D02*
X215616190Y-140683809D01*
X216092380Y-140921904D02*
X215092380Y-140921904D01*
X215092380Y-140540952D01*
X215140000Y-140445714D01*
X215187619Y-140398095D01*
X215282857Y-140350476D01*
X215425714Y-140350476D01*
X215520952Y-140398095D01*
X215568571Y-140445714D01*
X215616190Y-140540952D01*
X215616190Y-140921904D01*
X216092380Y-139921904D02*
X215092380Y-139921904D01*
X216092380Y-139350476D01*
X215092380Y-139350476D01*
X215520952Y-138731428D02*
X215473333Y-138826666D01*
X215425714Y-138874285D01*
X215330476Y-138921904D01*
X215282857Y-138921904D01*
X215187619Y-138874285D01*
X215140000Y-138826666D01*
X215092380Y-138731428D01*
X215092380Y-138540952D01*
X215140000Y-138445714D01*
X215187619Y-138398095D01*
X215282857Y-138350476D01*
X215330476Y-138350476D01*
X215425714Y-138398095D01*
X215473333Y-138445714D01*
X215520952Y-138540952D01*
X215520952Y-138731428D01*
X215568571Y-138826666D01*
X215616190Y-138874285D01*
X215711428Y-138921904D01*
X215901904Y-138921904D01*
X215997142Y-138874285D01*
X216044761Y-138826666D01*
X216092380Y-138731428D01*
X216092380Y-138540952D01*
X216044761Y-138445714D01*
X215997142Y-138398095D01*
X215901904Y-138350476D01*
X215711428Y-138350476D01*
X215616190Y-138398095D01*
X215568571Y-138445714D01*
X215520952Y-138540952D01*
%TO.C,R10*%
X239282142Y-157282380D02*
X238948809Y-156806190D01*
X238710714Y-157282380D02*
X238710714Y-156282380D01*
X239091666Y-156282380D01*
X239186904Y-156330000D01*
X239234523Y-156377619D01*
X239282142Y-156472857D01*
X239282142Y-156615714D01*
X239234523Y-156710952D01*
X239186904Y-156758571D01*
X239091666Y-156806190D01*
X238710714Y-156806190D01*
X240234523Y-157282380D02*
X239663095Y-157282380D01*
X239948809Y-157282380D02*
X239948809Y-156282380D01*
X239853571Y-156425238D01*
X239758333Y-156520476D01*
X239663095Y-156568095D01*
X240853571Y-156282380D02*
X240948809Y-156282380D01*
X241044047Y-156330000D01*
X241091666Y-156377619D01*
X241139285Y-156472857D01*
X241186904Y-156663333D01*
X241186904Y-156901428D01*
X241139285Y-157091904D01*
X241091666Y-157187142D01*
X241044047Y-157234761D01*
X240948809Y-157282380D01*
X240853571Y-157282380D01*
X240758333Y-157234761D01*
X240710714Y-157187142D01*
X240663095Y-157091904D01*
X240615476Y-156901428D01*
X240615476Y-156663333D01*
X240663095Y-156472857D01*
X240710714Y-156377619D01*
X240758333Y-156330000D01*
X240853571Y-156282380D01*
%TO.C,U6*%
X229082380Y-130261904D02*
X229891904Y-130261904D01*
X229987142Y-130214285D01*
X230034761Y-130166666D01*
X230082380Y-130071428D01*
X230082380Y-129880952D01*
X230034761Y-129785714D01*
X229987142Y-129738095D01*
X229891904Y-129690476D01*
X229082380Y-129690476D01*
X229082380Y-128785714D02*
X229082380Y-128976190D01*
X229130000Y-129071428D01*
X229177619Y-129119047D01*
X229320476Y-129214285D01*
X229510952Y-129261904D01*
X229891904Y-129261904D01*
X229987142Y-129214285D01*
X230034761Y-129166666D01*
X230082380Y-129071428D01*
X230082380Y-128880952D01*
X230034761Y-128785714D01*
X229987142Y-128738095D01*
X229891904Y-128690476D01*
X229653809Y-128690476D01*
X229558571Y-128738095D01*
X229510952Y-128785714D01*
X229463333Y-128880952D01*
X229463333Y-129071428D01*
X229510952Y-129166666D01*
X229558571Y-129214285D01*
X229653809Y-129261904D01*
%TO.C,RN7*%
X223712380Y-140350476D02*
X223236190Y-140683809D01*
X223712380Y-140921904D02*
X222712380Y-140921904D01*
X222712380Y-140540952D01*
X222760000Y-140445714D01*
X222807619Y-140398095D01*
X222902857Y-140350476D01*
X223045714Y-140350476D01*
X223140952Y-140398095D01*
X223188571Y-140445714D01*
X223236190Y-140540952D01*
X223236190Y-140921904D01*
X223712380Y-139921904D02*
X222712380Y-139921904D01*
X223712380Y-139350476D01*
X222712380Y-139350476D01*
X222712380Y-138969523D02*
X222712380Y-138302857D01*
X223712380Y-138731428D01*
%TO.C,U3*%
X249402380Y-130261904D02*
X250211904Y-130261904D01*
X250307142Y-130214285D01*
X250354761Y-130166666D01*
X250402380Y-130071428D01*
X250402380Y-129880952D01*
X250354761Y-129785714D01*
X250307142Y-129738095D01*
X250211904Y-129690476D01*
X249402380Y-129690476D01*
X249402380Y-129309523D02*
X249402380Y-128690476D01*
X249783333Y-129023809D01*
X249783333Y-128880952D01*
X249830952Y-128785714D01*
X249878571Y-128738095D01*
X249973809Y-128690476D01*
X250211904Y-128690476D01*
X250307142Y-128738095D01*
X250354761Y-128785714D01*
X250402380Y-128880952D01*
X250402380Y-129166666D01*
X250354761Y-129261904D01*
X250307142Y-129309523D01*
%TO.C,RN5*%
X221692380Y-120030476D02*
X221216190Y-120363809D01*
X221692380Y-120601904D02*
X220692380Y-120601904D01*
X220692380Y-120220952D01*
X220740000Y-120125714D01*
X220787619Y-120078095D01*
X220882857Y-120030476D01*
X221025714Y-120030476D01*
X221120952Y-120078095D01*
X221168571Y-120125714D01*
X221216190Y-120220952D01*
X221216190Y-120601904D01*
X221692380Y-119601904D02*
X220692380Y-119601904D01*
X221692380Y-119030476D01*
X220692380Y-119030476D01*
X220692380Y-118078095D02*
X220692380Y-118554285D01*
X221168571Y-118601904D01*
X221120952Y-118554285D01*
X221073333Y-118459047D01*
X221073333Y-118220952D01*
X221120952Y-118125714D01*
X221168571Y-118078095D01*
X221263809Y-118030476D01*
X221501904Y-118030476D01*
X221597142Y-118078095D01*
X221644761Y-118125714D01*
X221692380Y-118220952D01*
X221692380Y-118459047D01*
X221644761Y-118554285D01*
X221597142Y-118601904D01*
%TO.C,C4*%
X253247142Y-188721666D02*
X253294761Y-188769285D01*
X253342380Y-188912142D01*
X253342380Y-189007380D01*
X253294761Y-189150238D01*
X253199523Y-189245476D01*
X253104285Y-189293095D01*
X252913809Y-189340714D01*
X252770952Y-189340714D01*
X252580476Y-189293095D01*
X252485238Y-189245476D01*
X252390000Y-189150238D01*
X252342380Y-189007380D01*
X252342380Y-188912142D01*
X252390000Y-188769285D01*
X252437619Y-188721666D01*
X252675714Y-187864523D02*
X253342380Y-187864523D01*
X252294761Y-188102619D02*
X253009047Y-188340714D01*
X253009047Y-187721666D01*
%TO.C,RN4*%
X221692380Y-81930476D02*
X221216190Y-82263809D01*
X221692380Y-82501904D02*
X220692380Y-82501904D01*
X220692380Y-82120952D01*
X220740000Y-82025714D01*
X220787619Y-81978095D01*
X220882857Y-81930476D01*
X221025714Y-81930476D01*
X221120952Y-81978095D01*
X221168571Y-82025714D01*
X221216190Y-82120952D01*
X221216190Y-82501904D01*
X221692380Y-81501904D02*
X220692380Y-81501904D01*
X221692380Y-80930476D01*
X220692380Y-80930476D01*
X221025714Y-80025714D02*
X221692380Y-80025714D01*
X220644761Y-80263809D02*
X221359047Y-80501904D01*
X221359047Y-79882857D01*
%TO.C,U7*%
X229082380Y-186141904D02*
X229891904Y-186141904D01*
X229987142Y-186094285D01*
X230034761Y-186046666D01*
X230082380Y-185951428D01*
X230082380Y-185760952D01*
X230034761Y-185665714D01*
X229987142Y-185618095D01*
X229891904Y-185570476D01*
X229082380Y-185570476D01*
X229082380Y-185189523D02*
X229082380Y-184522857D01*
X230082380Y-184951428D01*
%TO.C,C5*%
X232927142Y-73691666D02*
X232974761Y-73739285D01*
X233022380Y-73882142D01*
X233022380Y-73977380D01*
X232974761Y-74120238D01*
X232879523Y-74215476D01*
X232784285Y-74263095D01*
X232593809Y-74310714D01*
X232450952Y-74310714D01*
X232260476Y-74263095D01*
X232165238Y-74215476D01*
X232070000Y-74120238D01*
X232022380Y-73977380D01*
X232022380Y-73882142D01*
X232070000Y-73739285D01*
X232117619Y-73691666D01*
X232022380Y-72786904D02*
X232022380Y-73263095D01*
X232498571Y-73310714D01*
X232450952Y-73263095D01*
X232403333Y-73167857D01*
X232403333Y-72929761D01*
X232450952Y-72834523D01*
X232498571Y-72786904D01*
X232593809Y-72739285D01*
X232831904Y-72739285D01*
X232927142Y-72786904D01*
X232974761Y-72834523D01*
X233022380Y-72929761D01*
X233022380Y-73167857D01*
X232974761Y-73263095D01*
X232927142Y-73310714D01*
%TO.C,RN14*%
X223743333Y-106292380D02*
X223410000Y-105816190D01*
X223171904Y-106292380D02*
X223171904Y-105292380D01*
X223552857Y-105292380D01*
X223648095Y-105340000D01*
X223695714Y-105387619D01*
X223743333Y-105482857D01*
X223743333Y-105625714D01*
X223695714Y-105720952D01*
X223648095Y-105768571D01*
X223552857Y-105816190D01*
X223171904Y-105816190D01*
X224171904Y-106292380D02*
X224171904Y-105292380D01*
X224743333Y-106292380D01*
X224743333Y-105292380D01*
X225743333Y-106292380D02*
X225171904Y-106292380D01*
X225457619Y-106292380D02*
X225457619Y-105292380D01*
X225362380Y-105435238D01*
X225267142Y-105530476D01*
X225171904Y-105578095D01*
X226600476Y-105625714D02*
X226600476Y-106292380D01*
X226362380Y-105244761D02*
X226124285Y-105959047D01*
X226743333Y-105959047D01*
%TO.C,U9*%
X239268095Y-101422380D02*
X239268095Y-102231904D01*
X239315714Y-102327142D01*
X239363333Y-102374761D01*
X239458571Y-102422380D01*
X239649047Y-102422380D01*
X239744285Y-102374761D01*
X239791904Y-102327142D01*
X239839523Y-102231904D01*
X239839523Y-101422380D01*
X240363333Y-102422380D02*
X240553809Y-102422380D01*
X240649047Y-102374761D01*
X240696666Y-102327142D01*
X240791904Y-102184285D01*
X240839523Y-101993809D01*
X240839523Y-101612857D01*
X240791904Y-101517619D01*
X240744285Y-101470000D01*
X240649047Y-101422380D01*
X240458571Y-101422380D01*
X240363333Y-101470000D01*
X240315714Y-101517619D01*
X240268095Y-101612857D01*
X240268095Y-101850952D01*
X240315714Y-101946190D01*
X240363333Y-101993809D01*
X240458571Y-102041428D01*
X240649047Y-102041428D01*
X240744285Y-101993809D01*
X240791904Y-101946190D01*
X240839523Y-101850952D01*
%TO.C,R9*%
X243568333Y-161382380D02*
X243235000Y-160906190D01*
X242996904Y-161382380D02*
X242996904Y-160382380D01*
X243377857Y-160382380D01*
X243473095Y-160430000D01*
X243520714Y-160477619D01*
X243568333Y-160572857D01*
X243568333Y-160715714D01*
X243520714Y-160810952D01*
X243473095Y-160858571D01*
X243377857Y-160906190D01*
X242996904Y-160906190D01*
X244044523Y-161382380D02*
X244235000Y-161382380D01*
X244330238Y-161334761D01*
X244377857Y-161287142D01*
X244473095Y-161144285D01*
X244520714Y-160953809D01*
X244520714Y-160572857D01*
X244473095Y-160477619D01*
X244425476Y-160430000D01*
X244330238Y-160382380D01*
X244139761Y-160382380D01*
X244044523Y-160430000D01*
X243996904Y-160477619D01*
X243949285Y-160572857D01*
X243949285Y-160810952D01*
X243996904Y-160906190D01*
X244044523Y-160953809D01*
X244139761Y-161001428D01*
X244330238Y-161001428D01*
X244425476Y-160953809D01*
X244473095Y-160906190D01*
X244520714Y-160810952D01*
%TO.C,C3*%
X253287142Y-132701666D02*
X253334761Y-132749285D01*
X253382380Y-132892142D01*
X253382380Y-132987380D01*
X253334761Y-133130238D01*
X253239523Y-133225476D01*
X253144285Y-133273095D01*
X252953809Y-133320714D01*
X252810952Y-133320714D01*
X252620476Y-133273095D01*
X252525238Y-133225476D01*
X252430000Y-133130238D01*
X252382380Y-132987380D01*
X252382380Y-132892142D01*
X252430000Y-132749285D01*
X252477619Y-132701666D01*
X252382380Y-132368333D02*
X252382380Y-131749285D01*
X252763333Y-132082619D01*
X252763333Y-131939761D01*
X252810952Y-131844523D01*
X252858571Y-131796904D01*
X252953809Y-131749285D01*
X253191904Y-131749285D01*
X253287142Y-131796904D01*
X253334761Y-131844523D01*
X253382380Y-131939761D01*
X253382380Y-132225476D01*
X253334761Y-132320714D01*
X253287142Y-132368333D01*
%TO.C,RN1*%
X216092380Y-61610476D02*
X215616190Y-61943809D01*
X216092380Y-62181904D02*
X215092380Y-62181904D01*
X215092380Y-61800952D01*
X215140000Y-61705714D01*
X215187619Y-61658095D01*
X215282857Y-61610476D01*
X215425714Y-61610476D01*
X215520952Y-61658095D01*
X215568571Y-61705714D01*
X215616190Y-61800952D01*
X215616190Y-62181904D01*
X216092380Y-61181904D02*
X215092380Y-61181904D01*
X216092380Y-60610476D01*
X215092380Y-60610476D01*
X216092380Y-59610476D02*
X216092380Y-60181904D01*
X216092380Y-59896190D02*
X215092380Y-59896190D01*
X215235238Y-59991428D01*
X215330476Y-60086666D01*
X215378095Y-60181904D01*
D12*
%TO.C,J6*%
X266856000Y-171944999D02*
X266902000Y-171991999D01*
X266650000Y-172149999D02*
X266686000Y-172184999D01*
X265624000Y-191059999D02*
X265624000Y-170619999D01*
X272085000Y-191299999D02*
X272825000Y-191299999D01*
X268948000Y-174446999D02*
X268994000Y-174493999D01*
X268948000Y-184606999D02*
X268994000Y-184653999D01*
X270525000Y-191059999D02*
X270525000Y-170619999D01*
X272585000Y-191059999D02*
X272585000Y-170619999D01*
X272825000Y-191299999D02*
X272825000Y-190799999D01*
X272025000Y-191059999D02*
X272025000Y-170619999D01*
X269164000Y-174253999D02*
X269199000Y-174288999D01*
X262664000Y-191059999D02*
X272585000Y-191059999D01*
X266650000Y-182309999D02*
X266686000Y-182344999D01*
X269164000Y-179333999D02*
X269199000Y-179368999D01*
X268948000Y-179526999D02*
X268994000Y-179573999D01*
X266856000Y-182104999D02*
X266902000Y-182151999D01*
X266856000Y-177024999D02*
X266902000Y-177071999D01*
X262664000Y-170619999D02*
X272585000Y-170619999D01*
X269164000Y-184413999D02*
X269199000Y-184448999D01*
X266650000Y-177229999D02*
X266686000Y-177264999D01*
X262664000Y-191059999D02*
X262664000Y-170619999D01*
X268608042Y-189995425D02*
G75*
G02*
X267241000Y-189994999I-683042J1535426D01*
G01*
X269605253Y-188431194D02*
G75*
G02*
X269460000Y-189143999I-1680253J-28805D01*
G01*
X266389574Y-189143041D02*
G75*
G02*
X266390000Y-187775999I1535426J683042D01*
G01*
X269459756Y-187776681D02*
G75*
G02*
X269605000Y-188459999I-1534756J-683318D01*
G01*
X267241958Y-186924573D02*
G75*
G02*
X268609000Y-186924999I683042J-1535426D01*
G01*
X269605000Y-183379999D02*
G75*
G03*
X269605000Y-183379999I-1680000J0D01*
G01*
X269605000Y-178299999D02*
G75*
G03*
X269605000Y-178299999I-1680000J0D01*
G01*
X269605000Y-173219999D02*
G75*
G03*
X269605000Y-173219999I-1680000J0D01*
G01*
%TO.C,D1*%
X177340000Y-202700000D02*
X177340000Y-205385000D01*
X179260000Y-205385000D02*
X179260000Y-202700000D01*
X177340000Y-205385000D02*
X179260000Y-205385000D01*
%TO.C,J5*%
X164405000Y-206435000D02*
X174685000Y-206435000D01*
X164165000Y-208735000D02*
X164665000Y-208735000D01*
X170858000Y-204858000D02*
X170811000Y-204904000D01*
X164405000Y-208495000D02*
X174685000Y-208495000D01*
X164405000Y-198574000D02*
X174685000Y-198574000D01*
X164405000Y-207935000D02*
X174685000Y-207935000D01*
X164165000Y-207995000D02*
X164165000Y-208735000D01*
X173155000Y-202560000D02*
X173120000Y-202596000D01*
X171051000Y-205074000D02*
X171016000Y-205109000D01*
X174685000Y-198574000D02*
X174685000Y-208495000D01*
X164405000Y-198574000D02*
X164405000Y-208495000D01*
X173360000Y-202766000D02*
X173313000Y-202812000D01*
X164405000Y-201534000D02*
X174685000Y-201534000D01*
X168540426Y-203151958D02*
G75*
G02*
X168540000Y-204519000I-1535426J-683042D01*
G01*
X167033805Y-205515253D02*
G75*
G02*
X166321000Y-205370000I-28805J1680253D01*
G01*
X165469574Y-204518042D02*
G75*
G02*
X165470000Y-203151000I1535426J683042D01*
G01*
X166321958Y-202299574D02*
G75*
G02*
X167689000Y-202300000I683042J-1535426D01*
G01*
X167688318Y-205369756D02*
G75*
G02*
X167005000Y-205515000I-683318J1534756D01*
G01*
X173765000Y-203835000D02*
G75*
G03*
X173765000Y-203835000I-1680000J0D01*
G01*
%TO.C,R1*%
X248377064Y-93030000D02*
X246922936Y-93030000D01*
X248377064Y-94850000D02*
X246922936Y-94850000D01*
%TO.C,RN12*%
X216760000Y-195040000D02*
X216760000Y-196040000D01*
X220120000Y-195040000D02*
X220120000Y-196040000D01*
%TO.C,R7*%
X223327742Y-160022500D02*
X223802258Y-160022500D01*
X223327742Y-158977500D02*
X223802258Y-158977500D01*
%TO.C,C8*%
X240170580Y-99530000D02*
X239889420Y-99530000D01*
X240170580Y-98510000D02*
X239889420Y-98510000D01*
%TO.C,RN9*%
X220120000Y-175720000D02*
X220120000Y-174720000D01*
X216760000Y-175720000D02*
X216760000Y-174720000D01*
%TO.C,R12*%
X248377064Y-107000000D02*
X246922936Y-107000000D01*
X248377064Y-108820000D02*
X246922936Y-108820000D01*
%TO.C,U1*%
X233680000Y-154830000D02*
X230080000Y-154830000D01*
X233680000Y-160050000D02*
X235880000Y-160050000D01*
X233680000Y-160050000D02*
X231480000Y-160050000D01*
X233680000Y-154830000D02*
X235880000Y-154830000D01*
%TO.C,F1*%
X169002064Y-196490000D02*
X167797936Y-196490000D01*
X169002064Y-194670000D02*
X167797936Y-194670000D01*
%TO.C,R11*%
X243972258Y-155922500D02*
X243497742Y-155922500D01*
X243972258Y-154877500D02*
X243497742Y-154877500D01*
%TO.C,J7*%
X268948000Y-72847000D02*
X268994000Y-72894000D01*
X262664000Y-89460000D02*
X262664000Y-69020000D01*
X272025000Y-89460000D02*
X272025000Y-69020000D01*
X270525000Y-89460000D02*
X270525000Y-69020000D01*
X262664000Y-69020000D02*
X272585000Y-69020000D01*
X266650000Y-70550000D02*
X266686000Y-70585000D01*
X268948000Y-83007000D02*
X268994000Y-83054000D01*
X268948000Y-77927000D02*
X268994000Y-77974000D01*
X272825000Y-89700000D02*
X272825000Y-89200000D01*
X269164000Y-72654000D02*
X269199000Y-72689000D01*
X266650000Y-80710000D02*
X266686000Y-80745000D01*
X269164000Y-77734000D02*
X269199000Y-77769000D01*
X266650000Y-75630000D02*
X266686000Y-75665000D01*
X272585000Y-89460000D02*
X272585000Y-69020000D01*
X272085000Y-89700000D02*
X272825000Y-89700000D01*
X262664000Y-89460000D02*
X272585000Y-89460000D01*
X266856000Y-70345000D02*
X266902000Y-70392000D01*
X266856000Y-75425000D02*
X266902000Y-75472000D01*
X266856000Y-80505000D02*
X266902000Y-80552000D01*
X269164000Y-82814000D02*
X269199000Y-82849000D01*
X265624000Y-89460000D02*
X265624000Y-69020000D01*
X269605253Y-86831195D02*
G75*
G02*
X269460000Y-87544000I-1680253J-28805D01*
G01*
X267241958Y-85324574D02*
G75*
G02*
X268609000Y-85325000I683042J-1535426D01*
G01*
X268608042Y-88395426D02*
G75*
G02*
X267241000Y-88395000I-683042J1535426D01*
G01*
X269459756Y-86176682D02*
G75*
G02*
X269605000Y-86860000I-1534756J-683318D01*
G01*
X266389574Y-87543042D02*
G75*
G02*
X266390000Y-86176000I1535426J683042D01*
G01*
X269605000Y-76700000D02*
G75*
G03*
X269605000Y-76700000I-1680000J0D01*
G01*
X269605000Y-81780000D02*
G75*
G03*
X269605000Y-81780000I-1680000J0D01*
G01*
X269605000Y-71620000D02*
G75*
G03*
X269605000Y-71620000I-1680000J0D01*
G01*
%TO.C,C9*%
X240170580Y-108670000D02*
X239889420Y-108670000D01*
X240170580Y-109690000D02*
X239889420Y-109690000D01*
%TO.C,J8*%
X269164000Y-57414000D02*
X269199000Y-57449000D01*
X268948000Y-57607000D02*
X268994000Y-57654000D01*
X266856000Y-50025000D02*
X266902000Y-50072000D01*
X268948000Y-52527000D02*
X268994000Y-52574000D01*
X265624000Y-69140000D02*
X265624000Y-48700000D01*
X268948000Y-62687000D02*
X268994000Y-62734000D01*
X269164000Y-62494000D02*
X269199000Y-62529000D01*
X266650000Y-60390000D02*
X266686000Y-60425000D01*
X266650000Y-50230000D02*
X266686000Y-50265000D01*
X272085000Y-69380000D02*
X272825000Y-69380000D01*
X266650000Y-55310000D02*
X266686000Y-55345000D01*
X262664000Y-69140000D02*
X262664000Y-48700000D01*
X272585000Y-69140000D02*
X272585000Y-48700000D01*
X266856000Y-55105000D02*
X266902000Y-55152000D01*
X272825000Y-69380000D02*
X272825000Y-68880000D01*
X262664000Y-69140000D02*
X272585000Y-69140000D01*
X270525000Y-69140000D02*
X270525000Y-48700000D01*
X269164000Y-52334000D02*
X269199000Y-52369000D01*
X266856000Y-60185000D02*
X266902000Y-60232000D01*
X272025000Y-69140000D02*
X272025000Y-48700000D01*
X262664000Y-48700000D02*
X272585000Y-48700000D01*
X269605253Y-66511195D02*
G75*
G02*
X269460000Y-67224000I-1680253J-28805D01*
G01*
X266389574Y-67223042D02*
G75*
G02*
X266390000Y-65856000I1535426J683042D01*
G01*
X268608042Y-68075426D02*
G75*
G02*
X267241000Y-68075000I-683042J1535426D01*
G01*
X267241958Y-65004574D02*
G75*
G02*
X268609000Y-65005000I683042J-1535426D01*
G01*
X269459756Y-65856682D02*
G75*
G02*
X269605000Y-66540000I-1534756J-683318D01*
G01*
X269605000Y-61460000D02*
G75*
G03*
X269605000Y-61460000I-1680000J0D01*
G01*
X269605000Y-56380000D02*
G75*
G03*
X269605000Y-56380000I-1680000J0D01*
G01*
X269605000Y-51300000D02*
G75*
G03*
X269605000Y-51300000I-1680000J0D01*
G01*
%TO.C,C2*%
X250950000Y-73479420D02*
X250950000Y-73760580D01*
X251970000Y-73479420D02*
X251970000Y-73760580D01*
%TO.C,J3*%
X294259000Y-204734000D02*
X294294000Y-204769000D01*
X297680000Y-211380000D02*
X297680000Y-129979000D01*
X294043000Y-179527000D02*
X294089000Y-179574000D01*
X291951000Y-202425000D02*
X291997000Y-202472000D01*
X294259000Y-148854000D02*
X294294000Y-148889000D01*
X294259000Y-169174000D02*
X294294000Y-169209000D01*
X291745000Y-156910000D02*
X291781000Y-156945000D01*
X291745000Y-131510000D02*
X291781000Y-131545000D01*
X291951000Y-171945000D02*
X291997000Y-171992000D01*
X294043000Y-194767000D02*
X294089000Y-194814000D01*
X291745000Y-192470000D02*
X291781000Y-192505000D01*
X291951000Y-141465000D02*
X291997000Y-141512000D01*
X291745000Y-141670000D02*
X291781000Y-141705000D01*
X291951000Y-197345000D02*
X291997000Y-197392000D01*
X294043000Y-164287000D02*
X294089000Y-164334000D01*
X287759000Y-129979000D02*
X297680000Y-129979000D01*
X294043000Y-199847000D02*
X294089000Y-199894000D01*
X291951000Y-177025000D02*
X291997000Y-177072000D01*
X291745000Y-187390000D02*
X291781000Y-187425000D01*
X294043000Y-204927000D02*
X294089000Y-204974000D01*
X290719000Y-211380000D02*
X290719000Y-129979000D01*
X294259000Y-194574000D02*
X294294000Y-194609000D01*
X294043000Y-143967000D02*
X294089000Y-144014000D01*
X294259000Y-133614000D02*
X294294000Y-133649000D01*
X297920000Y-211620000D02*
X297920000Y-211120000D01*
X291951000Y-131305000D02*
X291997000Y-131352000D01*
X291745000Y-197550000D02*
X291781000Y-197585000D01*
X291951000Y-166865000D02*
X291997000Y-166912000D01*
X287759000Y-211380000D02*
X297680000Y-211380000D01*
X294043000Y-159207000D02*
X294089000Y-159254000D01*
X291951000Y-187185000D02*
X291997000Y-187232000D01*
X294043000Y-154127000D02*
X294089000Y-154174000D01*
X291951000Y-156705000D02*
X291997000Y-156752000D01*
X294259000Y-138694000D02*
X294294000Y-138729000D01*
X291745000Y-146750000D02*
X291781000Y-146785000D01*
X287759000Y-211380000D02*
X287759000Y-129979000D01*
X294259000Y-143774000D02*
X294294000Y-143809000D01*
X294043000Y-169367000D02*
X294089000Y-169414000D01*
X294043000Y-133807000D02*
X294089000Y-133854000D01*
X294043000Y-138887000D02*
X294089000Y-138934000D01*
X294259000Y-179334000D02*
X294294000Y-179369000D01*
X291951000Y-151625000D02*
X291997000Y-151672000D01*
X291745000Y-177230000D02*
X291781000Y-177265000D01*
X291745000Y-151830000D02*
X291781000Y-151865000D01*
X291951000Y-136385000D02*
X291997000Y-136432000D01*
X291745000Y-161990000D02*
X291781000Y-162025000D01*
X294043000Y-184607000D02*
X294089000Y-184654000D01*
X291745000Y-172150000D02*
X291781000Y-172185000D01*
X294259000Y-189494000D02*
X294294000Y-189529000D01*
X291951000Y-192265000D02*
X291997000Y-192312000D01*
X291745000Y-202630000D02*
X291781000Y-202665000D01*
X291745000Y-182310000D02*
X291781000Y-182345000D01*
X294259000Y-159014000D02*
X294294000Y-159049000D01*
X294259000Y-153934000D02*
X294294000Y-153969000D01*
X291951000Y-182105000D02*
X291997000Y-182152000D01*
X295620000Y-211380000D02*
X295620000Y-129979000D01*
X294259000Y-199654000D02*
X294294000Y-199689000D01*
X291951000Y-161785000D02*
X291997000Y-161832000D01*
X294259000Y-184414000D02*
X294294000Y-184449000D01*
X291745000Y-136590000D02*
X291781000Y-136625000D01*
X297120000Y-211380000D02*
X297120000Y-129979000D01*
X294043000Y-149047000D02*
X294089000Y-149094000D01*
X294043000Y-174447000D02*
X294089000Y-174494000D01*
X291745000Y-167070000D02*
X291781000Y-167105000D01*
X297180000Y-211620000D02*
X297920000Y-211620000D01*
X294259000Y-164094000D02*
X294294000Y-164129000D01*
X291951000Y-146545000D02*
X291997000Y-146592000D01*
X294259000Y-174254000D02*
X294294000Y-174289000D01*
X294043000Y-189687000D02*
X294089000Y-189734000D01*
X294700253Y-208751195D02*
G75*
G02*
X294555000Y-209464000I-1680253J-28805D01*
G01*
X294554756Y-208096682D02*
G75*
G02*
X294700000Y-208780000I-1534756J-683318D01*
G01*
X292336958Y-207244574D02*
G75*
G02*
X293704000Y-207245000I683042J-1535426D01*
G01*
X293703042Y-210315426D02*
G75*
G02*
X292336000Y-210315000I-683042J1535426D01*
G01*
X291484574Y-209463042D02*
G75*
G02*
X291485000Y-208096000I1535426J683042D01*
G01*
X294700000Y-163060000D02*
G75*
G03*
X294700000Y-163060000I-1680000J0D01*
G01*
X294700000Y-168140000D02*
G75*
G03*
X294700000Y-168140000I-1680000J0D01*
G01*
X294700000Y-152900000D02*
G75*
G03*
X294700000Y-152900000I-1680000J0D01*
G01*
X294700000Y-178300000D02*
G75*
G03*
X294700000Y-178300000I-1680000J0D01*
G01*
X294700000Y-198620000D02*
G75*
G03*
X294700000Y-198620000I-1680000J0D01*
G01*
X294700000Y-142740000D02*
G75*
G03*
X294700000Y-142740000I-1680000J0D01*
G01*
X294700000Y-183380000D02*
G75*
G03*
X294700000Y-183380000I-1680000J0D01*
G01*
X294700000Y-157980000D02*
G75*
G03*
X294700000Y-157980000I-1680000J0D01*
G01*
X294700000Y-147820000D02*
G75*
G03*
X294700000Y-147820000I-1680000J0D01*
G01*
X294700000Y-132580000D02*
G75*
G03*
X294700000Y-132580000I-1680000J0D01*
G01*
X294700000Y-137660000D02*
G75*
G03*
X294700000Y-137660000I-1680000J0D01*
G01*
X294700000Y-173220000D02*
G75*
G03*
X294700000Y-173220000I-1680000J0D01*
G01*
X294700000Y-193540000D02*
G75*
G03*
X294700000Y-193540000I-1680000J0D01*
G01*
X294700000Y-203700000D02*
G75*
G03*
X294700000Y-203700000I-1680000J0D01*
G01*
X294700000Y-188460000D02*
G75*
G03*
X294700000Y-188460000I-1680000J0D01*
G01*
%TO.C,R5*%
X223282742Y-154877500D02*
X223757258Y-154877500D01*
X223282742Y-155922500D02*
X223757258Y-155922500D01*
%TO.C,U2*%
X249110000Y-67220000D02*
X248845000Y-67220000D01*
X248845000Y-67220000D02*
X248845000Y-65405000D01*
X249110000Y-71080000D02*
X249110000Y-74940000D01*
X249110000Y-74940000D02*
X248845000Y-74940000D01*
X233490000Y-67220000D02*
X233755000Y-67220000D01*
X249110000Y-71080000D02*
X249110000Y-67220000D01*
X233490000Y-71080000D02*
X233490000Y-67220000D01*
X233490000Y-71080000D02*
X233490000Y-74940000D01*
X233490000Y-74940000D02*
X233755000Y-74940000D01*
%TO.C,RN3*%
X224380000Y-81740000D02*
X224380000Y-80740000D01*
X227740000Y-81740000D02*
X227740000Y-80740000D01*
%TO.C,U4*%
X249110000Y-185380000D02*
X249110000Y-189240000D01*
X249110000Y-189240000D02*
X248845000Y-189240000D01*
X249110000Y-181520000D02*
X248845000Y-181520000D01*
X233490000Y-185380000D02*
X233490000Y-181520000D01*
X249110000Y-185380000D02*
X249110000Y-181520000D01*
X233490000Y-181520000D02*
X233755000Y-181520000D01*
X233490000Y-185380000D02*
X233490000Y-189240000D01*
X248845000Y-181520000D02*
X248845000Y-179705000D01*
X233490000Y-189240000D02*
X233755000Y-189240000D01*
%TO.C,RN10*%
X227740000Y-175720000D02*
X227740000Y-174720000D01*
X224380000Y-175720000D02*
X224380000Y-174720000D01*
%TO.C,C7*%
X231650000Y-187684420D02*
X231650000Y-187965580D01*
X230630000Y-187684420D02*
X230630000Y-187965580D01*
%TO.C,R13*%
X178822500Y-207537258D02*
X178822500Y-207062742D01*
X177777500Y-207537258D02*
X177777500Y-207062742D01*
%TO.C,RN13*%
X224410000Y-98370000D02*
X225410000Y-98370000D01*
X224410000Y-95010000D02*
X225410000Y-95010000D01*
D13*
%TO.C,U11*%
X188499200Y-83620000D02*
X204500000Y-83620000D01*
X202500000Y-59060000D02*
X136500000Y-59060000D01*
X134500000Y-83620000D02*
X149992800Y-83620000D01*
X134500000Y-84560000D02*
X134500000Y-190400000D01*
X153498000Y-83620000D02*
X172497200Y-83620000D01*
X204500000Y-190400000D02*
X204500000Y-84560000D01*
X134500000Y-84560000D02*
X149992800Y-84560000D01*
X177120000Y-84560000D02*
X184435200Y-84560000D01*
X188499200Y-84560000D02*
X204500000Y-84560000D01*
X134500000Y-61060000D02*
X134500000Y-83620000D01*
X136500000Y-192400000D02*
X202500000Y-192400000D01*
X177120000Y-83620000D02*
X184435200Y-83620000D01*
X153498000Y-84560000D02*
X172497200Y-84560000D01*
X204500000Y-83620000D02*
X204500000Y-61060000D01*
X177119999Y-84560000D02*
G75*
G02*
X177120000Y-83620000I7462J470000D01*
G01*
X188499199Y-84560000D02*
G75*
G02*
X188499200Y-83620000I7462J470000D01*
G01*
X134500000Y-190400000D02*
G75*
G03*
X136500000Y-192400000I2000000J0D01*
G01*
X149992801Y-83620000D02*
G75*
G02*
X149992800Y-84560000I-7462J-470000D01*
G01*
X184435201Y-83620000D02*
G75*
G02*
X184435200Y-84560000I-7462J-470000D01*
G01*
X172497201Y-83620000D02*
G75*
G02*
X172497200Y-84560000I-7462J-470000D01*
G01*
X136500000Y-59060000D02*
G75*
G03*
X134500000Y-61060000I0J-2000000D01*
G01*
X153497999Y-84560000D02*
G75*
G02*
X153498000Y-83620000I7462J470000D01*
G01*
X204500000Y-61060000D02*
G75*
G03*
X202500000Y-59060000I-2000000J0D01*
G01*
X202500000Y-192400000D02*
G75*
G03*
X204500000Y-190400000I0J2000000D01*
G01*
D14*
X133560000Y-90800000D02*
G75*
G03*
X133560000Y-90800000I-100000J0D01*
G01*
D12*
%TO.C,C6*%
X230630000Y-131859420D02*
X230630000Y-132140580D01*
X231650000Y-131859420D02*
X231650000Y-132140580D01*
%TO.C,C1*%
X233820580Y-161760000D02*
X233539420Y-161760000D01*
X233820580Y-160740000D02*
X233539420Y-160740000D01*
%TO.C,R3*%
X248377064Y-103190000D02*
X246922936Y-103190000D01*
X248377064Y-105010000D02*
X246922936Y-105010000D01*
%TO.C,J1*%
X291951000Y-121145000D02*
X291997000Y-121192000D01*
X294259000Y-113294000D02*
X294294000Y-113329000D01*
X294043000Y-108407000D02*
X294089000Y-108454000D01*
X291951000Y-70345000D02*
X291997000Y-70392000D01*
X291745000Y-90870000D02*
X291781000Y-90905000D01*
X294043000Y-113487000D02*
X294089000Y-113534000D01*
X291745000Y-95950000D02*
X291781000Y-95985000D01*
X291745000Y-121350000D02*
X291781000Y-121385000D01*
X291745000Y-116270000D02*
X291781000Y-116305000D01*
X297920000Y-130340000D02*
X297920000Y-129840000D01*
X291951000Y-90665000D02*
X291997000Y-90712000D01*
X297120000Y-130100000D02*
X297120000Y-48699000D01*
X294259000Y-67574000D02*
X294294000Y-67609000D01*
X294043000Y-118567000D02*
X294089000Y-118614000D01*
X294043000Y-98247000D02*
X294089000Y-98294000D01*
X294043000Y-88087000D02*
X294089000Y-88134000D01*
X291951000Y-100825000D02*
X291997000Y-100872000D01*
X291951000Y-85585000D02*
X291997000Y-85632000D01*
X287759000Y-48699000D02*
X297680000Y-48699000D01*
X294259000Y-57414000D02*
X294294000Y-57449000D01*
X287759000Y-130100000D02*
X287759000Y-48699000D01*
X291951000Y-105905000D02*
X291997000Y-105952000D01*
X291951000Y-75425000D02*
X291997000Y-75472000D01*
X294259000Y-77734000D02*
X294294000Y-77769000D01*
X291745000Y-85790000D02*
X291781000Y-85825000D01*
X294259000Y-108214000D02*
X294294000Y-108249000D01*
X294259000Y-62494000D02*
X294294000Y-62529000D01*
X294043000Y-57607000D02*
X294089000Y-57654000D01*
X294043000Y-77927000D02*
X294089000Y-77974000D01*
X291745000Y-111190000D02*
X291781000Y-111225000D01*
X295620000Y-130100000D02*
X295620000Y-48699000D01*
X291745000Y-50230000D02*
X291781000Y-50265000D01*
X291745000Y-80710000D02*
X291781000Y-80745000D01*
X294259000Y-92974000D02*
X294294000Y-93009000D01*
X294043000Y-83007000D02*
X294089000Y-83054000D01*
X291745000Y-75630000D02*
X291781000Y-75665000D01*
X291951000Y-50025000D02*
X291997000Y-50072000D01*
X291745000Y-60390000D02*
X291781000Y-60425000D01*
X291951000Y-95745000D02*
X291997000Y-95792000D01*
X294043000Y-72847000D02*
X294089000Y-72894000D01*
X294259000Y-103134000D02*
X294294000Y-103169000D01*
X294043000Y-62687000D02*
X294089000Y-62734000D01*
X294043000Y-103327000D02*
X294089000Y-103374000D01*
X294043000Y-67767000D02*
X294089000Y-67814000D01*
X291745000Y-101030000D02*
X291781000Y-101065000D01*
X294259000Y-118374000D02*
X294294000Y-118409000D01*
X290719000Y-130100000D02*
X290719000Y-48699000D01*
X294043000Y-93167000D02*
X294089000Y-93214000D01*
X291745000Y-65470000D02*
X291781000Y-65505000D01*
X291951000Y-80505000D02*
X291997000Y-80552000D01*
X291745000Y-55310000D02*
X291781000Y-55345000D01*
X291951000Y-116065000D02*
X291997000Y-116112000D01*
X294259000Y-87894000D02*
X294294000Y-87929000D01*
X294259000Y-98054000D02*
X294294000Y-98089000D01*
X294259000Y-72654000D02*
X294294000Y-72689000D01*
X291745000Y-70550000D02*
X291781000Y-70585000D01*
X291951000Y-55105000D02*
X291997000Y-55152000D01*
X291951000Y-65265000D02*
X291997000Y-65312000D01*
X294259000Y-52334000D02*
X294294000Y-52369000D01*
X294259000Y-123454000D02*
X294294000Y-123489000D01*
X297180000Y-130340000D02*
X297920000Y-130340000D01*
X294043000Y-52527000D02*
X294089000Y-52574000D01*
X297680000Y-130100000D02*
X297680000Y-48699000D01*
X287759000Y-130100000D02*
X297680000Y-130100000D01*
X294259000Y-82814000D02*
X294294000Y-82849000D01*
X294043000Y-123647000D02*
X294089000Y-123694000D01*
X291745000Y-106110000D02*
X291781000Y-106145000D01*
X291951000Y-60185000D02*
X291997000Y-60232000D01*
X291951000Y-110985000D02*
X291997000Y-111032000D01*
X294700253Y-127471195D02*
G75*
G02*
X294555000Y-128184000I-1680253J-28805D01*
G01*
X291484574Y-128183042D02*
G75*
G02*
X291485000Y-126816000I1535426J683042D01*
G01*
X292336958Y-125964574D02*
G75*
G02*
X293704000Y-125965000I683042J-1535426D01*
G01*
X294554756Y-126816682D02*
G75*
G02*
X294700000Y-127500000I-1534756J-683318D01*
G01*
X293703042Y-129035426D02*
G75*
G02*
X292336000Y-129035000I-683042J1535426D01*
G01*
X294700000Y-117340000D02*
G75*
G03*
X294700000Y-117340000I-1680000J0D01*
G01*
X294700000Y-71620000D02*
G75*
G03*
X294700000Y-71620000I-1680000J0D01*
G01*
X294700000Y-112260000D02*
G75*
G03*
X294700000Y-112260000I-1680000J0D01*
G01*
X294700000Y-102100000D02*
G75*
G03*
X294700000Y-102100000I-1680000J0D01*
G01*
X294700000Y-66540000D02*
G75*
G03*
X294700000Y-66540000I-1680000J0D01*
G01*
X294700000Y-122420000D02*
G75*
G03*
X294700000Y-122420000I-1680000J0D01*
G01*
X294700000Y-86860000D02*
G75*
G03*
X294700000Y-86860000I-1680000J0D01*
G01*
X294700000Y-51300000D02*
G75*
G03*
X294700000Y-51300000I-1680000J0D01*
G01*
X294700000Y-61460000D02*
G75*
G03*
X294700000Y-61460000I-1680000J0D01*
G01*
X294700000Y-56380000D02*
G75*
G03*
X294700000Y-56380000I-1680000J0D01*
G01*
X294700000Y-91940000D02*
G75*
G03*
X294700000Y-91940000I-1680000J0D01*
G01*
X294700000Y-81780000D02*
G75*
G03*
X294700000Y-81780000I-1680000J0D01*
G01*
X294700000Y-107180000D02*
G75*
G03*
X294700000Y-107180000I-1680000J0D01*
G01*
X294700000Y-76700000D02*
G75*
G03*
X294700000Y-76700000I-1680000J0D01*
G01*
X294700000Y-97020000D02*
G75*
G03*
X294700000Y-97020000I-1680000J0D01*
G01*
%TO.C,U5*%
X228790000Y-71080000D02*
X228790000Y-74940000D01*
X213170000Y-71080000D02*
X213170000Y-67220000D01*
X228525000Y-67220000D02*
X228525000Y-65405000D01*
X228790000Y-71080000D02*
X228790000Y-67220000D01*
X213170000Y-71080000D02*
X213170000Y-74940000D01*
X228790000Y-74940000D02*
X228525000Y-74940000D01*
X213170000Y-67220000D02*
X213435000Y-67220000D01*
X213170000Y-74940000D02*
X213435000Y-74940000D01*
X228790000Y-67220000D02*
X228525000Y-67220000D01*
%TO.C,R2*%
X248377064Y-98660000D02*
X246922936Y-98660000D01*
X248377064Y-96840000D02*
X246922936Y-96840000D01*
%TO.C,RN6*%
X224380000Y-119840000D02*
X224380000Y-118840000D01*
X227740000Y-119840000D02*
X227740000Y-118840000D01*
%TO.C,RN11*%
X224380000Y-195040000D02*
X224380000Y-196040000D01*
X227740000Y-195040000D02*
X227740000Y-196040000D01*
%TO.C,U10*%
X217170000Y-104080000D02*
X219120000Y-104080000D01*
X217170000Y-104080000D02*
X215220000Y-104080000D01*
X217170000Y-93960000D02*
X219120000Y-93960000D01*
X217170000Y-93960000D02*
X213720000Y-93960000D01*
%TO.C,J2*%
X266856000Y-151625000D02*
X266902000Y-151672000D01*
X266856000Y-126225000D02*
X266902000Y-126272000D01*
X269164000Y-143774000D02*
X269199000Y-143809000D01*
X268948000Y-103327000D02*
X268994000Y-103374000D01*
X269164000Y-98054000D02*
X269199000Y-98089000D01*
X268948000Y-154127000D02*
X268994000Y-154174000D01*
X262664000Y-170740000D02*
X262664000Y-89339000D01*
X266856000Y-131305000D02*
X266902000Y-131352000D01*
X269164000Y-113294000D02*
X269199000Y-113329000D01*
X268948000Y-159207000D02*
X268994000Y-159254000D01*
X266650000Y-121350000D02*
X266686000Y-121385000D01*
X266650000Y-95950000D02*
X266686000Y-95985000D01*
X266856000Y-141465000D02*
X266902000Y-141512000D01*
X266856000Y-116065000D02*
X266902000Y-116112000D01*
X269164000Y-138694000D02*
X269199000Y-138729000D01*
X266650000Y-106110000D02*
X266686000Y-106145000D01*
X266650000Y-136590000D02*
X266686000Y-136625000D01*
X268948000Y-138887000D02*
X268994000Y-138934000D01*
X272025000Y-170740000D02*
X272025000Y-89339000D01*
X268948000Y-108407000D02*
X268994000Y-108454000D01*
X268948000Y-128727000D02*
X268994000Y-128774000D01*
X266856000Y-136385000D02*
X266902000Y-136432000D01*
X268948000Y-149047000D02*
X268994000Y-149094000D01*
X269164000Y-153934000D02*
X269199000Y-153969000D01*
X266650000Y-131510000D02*
X266686000Y-131545000D01*
X266856000Y-110985000D02*
X266902000Y-111032000D01*
X268948000Y-98247000D02*
X268994000Y-98294000D01*
X269164000Y-108214000D02*
X269199000Y-108249000D01*
X269164000Y-123454000D02*
X269199000Y-123489000D01*
X266650000Y-90870000D02*
X266686000Y-90905000D01*
X266856000Y-156705000D02*
X266902000Y-156752000D01*
X266856000Y-100825000D02*
X266902000Y-100872000D01*
X269164000Y-118374000D02*
X269199000Y-118409000D01*
X266650000Y-141670000D02*
X266686000Y-141705000D01*
X266650000Y-156910000D02*
X266686000Y-156945000D01*
X266650000Y-101030000D02*
X266686000Y-101065000D01*
X268948000Y-118567000D02*
X268994000Y-118614000D01*
X268948000Y-164287000D02*
X268994000Y-164334000D01*
X272825000Y-170980000D02*
X272825000Y-170480000D01*
X269164000Y-148854000D02*
X269199000Y-148889000D01*
X269164000Y-92974000D02*
X269199000Y-93009000D01*
X266856000Y-121145000D02*
X266902000Y-121192000D01*
X268948000Y-123647000D02*
X268994000Y-123694000D01*
X266856000Y-105905000D02*
X266902000Y-105952000D01*
X269164000Y-159014000D02*
X269199000Y-159049000D01*
X268948000Y-93167000D02*
X268994000Y-93214000D01*
X265624000Y-170740000D02*
X265624000Y-89339000D01*
X272585000Y-170740000D02*
X272585000Y-89339000D01*
X266650000Y-126430000D02*
X266686000Y-126465000D01*
X262664000Y-170740000D02*
X272585000Y-170740000D01*
X269164000Y-133614000D02*
X269199000Y-133649000D01*
X269164000Y-103134000D02*
X269199000Y-103169000D01*
X268948000Y-133807000D02*
X268994000Y-133854000D01*
X266856000Y-146545000D02*
X266902000Y-146592000D01*
X266650000Y-161990000D02*
X266686000Y-162025000D01*
X268948000Y-113487000D02*
X268994000Y-113534000D01*
X262664000Y-89339000D02*
X272585000Y-89339000D01*
X270525000Y-170740000D02*
X270525000Y-89339000D01*
X266650000Y-146750000D02*
X266686000Y-146785000D01*
X266856000Y-95745000D02*
X266902000Y-95792000D01*
X266650000Y-151830000D02*
X266686000Y-151865000D01*
X266650000Y-116270000D02*
X266686000Y-116305000D01*
X266650000Y-111190000D02*
X266686000Y-111225000D01*
X266856000Y-161785000D02*
X266902000Y-161832000D01*
X269164000Y-164094000D02*
X269199000Y-164129000D01*
X268948000Y-143967000D02*
X268994000Y-144014000D01*
X272085000Y-170980000D02*
X272825000Y-170980000D01*
X269164000Y-128534000D02*
X269199000Y-128569000D01*
X266856000Y-90665000D02*
X266902000Y-90712000D01*
X267241958Y-166604574D02*
G75*
G02*
X268609000Y-166605000I683042J-1535426D01*
G01*
X269459756Y-167456682D02*
G75*
G02*
X269605000Y-168140000I-1534756J-683318D01*
G01*
X268608042Y-169675426D02*
G75*
G02*
X267241000Y-169675000I-683042J1535426D01*
G01*
X269605253Y-168111195D02*
G75*
G02*
X269460000Y-168824000I-1680253J-28805D01*
G01*
X266389574Y-168823042D02*
G75*
G02*
X266390000Y-167456000I1535426J683042D01*
G01*
X269605000Y-132580000D02*
G75*
G03*
X269605000Y-132580000I-1680000J0D01*
G01*
X269605000Y-112260000D02*
G75*
G03*
X269605000Y-112260000I-1680000J0D01*
G01*
X269605000Y-157980000D02*
G75*
G03*
X269605000Y-157980000I-1680000J0D01*
G01*
X269605000Y-147820000D02*
G75*
G03*
X269605000Y-147820000I-1680000J0D01*
G01*
X269605000Y-163060000D02*
G75*
G03*
X269605000Y-163060000I-1680000J0D01*
G01*
X269605000Y-102100000D02*
G75*
G03*
X269605000Y-102100000I-1680000J0D01*
G01*
X269605000Y-97020000D02*
G75*
G03*
X269605000Y-97020000I-1680000J0D01*
G01*
X269605000Y-127500000D02*
G75*
G03*
X269605000Y-127500000I-1680000J0D01*
G01*
X269605000Y-107180000D02*
G75*
G03*
X269605000Y-107180000I-1680000J0D01*
G01*
X269605000Y-91940000D02*
G75*
G03*
X269605000Y-91940000I-1680000J0D01*
G01*
X269605000Y-117340000D02*
G75*
G03*
X269605000Y-117340000I-1680000J0D01*
G01*
X269605000Y-137660000D02*
G75*
G03*
X269605000Y-137660000I-1680000J0D01*
G01*
X269605000Y-122420000D02*
G75*
G03*
X269605000Y-122420000I-1680000J0D01*
G01*
X269605000Y-152900000D02*
G75*
G03*
X269605000Y-152900000I-1680000J0D01*
G01*
X269605000Y-142740000D02*
G75*
G03*
X269605000Y-142740000I-1680000J0D01*
G01*
%TO.C,R8*%
X240162258Y-158977500D02*
X239687742Y-158977500D01*
X240162258Y-160022500D02*
X239687742Y-160022500D01*
%TO.C,R6*%
X227137742Y-158977500D02*
X227612258Y-158977500D01*
X227137742Y-160022500D02*
X227612258Y-160022500D01*
%TO.C,U8*%
X240030000Y-92650000D02*
X241980000Y-92650000D01*
X240030000Y-92650000D02*
X236580000Y-92650000D01*
X240030000Y-97770000D02*
X241980000Y-97770000D01*
X240030000Y-97770000D02*
X238080000Y-97770000D01*
%TO.C,RN2*%
X224380000Y-60420000D02*
X224380000Y-61420000D01*
X227740000Y-60420000D02*
X227740000Y-61420000D01*
%TO.C,R4*%
X227092742Y-154877500D02*
X227567258Y-154877500D01*
X227092742Y-155922500D02*
X227567258Y-155922500D01*
%TO.C,RN8*%
X216760000Y-139160000D02*
X216760000Y-140160000D01*
X220120000Y-139160000D02*
X220120000Y-140160000D01*
%TO.C,R10*%
X240162258Y-154877500D02*
X239687742Y-154877500D01*
X240162258Y-155922500D02*
X239687742Y-155922500D01*
%TO.C,U6*%
X213170000Y-125640000D02*
X213435000Y-125640000D01*
X228790000Y-129500000D02*
X228790000Y-125640000D01*
X213170000Y-129500000D02*
X213170000Y-125640000D01*
X213170000Y-129500000D02*
X213170000Y-133360000D01*
X228790000Y-129500000D02*
X228790000Y-133360000D01*
X228790000Y-125640000D02*
X228525000Y-125640000D01*
X228525000Y-125640000D02*
X228525000Y-123825000D01*
X213170000Y-133360000D02*
X213435000Y-133360000D01*
X228790000Y-133360000D02*
X228525000Y-133360000D01*
%TO.C,RN7*%
X227740000Y-139160000D02*
X227740000Y-140160000D01*
X224380000Y-139160000D02*
X224380000Y-140160000D01*
%TO.C,U3*%
X248845000Y-125640000D02*
X248845000Y-123825000D01*
X249110000Y-125640000D02*
X248845000Y-125640000D01*
X233490000Y-125640000D02*
X233755000Y-125640000D01*
X249110000Y-133360000D02*
X248845000Y-133360000D01*
X233490000Y-129500000D02*
X233490000Y-133360000D01*
X249110000Y-129500000D02*
X249110000Y-133360000D01*
X233490000Y-133360000D02*
X233755000Y-133360000D01*
X233490000Y-129500000D02*
X233490000Y-125640000D01*
X249110000Y-129500000D02*
X249110000Y-125640000D01*
%TO.C,RN5*%
X220120000Y-119840000D02*
X220120000Y-118840000D01*
X216760000Y-119840000D02*
X216760000Y-118840000D01*
%TO.C,C4*%
X251970000Y-187779420D02*
X251970000Y-188060580D01*
X250950000Y-187779420D02*
X250950000Y-188060580D01*
%TO.C,RN4*%
X220120000Y-81740000D02*
X220120000Y-80740000D01*
X216760000Y-81740000D02*
X216760000Y-80740000D01*
%TO.C,U7*%
X228790000Y-189240000D02*
X228525000Y-189240000D01*
X228790000Y-181520000D02*
X228525000Y-181520000D01*
X228790000Y-185380000D02*
X228790000Y-181520000D01*
X213170000Y-189240000D02*
X213435000Y-189240000D01*
X213170000Y-185380000D02*
X213170000Y-181520000D01*
X213170000Y-185380000D02*
X213170000Y-189240000D01*
X213170000Y-181520000D02*
X213435000Y-181520000D01*
X228525000Y-181520000D02*
X228525000Y-179705000D01*
X228790000Y-185380000D02*
X228790000Y-189240000D01*
%TO.C,C5*%
X231650000Y-73384420D02*
X231650000Y-73665580D01*
X230630000Y-73384420D02*
X230630000Y-73665580D01*
%TO.C,RN14*%
X224410000Y-101360000D02*
X225410000Y-101360000D01*
X224410000Y-104720000D02*
X225410000Y-104720000D01*
%TO.C,U9*%
X240030000Y-107930000D02*
X241980000Y-107930000D01*
X240030000Y-102810000D02*
X236580000Y-102810000D01*
X240030000Y-107930000D02*
X238080000Y-107930000D01*
X240030000Y-102810000D02*
X241980000Y-102810000D01*
%TO.C,R9*%
X243972258Y-160022500D02*
X243497742Y-160022500D01*
X243972258Y-158977500D02*
X243497742Y-158977500D01*
%TO.C,C3*%
X250990000Y-131759420D02*
X250990000Y-132040580D01*
X252010000Y-131759420D02*
X252010000Y-132040580D01*
%TO.C,J9*%
X266650000Y-197550000D02*
X266686000Y-197585000D01*
X268948000Y-204927000D02*
X268994000Y-204974000D01*
X269164000Y-204734000D02*
X269199000Y-204769000D01*
X272085000Y-211620000D02*
X272825000Y-211620000D01*
X262664000Y-211380000D02*
X262664000Y-190940000D01*
X272025000Y-211380000D02*
X272025000Y-190940000D01*
X266856000Y-202425000D02*
X266902000Y-202472000D01*
X266856000Y-192265000D02*
X266902000Y-192312000D01*
X268948000Y-194767000D02*
X268994000Y-194814000D01*
X266856000Y-197345000D02*
X266902000Y-197392000D01*
X268948000Y-199847000D02*
X268994000Y-199894000D01*
X272585000Y-211380000D02*
X272585000Y-190940000D01*
X270525000Y-211380000D02*
X270525000Y-190940000D01*
X269164000Y-194574000D02*
X269199000Y-194609000D01*
X262664000Y-190940000D02*
X272585000Y-190940000D01*
X265624000Y-211380000D02*
X265624000Y-190940000D01*
X266650000Y-202630000D02*
X266686000Y-202665000D01*
X266650000Y-192470000D02*
X266686000Y-192505000D01*
X262664000Y-211380000D02*
X272585000Y-211380000D01*
X272825000Y-211620000D02*
X272825000Y-211120000D01*
X269164000Y-199654000D02*
X269199000Y-199689000D01*
X266389574Y-209463042D02*
G75*
G02*
X266390000Y-208096000I1535426J683042D01*
G01*
X267241958Y-207244574D02*
G75*
G02*
X268609000Y-207245000I683042J-1535426D01*
G01*
X269605253Y-208751195D02*
G75*
G02*
X269460000Y-209464000I-1680253J-28805D01*
G01*
X268608042Y-210315426D02*
G75*
G02*
X267241000Y-210315000I-683042J1535426D01*
G01*
X269459756Y-208096682D02*
G75*
G02*
X269605000Y-208780000I-1534756J-683318D01*
G01*
X269605000Y-203700000D02*
G75*
G03*
X269605000Y-203700000I-1680000J0D01*
G01*
X269605000Y-193540000D02*
G75*
G03*
X269605000Y-193540000I-1680000J0D01*
G01*
X269605000Y-198620000D02*
G75*
G03*
X269605000Y-198620000I-1680000J0D01*
G01*
%TO.C,RN1*%
X220120000Y-60420000D02*
X220120000Y-61420000D01*
X216760000Y-60420000D02*
X216760000Y-61420000D01*
%TD*%
M02*
