G04 #@! TF.GenerationSoftware,KiCad,Pcbnew,7.0.6-7.0.6~ubuntu22.04.1*
G04 #@! TF.CreationDate,2023-08-02T03:16:41+00:00*
G04 #@! TF.ProjectId,digital_inputs,64696769-7461-46c5-9f69-6e707574732e,rev?*
G04 #@! TF.SameCoordinates,Original*
G04 #@! TF.FileFunction,Soldermask,Bot*
G04 #@! TF.FilePolarity,Negative*
%FSLAX46Y46*%
G04 Gerber Fmt 4.6, Leading zero omitted, Abs format (unit mm)*
G04 Created by KiCad (PCBNEW 7.0.6-7.0.6~ubuntu22.04.1) date 2023-08-02 03:16:41*
%MOMM*%
%LPD*%
G01*
G04 APERTURE LIST*
%ADD10C,0.800000*%
%ADD11C,6.400000*%
%ADD12C,3.300000*%
%ADD13R,1.950000X1.950000*%
%ADD14C,1.950000*%
%ADD15R,2.600000X2.600000*%
%ADD16C,2.600000*%
%ADD17C,3.200000*%
%ADD18R,1.530000X1.530000*%
%ADD19C,1.530000*%
%ADD20R,2.550000X2.550000*%
%ADD21C,2.000000*%
G04 APERTURE END LIST*
D10*
G04 #@! TO.C,J12*
X78600000Y3500000D03*
X79302944Y5197056D03*
X79302944Y1802944D03*
X81000000Y5900000D03*
D11*
X81000000Y3500000D03*
D10*
X81000000Y1100000D03*
X82697056Y5197056D03*
X82697056Y1802944D03*
X83400000Y3500000D03*
G04 #@! TD*
D12*
G04 #@! TO.C,J19*
X179000000Y151050000D03*
X179000000Y118550000D03*
X179000000Y80050000D03*
D13*
X164500000Y87300000D03*
D14*
X164500000Y90300000D03*
X164500000Y93300000D03*
X164500000Y96300000D03*
X164500000Y99300000D03*
X164500000Y102300000D03*
X164500000Y105300000D03*
X164500000Y108300000D03*
X164500000Y111300000D03*
X167000000Y88800000D03*
X167000000Y91800000D03*
X167000000Y94800000D03*
X167000000Y97800000D03*
X167000000Y100800000D03*
X167000000Y103800000D03*
X167000000Y106800000D03*
X167000000Y109800000D03*
X170000000Y88800000D03*
X170000000Y91800000D03*
X170000000Y94800000D03*
X170000000Y97800000D03*
X170000000Y100800000D03*
X170000000Y103800000D03*
X170000000Y106800000D03*
X170000000Y109800000D03*
X172500000Y87300000D03*
X172500000Y90300000D03*
X172500000Y93300000D03*
X172500000Y96300000D03*
X172500000Y99300000D03*
X172500000Y102300000D03*
X172500000Y105300000D03*
X172500000Y108300000D03*
X172500000Y111300000D03*
X164500000Y125800000D03*
X164500000Y128800000D03*
X164500000Y131800000D03*
X164500000Y134800000D03*
X164500000Y137800000D03*
X164500000Y140800000D03*
X164500000Y143800000D03*
X167000000Y127300000D03*
X167000000Y130300000D03*
X167000000Y133300000D03*
X167000000Y136300000D03*
X167000000Y139300000D03*
X167000000Y142300000D03*
X170000000Y127300000D03*
X170000000Y130300000D03*
X170000000Y133300000D03*
X170000000Y136300000D03*
X170000000Y139300000D03*
X170000000Y142300000D03*
X172500000Y125800000D03*
X172500000Y128800000D03*
X172500000Y131800000D03*
X172500000Y134800000D03*
X172500000Y137800000D03*
X172500000Y140800000D03*
X172500000Y143800000D03*
G04 #@! TD*
D15*
G04 #@! TO.C,J6*
X140925000Y64180000D03*
D16*
X140925000Y69260000D03*
X140925000Y74340000D03*
X140925000Y79420000D03*
G04 #@! TD*
D15*
G04 #@! TO.C,J5*
X40005000Y8165000D03*
D16*
X45085000Y8165000D03*
G04 #@! TD*
D10*
G04 #@! TO.C,J10*
X79100000Y82500000D03*
X79802944Y84197056D03*
X79802944Y80802944D03*
X81500000Y84900000D03*
D11*
X81500000Y82500000D03*
D10*
X81500000Y80100000D03*
X83197056Y84197056D03*
X83197056Y80802944D03*
X83900000Y82500000D03*
G04 #@! TD*
D15*
G04 #@! TO.C,J7*
X140925000Y84500000D03*
D16*
X140925000Y89580000D03*
X140925000Y94660000D03*
X140925000Y99740000D03*
G04 #@! TD*
D15*
G04 #@! TO.C,J8*
X140925000Y104820000D03*
D16*
X140925000Y109900000D03*
X140925000Y114980000D03*
X140925000Y120060000D03*
G04 #@! TD*
D15*
G04 #@! TO.C,J3*
X140925000Y3220000D03*
D16*
X140925000Y8300000D03*
X140925000Y13380000D03*
X140925000Y18460000D03*
X140925000Y23540000D03*
X140925000Y28620000D03*
X140925000Y33700000D03*
X140925000Y38780000D03*
G04 #@! TD*
D10*
G04 #@! TO.C,J16*
X176514214Y3500000D03*
X177217158Y5197056D03*
X177217158Y1802944D03*
X178914214Y5900000D03*
D11*
X178914214Y3500000D03*
D10*
X178914214Y1100000D03*
X180611270Y5197056D03*
X180611270Y1802944D03*
X181314214Y3500000D03*
G04 #@! TD*
G04 #@! TO.C,J11*
X176514214Y161500000D03*
X177217158Y163197056D03*
X177217158Y159802944D03*
X178914214Y163900000D03*
D11*
X178914214Y161500000D03*
D10*
X178914214Y159100000D03*
X180611270Y163197056D03*
X180611270Y159802944D03*
X181314214Y161500000D03*
G04 #@! TD*
D17*
G04 #@! TO.C,U11*
X18370000Y125010000D03*
X19640000Y48810000D03*
X51390000Y72940000D03*
X65360000Y48810000D03*
X66630000Y123740000D03*
D18*
X64090000Y120184000D03*
D19*
X66630000Y120184000D03*
X64090000Y117644000D03*
X66630000Y117644000D03*
X64090000Y115104000D03*
X66630000Y115104000D03*
X64090000Y112564000D03*
X66630000Y112564000D03*
X64090000Y110024000D03*
X66630000Y110024000D03*
X64090000Y107484000D03*
X66630000Y107484000D03*
X64090000Y104944000D03*
X66630000Y104944000D03*
X64090000Y102404000D03*
X66630000Y102404000D03*
X64090000Y99864000D03*
X66630000Y99864000D03*
X64090000Y97324000D03*
X66630000Y97324000D03*
D18*
X18370000Y111040000D03*
D19*
X20910000Y111040000D03*
X18370000Y108500000D03*
X20910000Y108500000D03*
X18370000Y105960000D03*
X20910000Y105960000D03*
X18370000Y103420000D03*
X20910000Y103420000D03*
X18370000Y100880000D03*
X20910000Y100880000D03*
X18370000Y98340000D03*
X20910000Y98340000D03*
X18370000Y95800000D03*
X20910000Y95800000D03*
X18370000Y93260000D03*
X20910000Y93260000D03*
D18*
X18370000Y88180000D03*
D19*
X20910000Y88180000D03*
X18370000Y85640000D03*
X20910000Y85640000D03*
X18370000Y83100000D03*
X20910000Y83100000D03*
X18370000Y80560000D03*
X20910000Y80560000D03*
X18370000Y78020000D03*
X20910000Y78020000D03*
X18370000Y75480000D03*
X20910000Y75480000D03*
X18370000Y72940000D03*
X20910000Y72940000D03*
X18370000Y70400000D03*
X20910000Y70400000D03*
X18370000Y67860000D03*
X20910000Y67860000D03*
X18370000Y65320000D03*
X20910000Y65320000D03*
X18370000Y62780000D03*
X20910000Y62780000D03*
X18370000Y60240000D03*
X20910000Y60240000D03*
X18370000Y57700000D03*
X20910000Y57700000D03*
X18370000Y55160000D03*
X20910000Y55160000D03*
X18370000Y52620000D03*
X20910000Y52620000D03*
D18*
X64090000Y93260000D03*
D19*
X66630000Y93260000D03*
X64090000Y90720000D03*
X66630000Y90720000D03*
X64090000Y88180000D03*
X66630000Y88180000D03*
X64090000Y85640000D03*
X66630000Y85640000D03*
X64090000Y83100000D03*
X66630000Y83100000D03*
X64090000Y80560000D03*
X66630000Y80560000D03*
X64090000Y78020000D03*
X66630000Y78020000D03*
X64090000Y75480000D03*
X66630000Y75480000D03*
X64090000Y72940000D03*
X66630000Y72940000D03*
X64090000Y70400000D03*
X66630000Y70400000D03*
X64090000Y67860000D03*
X66630000Y67860000D03*
X64090000Y65320000D03*
X66630000Y65320000D03*
X64090000Y62780000D03*
X66630000Y62780000D03*
X64090000Y60240000D03*
X66630000Y60240000D03*
X64090000Y57700000D03*
X66630000Y57700000D03*
X64090000Y55160000D03*
X66630000Y55160000D03*
X64090000Y52620000D03*
X66630000Y52620000D03*
D18*
X10750000Y121200000D03*
D19*
X13290000Y121200000D03*
X10750000Y118660000D03*
X13290000Y118660000D03*
X10750000Y116120000D03*
X13290000Y116120000D03*
X10750000Y113580000D03*
X13290000Y113580000D03*
X10750000Y111040000D03*
X13290000Y111040000D03*
X10750000Y108500000D03*
X13290000Y108500000D03*
X10750000Y105960000D03*
X13290000Y105960000D03*
X10750000Y103420000D03*
X13290000Y103420000D03*
X10750000Y100880000D03*
X13290000Y100880000D03*
X10750000Y98340000D03*
X13290000Y98340000D03*
X10750000Y95800000D03*
X13290000Y95800000D03*
X10750000Y93260000D03*
X13290000Y93260000D03*
X10750000Y90720000D03*
X13290000Y90720000D03*
X10750000Y88180000D03*
X13290000Y88180000D03*
X10750000Y85640000D03*
X13290000Y85640000D03*
X10750000Y83100000D03*
X13290000Y83100000D03*
X10750000Y80560000D03*
X13290000Y80560000D03*
X10750000Y78020000D03*
X13290000Y78020000D03*
X10750000Y75480000D03*
X13290000Y75480000D03*
X10750000Y72940000D03*
X13290000Y72940000D03*
X10750000Y70400000D03*
X13290000Y70400000D03*
X10750000Y67860000D03*
X13290000Y67860000D03*
X10750000Y65320000D03*
X13290000Y65320000D03*
X10750000Y62780000D03*
X13290000Y62780000D03*
X10750000Y60240000D03*
X13290000Y60240000D03*
X10750000Y57700000D03*
X13290000Y57700000D03*
X10750000Y55160000D03*
X13290000Y55160000D03*
X10750000Y52620000D03*
X13290000Y52620000D03*
X10750000Y50080000D03*
X13290000Y50080000D03*
X10750000Y47540000D03*
X13290000Y47540000D03*
X10750000Y45000000D03*
X13290000Y45000000D03*
X10750000Y42460000D03*
X13290000Y42460000D03*
X10750000Y39920000D03*
X13290000Y39920000D03*
X10750000Y37380000D03*
X13290000Y37380000D03*
X10750000Y34840000D03*
X13290000Y34840000D03*
X10750000Y32300000D03*
X13290000Y32300000D03*
D18*
X71710000Y121180000D03*
D19*
X74250000Y121180000D03*
X71710000Y118640000D03*
X74250000Y118640000D03*
X71710000Y116100000D03*
X74250000Y116100000D03*
X71710000Y113560000D03*
X74250000Y113560000D03*
X71710000Y111020000D03*
X74250000Y111020000D03*
X71710000Y108480000D03*
X74250000Y108480000D03*
X71710000Y105940000D03*
X74250000Y105940000D03*
X71710000Y103400000D03*
X74250000Y103400000D03*
X71710000Y100860000D03*
X74250000Y100860000D03*
X71710000Y98320000D03*
X74250000Y98320000D03*
X71710000Y95780000D03*
X74250000Y95780000D03*
X71710000Y93240000D03*
X74250000Y93240000D03*
X71710000Y90700000D03*
X74250000Y90700000D03*
X71710000Y88160000D03*
X74250000Y88160000D03*
X71710000Y85620000D03*
X74250000Y85620000D03*
X71710000Y83080000D03*
X74250000Y83080000D03*
X71710000Y80540000D03*
X74250000Y80540000D03*
X71710000Y78000000D03*
X74250000Y78000000D03*
X71710000Y75460000D03*
X74250000Y75460000D03*
X71710000Y72920000D03*
X74250000Y72920000D03*
X71710000Y70380000D03*
X74250000Y70380000D03*
X71710000Y67840000D03*
X74250000Y67840000D03*
X71710000Y65300000D03*
X74250000Y65300000D03*
X71710000Y62760000D03*
X74250000Y62760000D03*
X71710000Y60220000D03*
X74250000Y60220000D03*
X71710000Y57680000D03*
X74250000Y57680000D03*
X71710000Y55140000D03*
X74250000Y55140000D03*
X71710000Y52600000D03*
X74250000Y52600000D03*
X71710000Y50060000D03*
X74250000Y50060000D03*
X71710000Y47520000D03*
X74250000Y47520000D03*
X71710000Y44980000D03*
X74250000Y44980000D03*
X71710000Y42440000D03*
X74250000Y42440000D03*
X71710000Y39900000D03*
X74250000Y39900000D03*
X71710000Y37360000D03*
X74250000Y37360000D03*
X71710000Y34820000D03*
X74250000Y34820000D03*
X71710000Y32280000D03*
X74250000Y32280000D03*
G04 #@! TD*
D10*
G04 #@! TO.C,J13*
X1100000Y161500000D03*
X1802944Y163197056D03*
X1802944Y159802944D03*
X3500000Y163900000D03*
D11*
X3500000Y161500000D03*
D10*
X3500000Y159100000D03*
X5197056Y163197056D03*
X5197056Y159802944D03*
X5900000Y161500000D03*
G04 #@! TD*
G04 #@! TO.C,J14*
X79100000Y161500000D03*
X79802944Y163197056D03*
X79802944Y159802944D03*
X81500000Y163900000D03*
D11*
X81500000Y161500000D03*
D10*
X81500000Y159100000D03*
X83197056Y163197056D03*
X83197056Y159802944D03*
X83900000Y161500000D03*
G04 #@! TD*
D20*
G04 #@! TO.C,J4*
X121580000Y3220000D03*
G04 #@! TD*
D10*
G04 #@! TO.C,J17*
X1100000Y3500000D03*
X1802944Y5197056D03*
X1802944Y1802944D03*
X3500000Y5900000D03*
D11*
X3500000Y3500000D03*
D10*
X3500000Y1100000D03*
X5197056Y5197056D03*
X5197056Y1802944D03*
X5900000Y3500000D03*
G04 #@! TD*
G04 #@! TO.C,J15*
X1100000Y82500000D03*
X1802944Y84197056D03*
X1802944Y80802944D03*
X3500000Y84900000D03*
D11*
X3500000Y82500000D03*
D10*
X3500000Y80100000D03*
X5197056Y84197056D03*
X5197056Y80802944D03*
X5900000Y82500000D03*
G04 #@! TD*
D12*
G04 #@! TO.C,J1*
X179000000Y21550000D03*
X179000000Y60050000D03*
D21*
X164500000Y28800000D03*
X164500000Y31800000D03*
X164500000Y34800000D03*
X164500000Y37800000D03*
X164500000Y40800000D03*
X164500000Y43800000D03*
X164500000Y46800000D03*
X164500000Y49800000D03*
X164500000Y52800000D03*
X167000000Y30300000D03*
X167000000Y33300000D03*
X167000000Y36300000D03*
X167000000Y39300000D03*
X167000000Y42300000D03*
X167000000Y45300000D03*
X167000000Y48300000D03*
X167000000Y51300000D03*
X170000000Y30300000D03*
X170000000Y33300000D03*
X170000000Y36300000D03*
X170000000Y39300000D03*
X170000000Y42300000D03*
X170000000Y45300000D03*
X170000000Y48300000D03*
X170000000Y51300000D03*
X172500000Y28800000D03*
X172500000Y31800000D03*
X172500000Y34800000D03*
X172500000Y37800000D03*
X172500000Y40800000D03*
X172500000Y43800000D03*
X172500000Y46800000D03*
X172500000Y49800000D03*
X172500000Y52800000D03*
G04 #@! TD*
D15*
G04 #@! TO.C,J9*
X140925000Y43860000D03*
D16*
X140925000Y48940000D03*
X140925000Y54020000D03*
X140925000Y59100000D03*
G04 #@! TD*
M02*
