G04 #@! TF.GenerationSoftware,KiCad,Pcbnew,7.0.6-7.0.6~ubuntu22.04.1*
G04 #@! TF.CreationDate,2023-08-02T03:16:41+00:00*
G04 #@! TF.ProjectId,digital_inputs,64696769-7461-46c5-9f69-6e707574732e,rev?*
G04 #@! TF.SameCoordinates,Original*
G04 #@! TF.FileFunction,Legend,Bot*
G04 #@! TF.FilePolarity,Positive*
%FSLAX46Y46*%
G04 Gerber Fmt 4.6, Leading zero omitted, Abs format (unit mm)*
G04 Created by KiCad (PCBNEW 7.0.6-7.0.6~ubuntu22.04.1) date 2023-08-02 03:16:41*
%MOMM*%
%LPD*%
G01*
G04 APERTURE LIST*
%ADD10C,0.300000*%
%ADD11C,0.150000*%
G04 APERTURE END LIST*
D10*
X152696666Y104637267D02*
X151172857Y104637267D01*
X151934761Y103875362D02*
X151934761Y105399172D01*
X149172857Y103875362D02*
X150315714Y103875362D01*
X149744286Y103875362D02*
X149744286Y105875362D01*
X149744286Y105875362D02*
X149934762Y105589648D01*
X149934762Y105589648D02*
X150125238Y105399172D01*
X150125238Y105399172D02*
X150315714Y105303934D01*
X148410952Y105684886D02*
X148315714Y105780124D01*
X148315714Y105780124D02*
X148125238Y105875362D01*
X148125238Y105875362D02*
X147649047Y105875362D01*
X147649047Y105875362D02*
X147458571Y105780124D01*
X147458571Y105780124D02*
X147363333Y105684886D01*
X147363333Y105684886D02*
X147268095Y105494410D01*
X147268095Y105494410D02*
X147268095Y105303934D01*
X147268095Y105303934D02*
X147363333Y105018220D01*
X147363333Y105018220D02*
X148506190Y103875362D01*
X148506190Y103875362D02*
X147268095Y103875362D01*
X135291666Y53952267D02*
X133767857Y53952267D01*
X134529761Y53190362D02*
X134529761Y54714172D01*
X131767857Y53190362D02*
X132910714Y53190362D01*
X132339286Y53190362D02*
X132339286Y55190362D01*
X132339286Y55190362D02*
X132529762Y54904648D01*
X132529762Y54904648D02*
X132720238Y54714172D01*
X132720238Y54714172D02*
X132910714Y54618934D01*
X131005952Y54999886D02*
X130910714Y55095124D01*
X130910714Y55095124D02*
X130720238Y55190362D01*
X130720238Y55190362D02*
X130244047Y55190362D01*
X130244047Y55190362D02*
X130053571Y55095124D01*
X130053571Y55095124D02*
X129958333Y54999886D01*
X129958333Y54999886D02*
X129863095Y54809410D01*
X129863095Y54809410D02*
X129863095Y54618934D01*
X129863095Y54618934D02*
X129958333Y54333220D01*
X129958333Y54333220D02*
X131101190Y53190362D01*
X131101190Y53190362D02*
X129863095Y53190362D01*
X151578809Y70200124D02*
X151769285Y70295362D01*
X151769285Y70295362D02*
X152054999Y70295362D01*
X152054999Y70295362D02*
X152340714Y70200124D01*
X152340714Y70200124D02*
X152531190Y70009648D01*
X152531190Y70009648D02*
X152626428Y69819172D01*
X152626428Y69819172D02*
X152721666Y69438220D01*
X152721666Y69438220D02*
X152721666Y69152505D01*
X152721666Y69152505D02*
X152626428Y68771553D01*
X152626428Y68771553D02*
X152531190Y68581077D01*
X152531190Y68581077D02*
X152340714Y68390600D01*
X152340714Y68390600D02*
X152054999Y68295362D01*
X152054999Y68295362D02*
X151864523Y68295362D01*
X151864523Y68295362D02*
X151578809Y68390600D01*
X151578809Y68390600D02*
X151483571Y68485839D01*
X151483571Y68485839D02*
X151483571Y69152505D01*
X151483571Y69152505D02*
X151864523Y69152505D01*
X150626428Y68295362D02*
X150626428Y70295362D01*
X150626428Y70295362D02*
X149483571Y68295362D01*
X149483571Y68295362D02*
X149483571Y70295362D01*
X148531190Y68295362D02*
X148531190Y70295362D01*
X148531190Y70295362D02*
X148055000Y70295362D01*
X148055000Y70295362D02*
X147769285Y70200124D01*
X147769285Y70200124D02*
X147578809Y70009648D01*
X147578809Y70009648D02*
X147483571Y69819172D01*
X147483571Y69819172D02*
X147388333Y69438220D01*
X147388333Y69438220D02*
X147388333Y69152505D01*
X147388333Y69152505D02*
X147483571Y68771553D01*
X147483571Y68771553D02*
X147578809Y68581077D01*
X147578809Y68581077D02*
X147769285Y68390600D01*
X147769285Y68390600D02*
X148055000Y68295362D01*
X148055000Y68295362D02*
X148531190Y68295362D01*
X151553809Y90540124D02*
X151744285Y90635362D01*
X151744285Y90635362D02*
X152029999Y90635362D01*
X152029999Y90635362D02*
X152315714Y90540124D01*
X152315714Y90540124D02*
X152506190Y90349648D01*
X152506190Y90349648D02*
X152601428Y90159172D01*
X152601428Y90159172D02*
X152696666Y89778220D01*
X152696666Y89778220D02*
X152696666Y89492505D01*
X152696666Y89492505D02*
X152601428Y89111553D01*
X152601428Y89111553D02*
X152506190Y88921077D01*
X152506190Y88921077D02*
X152315714Y88730600D01*
X152315714Y88730600D02*
X152029999Y88635362D01*
X152029999Y88635362D02*
X151839523Y88635362D01*
X151839523Y88635362D02*
X151553809Y88730600D01*
X151553809Y88730600D02*
X151458571Y88825839D01*
X151458571Y88825839D02*
X151458571Y89492505D01*
X151458571Y89492505D02*
X151839523Y89492505D01*
X150601428Y88635362D02*
X150601428Y90635362D01*
X150601428Y90635362D02*
X149458571Y88635362D01*
X149458571Y88635362D02*
X149458571Y90635362D01*
X148506190Y88635362D02*
X148506190Y90635362D01*
X148506190Y90635362D02*
X148030000Y90635362D01*
X148030000Y90635362D02*
X147744285Y90540124D01*
X147744285Y90540124D02*
X147553809Y90349648D01*
X147553809Y90349648D02*
X147458571Y90159172D01*
X147458571Y90159172D02*
X147363333Y89778220D01*
X147363333Y89778220D02*
X147363333Y89492505D01*
X147363333Y89492505D02*
X147458571Y89111553D01*
X147458571Y89111553D02*
X147553809Y88921077D01*
X147553809Y88921077D02*
X147744285Y88730600D01*
X147744285Y88730600D02*
X148030000Y88635362D01*
X148030000Y88635362D02*
X148506190Y88635362D01*
X134123809Y90675124D02*
X134314285Y90770362D01*
X134314285Y90770362D02*
X134599999Y90770362D01*
X134599999Y90770362D02*
X134885714Y90675124D01*
X134885714Y90675124D02*
X135076190Y90484648D01*
X135076190Y90484648D02*
X135171428Y90294172D01*
X135171428Y90294172D02*
X135266666Y89913220D01*
X135266666Y89913220D02*
X135266666Y89627505D01*
X135266666Y89627505D02*
X135171428Y89246553D01*
X135171428Y89246553D02*
X135076190Y89056077D01*
X135076190Y89056077D02*
X134885714Y88865600D01*
X134885714Y88865600D02*
X134599999Y88770362D01*
X134599999Y88770362D02*
X134409523Y88770362D01*
X134409523Y88770362D02*
X134123809Y88865600D01*
X134123809Y88865600D02*
X134028571Y88960839D01*
X134028571Y88960839D02*
X134028571Y89627505D01*
X134028571Y89627505D02*
X134409523Y89627505D01*
X133171428Y88770362D02*
X133171428Y90770362D01*
X133171428Y90770362D02*
X132028571Y88770362D01*
X132028571Y88770362D02*
X132028571Y90770362D01*
X131076190Y88770362D02*
X131076190Y90770362D01*
X131076190Y90770362D02*
X130600000Y90770362D01*
X130600000Y90770362D02*
X130314285Y90675124D01*
X130314285Y90675124D02*
X130123809Y90484648D01*
X130123809Y90484648D02*
X130028571Y90294172D01*
X130028571Y90294172D02*
X129933333Y89913220D01*
X129933333Y89913220D02*
X129933333Y89627505D01*
X129933333Y89627505D02*
X130028571Y89246553D01*
X130028571Y89246553D02*
X130123809Y89056077D01*
X130123809Y89056077D02*
X130314285Y88865600D01*
X130314285Y88865600D02*
X130600000Y88770362D01*
X130600000Y88770362D02*
X131076190Y88770362D01*
X135266666Y114932267D02*
X133742857Y114932267D01*
X134504761Y114170362D02*
X134504761Y115694172D01*
X131742857Y114170362D02*
X132885714Y114170362D01*
X132314286Y114170362D02*
X132314286Y116170362D01*
X132314286Y116170362D02*
X132504762Y115884648D01*
X132504762Y115884648D02*
X132695238Y115694172D01*
X132695238Y115694172D02*
X132885714Y115598934D01*
X130980952Y115979886D02*
X130885714Y116075124D01*
X130885714Y116075124D02*
X130695238Y116170362D01*
X130695238Y116170362D02*
X130219047Y116170362D01*
X130219047Y116170362D02*
X130028571Y116075124D01*
X130028571Y116075124D02*
X129933333Y115979886D01*
X129933333Y115979886D02*
X129838095Y115789410D01*
X129838095Y115789410D02*
X129838095Y115598934D01*
X129838095Y115598934D02*
X129933333Y115313220D01*
X129933333Y115313220D02*
X131076190Y114170362D01*
X131076190Y114170362D02*
X129838095Y114170362D01*
X152696666Y114797267D02*
X151172857Y114797267D01*
X151934761Y114035362D02*
X151934761Y115559172D01*
X149172857Y114035362D02*
X150315714Y114035362D01*
X149744286Y114035362D02*
X149744286Y116035362D01*
X149744286Y116035362D02*
X149934762Y115749648D01*
X149934762Y115749648D02*
X150125238Y115559172D01*
X150125238Y115559172D02*
X150315714Y115463934D01*
X148410952Y115844886D02*
X148315714Y115940124D01*
X148315714Y115940124D02*
X148125238Y116035362D01*
X148125238Y116035362D02*
X147649047Y116035362D01*
X147649047Y116035362D02*
X147458571Y115940124D01*
X147458571Y115940124D02*
X147363333Y115844886D01*
X147363333Y115844886D02*
X147268095Y115654410D01*
X147268095Y115654410D02*
X147268095Y115463934D01*
X147268095Y115463934D02*
X147363333Y115178220D01*
X147363333Y115178220D02*
X148506190Y114035362D01*
X148506190Y114035362D02*
X147268095Y114035362D01*
X152721666Y53817267D02*
X151197857Y53817267D01*
X151959761Y53055362D02*
X151959761Y54579172D01*
X149197857Y53055362D02*
X150340714Y53055362D01*
X149769286Y53055362D02*
X149769286Y55055362D01*
X149769286Y55055362D02*
X149959762Y54769648D01*
X149959762Y54769648D02*
X150150238Y54579172D01*
X150150238Y54579172D02*
X150340714Y54483934D01*
X148435952Y54864886D02*
X148340714Y54960124D01*
X148340714Y54960124D02*
X148150238Y55055362D01*
X148150238Y55055362D02*
X147674047Y55055362D01*
X147674047Y55055362D02*
X147483571Y54960124D01*
X147483571Y54960124D02*
X147388333Y54864886D01*
X147388333Y54864886D02*
X147293095Y54674410D01*
X147293095Y54674410D02*
X147293095Y54483934D01*
X147293095Y54483934D02*
X147388333Y54198220D01*
X147388333Y54198220D02*
X148531190Y53055362D01*
X148531190Y53055362D02*
X147293095Y53055362D01*
X132771428Y34123696D02*
X132771428Y32790362D01*
X133247619Y34885600D02*
X133723809Y33457029D01*
X133723809Y33457029D02*
X132485714Y33457029D01*
X131819047Y34599886D02*
X131723809Y34695124D01*
X131723809Y34695124D02*
X131533333Y34790362D01*
X131533333Y34790362D02*
X131057142Y34790362D01*
X131057142Y34790362D02*
X130866666Y34695124D01*
X130866666Y34695124D02*
X130771428Y34599886D01*
X130771428Y34599886D02*
X130676190Y34409410D01*
X130676190Y34409410D02*
X130676190Y34218934D01*
X130676190Y34218934D02*
X130771428Y33933220D01*
X130771428Y33933220D02*
X131914285Y32790362D01*
X131914285Y32790362D02*
X130676190Y32790362D01*
X134148809Y70335124D02*
X134339285Y70430362D01*
X134339285Y70430362D02*
X134624999Y70430362D01*
X134624999Y70430362D02*
X134910714Y70335124D01*
X134910714Y70335124D02*
X135101190Y70144648D01*
X135101190Y70144648D02*
X135196428Y69954172D01*
X135196428Y69954172D02*
X135291666Y69573220D01*
X135291666Y69573220D02*
X135291666Y69287505D01*
X135291666Y69287505D02*
X135196428Y68906553D01*
X135196428Y68906553D02*
X135101190Y68716077D01*
X135101190Y68716077D02*
X134910714Y68525600D01*
X134910714Y68525600D02*
X134624999Y68430362D01*
X134624999Y68430362D02*
X134434523Y68430362D01*
X134434523Y68430362D02*
X134148809Y68525600D01*
X134148809Y68525600D02*
X134053571Y68620839D01*
X134053571Y68620839D02*
X134053571Y69287505D01*
X134053571Y69287505D02*
X134434523Y69287505D01*
X133196428Y68430362D02*
X133196428Y70430362D01*
X133196428Y70430362D02*
X132053571Y68430362D01*
X132053571Y68430362D02*
X132053571Y70430362D01*
X131101190Y68430362D02*
X131101190Y70430362D01*
X131101190Y70430362D02*
X130625000Y70430362D01*
X130625000Y70430362D02*
X130339285Y70335124D01*
X130339285Y70335124D02*
X130148809Y70144648D01*
X130148809Y70144648D02*
X130053571Y69954172D01*
X130053571Y69954172D02*
X129958333Y69573220D01*
X129958333Y69573220D02*
X129958333Y69287505D01*
X129958333Y69287505D02*
X130053571Y68906553D01*
X130053571Y68906553D02*
X130148809Y68716077D01*
X130148809Y68716077D02*
X130339285Y68525600D01*
X130339285Y68525600D02*
X130625000Y68430362D01*
X130625000Y68430362D02*
X131101190Y68430362D01*
X152696666Y119877267D02*
X151172857Y119877267D01*
X151934761Y119115362D02*
X151934761Y120639172D01*
X149172857Y119115362D02*
X150315714Y119115362D01*
X149744286Y119115362D02*
X149744286Y121115362D01*
X149744286Y121115362D02*
X149934762Y120829648D01*
X149934762Y120829648D02*
X150125238Y120639172D01*
X150125238Y120639172D02*
X150315714Y120543934D01*
X148410952Y120924886D02*
X148315714Y121020124D01*
X148315714Y121020124D02*
X148125238Y121115362D01*
X148125238Y121115362D02*
X147649047Y121115362D01*
X147649047Y121115362D02*
X147458571Y121020124D01*
X147458571Y121020124D02*
X147363333Y120924886D01*
X147363333Y120924886D02*
X147268095Y120734410D01*
X147268095Y120734410D02*
X147268095Y120543934D01*
X147268095Y120543934D02*
X147363333Y120258220D01*
X147363333Y120258220D02*
X148506190Y119115362D01*
X148506190Y119115362D02*
X147268095Y119115362D01*
X150371428Y13703696D02*
X150371428Y12370362D01*
X150847619Y14465600D02*
X151323809Y13037029D01*
X151323809Y13037029D02*
X150085714Y13037029D01*
X148466666Y14370362D02*
X148847619Y14370362D01*
X148847619Y14370362D02*
X149038095Y14275124D01*
X149038095Y14275124D02*
X149133333Y14179886D01*
X149133333Y14179886D02*
X149323809Y13894172D01*
X149323809Y13894172D02*
X149419047Y13513220D01*
X149419047Y13513220D02*
X149419047Y12751315D01*
X149419047Y12751315D02*
X149323809Y12560839D01*
X149323809Y12560839D02*
X149228571Y12465600D01*
X149228571Y12465600D02*
X149038095Y12370362D01*
X149038095Y12370362D02*
X148657142Y12370362D01*
X148657142Y12370362D02*
X148466666Y12465600D01*
X148466666Y12465600D02*
X148371428Y12560839D01*
X148371428Y12560839D02*
X148276190Y12751315D01*
X148276190Y12751315D02*
X148276190Y13227505D01*
X148276190Y13227505D02*
X148371428Y13417981D01*
X148371428Y13417981D02*
X148466666Y13513220D01*
X148466666Y13513220D02*
X148657142Y13608458D01*
X148657142Y13608458D02*
X149038095Y13608458D01*
X149038095Y13608458D02*
X149228571Y13513220D01*
X149228571Y13513220D02*
X149323809Y13417981D01*
X149323809Y13417981D02*
X149419047Y13227505D01*
X134148809Y75415124D02*
X134339285Y75510362D01*
X134339285Y75510362D02*
X134624999Y75510362D01*
X134624999Y75510362D02*
X134910714Y75415124D01*
X134910714Y75415124D02*
X135101190Y75224648D01*
X135101190Y75224648D02*
X135196428Y75034172D01*
X135196428Y75034172D02*
X135291666Y74653220D01*
X135291666Y74653220D02*
X135291666Y74367505D01*
X135291666Y74367505D02*
X135196428Y73986553D01*
X135196428Y73986553D02*
X135101190Y73796077D01*
X135101190Y73796077D02*
X134910714Y73605600D01*
X134910714Y73605600D02*
X134624999Y73510362D01*
X134624999Y73510362D02*
X134434523Y73510362D01*
X134434523Y73510362D02*
X134148809Y73605600D01*
X134148809Y73605600D02*
X134053571Y73700839D01*
X134053571Y73700839D02*
X134053571Y74367505D01*
X134053571Y74367505D02*
X134434523Y74367505D01*
X133196428Y73510362D02*
X133196428Y75510362D01*
X133196428Y75510362D02*
X132053571Y73510362D01*
X132053571Y73510362D02*
X132053571Y75510362D01*
X131101190Y73510362D02*
X131101190Y75510362D01*
X131101190Y75510362D02*
X130625000Y75510362D01*
X130625000Y75510362D02*
X130339285Y75415124D01*
X130339285Y75415124D02*
X130148809Y75224648D01*
X130148809Y75224648D02*
X130053571Y75034172D01*
X130053571Y75034172D02*
X129958333Y74653220D01*
X129958333Y74653220D02*
X129958333Y74367505D01*
X129958333Y74367505D02*
X130053571Y73986553D01*
X130053571Y73986553D02*
X130148809Y73796077D01*
X130148809Y73796077D02*
X130339285Y73605600D01*
X130339285Y73605600D02*
X130625000Y73510362D01*
X130625000Y73510362D02*
X131101190Y73510362D01*
X134123809Y85595124D02*
X134314285Y85690362D01*
X134314285Y85690362D02*
X134599999Y85690362D01*
X134599999Y85690362D02*
X134885714Y85595124D01*
X134885714Y85595124D02*
X135076190Y85404648D01*
X135076190Y85404648D02*
X135171428Y85214172D01*
X135171428Y85214172D02*
X135266666Y84833220D01*
X135266666Y84833220D02*
X135266666Y84547505D01*
X135266666Y84547505D02*
X135171428Y84166553D01*
X135171428Y84166553D02*
X135076190Y83976077D01*
X135076190Y83976077D02*
X134885714Y83785600D01*
X134885714Y83785600D02*
X134599999Y83690362D01*
X134599999Y83690362D02*
X134409523Y83690362D01*
X134409523Y83690362D02*
X134123809Y83785600D01*
X134123809Y83785600D02*
X134028571Y83880839D01*
X134028571Y83880839D02*
X134028571Y84547505D01*
X134028571Y84547505D02*
X134409523Y84547505D01*
X133171428Y83690362D02*
X133171428Y85690362D01*
X133171428Y85690362D02*
X132028571Y83690362D01*
X132028571Y83690362D02*
X132028571Y85690362D01*
X131076190Y83690362D02*
X131076190Y85690362D01*
X131076190Y85690362D02*
X130600000Y85690362D01*
X130600000Y85690362D02*
X130314285Y85595124D01*
X130314285Y85595124D02*
X130123809Y85404648D01*
X130123809Y85404648D02*
X130028571Y85214172D01*
X130028571Y85214172D02*
X129933333Y84833220D01*
X129933333Y84833220D02*
X129933333Y84547505D01*
X129933333Y84547505D02*
X130028571Y84166553D01*
X130028571Y84166553D02*
X130123809Y83976077D01*
X130123809Y83976077D02*
X130314285Y83785600D01*
X130314285Y83785600D02*
X130600000Y83690362D01*
X130600000Y83690362D02*
X131076190Y83690362D01*
X152721666Y58897267D02*
X151197857Y58897267D01*
X151959761Y58135362D02*
X151959761Y59659172D01*
X149197857Y58135362D02*
X150340714Y58135362D01*
X149769286Y58135362D02*
X149769286Y60135362D01*
X149769286Y60135362D02*
X149959762Y59849648D01*
X149959762Y59849648D02*
X150150238Y59659172D01*
X150150238Y59659172D02*
X150340714Y59563934D01*
X148435952Y59944886D02*
X148340714Y60040124D01*
X148340714Y60040124D02*
X148150238Y60135362D01*
X148150238Y60135362D02*
X147674047Y60135362D01*
X147674047Y60135362D02*
X147483571Y60040124D01*
X147483571Y60040124D02*
X147388333Y59944886D01*
X147388333Y59944886D02*
X147293095Y59754410D01*
X147293095Y59754410D02*
X147293095Y59563934D01*
X147293095Y59563934D02*
X147388333Y59278220D01*
X147388333Y59278220D02*
X148531190Y58135362D01*
X148531190Y58135362D02*
X147293095Y58135362D01*
X150371428Y8623696D02*
X150371428Y7290362D01*
X150847619Y9385600D02*
X151323809Y7957029D01*
X151323809Y7957029D02*
X150085714Y7957029D01*
X149514285Y9290362D02*
X148180952Y9290362D01*
X148180952Y9290362D02*
X149038095Y7290362D01*
X135266666Y120012267D02*
X133742857Y120012267D01*
X134504761Y119250362D02*
X134504761Y120774172D01*
X131742857Y119250362D02*
X132885714Y119250362D01*
X132314286Y119250362D02*
X132314286Y121250362D01*
X132314286Y121250362D02*
X132504762Y120964648D01*
X132504762Y120964648D02*
X132695238Y120774172D01*
X132695238Y120774172D02*
X132885714Y120678934D01*
X130980952Y121059886D02*
X130885714Y121155124D01*
X130885714Y121155124D02*
X130695238Y121250362D01*
X130695238Y121250362D02*
X130219047Y121250362D01*
X130219047Y121250362D02*
X130028571Y121155124D01*
X130028571Y121155124D02*
X129933333Y121059886D01*
X129933333Y121059886D02*
X129838095Y120869410D01*
X129838095Y120869410D02*
X129838095Y120678934D01*
X129838095Y120678934D02*
X129933333Y120393220D01*
X129933333Y120393220D02*
X131076190Y119250362D01*
X131076190Y119250362D02*
X129838095Y119250362D01*
X152721666Y48737267D02*
X151197857Y48737267D01*
X151959761Y47975362D02*
X151959761Y49499172D01*
X149197857Y47975362D02*
X150340714Y47975362D01*
X149769286Y47975362D02*
X149769286Y49975362D01*
X149769286Y49975362D02*
X149959762Y49689648D01*
X149959762Y49689648D02*
X150150238Y49499172D01*
X150150238Y49499172D02*
X150340714Y49403934D01*
X148435952Y49784886D02*
X148340714Y49880124D01*
X148340714Y49880124D02*
X148150238Y49975362D01*
X148150238Y49975362D02*
X147674047Y49975362D01*
X147674047Y49975362D02*
X147483571Y49880124D01*
X147483571Y49880124D02*
X147388333Y49784886D01*
X147388333Y49784886D02*
X147293095Y49594410D01*
X147293095Y49594410D02*
X147293095Y49403934D01*
X147293095Y49403934D02*
X147388333Y49118220D01*
X147388333Y49118220D02*
X148531190Y47975362D01*
X148531190Y47975362D02*
X147293095Y47975362D01*
X125971428Y3423696D02*
X125971428Y2090362D01*
X126447619Y4185600D02*
X126923809Y2757029D01*
X126923809Y2757029D02*
X125685714Y2757029D01*
X124828571Y2090362D02*
X124447619Y2090362D01*
X124447619Y2090362D02*
X124257142Y2185600D01*
X124257142Y2185600D02*
X124161904Y2280839D01*
X124161904Y2280839D02*
X123971428Y2566553D01*
X123971428Y2566553D02*
X123876190Y2947505D01*
X123876190Y2947505D02*
X123876190Y3709410D01*
X123876190Y3709410D02*
X123971428Y3899886D01*
X123971428Y3899886D02*
X124066666Y3995124D01*
X124066666Y3995124D02*
X124257142Y4090362D01*
X124257142Y4090362D02*
X124638095Y4090362D01*
X124638095Y4090362D02*
X124828571Y3995124D01*
X124828571Y3995124D02*
X124923809Y3899886D01*
X124923809Y3899886D02*
X125019047Y3709410D01*
X125019047Y3709410D02*
X125019047Y3233220D01*
X125019047Y3233220D02*
X124923809Y3042743D01*
X124923809Y3042743D02*
X124828571Y2947505D01*
X124828571Y2947505D02*
X124638095Y2852267D01*
X124638095Y2852267D02*
X124257142Y2852267D01*
X124257142Y2852267D02*
X124066666Y2947505D01*
X124066666Y2947505D02*
X123971428Y3042743D01*
X123971428Y3042743D02*
X123876190Y3233220D01*
X132746428Y8703696D02*
X132746428Y7370362D01*
X133222619Y9465600D02*
X133698809Y8037029D01*
X133698809Y8037029D02*
X132460714Y8037029D01*
X131889285Y9370362D02*
X130555952Y9370362D01*
X130555952Y9370362D02*
X131413095Y7370362D01*
X135291666Y43792267D02*
X133767857Y43792267D01*
X134529761Y43030362D02*
X134529761Y44554172D01*
X131767857Y43030362D02*
X132910714Y43030362D01*
X132339286Y43030362D02*
X132339286Y45030362D01*
X132339286Y45030362D02*
X132529762Y44744648D01*
X132529762Y44744648D02*
X132720238Y44554172D01*
X132720238Y44554172D02*
X132910714Y44458934D01*
X131005952Y44839886D02*
X130910714Y44935124D01*
X130910714Y44935124D02*
X130720238Y45030362D01*
X130720238Y45030362D02*
X130244047Y45030362D01*
X130244047Y45030362D02*
X130053571Y44935124D01*
X130053571Y44935124D02*
X129958333Y44839886D01*
X129958333Y44839886D02*
X129863095Y44649410D01*
X129863095Y44649410D02*
X129863095Y44458934D01*
X129863095Y44458934D02*
X129958333Y44173220D01*
X129958333Y44173220D02*
X131101190Y43030362D01*
X131101190Y43030362D02*
X129863095Y43030362D01*
X132771428Y39203696D02*
X132771428Y37870362D01*
X133247619Y39965600D02*
X133723809Y38537029D01*
X133723809Y38537029D02*
X132485714Y38537029D01*
X130676190Y37870362D02*
X131819047Y37870362D01*
X131247619Y37870362D02*
X131247619Y39870362D01*
X131247619Y39870362D02*
X131438095Y39584648D01*
X131438095Y39584648D02*
X131628571Y39394172D01*
X131628571Y39394172D02*
X131819047Y39298934D01*
X150371428Y3543696D02*
X150371428Y2210362D01*
X150847619Y4305600D02*
X151323809Y2877029D01*
X151323809Y2877029D02*
X150085714Y2877029D01*
X149038095Y3353220D02*
X149228571Y3448458D01*
X149228571Y3448458D02*
X149323809Y3543696D01*
X149323809Y3543696D02*
X149419047Y3734172D01*
X149419047Y3734172D02*
X149419047Y3829410D01*
X149419047Y3829410D02*
X149323809Y4019886D01*
X149323809Y4019886D02*
X149228571Y4115124D01*
X149228571Y4115124D02*
X149038095Y4210362D01*
X149038095Y4210362D02*
X148657142Y4210362D01*
X148657142Y4210362D02*
X148466666Y4115124D01*
X148466666Y4115124D02*
X148371428Y4019886D01*
X148371428Y4019886D02*
X148276190Y3829410D01*
X148276190Y3829410D02*
X148276190Y3734172D01*
X148276190Y3734172D02*
X148371428Y3543696D01*
X148371428Y3543696D02*
X148466666Y3448458D01*
X148466666Y3448458D02*
X148657142Y3353220D01*
X148657142Y3353220D02*
X149038095Y3353220D01*
X149038095Y3353220D02*
X149228571Y3257981D01*
X149228571Y3257981D02*
X149323809Y3162743D01*
X149323809Y3162743D02*
X149419047Y2972267D01*
X149419047Y2972267D02*
X149419047Y2591315D01*
X149419047Y2591315D02*
X149323809Y2400839D01*
X149323809Y2400839D02*
X149228571Y2305600D01*
X149228571Y2305600D02*
X149038095Y2210362D01*
X149038095Y2210362D02*
X148657142Y2210362D01*
X148657142Y2210362D02*
X148466666Y2305600D01*
X148466666Y2305600D02*
X148371428Y2400839D01*
X148371428Y2400839D02*
X148276190Y2591315D01*
X148276190Y2591315D02*
X148276190Y2972267D01*
X148276190Y2972267D02*
X148371428Y3162743D01*
X148371428Y3162743D02*
X148466666Y3257981D01*
X148466666Y3257981D02*
X148657142Y3353220D01*
X151553809Y85460124D02*
X151744285Y85555362D01*
X151744285Y85555362D02*
X152029999Y85555362D01*
X152029999Y85555362D02*
X152315714Y85460124D01*
X152315714Y85460124D02*
X152506190Y85269648D01*
X152506190Y85269648D02*
X152601428Y85079172D01*
X152601428Y85079172D02*
X152696666Y84698220D01*
X152696666Y84698220D02*
X152696666Y84412505D01*
X152696666Y84412505D02*
X152601428Y84031553D01*
X152601428Y84031553D02*
X152506190Y83841077D01*
X152506190Y83841077D02*
X152315714Y83650600D01*
X152315714Y83650600D02*
X152029999Y83555362D01*
X152029999Y83555362D02*
X151839523Y83555362D01*
X151839523Y83555362D02*
X151553809Y83650600D01*
X151553809Y83650600D02*
X151458571Y83745839D01*
X151458571Y83745839D02*
X151458571Y84412505D01*
X151458571Y84412505D02*
X151839523Y84412505D01*
X150601428Y83555362D02*
X150601428Y85555362D01*
X150601428Y85555362D02*
X149458571Y83555362D01*
X149458571Y83555362D02*
X149458571Y85555362D01*
X148506190Y83555362D02*
X148506190Y85555362D01*
X148506190Y85555362D02*
X148030000Y85555362D01*
X148030000Y85555362D02*
X147744285Y85460124D01*
X147744285Y85460124D02*
X147553809Y85269648D01*
X147553809Y85269648D02*
X147458571Y85079172D01*
X147458571Y85079172D02*
X147363333Y84698220D01*
X147363333Y84698220D02*
X147363333Y84412505D01*
X147363333Y84412505D02*
X147458571Y84031553D01*
X147458571Y84031553D02*
X147553809Y83841077D01*
X147553809Y83841077D02*
X147744285Y83650600D01*
X147744285Y83650600D02*
X148030000Y83555362D01*
X148030000Y83555362D02*
X148506190Y83555362D01*
X132746428Y18863696D02*
X132746428Y17530362D01*
X133222619Y19625600D02*
X133698809Y18197029D01*
X133698809Y18197029D02*
X132460714Y18197029D01*
X130746428Y19530362D02*
X131698809Y19530362D01*
X131698809Y19530362D02*
X131794047Y18577981D01*
X131794047Y18577981D02*
X131698809Y18673220D01*
X131698809Y18673220D02*
X131508333Y18768458D01*
X131508333Y18768458D02*
X131032142Y18768458D01*
X131032142Y18768458D02*
X130841666Y18673220D01*
X130841666Y18673220D02*
X130746428Y18577981D01*
X130746428Y18577981D02*
X130651190Y18387505D01*
X130651190Y18387505D02*
X130651190Y17911315D01*
X130651190Y17911315D02*
X130746428Y17720839D01*
X130746428Y17720839D02*
X130841666Y17625600D01*
X130841666Y17625600D02*
X131032142Y17530362D01*
X131032142Y17530362D02*
X131508333Y17530362D01*
X131508333Y17530362D02*
X131698809Y17625600D01*
X131698809Y17625600D02*
X131794047Y17720839D01*
X150396428Y34043696D02*
X150396428Y32710362D01*
X150872619Y34805600D02*
X151348809Y33377029D01*
X151348809Y33377029D02*
X150110714Y33377029D01*
X149444047Y34519886D02*
X149348809Y34615124D01*
X149348809Y34615124D02*
X149158333Y34710362D01*
X149158333Y34710362D02*
X148682142Y34710362D01*
X148682142Y34710362D02*
X148491666Y34615124D01*
X148491666Y34615124D02*
X148396428Y34519886D01*
X148396428Y34519886D02*
X148301190Y34329410D01*
X148301190Y34329410D02*
X148301190Y34138934D01*
X148301190Y34138934D02*
X148396428Y33853220D01*
X148396428Y33853220D02*
X149539285Y32710362D01*
X149539285Y32710362D02*
X148301190Y32710362D01*
X134148809Y80495124D02*
X134339285Y80590362D01*
X134339285Y80590362D02*
X134624999Y80590362D01*
X134624999Y80590362D02*
X134910714Y80495124D01*
X134910714Y80495124D02*
X135101190Y80304648D01*
X135101190Y80304648D02*
X135196428Y80114172D01*
X135196428Y80114172D02*
X135291666Y79733220D01*
X135291666Y79733220D02*
X135291666Y79447505D01*
X135291666Y79447505D02*
X135196428Y79066553D01*
X135196428Y79066553D02*
X135101190Y78876077D01*
X135101190Y78876077D02*
X134910714Y78685600D01*
X134910714Y78685600D02*
X134624999Y78590362D01*
X134624999Y78590362D02*
X134434523Y78590362D01*
X134434523Y78590362D02*
X134148809Y78685600D01*
X134148809Y78685600D02*
X134053571Y78780839D01*
X134053571Y78780839D02*
X134053571Y79447505D01*
X134053571Y79447505D02*
X134434523Y79447505D01*
X133196428Y78590362D02*
X133196428Y80590362D01*
X133196428Y80590362D02*
X132053571Y78590362D01*
X132053571Y78590362D02*
X132053571Y80590362D01*
X131101190Y78590362D02*
X131101190Y80590362D01*
X131101190Y80590362D02*
X130625000Y80590362D01*
X130625000Y80590362D02*
X130339285Y80495124D01*
X130339285Y80495124D02*
X130148809Y80304648D01*
X130148809Y80304648D02*
X130053571Y80114172D01*
X130053571Y80114172D02*
X129958333Y79733220D01*
X129958333Y79733220D02*
X129958333Y79447505D01*
X129958333Y79447505D02*
X130053571Y79066553D01*
X130053571Y79066553D02*
X130148809Y78876077D01*
X130148809Y78876077D02*
X130339285Y78685600D01*
X130339285Y78685600D02*
X130625000Y78590362D01*
X130625000Y78590362D02*
X131101190Y78590362D01*
X135291666Y59032267D02*
X133767857Y59032267D01*
X134529761Y58270362D02*
X134529761Y59794172D01*
X131767857Y58270362D02*
X132910714Y58270362D01*
X132339286Y58270362D02*
X132339286Y60270362D01*
X132339286Y60270362D02*
X132529762Y59984648D01*
X132529762Y59984648D02*
X132720238Y59794172D01*
X132720238Y59794172D02*
X132910714Y59698934D01*
X131005952Y60079886D02*
X130910714Y60175124D01*
X130910714Y60175124D02*
X130720238Y60270362D01*
X130720238Y60270362D02*
X130244047Y60270362D01*
X130244047Y60270362D02*
X130053571Y60175124D01*
X130053571Y60175124D02*
X129958333Y60079886D01*
X129958333Y60079886D02*
X129863095Y59889410D01*
X129863095Y59889410D02*
X129863095Y59698934D01*
X129863095Y59698934D02*
X129958333Y59413220D01*
X129958333Y59413220D02*
X131101190Y58270362D01*
X131101190Y58270362D02*
X129863095Y58270362D01*
X132746428Y13783696D02*
X132746428Y12450362D01*
X133222619Y14545600D02*
X133698809Y13117029D01*
X133698809Y13117029D02*
X132460714Y13117029D01*
X130841666Y14450362D02*
X131222619Y14450362D01*
X131222619Y14450362D02*
X131413095Y14355124D01*
X131413095Y14355124D02*
X131508333Y14259886D01*
X131508333Y14259886D02*
X131698809Y13974172D01*
X131698809Y13974172D02*
X131794047Y13593220D01*
X131794047Y13593220D02*
X131794047Y12831315D01*
X131794047Y12831315D02*
X131698809Y12640839D01*
X131698809Y12640839D02*
X131603571Y12545600D01*
X131603571Y12545600D02*
X131413095Y12450362D01*
X131413095Y12450362D02*
X131032142Y12450362D01*
X131032142Y12450362D02*
X130841666Y12545600D01*
X130841666Y12545600D02*
X130746428Y12640839D01*
X130746428Y12640839D02*
X130651190Y12831315D01*
X130651190Y12831315D02*
X130651190Y13307505D01*
X130651190Y13307505D02*
X130746428Y13497981D01*
X130746428Y13497981D02*
X130841666Y13593220D01*
X130841666Y13593220D02*
X131032142Y13688458D01*
X131032142Y13688458D02*
X131413095Y13688458D01*
X131413095Y13688458D02*
X131603571Y13593220D01*
X131603571Y13593220D02*
X131698809Y13497981D01*
X131698809Y13497981D02*
X131794047Y13307505D01*
X152696666Y109717267D02*
X151172857Y109717267D01*
X151934761Y108955362D02*
X151934761Y110479172D01*
X149172857Y108955362D02*
X150315714Y108955362D01*
X149744286Y108955362D02*
X149744286Y110955362D01*
X149744286Y110955362D02*
X149934762Y110669648D01*
X149934762Y110669648D02*
X150125238Y110479172D01*
X150125238Y110479172D02*
X150315714Y110383934D01*
X148410952Y110764886D02*
X148315714Y110860124D01*
X148315714Y110860124D02*
X148125238Y110955362D01*
X148125238Y110955362D02*
X147649047Y110955362D01*
X147649047Y110955362D02*
X147458571Y110860124D01*
X147458571Y110860124D02*
X147363333Y110764886D01*
X147363333Y110764886D02*
X147268095Y110574410D01*
X147268095Y110574410D02*
X147268095Y110383934D01*
X147268095Y110383934D02*
X147363333Y110098220D01*
X147363333Y110098220D02*
X148506190Y108955362D01*
X148506190Y108955362D02*
X147268095Y108955362D01*
X132771428Y29043696D02*
X132771428Y27710362D01*
X133247619Y29805600D02*
X133723809Y28377029D01*
X133723809Y28377029D02*
X132485714Y28377029D01*
X131914285Y29710362D02*
X130676190Y29710362D01*
X130676190Y29710362D02*
X131342857Y28948458D01*
X131342857Y28948458D02*
X131057142Y28948458D01*
X131057142Y28948458D02*
X130866666Y28853220D01*
X130866666Y28853220D02*
X130771428Y28757981D01*
X130771428Y28757981D02*
X130676190Y28567505D01*
X130676190Y28567505D02*
X130676190Y28091315D01*
X130676190Y28091315D02*
X130771428Y27900839D01*
X130771428Y27900839D02*
X130866666Y27805600D01*
X130866666Y27805600D02*
X131057142Y27710362D01*
X131057142Y27710362D02*
X131628571Y27710362D01*
X131628571Y27710362D02*
X131819047Y27805600D01*
X131819047Y27805600D02*
X131914285Y27900839D01*
X150396428Y23883696D02*
X150396428Y22550362D01*
X150872619Y24645600D02*
X151348809Y23217029D01*
X151348809Y23217029D02*
X150110714Y23217029D01*
X148491666Y23883696D02*
X148491666Y22550362D01*
X148967857Y24645600D02*
X149444047Y23217029D01*
X149444047Y23217029D02*
X148205952Y23217029D01*
X132771428Y23963696D02*
X132771428Y22630362D01*
X133247619Y24725600D02*
X133723809Y23297029D01*
X133723809Y23297029D02*
X132485714Y23297029D01*
X130866666Y23963696D02*
X130866666Y22630362D01*
X131342857Y24725600D02*
X131819047Y23297029D01*
X131819047Y23297029D02*
X130580952Y23297029D01*
X151578809Y75280124D02*
X151769285Y75375362D01*
X151769285Y75375362D02*
X152054999Y75375362D01*
X152054999Y75375362D02*
X152340714Y75280124D01*
X152340714Y75280124D02*
X152531190Y75089648D01*
X152531190Y75089648D02*
X152626428Y74899172D01*
X152626428Y74899172D02*
X152721666Y74518220D01*
X152721666Y74518220D02*
X152721666Y74232505D01*
X152721666Y74232505D02*
X152626428Y73851553D01*
X152626428Y73851553D02*
X152531190Y73661077D01*
X152531190Y73661077D02*
X152340714Y73470600D01*
X152340714Y73470600D02*
X152054999Y73375362D01*
X152054999Y73375362D02*
X151864523Y73375362D01*
X151864523Y73375362D02*
X151578809Y73470600D01*
X151578809Y73470600D02*
X151483571Y73565839D01*
X151483571Y73565839D02*
X151483571Y74232505D01*
X151483571Y74232505D02*
X151864523Y74232505D01*
X150626428Y73375362D02*
X150626428Y75375362D01*
X150626428Y75375362D02*
X149483571Y73375362D01*
X149483571Y73375362D02*
X149483571Y75375362D01*
X148531190Y73375362D02*
X148531190Y75375362D01*
X148531190Y75375362D02*
X148055000Y75375362D01*
X148055000Y75375362D02*
X147769285Y75280124D01*
X147769285Y75280124D02*
X147578809Y75089648D01*
X147578809Y75089648D02*
X147483571Y74899172D01*
X147483571Y74899172D02*
X147388333Y74518220D01*
X147388333Y74518220D02*
X147388333Y74232505D01*
X147388333Y74232505D02*
X147483571Y73851553D01*
X147483571Y73851553D02*
X147578809Y73661077D01*
X147578809Y73661077D02*
X147769285Y73470600D01*
X147769285Y73470600D02*
X148055000Y73375362D01*
X148055000Y73375362D02*
X148531190Y73375362D01*
X134123809Y100835124D02*
X134314285Y100930362D01*
X134314285Y100930362D02*
X134599999Y100930362D01*
X134599999Y100930362D02*
X134885714Y100835124D01*
X134885714Y100835124D02*
X135076190Y100644648D01*
X135076190Y100644648D02*
X135171428Y100454172D01*
X135171428Y100454172D02*
X135266666Y100073220D01*
X135266666Y100073220D02*
X135266666Y99787505D01*
X135266666Y99787505D02*
X135171428Y99406553D01*
X135171428Y99406553D02*
X135076190Y99216077D01*
X135076190Y99216077D02*
X134885714Y99025600D01*
X134885714Y99025600D02*
X134599999Y98930362D01*
X134599999Y98930362D02*
X134409523Y98930362D01*
X134409523Y98930362D02*
X134123809Y99025600D01*
X134123809Y99025600D02*
X134028571Y99120839D01*
X134028571Y99120839D02*
X134028571Y99787505D01*
X134028571Y99787505D02*
X134409523Y99787505D01*
X133171428Y98930362D02*
X133171428Y100930362D01*
X133171428Y100930362D02*
X132028571Y98930362D01*
X132028571Y98930362D02*
X132028571Y100930362D01*
X131076190Y98930362D02*
X131076190Y100930362D01*
X131076190Y100930362D02*
X130600000Y100930362D01*
X130600000Y100930362D02*
X130314285Y100835124D01*
X130314285Y100835124D02*
X130123809Y100644648D01*
X130123809Y100644648D02*
X130028571Y100454172D01*
X130028571Y100454172D02*
X129933333Y100073220D01*
X129933333Y100073220D02*
X129933333Y99787505D01*
X129933333Y99787505D02*
X130028571Y99406553D01*
X130028571Y99406553D02*
X130123809Y99216077D01*
X130123809Y99216077D02*
X130314285Y99025600D01*
X130314285Y99025600D02*
X130600000Y98930362D01*
X130600000Y98930362D02*
X131076190Y98930362D01*
X132746428Y3623696D02*
X132746428Y2290362D01*
X133222619Y4385600D02*
X133698809Y2957029D01*
X133698809Y2957029D02*
X132460714Y2957029D01*
X131413095Y3433220D02*
X131603571Y3528458D01*
X131603571Y3528458D02*
X131698809Y3623696D01*
X131698809Y3623696D02*
X131794047Y3814172D01*
X131794047Y3814172D02*
X131794047Y3909410D01*
X131794047Y3909410D02*
X131698809Y4099886D01*
X131698809Y4099886D02*
X131603571Y4195124D01*
X131603571Y4195124D02*
X131413095Y4290362D01*
X131413095Y4290362D02*
X131032142Y4290362D01*
X131032142Y4290362D02*
X130841666Y4195124D01*
X130841666Y4195124D02*
X130746428Y4099886D01*
X130746428Y4099886D02*
X130651190Y3909410D01*
X130651190Y3909410D02*
X130651190Y3814172D01*
X130651190Y3814172D02*
X130746428Y3623696D01*
X130746428Y3623696D02*
X130841666Y3528458D01*
X130841666Y3528458D02*
X131032142Y3433220D01*
X131032142Y3433220D02*
X131413095Y3433220D01*
X131413095Y3433220D02*
X131603571Y3337981D01*
X131603571Y3337981D02*
X131698809Y3242743D01*
X131698809Y3242743D02*
X131794047Y3052267D01*
X131794047Y3052267D02*
X131794047Y2671315D01*
X131794047Y2671315D02*
X131698809Y2480839D01*
X131698809Y2480839D02*
X131603571Y2385600D01*
X131603571Y2385600D02*
X131413095Y2290362D01*
X131413095Y2290362D02*
X131032142Y2290362D01*
X131032142Y2290362D02*
X130841666Y2385600D01*
X130841666Y2385600D02*
X130746428Y2480839D01*
X130746428Y2480839D02*
X130651190Y2671315D01*
X130651190Y2671315D02*
X130651190Y3052267D01*
X130651190Y3052267D02*
X130746428Y3242743D01*
X130746428Y3242743D02*
X130841666Y3337981D01*
X130841666Y3337981D02*
X131032142Y3433220D01*
X151553809Y100700124D02*
X151744285Y100795362D01*
X151744285Y100795362D02*
X152029999Y100795362D01*
X152029999Y100795362D02*
X152315714Y100700124D01*
X152315714Y100700124D02*
X152506190Y100509648D01*
X152506190Y100509648D02*
X152601428Y100319172D01*
X152601428Y100319172D02*
X152696666Y99938220D01*
X152696666Y99938220D02*
X152696666Y99652505D01*
X152696666Y99652505D02*
X152601428Y99271553D01*
X152601428Y99271553D02*
X152506190Y99081077D01*
X152506190Y99081077D02*
X152315714Y98890600D01*
X152315714Y98890600D02*
X152029999Y98795362D01*
X152029999Y98795362D02*
X151839523Y98795362D01*
X151839523Y98795362D02*
X151553809Y98890600D01*
X151553809Y98890600D02*
X151458571Y98985839D01*
X151458571Y98985839D02*
X151458571Y99652505D01*
X151458571Y99652505D02*
X151839523Y99652505D01*
X150601428Y98795362D02*
X150601428Y100795362D01*
X150601428Y100795362D02*
X149458571Y98795362D01*
X149458571Y98795362D02*
X149458571Y100795362D01*
X148506190Y98795362D02*
X148506190Y100795362D01*
X148506190Y100795362D02*
X148030000Y100795362D01*
X148030000Y100795362D02*
X147744285Y100700124D01*
X147744285Y100700124D02*
X147553809Y100509648D01*
X147553809Y100509648D02*
X147458571Y100319172D01*
X147458571Y100319172D02*
X147363333Y99938220D01*
X147363333Y99938220D02*
X147363333Y99652505D01*
X147363333Y99652505D02*
X147458571Y99271553D01*
X147458571Y99271553D02*
X147553809Y99081077D01*
X147553809Y99081077D02*
X147744285Y98890600D01*
X147744285Y98890600D02*
X148030000Y98795362D01*
X148030000Y98795362D02*
X148506190Y98795362D01*
X150371428Y18783696D02*
X150371428Y17450362D01*
X150847619Y19545600D02*
X151323809Y18117029D01*
X151323809Y18117029D02*
X150085714Y18117029D01*
X148371428Y19450362D02*
X149323809Y19450362D01*
X149323809Y19450362D02*
X149419047Y18497981D01*
X149419047Y18497981D02*
X149323809Y18593220D01*
X149323809Y18593220D02*
X149133333Y18688458D01*
X149133333Y18688458D02*
X148657142Y18688458D01*
X148657142Y18688458D02*
X148466666Y18593220D01*
X148466666Y18593220D02*
X148371428Y18497981D01*
X148371428Y18497981D02*
X148276190Y18307505D01*
X148276190Y18307505D02*
X148276190Y17831315D01*
X148276190Y17831315D02*
X148371428Y17640839D01*
X148371428Y17640839D02*
X148466666Y17545600D01*
X148466666Y17545600D02*
X148657142Y17450362D01*
X148657142Y17450362D02*
X149133333Y17450362D01*
X149133333Y17450362D02*
X149323809Y17545600D01*
X149323809Y17545600D02*
X149419047Y17640839D01*
X151553809Y95620124D02*
X151744285Y95715362D01*
X151744285Y95715362D02*
X152029999Y95715362D01*
X152029999Y95715362D02*
X152315714Y95620124D01*
X152315714Y95620124D02*
X152506190Y95429648D01*
X152506190Y95429648D02*
X152601428Y95239172D01*
X152601428Y95239172D02*
X152696666Y94858220D01*
X152696666Y94858220D02*
X152696666Y94572505D01*
X152696666Y94572505D02*
X152601428Y94191553D01*
X152601428Y94191553D02*
X152506190Y94001077D01*
X152506190Y94001077D02*
X152315714Y93810600D01*
X152315714Y93810600D02*
X152029999Y93715362D01*
X152029999Y93715362D02*
X151839523Y93715362D01*
X151839523Y93715362D02*
X151553809Y93810600D01*
X151553809Y93810600D02*
X151458571Y93905839D01*
X151458571Y93905839D02*
X151458571Y94572505D01*
X151458571Y94572505D02*
X151839523Y94572505D01*
X150601428Y93715362D02*
X150601428Y95715362D01*
X150601428Y95715362D02*
X149458571Y93715362D01*
X149458571Y93715362D02*
X149458571Y95715362D01*
X148506190Y93715362D02*
X148506190Y95715362D01*
X148506190Y95715362D02*
X148030000Y95715362D01*
X148030000Y95715362D02*
X147744285Y95620124D01*
X147744285Y95620124D02*
X147553809Y95429648D01*
X147553809Y95429648D02*
X147458571Y95239172D01*
X147458571Y95239172D02*
X147363333Y94858220D01*
X147363333Y94858220D02*
X147363333Y94572505D01*
X147363333Y94572505D02*
X147458571Y94191553D01*
X147458571Y94191553D02*
X147553809Y94001077D01*
X147553809Y94001077D02*
X147744285Y93810600D01*
X147744285Y93810600D02*
X148030000Y93715362D01*
X148030000Y93715362D02*
X148506190Y93715362D01*
X135266666Y109852267D02*
X133742857Y109852267D01*
X134504761Y109090362D02*
X134504761Y110614172D01*
X131742857Y109090362D02*
X132885714Y109090362D01*
X132314286Y109090362D02*
X132314286Y111090362D01*
X132314286Y111090362D02*
X132504762Y110804648D01*
X132504762Y110804648D02*
X132695238Y110614172D01*
X132695238Y110614172D02*
X132885714Y110518934D01*
X130980952Y110899886D02*
X130885714Y110995124D01*
X130885714Y110995124D02*
X130695238Y111090362D01*
X130695238Y111090362D02*
X130219047Y111090362D01*
X130219047Y111090362D02*
X130028571Y110995124D01*
X130028571Y110995124D02*
X129933333Y110899886D01*
X129933333Y110899886D02*
X129838095Y110709410D01*
X129838095Y110709410D02*
X129838095Y110518934D01*
X129838095Y110518934D02*
X129933333Y110233220D01*
X129933333Y110233220D02*
X131076190Y109090362D01*
X131076190Y109090362D02*
X129838095Y109090362D01*
X150396428Y39123696D02*
X150396428Y37790362D01*
X150872619Y39885600D02*
X151348809Y38457029D01*
X151348809Y38457029D02*
X150110714Y38457029D01*
X148301190Y37790362D02*
X149444047Y37790362D01*
X148872619Y37790362D02*
X148872619Y39790362D01*
X148872619Y39790362D02*
X149063095Y39504648D01*
X149063095Y39504648D02*
X149253571Y39314172D01*
X149253571Y39314172D02*
X149444047Y39218934D01*
X152721666Y43657267D02*
X151197857Y43657267D01*
X151959761Y42895362D02*
X151959761Y44419172D01*
X149197857Y42895362D02*
X150340714Y42895362D01*
X149769286Y42895362D02*
X149769286Y44895362D01*
X149769286Y44895362D02*
X149959762Y44609648D01*
X149959762Y44609648D02*
X150150238Y44419172D01*
X150150238Y44419172D02*
X150340714Y44323934D01*
X148435952Y44704886D02*
X148340714Y44800124D01*
X148340714Y44800124D02*
X148150238Y44895362D01*
X148150238Y44895362D02*
X147674047Y44895362D01*
X147674047Y44895362D02*
X147483571Y44800124D01*
X147483571Y44800124D02*
X147388333Y44704886D01*
X147388333Y44704886D02*
X147293095Y44514410D01*
X147293095Y44514410D02*
X147293095Y44323934D01*
X147293095Y44323934D02*
X147388333Y44038220D01*
X147388333Y44038220D02*
X148531190Y42895362D01*
X148531190Y42895362D02*
X147293095Y42895362D01*
X150396428Y28963696D02*
X150396428Y27630362D01*
X150872619Y29725600D02*
X151348809Y28297029D01*
X151348809Y28297029D02*
X150110714Y28297029D01*
X149539285Y29630362D02*
X148301190Y29630362D01*
X148301190Y29630362D02*
X148967857Y28868458D01*
X148967857Y28868458D02*
X148682142Y28868458D01*
X148682142Y28868458D02*
X148491666Y28773220D01*
X148491666Y28773220D02*
X148396428Y28677981D01*
X148396428Y28677981D02*
X148301190Y28487505D01*
X148301190Y28487505D02*
X148301190Y28011315D01*
X148301190Y28011315D02*
X148396428Y27820839D01*
X148396428Y27820839D02*
X148491666Y27725600D01*
X148491666Y27725600D02*
X148682142Y27630362D01*
X148682142Y27630362D02*
X149253571Y27630362D01*
X149253571Y27630362D02*
X149444047Y27725600D01*
X149444047Y27725600D02*
X149539285Y27820839D01*
X135266666Y104772267D02*
X133742857Y104772267D01*
X134504761Y104010362D02*
X134504761Y105534172D01*
X131742857Y104010362D02*
X132885714Y104010362D01*
X132314286Y104010362D02*
X132314286Y106010362D01*
X132314286Y106010362D02*
X132504762Y105724648D01*
X132504762Y105724648D02*
X132695238Y105534172D01*
X132695238Y105534172D02*
X132885714Y105438934D01*
X130980952Y105819886D02*
X130885714Y105915124D01*
X130885714Y105915124D02*
X130695238Y106010362D01*
X130695238Y106010362D02*
X130219047Y106010362D01*
X130219047Y106010362D02*
X130028571Y105915124D01*
X130028571Y105915124D02*
X129933333Y105819886D01*
X129933333Y105819886D02*
X129838095Y105629410D01*
X129838095Y105629410D02*
X129838095Y105438934D01*
X129838095Y105438934D02*
X129933333Y105153220D01*
X129933333Y105153220D02*
X131076190Y104010362D01*
X131076190Y104010362D02*
X129838095Y104010362D01*
X135291666Y48872267D02*
X133767857Y48872267D01*
X134529761Y48110362D02*
X134529761Y49634172D01*
X131767857Y48110362D02*
X132910714Y48110362D01*
X132339286Y48110362D02*
X132339286Y50110362D01*
X132339286Y50110362D02*
X132529762Y49824648D01*
X132529762Y49824648D02*
X132720238Y49634172D01*
X132720238Y49634172D02*
X132910714Y49538934D01*
X131005952Y49919886D02*
X130910714Y50015124D01*
X130910714Y50015124D02*
X130720238Y50110362D01*
X130720238Y50110362D02*
X130244047Y50110362D01*
X130244047Y50110362D02*
X130053571Y50015124D01*
X130053571Y50015124D02*
X129958333Y49919886D01*
X129958333Y49919886D02*
X129863095Y49729410D01*
X129863095Y49729410D02*
X129863095Y49538934D01*
X129863095Y49538934D02*
X129958333Y49253220D01*
X129958333Y49253220D02*
X131101190Y48110362D01*
X131101190Y48110362D02*
X129863095Y48110362D01*
X151578809Y80360124D02*
X151769285Y80455362D01*
X151769285Y80455362D02*
X152054999Y80455362D01*
X152054999Y80455362D02*
X152340714Y80360124D01*
X152340714Y80360124D02*
X152531190Y80169648D01*
X152531190Y80169648D02*
X152626428Y79979172D01*
X152626428Y79979172D02*
X152721666Y79598220D01*
X152721666Y79598220D02*
X152721666Y79312505D01*
X152721666Y79312505D02*
X152626428Y78931553D01*
X152626428Y78931553D02*
X152531190Y78741077D01*
X152531190Y78741077D02*
X152340714Y78550600D01*
X152340714Y78550600D02*
X152054999Y78455362D01*
X152054999Y78455362D02*
X151864523Y78455362D01*
X151864523Y78455362D02*
X151578809Y78550600D01*
X151578809Y78550600D02*
X151483571Y78645839D01*
X151483571Y78645839D02*
X151483571Y79312505D01*
X151483571Y79312505D02*
X151864523Y79312505D01*
X150626428Y78455362D02*
X150626428Y80455362D01*
X150626428Y80455362D02*
X149483571Y78455362D01*
X149483571Y78455362D02*
X149483571Y80455362D01*
X148531190Y78455362D02*
X148531190Y80455362D01*
X148531190Y80455362D02*
X148055000Y80455362D01*
X148055000Y80455362D02*
X147769285Y80360124D01*
X147769285Y80360124D02*
X147578809Y80169648D01*
X147578809Y80169648D02*
X147483571Y79979172D01*
X147483571Y79979172D02*
X147388333Y79598220D01*
X147388333Y79598220D02*
X147388333Y79312505D01*
X147388333Y79312505D02*
X147483571Y78931553D01*
X147483571Y78931553D02*
X147578809Y78741077D01*
X147578809Y78741077D02*
X147769285Y78550600D01*
X147769285Y78550600D02*
X148055000Y78455362D01*
X148055000Y78455362D02*
X148531190Y78455362D01*
X134148809Y65255124D02*
X134339285Y65350362D01*
X134339285Y65350362D02*
X134624999Y65350362D01*
X134624999Y65350362D02*
X134910714Y65255124D01*
X134910714Y65255124D02*
X135101190Y65064648D01*
X135101190Y65064648D02*
X135196428Y64874172D01*
X135196428Y64874172D02*
X135291666Y64493220D01*
X135291666Y64493220D02*
X135291666Y64207505D01*
X135291666Y64207505D02*
X135196428Y63826553D01*
X135196428Y63826553D02*
X135101190Y63636077D01*
X135101190Y63636077D02*
X134910714Y63445600D01*
X134910714Y63445600D02*
X134624999Y63350362D01*
X134624999Y63350362D02*
X134434523Y63350362D01*
X134434523Y63350362D02*
X134148809Y63445600D01*
X134148809Y63445600D02*
X134053571Y63540839D01*
X134053571Y63540839D02*
X134053571Y64207505D01*
X134053571Y64207505D02*
X134434523Y64207505D01*
X133196428Y63350362D02*
X133196428Y65350362D01*
X133196428Y65350362D02*
X132053571Y63350362D01*
X132053571Y63350362D02*
X132053571Y65350362D01*
X131101190Y63350362D02*
X131101190Y65350362D01*
X131101190Y65350362D02*
X130625000Y65350362D01*
X130625000Y65350362D02*
X130339285Y65255124D01*
X130339285Y65255124D02*
X130148809Y65064648D01*
X130148809Y65064648D02*
X130053571Y64874172D01*
X130053571Y64874172D02*
X129958333Y64493220D01*
X129958333Y64493220D02*
X129958333Y64207505D01*
X129958333Y64207505D02*
X130053571Y63826553D01*
X130053571Y63826553D02*
X130148809Y63636077D01*
X130148809Y63636077D02*
X130339285Y63445600D01*
X130339285Y63445600D02*
X130625000Y63350362D01*
X130625000Y63350362D02*
X131101190Y63350362D01*
X151578809Y65120124D02*
X151769285Y65215362D01*
X151769285Y65215362D02*
X152054999Y65215362D01*
X152054999Y65215362D02*
X152340714Y65120124D01*
X152340714Y65120124D02*
X152531190Y64929648D01*
X152531190Y64929648D02*
X152626428Y64739172D01*
X152626428Y64739172D02*
X152721666Y64358220D01*
X152721666Y64358220D02*
X152721666Y64072505D01*
X152721666Y64072505D02*
X152626428Y63691553D01*
X152626428Y63691553D02*
X152531190Y63501077D01*
X152531190Y63501077D02*
X152340714Y63310600D01*
X152340714Y63310600D02*
X152054999Y63215362D01*
X152054999Y63215362D02*
X151864523Y63215362D01*
X151864523Y63215362D02*
X151578809Y63310600D01*
X151578809Y63310600D02*
X151483571Y63405839D01*
X151483571Y63405839D02*
X151483571Y64072505D01*
X151483571Y64072505D02*
X151864523Y64072505D01*
X150626428Y63215362D02*
X150626428Y65215362D01*
X150626428Y65215362D02*
X149483571Y63215362D01*
X149483571Y63215362D02*
X149483571Y65215362D01*
X148531190Y63215362D02*
X148531190Y65215362D01*
X148531190Y65215362D02*
X148055000Y65215362D01*
X148055000Y65215362D02*
X147769285Y65120124D01*
X147769285Y65120124D02*
X147578809Y64929648D01*
X147578809Y64929648D02*
X147483571Y64739172D01*
X147483571Y64739172D02*
X147388333Y64358220D01*
X147388333Y64358220D02*
X147388333Y64072505D01*
X147388333Y64072505D02*
X147483571Y63691553D01*
X147483571Y63691553D02*
X147578809Y63501077D01*
X147578809Y63501077D02*
X147769285Y63310600D01*
X147769285Y63310600D02*
X148055000Y63215362D01*
X148055000Y63215362D02*
X148531190Y63215362D01*
X134123809Y95755124D02*
X134314285Y95850362D01*
X134314285Y95850362D02*
X134599999Y95850362D01*
X134599999Y95850362D02*
X134885714Y95755124D01*
X134885714Y95755124D02*
X135076190Y95564648D01*
X135076190Y95564648D02*
X135171428Y95374172D01*
X135171428Y95374172D02*
X135266666Y94993220D01*
X135266666Y94993220D02*
X135266666Y94707505D01*
X135266666Y94707505D02*
X135171428Y94326553D01*
X135171428Y94326553D02*
X135076190Y94136077D01*
X135076190Y94136077D02*
X134885714Y93945600D01*
X134885714Y93945600D02*
X134599999Y93850362D01*
X134599999Y93850362D02*
X134409523Y93850362D01*
X134409523Y93850362D02*
X134123809Y93945600D01*
X134123809Y93945600D02*
X134028571Y94040839D01*
X134028571Y94040839D02*
X134028571Y94707505D01*
X134028571Y94707505D02*
X134409523Y94707505D01*
X133171428Y93850362D02*
X133171428Y95850362D01*
X133171428Y95850362D02*
X132028571Y93850362D01*
X132028571Y93850362D02*
X132028571Y95850362D01*
X131076190Y93850362D02*
X131076190Y95850362D01*
X131076190Y95850362D02*
X130600000Y95850362D01*
X130600000Y95850362D02*
X130314285Y95755124D01*
X130314285Y95755124D02*
X130123809Y95564648D01*
X130123809Y95564648D02*
X130028571Y95374172D01*
X130028571Y95374172D02*
X129933333Y94993220D01*
X129933333Y94993220D02*
X129933333Y94707505D01*
X129933333Y94707505D02*
X130028571Y94326553D01*
X130028571Y94326553D02*
X130123809Y94136077D01*
X130123809Y94136077D02*
X130314285Y93945600D01*
X130314285Y93945600D02*
X130600000Y93850362D01*
X130600000Y93850362D02*
X131076190Y93850362D01*
D11*
X170190476Y85645181D02*
X170761904Y85645181D01*
X170476190Y85645181D02*
X170476190Y86645181D01*
X170476190Y86645181D02*
X170571428Y86502324D01*
X170571428Y86502324D02*
X170666666Y86407086D01*
X170666666Y86407086D02*
X170761904Y86359467D01*
X169619047Y86216610D02*
X169714285Y86264229D01*
X169714285Y86264229D02*
X169761904Y86311848D01*
X169761904Y86311848D02*
X169809523Y86407086D01*
X169809523Y86407086D02*
X169809523Y86454705D01*
X169809523Y86454705D02*
X169761904Y86549943D01*
X169761904Y86549943D02*
X169714285Y86597562D01*
X169714285Y86597562D02*
X169619047Y86645181D01*
X169619047Y86645181D02*
X169428571Y86645181D01*
X169428571Y86645181D02*
X169333333Y86597562D01*
X169333333Y86597562D02*
X169285714Y86549943D01*
X169285714Y86549943D02*
X169238095Y86454705D01*
X169238095Y86454705D02*
X169238095Y86407086D01*
X169238095Y86407086D02*
X169285714Y86311848D01*
X169285714Y86311848D02*
X169333333Y86264229D01*
X169333333Y86264229D02*
X169428571Y86216610D01*
X169428571Y86216610D02*
X169619047Y86216610D01*
X169619047Y86216610D02*
X169714285Y86168991D01*
X169714285Y86168991D02*
X169761904Y86121372D01*
X169761904Y86121372D02*
X169809523Y86026134D01*
X169809523Y86026134D02*
X169809523Y85835658D01*
X169809523Y85835658D02*
X169761904Y85740420D01*
X169761904Y85740420D02*
X169714285Y85692800D01*
X169714285Y85692800D02*
X169619047Y85645181D01*
X169619047Y85645181D02*
X169428571Y85645181D01*
X169428571Y85645181D02*
X169333333Y85692800D01*
X169333333Y85692800D02*
X169285714Y85740420D01*
X169285714Y85740420D02*
X169238095Y85835658D01*
X169238095Y85835658D02*
X169238095Y86026134D01*
X169238095Y86026134D02*
X169285714Y86121372D01*
X169285714Y86121372D02*
X169333333Y86168991D01*
X169333333Y86168991D02*
X169428571Y86216610D01*
X162261904Y99845181D02*
X162738094Y99845181D01*
X162738094Y99845181D02*
X162785713Y99368991D01*
X162785713Y99368991D02*
X162738094Y99416610D01*
X162738094Y99416610D02*
X162642856Y99464229D01*
X162642856Y99464229D02*
X162404761Y99464229D01*
X162404761Y99464229D02*
X162309523Y99416610D01*
X162309523Y99416610D02*
X162261904Y99368991D01*
X162261904Y99368991D02*
X162214285Y99273753D01*
X162214285Y99273753D02*
X162214285Y99035658D01*
X162214285Y99035658D02*
X162261904Y98940420D01*
X162261904Y98940420D02*
X162309523Y98892800D01*
X162309523Y98892800D02*
X162404761Y98845181D01*
X162404761Y98845181D02*
X162642856Y98845181D01*
X162642856Y98845181D02*
X162738094Y98892800D01*
X162738094Y98892800D02*
X162785713Y98940420D01*
X167190476Y143945181D02*
X167761904Y143945181D01*
X167476190Y143945181D02*
X167476190Y144945181D01*
X167476190Y144945181D02*
X167571428Y144802324D01*
X167571428Y144802324D02*
X167666666Y144707086D01*
X167666666Y144707086D02*
X167761904Y144659467D01*
X166857142Y144945181D02*
X166238095Y144945181D01*
X166238095Y144945181D02*
X166571428Y144564229D01*
X166571428Y144564229D02*
X166428571Y144564229D01*
X166428571Y144564229D02*
X166333333Y144516610D01*
X166333333Y144516610D02*
X166285714Y144468991D01*
X166285714Y144468991D02*
X166238095Y144373753D01*
X166238095Y144373753D02*
X166238095Y144135658D01*
X166238095Y144135658D02*
X166285714Y144040420D01*
X166285714Y144040420D02*
X166333333Y143992800D01*
X166333333Y143992800D02*
X166428571Y143945181D01*
X166428571Y143945181D02*
X166714285Y143945181D01*
X166714285Y143945181D02*
X166809523Y143992800D01*
X166809523Y143992800D02*
X166857142Y144040420D01*
X162833332Y105845181D02*
X162166666Y105845181D01*
X162166666Y105845181D02*
X162595237Y104845181D01*
X170761904Y112549943D02*
X170714285Y112597562D01*
X170714285Y112597562D02*
X170619047Y112645181D01*
X170619047Y112645181D02*
X170380952Y112645181D01*
X170380952Y112645181D02*
X170285714Y112597562D01*
X170285714Y112597562D02*
X170238095Y112549943D01*
X170238095Y112549943D02*
X170190476Y112454705D01*
X170190476Y112454705D02*
X170190476Y112359467D01*
X170190476Y112359467D02*
X170238095Y112216610D01*
X170238095Y112216610D02*
X170809523Y111645181D01*
X170809523Y111645181D02*
X170190476Y111645181D01*
X169285714Y112645181D02*
X169761904Y112645181D01*
X169761904Y112645181D02*
X169809523Y112168991D01*
X169809523Y112168991D02*
X169761904Y112216610D01*
X169761904Y112216610D02*
X169666666Y112264229D01*
X169666666Y112264229D02*
X169428571Y112264229D01*
X169428571Y112264229D02*
X169333333Y112216610D01*
X169333333Y112216610D02*
X169285714Y112168991D01*
X169285714Y112168991D02*
X169238095Y112073753D01*
X169238095Y112073753D02*
X169238095Y111835658D01*
X169238095Y111835658D02*
X169285714Y111740420D01*
X169285714Y111740420D02*
X169333333Y111692800D01*
X169333333Y111692800D02*
X169428571Y111645181D01*
X169428571Y111645181D02*
X169666666Y111645181D01*
X169666666Y111645181D02*
X169761904Y111692800D01*
X169761904Y111692800D02*
X169809523Y111740420D01*
X162309523Y102845181D02*
X162499999Y102845181D01*
X162499999Y102845181D02*
X162595237Y102797562D01*
X162595237Y102797562D02*
X162642856Y102749943D01*
X162642856Y102749943D02*
X162738094Y102607086D01*
X162738094Y102607086D02*
X162785713Y102416610D01*
X162785713Y102416610D02*
X162785713Y102035658D01*
X162785713Y102035658D02*
X162738094Y101940420D01*
X162738094Y101940420D02*
X162690475Y101892800D01*
X162690475Y101892800D02*
X162595237Y101845181D01*
X162595237Y101845181D02*
X162404761Y101845181D01*
X162404761Y101845181D02*
X162309523Y101892800D01*
X162309523Y101892800D02*
X162261904Y101940420D01*
X162261904Y101940420D02*
X162214285Y102035658D01*
X162214285Y102035658D02*
X162214285Y102273753D01*
X162214285Y102273753D02*
X162261904Y102368991D01*
X162261904Y102368991D02*
X162309523Y102416610D01*
X162309523Y102416610D02*
X162404761Y102464229D01*
X162404761Y102464229D02*
X162595237Y102464229D01*
X162595237Y102464229D02*
X162690475Y102416610D01*
X162690475Y102416610D02*
X162738094Y102368991D01*
X162738094Y102368991D02*
X162785713Y102273753D01*
X173261904Y85149943D02*
X173214285Y85197562D01*
X173214285Y85197562D02*
X173119047Y85245181D01*
X173119047Y85245181D02*
X172880952Y85245181D01*
X172880952Y85245181D02*
X172785714Y85197562D01*
X172785714Y85197562D02*
X172738095Y85149943D01*
X172738095Y85149943D02*
X172690476Y85054705D01*
X172690476Y85054705D02*
X172690476Y84959467D01*
X172690476Y84959467D02*
X172738095Y84816610D01*
X172738095Y84816610D02*
X173309523Y84245181D01*
X173309523Y84245181D02*
X172690476Y84245181D01*
X171833333Y85245181D02*
X172023809Y85245181D01*
X172023809Y85245181D02*
X172119047Y85197562D01*
X172119047Y85197562D02*
X172166666Y85149943D01*
X172166666Y85149943D02*
X172261904Y85007086D01*
X172261904Y85007086D02*
X172309523Y84816610D01*
X172309523Y84816610D02*
X172309523Y84435658D01*
X172309523Y84435658D02*
X172261904Y84340420D01*
X172261904Y84340420D02*
X172214285Y84292800D01*
X172214285Y84292800D02*
X172119047Y84245181D01*
X172119047Y84245181D02*
X171928571Y84245181D01*
X171928571Y84245181D02*
X171833333Y84292800D01*
X171833333Y84292800D02*
X171785714Y84340420D01*
X171785714Y84340420D02*
X171738095Y84435658D01*
X171738095Y84435658D02*
X171738095Y84673753D01*
X171738095Y84673753D02*
X171785714Y84768991D01*
X171785714Y84768991D02*
X171833333Y84816610D01*
X171833333Y84816610D02*
X171928571Y84864229D01*
X171928571Y84864229D02*
X172119047Y84864229D01*
X172119047Y84864229D02*
X172214285Y84816610D01*
X172214285Y84816610D02*
X172261904Y84768991D01*
X172261904Y84768991D02*
X172309523Y84673753D01*
X167090476Y85645181D02*
X167661904Y85645181D01*
X167376190Y85645181D02*
X167376190Y86645181D01*
X167376190Y86645181D02*
X167471428Y86502324D01*
X167471428Y86502324D02*
X167566666Y86407086D01*
X167566666Y86407086D02*
X167661904Y86359467D01*
X166471428Y86645181D02*
X166376190Y86645181D01*
X166376190Y86645181D02*
X166280952Y86597562D01*
X166280952Y86597562D02*
X166233333Y86549943D01*
X166233333Y86549943D02*
X166185714Y86454705D01*
X166185714Y86454705D02*
X166138095Y86264229D01*
X166138095Y86264229D02*
X166138095Y86026134D01*
X166138095Y86026134D02*
X166185714Y85835658D01*
X166185714Y85835658D02*
X166233333Y85740420D01*
X166233333Y85740420D02*
X166280952Y85692800D01*
X166280952Y85692800D02*
X166376190Y85645181D01*
X166376190Y85645181D02*
X166471428Y85645181D01*
X166471428Y85645181D02*
X166566666Y85692800D01*
X166566666Y85692800D02*
X166614285Y85740420D01*
X166614285Y85740420D02*
X166661904Y85835658D01*
X166661904Y85835658D02*
X166709523Y86026134D01*
X166709523Y86026134D02*
X166709523Y86264229D01*
X166709523Y86264229D02*
X166661904Y86454705D01*
X166661904Y86454705D02*
X166614285Y86549943D01*
X166614285Y86549943D02*
X166566666Y86597562D01*
X166566666Y86597562D02*
X166471428Y86645181D01*
X162833332Y144345181D02*
X162166666Y144345181D01*
X162166666Y144345181D02*
X162595237Y143345181D01*
X162261904Y138345181D02*
X162738094Y138345181D01*
X162738094Y138345181D02*
X162785713Y137868991D01*
X162785713Y137868991D02*
X162738094Y137916610D01*
X162738094Y137916610D02*
X162642856Y137964229D01*
X162642856Y137964229D02*
X162404761Y137964229D01*
X162404761Y137964229D02*
X162309523Y137916610D01*
X162309523Y137916610D02*
X162261904Y137868991D01*
X162261904Y137868991D02*
X162214285Y137773753D01*
X162214285Y137773753D02*
X162214285Y137535658D01*
X162214285Y137535658D02*
X162261904Y137440420D01*
X162261904Y137440420D02*
X162309523Y137392800D01*
X162309523Y137392800D02*
X162404761Y137345181D01*
X162404761Y137345181D02*
X162642856Y137345181D01*
X162642856Y137345181D02*
X162738094Y137392800D01*
X162738094Y137392800D02*
X162785713Y137440420D01*
X173261904Y146349943D02*
X173214285Y146397562D01*
X173214285Y146397562D02*
X173119047Y146445181D01*
X173119047Y146445181D02*
X172880952Y146445181D01*
X172880952Y146445181D02*
X172785714Y146397562D01*
X172785714Y146397562D02*
X172738095Y146349943D01*
X172738095Y146349943D02*
X172690476Y146254705D01*
X172690476Y146254705D02*
X172690476Y146159467D01*
X172690476Y146159467D02*
X172738095Y146016610D01*
X172738095Y146016610D02*
X173309523Y145445181D01*
X173309523Y145445181D02*
X172690476Y145445181D01*
X171833333Y146445181D02*
X172023809Y146445181D01*
X172023809Y146445181D02*
X172119047Y146397562D01*
X172119047Y146397562D02*
X172166666Y146349943D01*
X172166666Y146349943D02*
X172261904Y146207086D01*
X172261904Y146207086D02*
X172309523Y146016610D01*
X172309523Y146016610D02*
X172309523Y145635658D01*
X172309523Y145635658D02*
X172261904Y145540420D01*
X172261904Y145540420D02*
X172214285Y145492800D01*
X172214285Y145492800D02*
X172119047Y145445181D01*
X172119047Y145445181D02*
X171928571Y145445181D01*
X171928571Y145445181D02*
X171833333Y145492800D01*
X171833333Y145492800D02*
X171785714Y145540420D01*
X171785714Y145540420D02*
X171738095Y145635658D01*
X171738095Y145635658D02*
X171738095Y145873753D01*
X171738095Y145873753D02*
X171785714Y145968991D01*
X171785714Y145968991D02*
X171833333Y146016610D01*
X171833333Y146016610D02*
X171928571Y146064229D01*
X171928571Y146064229D02*
X172119047Y146064229D01*
X172119047Y146064229D02*
X172214285Y146016610D01*
X172214285Y146016610D02*
X172261904Y145968991D01*
X172261904Y145968991D02*
X172309523Y145873753D01*
X167095237Y124916610D02*
X167190475Y124964229D01*
X167190475Y124964229D02*
X167238094Y125011848D01*
X167238094Y125011848D02*
X167285713Y125107086D01*
X167285713Y125107086D02*
X167285713Y125154705D01*
X167285713Y125154705D02*
X167238094Y125249943D01*
X167238094Y125249943D02*
X167190475Y125297562D01*
X167190475Y125297562D02*
X167095237Y125345181D01*
X167095237Y125345181D02*
X166904761Y125345181D01*
X166904761Y125345181D02*
X166809523Y125297562D01*
X166809523Y125297562D02*
X166761904Y125249943D01*
X166761904Y125249943D02*
X166714285Y125154705D01*
X166714285Y125154705D02*
X166714285Y125107086D01*
X166714285Y125107086D02*
X166761904Y125011848D01*
X166761904Y125011848D02*
X166809523Y124964229D01*
X166809523Y124964229D02*
X166904761Y124916610D01*
X166904761Y124916610D02*
X167095237Y124916610D01*
X167095237Y124916610D02*
X167190475Y124868991D01*
X167190475Y124868991D02*
X167238094Y124821372D01*
X167238094Y124821372D02*
X167285713Y124726134D01*
X167285713Y124726134D02*
X167285713Y124535658D01*
X167285713Y124535658D02*
X167238094Y124440420D01*
X167238094Y124440420D02*
X167190475Y124392800D01*
X167190475Y124392800D02*
X167095237Y124345181D01*
X167095237Y124345181D02*
X166904761Y124345181D01*
X166904761Y124345181D02*
X166809523Y124392800D01*
X166809523Y124392800D02*
X166761904Y124440420D01*
X166761904Y124440420D02*
X166714285Y124535658D01*
X166714285Y124535658D02*
X166714285Y124726134D01*
X166714285Y124726134D02*
X166761904Y124821372D01*
X166761904Y124821372D02*
X166809523Y124868991D01*
X166809523Y124868991D02*
X166904761Y124916610D01*
X162309523Y141345181D02*
X162499999Y141345181D01*
X162499999Y141345181D02*
X162595237Y141297562D01*
X162595237Y141297562D02*
X162642856Y141249943D01*
X162642856Y141249943D02*
X162738094Y141107086D01*
X162738094Y141107086D02*
X162785713Y140916610D01*
X162785713Y140916610D02*
X162785713Y140535658D01*
X162785713Y140535658D02*
X162738094Y140440420D01*
X162738094Y140440420D02*
X162690475Y140392800D01*
X162690475Y140392800D02*
X162595237Y140345181D01*
X162595237Y140345181D02*
X162404761Y140345181D01*
X162404761Y140345181D02*
X162309523Y140392800D01*
X162309523Y140392800D02*
X162261904Y140440420D01*
X162261904Y140440420D02*
X162214285Y140535658D01*
X162214285Y140535658D02*
X162214285Y140773753D01*
X162214285Y140773753D02*
X162261904Y140868991D01*
X162261904Y140868991D02*
X162309523Y140916610D01*
X162309523Y140916610D02*
X162404761Y140964229D01*
X162404761Y140964229D02*
X162595237Y140964229D01*
X162595237Y140964229D02*
X162690475Y140916610D01*
X162690475Y140916610D02*
X162738094Y140868991D01*
X162738094Y140868991D02*
X162785713Y140773753D01*
X162595237Y108416610D02*
X162690475Y108464229D01*
X162690475Y108464229D02*
X162738094Y108511848D01*
X162738094Y108511848D02*
X162785713Y108607086D01*
X162785713Y108607086D02*
X162785713Y108654705D01*
X162785713Y108654705D02*
X162738094Y108749943D01*
X162738094Y108749943D02*
X162690475Y108797562D01*
X162690475Y108797562D02*
X162595237Y108845181D01*
X162595237Y108845181D02*
X162404761Y108845181D01*
X162404761Y108845181D02*
X162309523Y108797562D01*
X162309523Y108797562D02*
X162261904Y108749943D01*
X162261904Y108749943D02*
X162214285Y108654705D01*
X162214285Y108654705D02*
X162214285Y108607086D01*
X162214285Y108607086D02*
X162261904Y108511848D01*
X162261904Y108511848D02*
X162309523Y108464229D01*
X162309523Y108464229D02*
X162404761Y108416610D01*
X162404761Y108416610D02*
X162595237Y108416610D01*
X162595237Y108416610D02*
X162690475Y108368991D01*
X162690475Y108368991D02*
X162738094Y108321372D01*
X162738094Y108321372D02*
X162785713Y108226134D01*
X162785713Y108226134D02*
X162785713Y108035658D01*
X162785713Y108035658D02*
X162738094Y107940420D01*
X162738094Y107940420D02*
X162690475Y107892800D01*
X162690475Y107892800D02*
X162595237Y107845181D01*
X162595237Y107845181D02*
X162404761Y107845181D01*
X162404761Y107845181D02*
X162309523Y107892800D01*
X162309523Y107892800D02*
X162261904Y107940420D01*
X162261904Y107940420D02*
X162214285Y108035658D01*
X162214285Y108035658D02*
X162214285Y108226134D01*
X162214285Y108226134D02*
X162261904Y108321372D01*
X162261904Y108321372D02*
X162309523Y108368991D01*
X162309523Y108368991D02*
X162404761Y108416610D01*
X173309523Y114045181D02*
X172690476Y114045181D01*
X172690476Y114045181D02*
X173023809Y113664229D01*
X173023809Y113664229D02*
X172880952Y113664229D01*
X172880952Y113664229D02*
X172785714Y113616610D01*
X172785714Y113616610D02*
X172738095Y113568991D01*
X172738095Y113568991D02*
X172690476Y113473753D01*
X172690476Y113473753D02*
X172690476Y113235658D01*
X172690476Y113235658D02*
X172738095Y113140420D01*
X172738095Y113140420D02*
X172785714Y113092800D01*
X172785714Y113092800D02*
X172880952Y113045181D01*
X172880952Y113045181D02*
X173166666Y113045181D01*
X173166666Y113045181D02*
X173261904Y113092800D01*
X173261904Y113092800D02*
X173309523Y113140420D01*
X171833333Y113711848D02*
X171833333Y113045181D01*
X172071428Y114092800D02*
X172309523Y113378515D01*
X172309523Y113378515D02*
X171690476Y113378515D01*
X162309523Y135011848D02*
X162309523Y134345181D01*
X162547618Y135392800D02*
X162785713Y134678515D01*
X162785713Y134678515D02*
X162166666Y134678515D01*
X170190476Y143945181D02*
X170761904Y143945181D01*
X170476190Y143945181D02*
X170476190Y144945181D01*
X170476190Y144945181D02*
X170571428Y144802324D01*
X170571428Y144802324D02*
X170666666Y144707086D01*
X170666666Y144707086D02*
X170761904Y144659467D01*
X169714285Y143945181D02*
X169523809Y143945181D01*
X169523809Y143945181D02*
X169428571Y143992800D01*
X169428571Y143992800D02*
X169380952Y144040420D01*
X169380952Y144040420D02*
X169285714Y144183277D01*
X169285714Y144183277D02*
X169238095Y144373753D01*
X169238095Y144373753D02*
X169238095Y144754705D01*
X169238095Y144754705D02*
X169285714Y144849943D01*
X169285714Y144849943D02*
X169333333Y144897562D01*
X169333333Y144897562D02*
X169428571Y144945181D01*
X169428571Y144945181D02*
X169619047Y144945181D01*
X169619047Y144945181D02*
X169714285Y144897562D01*
X169714285Y144897562D02*
X169761904Y144849943D01*
X169761904Y144849943D02*
X169809523Y144754705D01*
X169809523Y144754705D02*
X169809523Y144516610D01*
X169809523Y144516610D02*
X169761904Y144421372D01*
X169761904Y144421372D02*
X169714285Y144373753D01*
X169714285Y144373753D02*
X169619047Y144326134D01*
X169619047Y144326134D02*
X169428571Y144326134D01*
X169428571Y144326134D02*
X169333333Y144373753D01*
X169333333Y144373753D02*
X169285714Y144421372D01*
X169285714Y144421372D02*
X169238095Y144516610D01*
X162785713Y129249943D02*
X162738094Y129297562D01*
X162738094Y129297562D02*
X162642856Y129345181D01*
X162642856Y129345181D02*
X162404761Y129345181D01*
X162404761Y129345181D02*
X162309523Y129297562D01*
X162309523Y129297562D02*
X162261904Y129249943D01*
X162261904Y129249943D02*
X162214285Y129154705D01*
X162214285Y129154705D02*
X162214285Y129059467D01*
X162214285Y129059467D02*
X162261904Y128916610D01*
X162261904Y128916610D02*
X162833332Y128345181D01*
X162833332Y128345181D02*
X162214285Y128345181D01*
X162214285Y86845181D02*
X162785713Y86845181D01*
X162499999Y86845181D02*
X162499999Y87845181D01*
X162499999Y87845181D02*
X162595237Y87702324D01*
X162595237Y87702324D02*
X162690475Y87607086D01*
X162690475Y87607086D02*
X162785713Y87559467D01*
X162690475Y110845181D02*
X162499999Y110845181D01*
X162499999Y110845181D02*
X162404761Y110892800D01*
X162404761Y110892800D02*
X162357142Y110940420D01*
X162357142Y110940420D02*
X162261904Y111083277D01*
X162261904Y111083277D02*
X162214285Y111273753D01*
X162214285Y111273753D02*
X162214285Y111654705D01*
X162214285Y111654705D02*
X162261904Y111749943D01*
X162261904Y111749943D02*
X162309523Y111797562D01*
X162309523Y111797562D02*
X162404761Y111845181D01*
X162404761Y111845181D02*
X162595237Y111845181D01*
X162595237Y111845181D02*
X162690475Y111797562D01*
X162690475Y111797562D02*
X162738094Y111749943D01*
X162738094Y111749943D02*
X162785713Y111654705D01*
X162785713Y111654705D02*
X162785713Y111416610D01*
X162785713Y111416610D02*
X162738094Y111321372D01*
X162738094Y111321372D02*
X162690475Y111273753D01*
X162690475Y111273753D02*
X162595237Y111226134D01*
X162595237Y111226134D02*
X162404761Y111226134D01*
X162404761Y111226134D02*
X162309523Y111273753D01*
X162309523Y111273753D02*
X162261904Y111321372D01*
X162261904Y111321372D02*
X162214285Y111416610D01*
X170190476Y124345181D02*
X170761904Y124345181D01*
X170476190Y124345181D02*
X170476190Y125345181D01*
X170476190Y125345181D02*
X170571428Y125202324D01*
X170571428Y125202324D02*
X170666666Y125107086D01*
X170666666Y125107086D02*
X170761904Y125059467D01*
X169333333Y125011848D02*
X169333333Y124345181D01*
X169571428Y125392800D02*
X169809523Y124678515D01*
X169809523Y124678515D02*
X169190476Y124678515D01*
X162785713Y90749943D02*
X162738094Y90797562D01*
X162738094Y90797562D02*
X162642856Y90845181D01*
X162642856Y90845181D02*
X162404761Y90845181D01*
X162404761Y90845181D02*
X162309523Y90797562D01*
X162309523Y90797562D02*
X162261904Y90749943D01*
X162261904Y90749943D02*
X162214285Y90654705D01*
X162214285Y90654705D02*
X162214285Y90559467D01*
X162214285Y90559467D02*
X162261904Y90416610D01*
X162261904Y90416610D02*
X162833332Y89845181D01*
X162833332Y89845181D02*
X162214285Y89845181D01*
X162309523Y96511848D02*
X162309523Y95845181D01*
X162547618Y96892800D02*
X162785713Y96178515D01*
X162785713Y96178515D02*
X162166666Y96178515D01*
X162214285Y125345181D02*
X162785713Y125345181D01*
X162499999Y125345181D02*
X162499999Y126345181D01*
X162499999Y126345181D02*
X162595237Y126202324D01*
X162595237Y126202324D02*
X162690475Y126107086D01*
X162690475Y126107086D02*
X162785713Y126059467D01*
X162833332Y93845181D02*
X162214285Y93845181D01*
X162214285Y93845181D02*
X162547618Y93464229D01*
X162547618Y93464229D02*
X162404761Y93464229D01*
X162404761Y93464229D02*
X162309523Y93416610D01*
X162309523Y93416610D02*
X162261904Y93368991D01*
X162261904Y93368991D02*
X162214285Y93273753D01*
X162214285Y93273753D02*
X162214285Y93035658D01*
X162214285Y93035658D02*
X162261904Y92940420D01*
X162261904Y92940420D02*
X162309523Y92892800D01*
X162309523Y92892800D02*
X162404761Y92845181D01*
X162404761Y92845181D02*
X162690475Y92845181D01*
X162690475Y92845181D02*
X162785713Y92892800D01*
X162785713Y92892800D02*
X162833332Y92940420D01*
X167090476Y111645181D02*
X167661904Y111645181D01*
X167376190Y111645181D02*
X167376190Y112645181D01*
X167376190Y112645181D02*
X167471428Y112502324D01*
X167471428Y112502324D02*
X167566666Y112407086D01*
X167566666Y112407086D02*
X167661904Y112359467D01*
X166757142Y112645181D02*
X166090476Y112645181D01*
X166090476Y112645181D02*
X166519047Y111645181D01*
X162833332Y132345181D02*
X162214285Y132345181D01*
X162214285Y132345181D02*
X162547618Y131964229D01*
X162547618Y131964229D02*
X162404761Y131964229D01*
X162404761Y131964229D02*
X162309523Y131916610D01*
X162309523Y131916610D02*
X162261904Y131868991D01*
X162261904Y131868991D02*
X162214285Y131773753D01*
X162214285Y131773753D02*
X162214285Y131535658D01*
X162214285Y131535658D02*
X162261904Y131440420D01*
X162261904Y131440420D02*
X162309523Y131392800D01*
X162309523Y131392800D02*
X162404761Y131345181D01*
X162404761Y131345181D02*
X162690475Y131345181D01*
X162690475Y131345181D02*
X162785713Y131392800D01*
X162785713Y131392800D02*
X162833332Y131440420D01*
X173261904Y123949943D02*
X173214285Y123997562D01*
X173214285Y123997562D02*
X173119047Y124045181D01*
X173119047Y124045181D02*
X172880952Y124045181D01*
X172880952Y124045181D02*
X172785714Y123997562D01*
X172785714Y123997562D02*
X172738095Y123949943D01*
X172738095Y123949943D02*
X172690476Y123854705D01*
X172690476Y123854705D02*
X172690476Y123759467D01*
X172690476Y123759467D02*
X172738095Y123616610D01*
X172738095Y123616610D02*
X173309523Y123045181D01*
X173309523Y123045181D02*
X172690476Y123045181D01*
X172071428Y124045181D02*
X171976190Y124045181D01*
X171976190Y124045181D02*
X171880952Y123997562D01*
X171880952Y123997562D02*
X171833333Y123949943D01*
X171833333Y123949943D02*
X171785714Y123854705D01*
X171785714Y123854705D02*
X171738095Y123664229D01*
X171738095Y123664229D02*
X171738095Y123426134D01*
X171738095Y123426134D02*
X171785714Y123235658D01*
X171785714Y123235658D02*
X171833333Y123140420D01*
X171833333Y123140420D02*
X171880952Y123092800D01*
X171880952Y123092800D02*
X171976190Y123045181D01*
X171976190Y123045181D02*
X172071428Y123045181D01*
X172071428Y123045181D02*
X172166666Y123092800D01*
X172166666Y123092800D02*
X172214285Y123140420D01*
X172214285Y123140420D02*
X172261904Y123235658D01*
X172261904Y123235658D02*
X172309523Y123426134D01*
X172309523Y123426134D02*
X172309523Y123664229D01*
X172309523Y123664229D02*
X172261904Y123854705D01*
X172261904Y123854705D02*
X172214285Y123949943D01*
X172214285Y123949943D02*
X172166666Y123997562D01*
X172166666Y123997562D02*
X172071428Y124045181D01*
X170454819Y27990477D02*
X170454819Y28561905D01*
X170454819Y28276191D02*
X169454819Y28276191D01*
X169454819Y28276191D02*
X169597676Y28371429D01*
X169597676Y28371429D02*
X169692914Y28466667D01*
X169692914Y28466667D02*
X169740533Y28561905D01*
X169883390Y27419048D02*
X169835771Y27514286D01*
X169835771Y27514286D02*
X169788152Y27561905D01*
X169788152Y27561905D02*
X169692914Y27609524D01*
X169692914Y27609524D02*
X169645295Y27609524D01*
X169645295Y27609524D02*
X169550057Y27561905D01*
X169550057Y27561905D02*
X169502438Y27514286D01*
X169502438Y27514286D02*
X169454819Y27419048D01*
X169454819Y27419048D02*
X169454819Y27228572D01*
X169454819Y27228572D02*
X169502438Y27133334D01*
X169502438Y27133334D02*
X169550057Y27085715D01*
X169550057Y27085715D02*
X169645295Y27038096D01*
X169645295Y27038096D02*
X169692914Y27038096D01*
X169692914Y27038096D02*
X169788152Y27085715D01*
X169788152Y27085715D02*
X169835771Y27133334D01*
X169835771Y27133334D02*
X169883390Y27228572D01*
X169883390Y27228572D02*
X169883390Y27419048D01*
X169883390Y27419048D02*
X169931009Y27514286D01*
X169931009Y27514286D02*
X169978628Y27561905D01*
X169978628Y27561905D02*
X170073866Y27609524D01*
X170073866Y27609524D02*
X170264342Y27609524D01*
X170264342Y27609524D02*
X170359580Y27561905D01*
X170359580Y27561905D02*
X170407200Y27514286D01*
X170407200Y27514286D02*
X170454819Y27419048D01*
X170454819Y27419048D02*
X170454819Y27228572D01*
X170454819Y27228572D02*
X170407200Y27133334D01*
X170407200Y27133334D02*
X170359580Y27085715D01*
X170359580Y27085715D02*
X170264342Y27038096D01*
X170264342Y27038096D02*
X170073866Y27038096D01*
X170073866Y27038096D02*
X169978628Y27085715D01*
X169978628Y27085715D02*
X169931009Y27133334D01*
X169931009Y27133334D02*
X169883390Y27228572D01*
X174103291Y28173337D02*
X174055672Y28125718D01*
X174055672Y28125718D02*
X174008053Y28030480D01*
X174008053Y28030480D02*
X174008053Y27792385D01*
X174008053Y27792385D02*
X174055672Y27697147D01*
X174055672Y27697147D02*
X174103291Y27649528D01*
X174103291Y27649528D02*
X174198529Y27601909D01*
X174198529Y27601909D02*
X174293767Y27601909D01*
X174293767Y27601909D02*
X174436624Y27649528D01*
X174436624Y27649528D02*
X175008053Y28220956D01*
X175008053Y28220956D02*
X175008053Y27601909D01*
X174008053Y26744766D02*
X174008053Y26935242D01*
X174008053Y26935242D02*
X174055672Y27030480D01*
X174055672Y27030480D02*
X174103291Y27078099D01*
X174103291Y27078099D02*
X174246148Y27173337D01*
X174246148Y27173337D02*
X174436624Y27220956D01*
X174436624Y27220956D02*
X174817576Y27220956D01*
X174817576Y27220956D02*
X174912814Y27173337D01*
X174912814Y27173337D02*
X174960434Y27125718D01*
X174960434Y27125718D02*
X175008053Y27030480D01*
X175008053Y27030480D02*
X175008053Y26840004D01*
X175008053Y26840004D02*
X174960434Y26744766D01*
X174960434Y26744766D02*
X174912814Y26697147D01*
X174912814Y26697147D02*
X174817576Y26649528D01*
X174817576Y26649528D02*
X174579481Y26649528D01*
X174579481Y26649528D02*
X174484243Y26697147D01*
X174484243Y26697147D02*
X174436624Y26744766D01*
X174436624Y26744766D02*
X174389005Y26840004D01*
X174389005Y26840004D02*
X174389005Y27030480D01*
X174389005Y27030480D02*
X174436624Y27125718D01*
X174436624Y27125718D02*
X174484243Y27173337D01*
X174484243Y27173337D02*
X174579481Y27220956D01*
X167454819Y53990477D02*
X167454819Y54561905D01*
X167454819Y54276191D02*
X166454819Y54276191D01*
X166454819Y54276191D02*
X166597676Y54371429D01*
X166597676Y54371429D02*
X166692914Y54466667D01*
X166692914Y54466667D02*
X166740533Y54561905D01*
X166454819Y53657143D02*
X166454819Y52990477D01*
X166454819Y52990477D02*
X167454819Y53419048D01*
X169550057Y54561905D02*
X169502438Y54514286D01*
X169502438Y54514286D02*
X169454819Y54419048D01*
X169454819Y54419048D02*
X169454819Y54180953D01*
X169454819Y54180953D02*
X169502438Y54085715D01*
X169502438Y54085715D02*
X169550057Y54038096D01*
X169550057Y54038096D02*
X169645295Y53990477D01*
X169645295Y53990477D02*
X169740533Y53990477D01*
X169740533Y53990477D02*
X169883390Y54038096D01*
X169883390Y54038096D02*
X170454819Y54609524D01*
X170454819Y54609524D02*
X170454819Y53990477D01*
X169454819Y53085715D02*
X169454819Y53561905D01*
X169454819Y53561905D02*
X169931009Y53609524D01*
X169931009Y53609524D02*
X169883390Y53561905D01*
X169883390Y53561905D02*
X169835771Y53466667D01*
X169835771Y53466667D02*
X169835771Y53228572D01*
X169835771Y53228572D02*
X169883390Y53133334D01*
X169883390Y53133334D02*
X169931009Y53085715D01*
X169931009Y53085715D02*
X170026247Y53038096D01*
X170026247Y53038096D02*
X170264342Y53038096D01*
X170264342Y53038096D02*
X170359580Y53085715D01*
X170359580Y53085715D02*
X170407200Y53133334D01*
X170407200Y53133334D02*
X170454819Y53228572D01*
X170454819Y53228572D02*
X170454819Y53466667D01*
X170454819Y53466667D02*
X170407200Y53561905D01*
X170407200Y53561905D02*
X170359580Y53609524D01*
X173954819Y54859524D02*
X173954819Y54240477D01*
X173954819Y54240477D02*
X174335771Y54573810D01*
X174335771Y54573810D02*
X174335771Y54430953D01*
X174335771Y54430953D02*
X174383390Y54335715D01*
X174383390Y54335715D02*
X174431009Y54288096D01*
X174431009Y54288096D02*
X174526247Y54240477D01*
X174526247Y54240477D02*
X174764342Y54240477D01*
X174764342Y54240477D02*
X174859580Y54288096D01*
X174859580Y54288096D02*
X174907200Y54335715D01*
X174907200Y54335715D02*
X174954819Y54430953D01*
X174954819Y54430953D02*
X174954819Y54716667D01*
X174954819Y54716667D02*
X174907200Y54811905D01*
X174907200Y54811905D02*
X174859580Y54859524D01*
X174288152Y53383334D02*
X174954819Y53383334D01*
X173907200Y53621429D02*
X174621485Y53859524D01*
X174621485Y53859524D02*
X174621485Y53240477D01*
X167454819Y27990477D02*
X167454819Y28561905D01*
X167454819Y28276191D02*
X166454819Y28276191D01*
X166454819Y28276191D02*
X166597676Y28371429D01*
X166597676Y28371429D02*
X166692914Y28466667D01*
X166692914Y28466667D02*
X166740533Y28561905D01*
X166454819Y27371429D02*
X166454819Y27276191D01*
X166454819Y27276191D02*
X166502438Y27180953D01*
X166502438Y27180953D02*
X166550057Y27133334D01*
X166550057Y27133334D02*
X166645295Y27085715D01*
X166645295Y27085715D02*
X166835771Y27038096D01*
X166835771Y27038096D02*
X167073866Y27038096D01*
X167073866Y27038096D02*
X167264342Y27085715D01*
X167264342Y27085715D02*
X167359580Y27133334D01*
X167359580Y27133334D02*
X167407200Y27180953D01*
X167407200Y27180953D02*
X167454819Y27276191D01*
X167454819Y27276191D02*
X167454819Y27371429D01*
X167454819Y27371429D02*
X167407200Y27466667D01*
X167407200Y27466667D02*
X167359580Y27514286D01*
X167359580Y27514286D02*
X167264342Y27561905D01*
X167264342Y27561905D02*
X167073866Y27609524D01*
X167073866Y27609524D02*
X166835771Y27609524D01*
X166835771Y27609524D02*
X166645295Y27561905D01*
X166645295Y27561905D02*
X166550057Y27514286D01*
X166550057Y27514286D02*
X166502438Y27466667D01*
X166502438Y27466667D02*
X166454819Y27371429D01*
X163704819Y54740476D02*
X163704819Y54550000D01*
X163704819Y54550000D02*
X163657200Y54454762D01*
X163657200Y54454762D02*
X163609580Y54407143D01*
X163609580Y54407143D02*
X163466723Y54311905D01*
X163466723Y54311905D02*
X163276247Y54264286D01*
X163276247Y54264286D02*
X162895295Y54264286D01*
X162895295Y54264286D02*
X162800057Y54311905D01*
X162800057Y54311905D02*
X162752438Y54359524D01*
X162752438Y54359524D02*
X162704819Y54454762D01*
X162704819Y54454762D02*
X162704819Y54645238D01*
X162704819Y54645238D02*
X162752438Y54740476D01*
X162752438Y54740476D02*
X162800057Y54788095D01*
X162800057Y54788095D02*
X162895295Y54835714D01*
X162895295Y54835714D02*
X163133390Y54835714D01*
X163133390Y54835714D02*
X163228628Y54788095D01*
X163228628Y54788095D02*
X163276247Y54740476D01*
X163276247Y54740476D02*
X163323866Y54645238D01*
X163323866Y54645238D02*
X163323866Y54454762D01*
X163323866Y54454762D02*
X163276247Y54359524D01*
X163276247Y54359524D02*
X163228628Y54311905D01*
X163228628Y54311905D02*
X163133390Y54264286D01*
X163454819Y27014286D02*
X163454819Y27585714D01*
X163454819Y27300000D02*
X162454819Y27300000D01*
X162454819Y27300000D02*
X162597676Y27395238D01*
X162597676Y27395238D02*
X162692914Y27490476D01*
X162692914Y27490476D02*
X162740533Y27585714D01*
M02*
