%TF.GenerationSoftware,KiCad,Pcbnew,(5.99.0-10483-ga6ad7a4a70)*%
%TF.CreationDate,2021-07-29T00:24:03+03:00*%
%TF.ProjectId,digital_inputs,64696769-7461-46c5-9f69-6e707574732e,rev?*%
%TF.SameCoordinates,Original*%
%TF.FileFunction,Legend,Bot*%
%TF.FilePolarity,Positive*%
%FSLAX46Y46*%
G04 Gerber Fmt 4.6, Leading zero omitted, Abs format (unit mm)*
G04 Created by KiCad (PCBNEW (5.99.0-10483-ga6ad7a4a70)) date 2021-07-29 00:24:03*
%MOMM*%
%LPD*%
G01*
G04 APERTURE LIST*
%ADD10C,0.300000*%
G04 APERTURE END LIST*
D10*
X252971428Y-208571428D02*
X252971428Y-209904761D01*
X253447619Y-207809523D02*
X253923809Y-209238095D01*
X252685714Y-209238095D01*
X251828571Y-209904761D02*
X251447619Y-209904761D01*
X251257142Y-209809523D01*
X251161904Y-209714285D01*
X250971428Y-209428571D01*
X250876190Y-209047619D01*
X250876190Y-208285714D01*
X250971428Y-208095238D01*
X251066666Y-208000000D01*
X251257142Y-207904761D01*
X251638095Y-207904761D01*
X251828571Y-208000000D01*
X251923809Y-208095238D01*
X252019047Y-208285714D01*
X252019047Y-208761904D01*
X251923809Y-208952380D01*
X251828571Y-209047619D01*
X251638095Y-209142857D01*
X251257142Y-209142857D01*
X251066666Y-209047619D01*
X250971428Y-208952380D01*
X250876190Y-208761904D01*
X279696666Y-66717857D02*
X278172857Y-66717857D01*
X278934761Y-67479761D02*
X278934761Y-65955952D01*
X276172857Y-67479761D02*
X277315714Y-67479761D01*
X276744285Y-67479761D02*
X276744285Y-65479761D01*
X276934761Y-65765476D01*
X277125238Y-65955952D01*
X277315714Y-66051190D01*
X275410952Y-65670238D02*
X275315714Y-65575000D01*
X275125238Y-65479761D01*
X274649047Y-65479761D01*
X274458571Y-65575000D01*
X274363333Y-65670238D01*
X274268095Y-65860714D01*
X274268095Y-66051190D01*
X274363333Y-66336904D01*
X275506190Y-67479761D01*
X274268095Y-67479761D01*
X262393809Y-106175238D02*
X262298571Y-106080000D01*
X262108095Y-105984761D01*
X261631904Y-105984761D01*
X261441428Y-106080000D01*
X261346190Y-106175238D01*
X261250952Y-106365714D01*
X261250952Y-106556190D01*
X261346190Y-106841904D01*
X262489047Y-107984761D01*
X261250952Y-107984761D01*
X260012857Y-105984761D02*
X259822380Y-105984761D01*
X259631904Y-106080000D01*
X259536666Y-106175238D01*
X259441428Y-106365714D01*
X259346190Y-106746666D01*
X259346190Y-107222857D01*
X259441428Y-107603809D01*
X259536666Y-107794285D01*
X259631904Y-107889523D01*
X259822380Y-107984761D01*
X260012857Y-107984761D01*
X260203333Y-107889523D01*
X260298571Y-107794285D01*
X260393809Y-107603809D01*
X260489047Y-107222857D01*
X260489047Y-106746666D01*
X260393809Y-106365714D01*
X260298571Y-106175238D01*
X260203333Y-106080000D01*
X260012857Y-105984761D01*
X278553809Y-116470238D02*
X278458571Y-116375000D01*
X278268095Y-116279761D01*
X277791904Y-116279761D01*
X277601428Y-116375000D01*
X277506190Y-116470238D01*
X277410952Y-116660714D01*
X277410952Y-116851190D01*
X277506190Y-117136904D01*
X278649047Y-118279761D01*
X277410952Y-118279761D01*
X276649047Y-116470238D02*
X276553809Y-116375000D01*
X276363333Y-116279761D01*
X275887142Y-116279761D01*
X275696666Y-116375000D01*
X275601428Y-116470238D01*
X275506190Y-116660714D01*
X275506190Y-116851190D01*
X275601428Y-117136904D01*
X276744285Y-118279761D01*
X275506190Y-118279761D01*
X285971428Y-188031428D02*
X285971428Y-189364761D01*
X286447619Y-187269523D02*
X286923809Y-188698095D01*
X285685714Y-188698095D01*
X284066666Y-188031428D02*
X284066666Y-189364761D01*
X284542857Y-187269523D02*
X285019047Y-188698095D01*
X283780952Y-188698095D01*
X262266666Y-198662857D02*
X260742857Y-198662857D01*
X261504761Y-199424761D02*
X261504761Y-197900952D01*
X258742857Y-199424761D02*
X259885714Y-199424761D01*
X259314285Y-199424761D02*
X259314285Y-197424761D01*
X259504761Y-197710476D01*
X259695238Y-197900952D01*
X259885714Y-197996190D01*
X257980952Y-197615238D02*
X257885714Y-197520000D01*
X257695238Y-197424761D01*
X257219047Y-197424761D01*
X257028571Y-197520000D01*
X256933333Y-197615238D01*
X256838095Y-197805714D01*
X256838095Y-197996190D01*
X256933333Y-198281904D01*
X258076190Y-199424761D01*
X256838095Y-199424761D01*
X262393809Y-111255238D02*
X262298571Y-111160000D01*
X262108095Y-111064761D01*
X261631904Y-111064761D01*
X261441428Y-111160000D01*
X261346190Y-111255238D01*
X261250952Y-111445714D01*
X261250952Y-111636190D01*
X261346190Y-111921904D01*
X262489047Y-113064761D01*
X261250952Y-113064761D01*
X259346190Y-113064761D02*
X260489047Y-113064761D01*
X259917619Y-113064761D02*
X259917619Y-111064761D01*
X260108095Y-111350476D01*
X260298571Y-111540952D01*
X260489047Y-111636190D01*
X278553809Y-182415000D02*
X278744285Y-182319761D01*
X279030000Y-182319761D01*
X279315714Y-182415000D01*
X279506190Y-182605476D01*
X279601428Y-182795952D01*
X279696666Y-183176904D01*
X279696666Y-183462619D01*
X279601428Y-183843571D01*
X279506190Y-184034047D01*
X279315714Y-184224523D01*
X279030000Y-184319761D01*
X278839523Y-184319761D01*
X278553809Y-184224523D01*
X278458571Y-184129285D01*
X278458571Y-183462619D01*
X278839523Y-183462619D01*
X277601428Y-184319761D02*
X277601428Y-182319761D01*
X276458571Y-184319761D01*
X276458571Y-182319761D01*
X275506190Y-184319761D02*
X275506190Y-182319761D01*
X275030000Y-182319761D01*
X274744285Y-182415000D01*
X274553809Y-182605476D01*
X274458571Y-182795952D01*
X274363333Y-183176904D01*
X274363333Y-183462619D01*
X274458571Y-183843571D01*
X274553809Y-184034047D01*
X274744285Y-184224523D01*
X275030000Y-184319761D01*
X275506190Y-184319761D01*
X285780952Y-118244761D02*
X286923809Y-118244761D01*
X286352380Y-118244761D02*
X286352380Y-116244761D01*
X286542857Y-116530476D01*
X286733333Y-116720952D01*
X286923809Y-116816190D01*
X284066666Y-116911428D02*
X284066666Y-118244761D01*
X284542857Y-116149523D02*
X285019047Y-117578095D01*
X283780952Y-117578095D01*
X278553809Y-80815000D02*
X278744285Y-80719761D01*
X279030000Y-80719761D01*
X279315714Y-80815000D01*
X279506190Y-81005476D01*
X279601428Y-81195952D01*
X279696666Y-81576904D01*
X279696666Y-81862619D01*
X279601428Y-82243571D01*
X279506190Y-82434047D01*
X279315714Y-82624523D01*
X279030000Y-82719761D01*
X278839523Y-82719761D01*
X278553809Y-82624523D01*
X278458571Y-82529285D01*
X278458571Y-81862619D01*
X278839523Y-81862619D01*
X277601428Y-82719761D02*
X277601428Y-80719761D01*
X276458571Y-82719761D01*
X276458571Y-80719761D01*
X275506190Y-82719761D02*
X275506190Y-80719761D01*
X275030000Y-80719761D01*
X274744285Y-80815000D01*
X274553809Y-81005476D01*
X274458571Y-81195952D01*
X274363333Y-81576904D01*
X274363333Y-81862619D01*
X274458571Y-82243571D01*
X274553809Y-82434047D01*
X274744285Y-82624523D01*
X275030000Y-82719761D01*
X275506190Y-82719761D01*
X262489047Y-156784761D02*
X261250952Y-156784761D01*
X261917619Y-157546666D01*
X261631904Y-157546666D01*
X261441428Y-157641904D01*
X261346190Y-157737142D01*
X261250952Y-157927619D01*
X261250952Y-158403809D01*
X261346190Y-158594285D01*
X261441428Y-158689523D01*
X261631904Y-158784761D01*
X262203333Y-158784761D01*
X262393809Y-158689523D01*
X262489047Y-158594285D01*
X260012857Y-156784761D02*
X259822380Y-156784761D01*
X259631904Y-156880000D01*
X259536666Y-156975238D01*
X259441428Y-157165714D01*
X259346190Y-157546666D01*
X259346190Y-158022857D01*
X259441428Y-158403809D01*
X259536666Y-158594285D01*
X259631904Y-158689523D01*
X259822380Y-158784761D01*
X260012857Y-158784761D01*
X260203333Y-158689523D01*
X260298571Y-158594285D01*
X260393809Y-158403809D01*
X260489047Y-158022857D01*
X260489047Y-157546666D01*
X260393809Y-157165714D01*
X260298571Y-156975238D01*
X260203333Y-156880000D01*
X260012857Y-156784761D01*
X278553809Y-141870238D02*
X278458571Y-141775000D01*
X278268095Y-141679761D01*
X277791904Y-141679761D01*
X277601428Y-141775000D01*
X277506190Y-141870238D01*
X277410952Y-142060714D01*
X277410952Y-142251190D01*
X277506190Y-142536904D01*
X278649047Y-143679761D01*
X277410952Y-143679761D01*
X276744285Y-141679761D02*
X275410952Y-141679761D01*
X276268095Y-143679761D01*
X261123809Y-80680000D02*
X261314285Y-80584761D01*
X261600000Y-80584761D01*
X261885714Y-80680000D01*
X262076190Y-80870476D01*
X262171428Y-81060952D01*
X262266666Y-81441904D01*
X262266666Y-81727619D01*
X262171428Y-82108571D01*
X262076190Y-82299047D01*
X261885714Y-82489523D01*
X261600000Y-82584761D01*
X261409523Y-82584761D01*
X261123809Y-82489523D01*
X261028571Y-82394285D01*
X261028571Y-81727619D01*
X261409523Y-81727619D01*
X260171428Y-82584761D02*
X260171428Y-80584761D01*
X259028571Y-82584761D01*
X259028571Y-80584761D01*
X258076190Y-82584761D02*
X258076190Y-80584761D01*
X257600000Y-80584761D01*
X257314285Y-80680000D01*
X257123809Y-80870476D01*
X257028571Y-81060952D01*
X256933333Y-81441904D01*
X256933333Y-81727619D01*
X257028571Y-82108571D01*
X257123809Y-82299047D01*
X257314285Y-82489523D01*
X257600000Y-82584761D01*
X258076190Y-82584761D01*
X285780952Y-92844761D02*
X285400000Y-92844761D01*
X285209523Y-92749523D01*
X285114285Y-92654285D01*
X284923809Y-92368571D01*
X284828571Y-91987619D01*
X284828571Y-91225714D01*
X284923809Y-91035238D01*
X285019047Y-90940000D01*
X285209523Y-90844761D01*
X285590476Y-90844761D01*
X285780952Y-90940000D01*
X285876190Y-91035238D01*
X285971428Y-91225714D01*
X285971428Y-91701904D01*
X285876190Y-91892380D01*
X285780952Y-91987619D01*
X285590476Y-92082857D01*
X285209523Y-92082857D01*
X285019047Y-91987619D01*
X284923809Y-91892380D01*
X284828571Y-91701904D01*
X301211428Y-55475238D02*
X301116190Y-55380000D01*
X300925714Y-55284761D01*
X300449523Y-55284761D01*
X300259047Y-55380000D01*
X300163809Y-55475238D01*
X300068571Y-55665714D01*
X300068571Y-55856190D01*
X300163809Y-56141904D01*
X301306666Y-57284761D01*
X300068571Y-57284761D01*
X287019047Y-161964761D02*
X285780952Y-161964761D01*
X286447619Y-162726666D01*
X286161904Y-162726666D01*
X285971428Y-162821904D01*
X285876190Y-162917142D01*
X285780952Y-163107619D01*
X285780952Y-163583809D01*
X285876190Y-163774285D01*
X285971428Y-163869523D01*
X286161904Y-163964761D01*
X286733333Y-163964761D01*
X286923809Y-163869523D01*
X287019047Y-163774285D01*
X284828571Y-163964761D02*
X284447619Y-163964761D01*
X284257142Y-163869523D01*
X284161904Y-163774285D01*
X283971428Y-163488571D01*
X283876190Y-163107619D01*
X283876190Y-162345714D01*
X283971428Y-162155238D01*
X284066666Y-162060000D01*
X284257142Y-161964761D01*
X284638095Y-161964761D01*
X284828571Y-162060000D01*
X284923809Y-162155238D01*
X285019047Y-162345714D01*
X285019047Y-162821904D01*
X284923809Y-163012380D01*
X284828571Y-163107619D01*
X284638095Y-163202857D01*
X284257142Y-163202857D01*
X284066666Y-163107619D01*
X283971428Y-163012380D01*
X283876190Y-162821904D01*
X300259047Y-66111428D02*
X300259047Y-67444761D01*
X300735238Y-65349523D02*
X301211428Y-66778095D01*
X299973333Y-66778095D01*
X302259047Y-146724761D02*
X301020952Y-146724761D01*
X301687619Y-147486666D01*
X301401904Y-147486666D01*
X301211428Y-147581904D01*
X301116190Y-147677142D01*
X301020952Y-147867619D01*
X301020952Y-148343809D01*
X301116190Y-148534285D01*
X301211428Y-148629523D01*
X301401904Y-148724761D01*
X301973333Y-148724761D01*
X302163809Y-148629523D01*
X302259047Y-148534285D01*
X299306666Y-146724761D02*
X299687619Y-146724761D01*
X299878095Y-146820000D01*
X299973333Y-146915238D01*
X300163809Y-147200952D01*
X300259047Y-147581904D01*
X300259047Y-148343809D01*
X300163809Y-148534285D01*
X300068571Y-148629523D01*
X299878095Y-148724761D01*
X299497142Y-148724761D01*
X299306666Y-148629523D01*
X299211428Y-148534285D01*
X299116190Y-148343809D01*
X299116190Y-147867619D01*
X299211428Y-147677142D01*
X299306666Y-147581904D01*
X299497142Y-147486666D01*
X299878095Y-147486666D01*
X300068571Y-147581904D01*
X300163809Y-147677142D01*
X300259047Y-147867619D01*
X287019047Y-136564761D02*
X285780952Y-136564761D01*
X286447619Y-137326666D01*
X286161904Y-137326666D01*
X285971428Y-137421904D01*
X285876190Y-137517142D01*
X285780952Y-137707619D01*
X285780952Y-138183809D01*
X285876190Y-138374285D01*
X285971428Y-138469523D01*
X286161904Y-138564761D01*
X286733333Y-138564761D01*
X286923809Y-138469523D01*
X287019047Y-138374285D01*
X284066666Y-137231428D02*
X284066666Y-138564761D01*
X284542857Y-136469523D02*
X285019047Y-137898095D01*
X283780952Y-137898095D01*
X278649047Y-167079761D02*
X277410952Y-167079761D01*
X278077619Y-167841666D01*
X277791904Y-167841666D01*
X277601428Y-167936904D01*
X277506190Y-168032142D01*
X277410952Y-168222619D01*
X277410952Y-168698809D01*
X277506190Y-168889285D01*
X277601428Y-168984523D01*
X277791904Y-169079761D01*
X278363333Y-169079761D01*
X278553809Y-168984523D01*
X278649047Y-168889285D01*
X276649047Y-167270238D02*
X276553809Y-167175000D01*
X276363333Y-167079761D01*
X275887142Y-167079761D01*
X275696666Y-167175000D01*
X275601428Y-167270238D01*
X275506190Y-167460714D01*
X275506190Y-167651190D01*
X275601428Y-167936904D01*
X276744285Y-169079761D01*
X275506190Y-169079761D01*
X261250952Y-102904761D02*
X262393809Y-102904761D01*
X261822380Y-102904761D02*
X261822380Y-100904761D01*
X262012857Y-101190476D01*
X262203333Y-101380952D01*
X262393809Y-101476190D01*
X260298571Y-102904761D02*
X259917619Y-102904761D01*
X259727142Y-102809523D01*
X259631904Y-102714285D01*
X259441428Y-102428571D01*
X259346190Y-102047619D01*
X259346190Y-101285714D01*
X259441428Y-101095238D01*
X259536666Y-101000000D01*
X259727142Y-100904761D01*
X260108095Y-100904761D01*
X260298571Y-101000000D01*
X260393809Y-101095238D01*
X260489047Y-101285714D01*
X260489047Y-101761904D01*
X260393809Y-101952380D01*
X260298571Y-102047619D01*
X260108095Y-102142857D01*
X259727142Y-102142857D01*
X259536666Y-102047619D01*
X259441428Y-101952380D01*
X259346190Y-101761904D01*
X262266666Y-56422857D02*
X260742857Y-56422857D01*
X261504761Y-57184761D02*
X261504761Y-55660952D01*
X258742857Y-57184761D02*
X259885714Y-57184761D01*
X259314285Y-57184761D02*
X259314285Y-55184761D01*
X259504761Y-55470476D01*
X259695238Y-55660952D01*
X259885714Y-55756190D01*
X257980952Y-55375238D02*
X257885714Y-55280000D01*
X257695238Y-55184761D01*
X257219047Y-55184761D01*
X257028571Y-55280000D01*
X256933333Y-55375238D01*
X256838095Y-55565714D01*
X256838095Y-55756190D01*
X256933333Y-56041904D01*
X258076190Y-57184761D01*
X256838095Y-57184761D01*
X279696666Y-56557857D02*
X278172857Y-56557857D01*
X278934761Y-57319761D02*
X278934761Y-55795952D01*
X276172857Y-57319761D02*
X277315714Y-57319761D01*
X276744285Y-57319761D02*
X276744285Y-55319761D01*
X276934761Y-55605476D01*
X277125238Y-55795952D01*
X277315714Y-55891190D01*
X275410952Y-55510238D02*
X275315714Y-55415000D01*
X275125238Y-55319761D01*
X274649047Y-55319761D01*
X274458571Y-55415000D01*
X274363333Y-55510238D01*
X274268095Y-55700714D01*
X274268095Y-55891190D01*
X274363333Y-56176904D01*
X275506190Y-57319761D01*
X274268095Y-57319761D01*
X279696666Y-198797857D02*
X278172857Y-198797857D01*
X278934761Y-199559761D02*
X278934761Y-198035952D01*
X276172857Y-199559761D02*
X277315714Y-199559761D01*
X276744285Y-199559761D02*
X276744285Y-197559761D01*
X276934761Y-197845476D01*
X277125238Y-198035952D01*
X277315714Y-198131190D01*
X275410952Y-197750238D02*
X275315714Y-197655000D01*
X275125238Y-197559761D01*
X274649047Y-197559761D01*
X274458571Y-197655000D01*
X274363333Y-197750238D01*
X274268095Y-197940714D01*
X274268095Y-198131190D01*
X274363333Y-198416904D01*
X275506190Y-199559761D01*
X274268095Y-199559761D01*
X285971428Y-55475238D02*
X285876190Y-55380000D01*
X285685714Y-55284761D01*
X285209523Y-55284761D01*
X285019047Y-55380000D01*
X284923809Y-55475238D01*
X284828571Y-55665714D01*
X284828571Y-55856190D01*
X284923809Y-56141904D01*
X286066666Y-57284761D01*
X284828571Y-57284761D01*
X301211428Y-198191428D02*
X301211428Y-199524761D01*
X301687619Y-197429523D02*
X302163809Y-198858095D01*
X300925714Y-198858095D01*
X299306666Y-197524761D02*
X299687619Y-197524761D01*
X299878095Y-197620000D01*
X299973333Y-197715238D01*
X300163809Y-198000952D01*
X300259047Y-198381904D01*
X300259047Y-199143809D01*
X300163809Y-199334285D01*
X300068571Y-199429523D01*
X299878095Y-199524761D01*
X299497142Y-199524761D01*
X299306666Y-199429523D01*
X299211428Y-199334285D01*
X299116190Y-199143809D01*
X299116190Y-198667619D01*
X299211428Y-198477142D01*
X299306666Y-198381904D01*
X299497142Y-198286666D01*
X299878095Y-198286666D01*
X300068571Y-198381904D01*
X300163809Y-198477142D01*
X300259047Y-198667619D01*
X286066666Y-80684761D02*
X284733333Y-80684761D01*
X285590476Y-82684761D01*
X262489047Y-166944761D02*
X261250952Y-166944761D01*
X261917619Y-167706666D01*
X261631904Y-167706666D01*
X261441428Y-167801904D01*
X261346190Y-167897142D01*
X261250952Y-168087619D01*
X261250952Y-168563809D01*
X261346190Y-168754285D01*
X261441428Y-168849523D01*
X261631904Y-168944761D01*
X262203333Y-168944761D01*
X262393809Y-168849523D01*
X262489047Y-168754285D01*
X260489047Y-167135238D02*
X260393809Y-167040000D01*
X260203333Y-166944761D01*
X259727142Y-166944761D01*
X259536666Y-167040000D01*
X259441428Y-167135238D01*
X259346190Y-167325714D01*
X259346190Y-167516190D01*
X259441428Y-167801904D01*
X260584285Y-168944761D01*
X259346190Y-168944761D01*
X261123809Y-182280000D02*
X261314285Y-182184761D01*
X261600000Y-182184761D01*
X261885714Y-182280000D01*
X262076190Y-182470476D01*
X262171428Y-182660952D01*
X262266666Y-183041904D01*
X262266666Y-183327619D01*
X262171428Y-183708571D01*
X262076190Y-183899047D01*
X261885714Y-184089523D01*
X261600000Y-184184761D01*
X261409523Y-184184761D01*
X261123809Y-184089523D01*
X261028571Y-183994285D01*
X261028571Y-183327619D01*
X261409523Y-183327619D01*
X260171428Y-184184761D02*
X260171428Y-182184761D01*
X259028571Y-184184761D01*
X259028571Y-182184761D01*
X258076190Y-184184761D02*
X258076190Y-182184761D01*
X257600000Y-182184761D01*
X257314285Y-182280000D01*
X257123809Y-182470476D01*
X257028571Y-182660952D01*
X256933333Y-183041904D01*
X256933333Y-183327619D01*
X257028571Y-183708571D01*
X257123809Y-183899047D01*
X257314285Y-184089523D01*
X257600000Y-184184761D01*
X258076190Y-184184761D01*
X262393809Y-141735238D02*
X262298571Y-141640000D01*
X262108095Y-141544761D01*
X261631904Y-141544761D01*
X261441428Y-141640000D01*
X261346190Y-141735238D01*
X261250952Y-141925714D01*
X261250952Y-142116190D01*
X261346190Y-142401904D01*
X262489047Y-143544761D01*
X261250952Y-143544761D01*
X260584285Y-141544761D02*
X259250952Y-141544761D01*
X260108095Y-143544761D01*
X301020952Y-97924761D02*
X302163809Y-97924761D01*
X301592380Y-97924761D02*
X301592380Y-95924761D01*
X301782857Y-96210476D01*
X301973333Y-96400952D01*
X302163809Y-96496190D01*
X299782857Y-95924761D02*
X299592380Y-95924761D01*
X299401904Y-96020000D01*
X299306666Y-96115238D01*
X299211428Y-96305714D01*
X299116190Y-96686666D01*
X299116190Y-97162857D01*
X299211428Y-97543809D01*
X299306666Y-97734285D01*
X299401904Y-97829523D01*
X299592380Y-97924761D01*
X299782857Y-97924761D01*
X299973333Y-97829523D01*
X300068571Y-97734285D01*
X300163809Y-97543809D01*
X300259047Y-97162857D01*
X300259047Y-96686666D01*
X300163809Y-96305714D01*
X300068571Y-96115238D01*
X299973333Y-96020000D01*
X299782857Y-95924761D01*
X279696666Y-51477857D02*
X278172857Y-51477857D01*
X278934761Y-52239761D02*
X278934761Y-50715952D01*
X276172857Y-52239761D02*
X277315714Y-52239761D01*
X276744285Y-52239761D02*
X276744285Y-50239761D01*
X276934761Y-50525476D01*
X277125238Y-50715952D01*
X277315714Y-50811190D01*
X275410952Y-50430238D02*
X275315714Y-50335000D01*
X275125238Y-50239761D01*
X274649047Y-50239761D01*
X274458571Y-50335000D01*
X274363333Y-50430238D01*
X274268095Y-50620714D01*
X274268095Y-50811190D01*
X274363333Y-51096904D01*
X275506190Y-52239761D01*
X274268095Y-52239761D01*
X301020952Y-118244761D02*
X302163809Y-118244761D01*
X301592380Y-118244761D02*
X301592380Y-116244761D01*
X301782857Y-116530476D01*
X301973333Y-116720952D01*
X302163809Y-116816190D01*
X299306666Y-116911428D02*
X299306666Y-118244761D01*
X299782857Y-116149523D02*
X300259047Y-117578095D01*
X299020952Y-117578095D01*
X277410952Y-92879761D02*
X278553809Y-92879761D01*
X277982380Y-92879761D02*
X277982380Y-90879761D01*
X278172857Y-91165476D01*
X278363333Y-91355952D01*
X278553809Y-91451190D01*
X276744285Y-90879761D02*
X275410952Y-90879761D01*
X276268095Y-92879761D01*
X285780952Y-103004761D02*
X286923809Y-103004761D01*
X286352380Y-103004761D02*
X286352380Y-101004761D01*
X286542857Y-101290476D01*
X286733333Y-101480952D01*
X286923809Y-101576190D01*
X283876190Y-103004761D02*
X285019047Y-103004761D01*
X284447619Y-103004761D02*
X284447619Y-101004761D01*
X284638095Y-101290476D01*
X284828571Y-101480952D01*
X285019047Y-101576190D01*
X278649047Y-161999761D02*
X277410952Y-161999761D01*
X278077619Y-162761666D01*
X277791904Y-162761666D01*
X277601428Y-162856904D01*
X277506190Y-162952142D01*
X277410952Y-163142619D01*
X277410952Y-163618809D01*
X277506190Y-163809285D01*
X277601428Y-163904523D01*
X277791904Y-163999761D01*
X278363333Y-163999761D01*
X278553809Y-163904523D01*
X278649047Y-163809285D01*
X275506190Y-163999761D02*
X276649047Y-163999761D01*
X276077619Y-163999761D02*
X276077619Y-161999761D01*
X276268095Y-162285476D01*
X276458571Y-162475952D01*
X276649047Y-162571190D01*
X262393809Y-136655238D02*
X262298571Y-136560000D01*
X262108095Y-136464761D01*
X261631904Y-136464761D01*
X261441428Y-136560000D01*
X261346190Y-136655238D01*
X261250952Y-136845714D01*
X261250952Y-137036190D01*
X261346190Y-137321904D01*
X262489047Y-138464761D01*
X261250952Y-138464761D01*
X259536666Y-136464761D02*
X259917619Y-136464761D01*
X260108095Y-136560000D01*
X260203333Y-136655238D01*
X260393809Y-136940952D01*
X260489047Y-137321904D01*
X260489047Y-138083809D01*
X260393809Y-138274285D01*
X260298571Y-138369523D01*
X260108095Y-138464761D01*
X259727142Y-138464761D01*
X259536666Y-138369523D01*
X259441428Y-138274285D01*
X259346190Y-138083809D01*
X259346190Y-137607619D01*
X259441428Y-137417142D01*
X259536666Y-137321904D01*
X259727142Y-137226666D01*
X260108095Y-137226666D01*
X260298571Y-137321904D01*
X260393809Y-137417142D01*
X260489047Y-137607619D01*
X301306666Y-60364761D02*
X300068571Y-60364761D01*
X300735238Y-61126666D01*
X300449523Y-61126666D01*
X300259047Y-61221904D01*
X300163809Y-61317142D01*
X300068571Y-61507619D01*
X300068571Y-61983809D01*
X300163809Y-62174285D01*
X300259047Y-62269523D01*
X300449523Y-62364761D01*
X301020952Y-62364761D01*
X301211428Y-62269523D01*
X301306666Y-62174285D01*
X287019047Y-151804761D02*
X285780952Y-151804761D01*
X286447619Y-152566666D01*
X286161904Y-152566666D01*
X285971428Y-152661904D01*
X285876190Y-152757142D01*
X285780952Y-152947619D01*
X285780952Y-153423809D01*
X285876190Y-153614285D01*
X285971428Y-153709523D01*
X286161904Y-153804761D01*
X286733333Y-153804761D01*
X286923809Y-153709523D01*
X287019047Y-153614285D01*
X285114285Y-151804761D02*
X283780952Y-151804761D01*
X284638095Y-153804761D01*
X285019047Y-75604761D02*
X285400000Y-75604761D01*
X285590476Y-75700000D01*
X285685714Y-75795238D01*
X285876190Y-76080952D01*
X285971428Y-76461904D01*
X285971428Y-77223809D01*
X285876190Y-77414285D01*
X285780952Y-77509523D01*
X285590476Y-77604761D01*
X285209523Y-77604761D01*
X285019047Y-77509523D01*
X284923809Y-77414285D01*
X284828571Y-77223809D01*
X284828571Y-76747619D01*
X284923809Y-76557142D01*
X285019047Y-76461904D01*
X285209523Y-76366666D01*
X285590476Y-76366666D01*
X285780952Y-76461904D01*
X285876190Y-76557142D01*
X285971428Y-76747619D01*
X261123809Y-177200000D02*
X261314285Y-177104761D01*
X261600000Y-177104761D01*
X261885714Y-177200000D01*
X262076190Y-177390476D01*
X262171428Y-177580952D01*
X262266666Y-177961904D01*
X262266666Y-178247619D01*
X262171428Y-178628571D01*
X262076190Y-178819047D01*
X261885714Y-179009523D01*
X261600000Y-179104761D01*
X261409523Y-179104761D01*
X261123809Y-179009523D01*
X261028571Y-178914285D01*
X261028571Y-178247619D01*
X261409523Y-178247619D01*
X260171428Y-179104761D02*
X260171428Y-177104761D01*
X259028571Y-179104761D01*
X259028571Y-177104761D01*
X258076190Y-179104761D02*
X258076190Y-177104761D01*
X257600000Y-177104761D01*
X257314285Y-177200000D01*
X257123809Y-177390476D01*
X257028571Y-177580952D01*
X256933333Y-177961904D01*
X256933333Y-178247619D01*
X257028571Y-178628571D01*
X257123809Y-178819047D01*
X257314285Y-179009523D01*
X257600000Y-179104761D01*
X258076190Y-179104761D01*
X302259047Y-151804761D02*
X301020952Y-151804761D01*
X301687619Y-152566666D01*
X301401904Y-152566666D01*
X301211428Y-152661904D01*
X301116190Y-152757142D01*
X301020952Y-152947619D01*
X301020952Y-153423809D01*
X301116190Y-153614285D01*
X301211428Y-153709523D01*
X301401904Y-153804761D01*
X301973333Y-153804761D01*
X302163809Y-153709523D01*
X302259047Y-153614285D01*
X300354285Y-151804761D02*
X299020952Y-151804761D01*
X299878095Y-153804761D01*
X261123809Y-85760000D02*
X261314285Y-85664761D01*
X261600000Y-85664761D01*
X261885714Y-85760000D01*
X262076190Y-85950476D01*
X262171428Y-86140952D01*
X262266666Y-86521904D01*
X262266666Y-86807619D01*
X262171428Y-87188571D01*
X262076190Y-87379047D01*
X261885714Y-87569523D01*
X261600000Y-87664761D01*
X261409523Y-87664761D01*
X261123809Y-87569523D01*
X261028571Y-87474285D01*
X261028571Y-86807619D01*
X261409523Y-86807619D01*
X260171428Y-87664761D02*
X260171428Y-85664761D01*
X259028571Y-87664761D01*
X259028571Y-85664761D01*
X258076190Y-87664761D02*
X258076190Y-85664761D01*
X257600000Y-85664761D01*
X257314285Y-85760000D01*
X257123809Y-85950476D01*
X257028571Y-86140952D01*
X256933333Y-86521904D01*
X256933333Y-86807619D01*
X257028571Y-87188571D01*
X257123809Y-87379047D01*
X257314285Y-87569523D01*
X257600000Y-87664761D01*
X258076190Y-87664761D01*
X279696666Y-193717857D02*
X278172857Y-193717857D01*
X278934761Y-194479761D02*
X278934761Y-192955952D01*
X276172857Y-194479761D02*
X277315714Y-194479761D01*
X276744285Y-194479761D02*
X276744285Y-192479761D01*
X276934761Y-192765476D01*
X277125238Y-192955952D01*
X277315714Y-193051190D01*
X275410952Y-192670238D02*
X275315714Y-192575000D01*
X275125238Y-192479761D01*
X274649047Y-192479761D01*
X274458571Y-192575000D01*
X274363333Y-192670238D01*
X274268095Y-192860714D01*
X274268095Y-193051190D01*
X274363333Y-193336904D01*
X275506190Y-194479761D01*
X274268095Y-194479761D01*
X301211428Y-208351428D02*
X301211428Y-209684761D01*
X301687619Y-207589523D02*
X302163809Y-209018095D01*
X300925714Y-209018095D01*
X299878095Y-208541904D02*
X300068571Y-208446666D01*
X300163809Y-208351428D01*
X300259047Y-208160952D01*
X300259047Y-208065714D01*
X300163809Y-207875238D01*
X300068571Y-207780000D01*
X299878095Y-207684761D01*
X299497142Y-207684761D01*
X299306666Y-207780000D01*
X299211428Y-207875238D01*
X299116190Y-208065714D01*
X299116190Y-208160952D01*
X299211428Y-208351428D01*
X299306666Y-208446666D01*
X299497142Y-208541904D01*
X299878095Y-208541904D01*
X300068571Y-208637142D01*
X300163809Y-208732380D01*
X300259047Y-208922857D01*
X300259047Y-209303809D01*
X300163809Y-209494285D01*
X300068571Y-209589523D01*
X299878095Y-209684761D01*
X299497142Y-209684761D01*
X299306666Y-209589523D01*
X299211428Y-209494285D01*
X299116190Y-209303809D01*
X299116190Y-208922857D01*
X299211428Y-208732380D01*
X299306666Y-208637142D01*
X299497142Y-208541904D01*
X278553809Y-136790238D02*
X278458571Y-136695000D01*
X278268095Y-136599761D01*
X277791904Y-136599761D01*
X277601428Y-136695000D01*
X277506190Y-136790238D01*
X277410952Y-136980714D01*
X277410952Y-137171190D01*
X277506190Y-137456904D01*
X278649047Y-138599761D01*
X277410952Y-138599761D01*
X275696666Y-136599761D02*
X276077619Y-136599761D01*
X276268095Y-136695000D01*
X276363333Y-136790238D01*
X276553809Y-137075952D01*
X276649047Y-137456904D01*
X276649047Y-138218809D01*
X276553809Y-138409285D01*
X276458571Y-138504523D01*
X276268095Y-138599761D01*
X275887142Y-138599761D01*
X275696666Y-138504523D01*
X275601428Y-138409285D01*
X275506190Y-138218809D01*
X275506190Y-137742619D01*
X275601428Y-137552142D01*
X275696666Y-137456904D01*
X275887142Y-137361666D01*
X276268095Y-137361666D01*
X276458571Y-137456904D01*
X276553809Y-137552142D01*
X276649047Y-137742619D01*
X301020952Y-92844761D02*
X300640000Y-92844761D01*
X300449523Y-92749523D01*
X300354285Y-92654285D01*
X300163809Y-92368571D01*
X300068571Y-91987619D01*
X300068571Y-91225714D01*
X300163809Y-91035238D01*
X300259047Y-90940000D01*
X300449523Y-90844761D01*
X300830476Y-90844761D01*
X301020952Y-90940000D01*
X301116190Y-91035238D01*
X301211428Y-91225714D01*
X301211428Y-91701904D01*
X301116190Y-91892380D01*
X301020952Y-91987619D01*
X300830476Y-92082857D01*
X300449523Y-92082857D01*
X300259047Y-91987619D01*
X300163809Y-91892380D01*
X300068571Y-91701904D01*
X262393809Y-146815238D02*
X262298571Y-146720000D01*
X262108095Y-146624761D01*
X261631904Y-146624761D01*
X261441428Y-146720000D01*
X261346190Y-146815238D01*
X261250952Y-147005714D01*
X261250952Y-147196190D01*
X261346190Y-147481904D01*
X262489047Y-148624761D01*
X261250952Y-148624761D01*
X260108095Y-147481904D02*
X260298571Y-147386666D01*
X260393809Y-147291428D01*
X260489047Y-147100952D01*
X260489047Y-147005714D01*
X260393809Y-146815238D01*
X260298571Y-146720000D01*
X260108095Y-146624761D01*
X259727142Y-146624761D01*
X259536666Y-146720000D01*
X259441428Y-146815238D01*
X259346190Y-147005714D01*
X259346190Y-147100952D01*
X259441428Y-147291428D01*
X259536666Y-147386666D01*
X259727142Y-147481904D01*
X260108095Y-147481904D01*
X260298571Y-147577142D01*
X260393809Y-147672380D01*
X260489047Y-147862857D01*
X260489047Y-148243809D01*
X260393809Y-148434285D01*
X260298571Y-148529523D01*
X260108095Y-148624761D01*
X259727142Y-148624761D01*
X259536666Y-148529523D01*
X259441428Y-148434285D01*
X259346190Y-148243809D01*
X259346190Y-147862857D01*
X259441428Y-147672380D01*
X259536666Y-147577142D01*
X259727142Y-147481904D01*
X285971428Y-198191428D02*
X285971428Y-199524761D01*
X286447619Y-197429523D02*
X286923809Y-198858095D01*
X285685714Y-198858095D01*
X284066666Y-197524761D02*
X284447619Y-197524761D01*
X284638095Y-197620000D01*
X284733333Y-197715238D01*
X284923809Y-198000952D01*
X285019047Y-198381904D01*
X285019047Y-199143809D01*
X284923809Y-199334285D01*
X284828571Y-199429523D01*
X284638095Y-199524761D01*
X284257142Y-199524761D01*
X284066666Y-199429523D01*
X283971428Y-199334285D01*
X283876190Y-199143809D01*
X283876190Y-198667619D01*
X283971428Y-198477142D01*
X284066666Y-198381904D01*
X284257142Y-198286666D01*
X284638095Y-198286666D01*
X284828571Y-198381904D01*
X284923809Y-198477142D01*
X285019047Y-198667619D01*
X262266666Y-51342857D02*
X260742857Y-51342857D01*
X261504761Y-52104761D02*
X261504761Y-50580952D01*
X258742857Y-52104761D02*
X259885714Y-52104761D01*
X259314285Y-52104761D02*
X259314285Y-50104761D01*
X259504761Y-50390476D01*
X259695238Y-50580952D01*
X259885714Y-50676190D01*
X257980952Y-50295238D02*
X257885714Y-50200000D01*
X257695238Y-50104761D01*
X257219047Y-50104761D01*
X257028571Y-50200000D01*
X256933333Y-50295238D01*
X256838095Y-50485714D01*
X256838095Y-50676190D01*
X256933333Y-50961904D01*
X258076190Y-52104761D01*
X256838095Y-52104761D01*
X279696666Y-203877857D02*
X278172857Y-203877857D01*
X278934761Y-204639761D02*
X278934761Y-203115952D01*
X276172857Y-204639761D02*
X277315714Y-204639761D01*
X276744285Y-204639761D02*
X276744285Y-202639761D01*
X276934761Y-202925476D01*
X277125238Y-203115952D01*
X277315714Y-203211190D01*
X275410952Y-202830238D02*
X275315714Y-202735000D01*
X275125238Y-202639761D01*
X274649047Y-202639761D01*
X274458571Y-202735000D01*
X274363333Y-202830238D01*
X274268095Y-203020714D01*
X274268095Y-203211190D01*
X274363333Y-203496904D01*
X275506190Y-204639761D01*
X274268095Y-204639761D01*
X261250952Y-97824761D02*
X262393809Y-97824761D01*
X261822380Y-97824761D02*
X261822380Y-95824761D01*
X262012857Y-96110476D01*
X262203333Y-96300952D01*
X262393809Y-96396190D01*
X260108095Y-96681904D02*
X260298571Y-96586666D01*
X260393809Y-96491428D01*
X260489047Y-96300952D01*
X260489047Y-96205714D01*
X260393809Y-96015238D01*
X260298571Y-95920000D01*
X260108095Y-95824761D01*
X259727142Y-95824761D01*
X259536666Y-95920000D01*
X259441428Y-96015238D01*
X259346190Y-96205714D01*
X259346190Y-96300952D01*
X259441428Y-96491428D01*
X259536666Y-96586666D01*
X259727142Y-96681904D01*
X260108095Y-96681904D01*
X260298571Y-96777142D01*
X260393809Y-96872380D01*
X260489047Y-97062857D01*
X260489047Y-97443809D01*
X260393809Y-97634285D01*
X260298571Y-97729523D01*
X260108095Y-97824761D01*
X259727142Y-97824761D01*
X259536666Y-97729523D01*
X259441428Y-97634285D01*
X259346190Y-97443809D01*
X259346190Y-97062857D01*
X259441428Y-96872380D01*
X259536666Y-96777142D01*
X259727142Y-96681904D01*
X278649047Y-156919761D02*
X277410952Y-156919761D01*
X278077619Y-157681666D01*
X277791904Y-157681666D01*
X277601428Y-157776904D01*
X277506190Y-157872142D01*
X277410952Y-158062619D01*
X277410952Y-158538809D01*
X277506190Y-158729285D01*
X277601428Y-158824523D01*
X277791904Y-158919761D01*
X278363333Y-158919761D01*
X278553809Y-158824523D01*
X278649047Y-158729285D01*
X276172857Y-156919761D02*
X275982380Y-156919761D01*
X275791904Y-157015000D01*
X275696666Y-157110238D01*
X275601428Y-157300714D01*
X275506190Y-157681666D01*
X275506190Y-158157857D01*
X275601428Y-158538809D01*
X275696666Y-158729285D01*
X275791904Y-158824523D01*
X275982380Y-158919761D01*
X276172857Y-158919761D01*
X276363333Y-158824523D01*
X276458571Y-158729285D01*
X276553809Y-158538809D01*
X276649047Y-158157857D01*
X276649047Y-157681666D01*
X276553809Y-157300714D01*
X276458571Y-157110238D01*
X276363333Y-157015000D01*
X276172857Y-156919761D01*
X300259047Y-75604761D02*
X300640000Y-75604761D01*
X300830476Y-75700000D01*
X300925714Y-75795238D01*
X301116190Y-76080952D01*
X301211428Y-76461904D01*
X301211428Y-77223809D01*
X301116190Y-77414285D01*
X301020952Y-77509523D01*
X300830476Y-77604761D01*
X300449523Y-77604761D01*
X300259047Y-77509523D01*
X300163809Y-77414285D01*
X300068571Y-77223809D01*
X300068571Y-76747619D01*
X300163809Y-76557142D01*
X300259047Y-76461904D01*
X300449523Y-76366666D01*
X300830476Y-76366666D01*
X301020952Y-76461904D01*
X301116190Y-76557142D01*
X301211428Y-76747619D01*
X262266666Y-208822857D02*
X260742857Y-208822857D01*
X261504761Y-209584761D02*
X261504761Y-208060952D01*
X258742857Y-209584761D02*
X259885714Y-209584761D01*
X259314285Y-209584761D02*
X259314285Y-207584761D01*
X259504761Y-207870476D01*
X259695238Y-208060952D01*
X259885714Y-208156190D01*
X257980952Y-207775238D02*
X257885714Y-207680000D01*
X257695238Y-207584761D01*
X257219047Y-207584761D01*
X257028571Y-207680000D01*
X256933333Y-207775238D01*
X256838095Y-207965714D01*
X256838095Y-208156190D01*
X256933333Y-208441904D01*
X258076190Y-209584761D01*
X256838095Y-209584761D01*
X285780952Y-128404761D02*
X286923809Y-128404761D01*
X286352380Y-128404761D02*
X286352380Y-126404761D01*
X286542857Y-126690476D01*
X286733333Y-126880952D01*
X286923809Y-126976190D01*
X284066666Y-126404761D02*
X284447619Y-126404761D01*
X284638095Y-126500000D01*
X284733333Y-126595238D01*
X284923809Y-126880952D01*
X285019047Y-127261904D01*
X285019047Y-128023809D01*
X284923809Y-128214285D01*
X284828571Y-128309523D01*
X284638095Y-128404761D01*
X284257142Y-128404761D01*
X284066666Y-128309523D01*
X283971428Y-128214285D01*
X283876190Y-128023809D01*
X283876190Y-127547619D01*
X283971428Y-127357142D01*
X284066666Y-127261904D01*
X284257142Y-127166666D01*
X284638095Y-127166666D01*
X284828571Y-127261904D01*
X284923809Y-127357142D01*
X285019047Y-127547619D01*
X301020952Y-128404761D02*
X302163809Y-128404761D01*
X301592380Y-128404761D02*
X301592380Y-126404761D01*
X301782857Y-126690476D01*
X301973333Y-126880952D01*
X302163809Y-126976190D01*
X299306666Y-126404761D02*
X299687619Y-126404761D01*
X299878095Y-126500000D01*
X299973333Y-126595238D01*
X300163809Y-126880952D01*
X300259047Y-127261904D01*
X300259047Y-128023809D01*
X300163809Y-128214285D01*
X300068571Y-128309523D01*
X299878095Y-128404761D01*
X299497142Y-128404761D01*
X299306666Y-128309523D01*
X299211428Y-128214285D01*
X299116190Y-128023809D01*
X299116190Y-127547619D01*
X299211428Y-127357142D01*
X299306666Y-127261904D01*
X299497142Y-127166666D01*
X299878095Y-127166666D01*
X300068571Y-127261904D01*
X300163809Y-127357142D01*
X300259047Y-127547619D01*
X301020952Y-108084761D02*
X302163809Y-108084761D01*
X301592380Y-108084761D02*
X301592380Y-106084761D01*
X301782857Y-106370476D01*
X301973333Y-106560952D01*
X302163809Y-106656190D01*
X300259047Y-106275238D02*
X300163809Y-106180000D01*
X299973333Y-106084761D01*
X299497142Y-106084761D01*
X299306666Y-106180000D01*
X299211428Y-106275238D01*
X299116190Y-106465714D01*
X299116190Y-106656190D01*
X299211428Y-106941904D01*
X300354285Y-108084761D01*
X299116190Y-108084761D01*
X287019047Y-146724761D02*
X285780952Y-146724761D01*
X286447619Y-147486666D01*
X286161904Y-147486666D01*
X285971428Y-147581904D01*
X285876190Y-147677142D01*
X285780952Y-147867619D01*
X285780952Y-148343809D01*
X285876190Y-148534285D01*
X285971428Y-148629523D01*
X286161904Y-148724761D01*
X286733333Y-148724761D01*
X286923809Y-148629523D01*
X287019047Y-148534285D01*
X284066666Y-146724761D02*
X284447619Y-146724761D01*
X284638095Y-146820000D01*
X284733333Y-146915238D01*
X284923809Y-147200952D01*
X285019047Y-147581904D01*
X285019047Y-148343809D01*
X284923809Y-148534285D01*
X284828571Y-148629523D01*
X284638095Y-148724761D01*
X284257142Y-148724761D01*
X284066666Y-148629523D01*
X283971428Y-148534285D01*
X283876190Y-148343809D01*
X283876190Y-147867619D01*
X283971428Y-147677142D01*
X284066666Y-147581904D01*
X284257142Y-147486666D01*
X284638095Y-147486666D01*
X284828571Y-147581904D01*
X284923809Y-147677142D01*
X285019047Y-147867619D01*
X286066666Y-60364761D02*
X284828571Y-60364761D01*
X285495238Y-61126666D01*
X285209523Y-61126666D01*
X285019047Y-61221904D01*
X284923809Y-61317142D01*
X284828571Y-61507619D01*
X284828571Y-61983809D01*
X284923809Y-62174285D01*
X285019047Y-62269523D01*
X285209523Y-62364761D01*
X285780952Y-62364761D01*
X285971428Y-62269523D01*
X286066666Y-62174285D01*
X301020952Y-113164761D02*
X302163809Y-113164761D01*
X301592380Y-113164761D02*
X301592380Y-111164761D01*
X301782857Y-111450476D01*
X301973333Y-111640952D01*
X302163809Y-111736190D01*
X300354285Y-111164761D02*
X299116190Y-111164761D01*
X299782857Y-111926666D01*
X299497142Y-111926666D01*
X299306666Y-112021904D01*
X299211428Y-112117142D01*
X299116190Y-112307619D01*
X299116190Y-112783809D01*
X299211428Y-112974285D01*
X299306666Y-113069523D01*
X299497142Y-113164761D01*
X300068571Y-113164761D01*
X300259047Y-113069523D01*
X300354285Y-112974285D01*
X285971428Y-208351428D02*
X285971428Y-209684761D01*
X286447619Y-207589523D02*
X286923809Y-209018095D01*
X285685714Y-209018095D01*
X284638095Y-208541904D02*
X284828571Y-208446666D01*
X284923809Y-208351428D01*
X285019047Y-208160952D01*
X285019047Y-208065714D01*
X284923809Y-207875238D01*
X284828571Y-207780000D01*
X284638095Y-207684761D01*
X284257142Y-207684761D01*
X284066666Y-207780000D01*
X283971428Y-207875238D01*
X283876190Y-208065714D01*
X283876190Y-208160952D01*
X283971428Y-208351428D01*
X284066666Y-208446666D01*
X284257142Y-208541904D01*
X284638095Y-208541904D01*
X284828571Y-208637142D01*
X284923809Y-208732380D01*
X285019047Y-208922857D01*
X285019047Y-209303809D01*
X284923809Y-209494285D01*
X284828571Y-209589523D01*
X284638095Y-209684761D01*
X284257142Y-209684761D01*
X284066666Y-209589523D01*
X283971428Y-209494285D01*
X283876190Y-209303809D01*
X283876190Y-208922857D01*
X283971428Y-208732380D01*
X284066666Y-208637142D01*
X284257142Y-208541904D01*
X287019047Y-141644761D02*
X285780952Y-141644761D01*
X286447619Y-142406666D01*
X286161904Y-142406666D01*
X285971428Y-142501904D01*
X285876190Y-142597142D01*
X285780952Y-142787619D01*
X285780952Y-143263809D01*
X285876190Y-143454285D01*
X285971428Y-143549523D01*
X286161904Y-143644761D01*
X286733333Y-143644761D01*
X286923809Y-143549523D01*
X287019047Y-143454285D01*
X283971428Y-141644761D02*
X284923809Y-141644761D01*
X285019047Y-142597142D01*
X284923809Y-142501904D01*
X284733333Y-142406666D01*
X284257142Y-142406666D01*
X284066666Y-142501904D01*
X283971428Y-142597142D01*
X283876190Y-142787619D01*
X283876190Y-143263809D01*
X283971428Y-143454285D01*
X284066666Y-143549523D01*
X284257142Y-143644761D01*
X284733333Y-143644761D01*
X284923809Y-143549523D01*
X285019047Y-143454285D01*
X287019047Y-131484761D02*
X285780952Y-131484761D01*
X286447619Y-132246666D01*
X286161904Y-132246666D01*
X285971428Y-132341904D01*
X285876190Y-132437142D01*
X285780952Y-132627619D01*
X285780952Y-133103809D01*
X285876190Y-133294285D01*
X285971428Y-133389523D01*
X286161904Y-133484761D01*
X286733333Y-133484761D01*
X286923809Y-133389523D01*
X287019047Y-133294285D01*
X285114285Y-131484761D02*
X283876190Y-131484761D01*
X284542857Y-132246666D01*
X284257142Y-132246666D01*
X284066666Y-132341904D01*
X283971428Y-132437142D01*
X283876190Y-132627619D01*
X283876190Y-133103809D01*
X283971428Y-133294285D01*
X284066666Y-133389523D01*
X284257142Y-133484761D01*
X284828571Y-133484761D01*
X285019047Y-133389523D01*
X285114285Y-133294285D01*
X285590476Y-86621904D02*
X285780952Y-86526666D01*
X285876190Y-86431428D01*
X285971428Y-86240952D01*
X285971428Y-86145714D01*
X285876190Y-85955238D01*
X285780952Y-85860000D01*
X285590476Y-85764761D01*
X285209523Y-85764761D01*
X285019047Y-85860000D01*
X284923809Y-85955238D01*
X284828571Y-86145714D01*
X284828571Y-86240952D01*
X284923809Y-86431428D01*
X285019047Y-86526666D01*
X285209523Y-86621904D01*
X285590476Y-86621904D01*
X285780952Y-86717142D01*
X285876190Y-86812380D01*
X285971428Y-87002857D01*
X285971428Y-87383809D01*
X285876190Y-87574285D01*
X285780952Y-87669523D01*
X285590476Y-87764761D01*
X285209523Y-87764761D01*
X285019047Y-87669523D01*
X284923809Y-87574285D01*
X284828571Y-87383809D01*
X284828571Y-87002857D01*
X284923809Y-86812380D01*
X285019047Y-86717142D01*
X285209523Y-86621904D01*
X262393809Y-121415238D02*
X262298571Y-121320000D01*
X262108095Y-121224761D01*
X261631904Y-121224761D01*
X261441428Y-121320000D01*
X261346190Y-121415238D01*
X261250952Y-121605714D01*
X261250952Y-121796190D01*
X261346190Y-122081904D01*
X262489047Y-123224761D01*
X261250952Y-123224761D01*
X260584285Y-121224761D02*
X259346190Y-121224761D01*
X260012857Y-121986666D01*
X259727142Y-121986666D01*
X259536666Y-122081904D01*
X259441428Y-122177142D01*
X259346190Y-122367619D01*
X259346190Y-122843809D01*
X259441428Y-123034285D01*
X259536666Y-123129523D01*
X259727142Y-123224761D01*
X260298571Y-123224761D01*
X260489047Y-123129523D01*
X260584285Y-123034285D01*
X262393809Y-126495238D02*
X262298571Y-126400000D01*
X262108095Y-126304761D01*
X261631904Y-126304761D01*
X261441428Y-126400000D01*
X261346190Y-126495238D01*
X261250952Y-126685714D01*
X261250952Y-126876190D01*
X261346190Y-127161904D01*
X262489047Y-128304761D01*
X261250952Y-128304761D01*
X259536666Y-126971428D02*
X259536666Y-128304761D01*
X260012857Y-126209523D02*
X260489047Y-127638095D01*
X259250952Y-127638095D01*
X285780952Y-113164761D02*
X286923809Y-113164761D01*
X286352380Y-113164761D02*
X286352380Y-111164761D01*
X286542857Y-111450476D01*
X286733333Y-111640952D01*
X286923809Y-111736190D01*
X285114285Y-111164761D02*
X283876190Y-111164761D01*
X284542857Y-111926666D01*
X284257142Y-111926666D01*
X284066666Y-112021904D01*
X283971428Y-112117142D01*
X283876190Y-112307619D01*
X283876190Y-112783809D01*
X283971428Y-112974285D01*
X284066666Y-113069523D01*
X284257142Y-113164761D01*
X284828571Y-113164761D01*
X285019047Y-113069523D01*
X285114285Y-112974285D01*
X285780952Y-108084761D02*
X286923809Y-108084761D01*
X286352380Y-108084761D02*
X286352380Y-106084761D01*
X286542857Y-106370476D01*
X286733333Y-106560952D01*
X286923809Y-106656190D01*
X285019047Y-106275238D02*
X284923809Y-106180000D01*
X284733333Y-106084761D01*
X284257142Y-106084761D01*
X284066666Y-106180000D01*
X283971428Y-106275238D01*
X283876190Y-106465714D01*
X283876190Y-106656190D01*
X283971428Y-106941904D01*
X285114285Y-108084761D01*
X283876190Y-108084761D01*
X285971428Y-167711428D02*
X285971428Y-169044761D01*
X286447619Y-166949523D02*
X286923809Y-168378095D01*
X285685714Y-168378095D01*
X284542857Y-167044761D02*
X284352380Y-167044761D01*
X284161904Y-167140000D01*
X284066666Y-167235238D01*
X283971428Y-167425714D01*
X283876190Y-167806666D01*
X283876190Y-168282857D01*
X283971428Y-168663809D01*
X284066666Y-168854285D01*
X284161904Y-168949523D01*
X284352380Y-169044761D01*
X284542857Y-169044761D01*
X284733333Y-168949523D01*
X284828571Y-168854285D01*
X284923809Y-168663809D01*
X285019047Y-168282857D01*
X285019047Y-167806666D01*
X284923809Y-167425714D01*
X284828571Y-167235238D01*
X284733333Y-167140000D01*
X284542857Y-167044761D01*
X300163809Y-70524761D02*
X301116190Y-70524761D01*
X301211428Y-71477142D01*
X301116190Y-71381904D01*
X300925714Y-71286666D01*
X300449523Y-71286666D01*
X300259047Y-71381904D01*
X300163809Y-71477142D01*
X300068571Y-71667619D01*
X300068571Y-72143809D01*
X300163809Y-72334285D01*
X300259047Y-72429523D01*
X300449523Y-72524761D01*
X300925714Y-72524761D01*
X301116190Y-72429523D01*
X301211428Y-72334285D01*
X278553809Y-85895000D02*
X278744285Y-85799761D01*
X279030000Y-85799761D01*
X279315714Y-85895000D01*
X279506190Y-86085476D01*
X279601428Y-86275952D01*
X279696666Y-86656904D01*
X279696666Y-86942619D01*
X279601428Y-87323571D01*
X279506190Y-87514047D01*
X279315714Y-87704523D01*
X279030000Y-87799761D01*
X278839523Y-87799761D01*
X278553809Y-87704523D01*
X278458571Y-87609285D01*
X278458571Y-86942619D01*
X278839523Y-86942619D01*
X277601428Y-87799761D02*
X277601428Y-85799761D01*
X276458571Y-87799761D01*
X276458571Y-85799761D01*
X275506190Y-87799761D02*
X275506190Y-85799761D01*
X275030000Y-85799761D01*
X274744285Y-85895000D01*
X274553809Y-86085476D01*
X274458571Y-86275952D01*
X274363333Y-86656904D01*
X274363333Y-86942619D01*
X274458571Y-87323571D01*
X274553809Y-87514047D01*
X274744285Y-87704523D01*
X275030000Y-87799761D01*
X275506190Y-87799761D01*
X261123809Y-172120000D02*
X261314285Y-172024761D01*
X261600000Y-172024761D01*
X261885714Y-172120000D01*
X262076190Y-172310476D01*
X262171428Y-172500952D01*
X262266666Y-172881904D01*
X262266666Y-173167619D01*
X262171428Y-173548571D01*
X262076190Y-173739047D01*
X261885714Y-173929523D01*
X261600000Y-174024761D01*
X261409523Y-174024761D01*
X261123809Y-173929523D01*
X261028571Y-173834285D01*
X261028571Y-173167619D01*
X261409523Y-173167619D01*
X260171428Y-174024761D02*
X260171428Y-172024761D01*
X259028571Y-174024761D01*
X259028571Y-172024761D01*
X258076190Y-174024761D02*
X258076190Y-172024761D01*
X257600000Y-172024761D01*
X257314285Y-172120000D01*
X257123809Y-172310476D01*
X257028571Y-172500952D01*
X256933333Y-172881904D01*
X256933333Y-173167619D01*
X257028571Y-173548571D01*
X257123809Y-173739047D01*
X257314285Y-173929523D01*
X257600000Y-174024761D01*
X258076190Y-174024761D01*
X278553809Y-111390238D02*
X278458571Y-111295000D01*
X278268095Y-111199761D01*
X277791904Y-111199761D01*
X277601428Y-111295000D01*
X277506190Y-111390238D01*
X277410952Y-111580714D01*
X277410952Y-111771190D01*
X277506190Y-112056904D01*
X278649047Y-113199761D01*
X277410952Y-113199761D01*
X275506190Y-113199761D02*
X276649047Y-113199761D01*
X276077619Y-113199761D02*
X276077619Y-111199761D01*
X276268095Y-111485476D01*
X276458571Y-111675952D01*
X276649047Y-111771190D01*
X285971428Y-203271428D02*
X285971428Y-204604761D01*
X286447619Y-202509523D02*
X286923809Y-203938095D01*
X285685714Y-203938095D01*
X285114285Y-202604761D02*
X283780952Y-202604761D01*
X284638095Y-204604761D01*
X301211428Y-182951428D02*
X301211428Y-184284761D01*
X301687619Y-182189523D02*
X302163809Y-183618095D01*
X300925714Y-183618095D01*
X300354285Y-182284761D02*
X299116190Y-182284761D01*
X299782857Y-183046666D01*
X299497142Y-183046666D01*
X299306666Y-183141904D01*
X299211428Y-183237142D01*
X299116190Y-183427619D01*
X299116190Y-183903809D01*
X299211428Y-184094285D01*
X299306666Y-184189523D01*
X299497142Y-184284761D01*
X300068571Y-184284761D01*
X300259047Y-184189523D01*
X300354285Y-184094285D01*
X262266666Y-193582857D02*
X260742857Y-193582857D01*
X261504761Y-194344761D02*
X261504761Y-192820952D01*
X258742857Y-194344761D02*
X259885714Y-194344761D01*
X259314285Y-194344761D02*
X259314285Y-192344761D01*
X259504761Y-192630476D01*
X259695238Y-192820952D01*
X259885714Y-192916190D01*
X257980952Y-192535238D02*
X257885714Y-192440000D01*
X257695238Y-192344761D01*
X257219047Y-192344761D01*
X257028571Y-192440000D01*
X256933333Y-192535238D01*
X256838095Y-192725714D01*
X256838095Y-192916190D01*
X256933333Y-193201904D01*
X258076190Y-194344761D01*
X256838095Y-194344761D01*
X278553809Y-131710238D02*
X278458571Y-131615000D01*
X278268095Y-131519761D01*
X277791904Y-131519761D01*
X277601428Y-131615000D01*
X277506190Y-131710238D01*
X277410952Y-131900714D01*
X277410952Y-132091190D01*
X277506190Y-132376904D01*
X278649047Y-133519761D01*
X277410952Y-133519761D01*
X275601428Y-131519761D02*
X276553809Y-131519761D01*
X276649047Y-132472142D01*
X276553809Y-132376904D01*
X276363333Y-132281666D01*
X275887142Y-132281666D01*
X275696666Y-132376904D01*
X275601428Y-132472142D01*
X275506190Y-132662619D01*
X275506190Y-133138809D01*
X275601428Y-133329285D01*
X275696666Y-133424523D01*
X275887142Y-133519761D01*
X276363333Y-133519761D01*
X276553809Y-133424523D01*
X276649047Y-133329285D01*
X279696666Y-61637857D02*
X278172857Y-61637857D01*
X278934761Y-62399761D02*
X278934761Y-60875952D01*
X276172857Y-62399761D02*
X277315714Y-62399761D01*
X276744285Y-62399761D02*
X276744285Y-60399761D01*
X276934761Y-60685476D01*
X277125238Y-60875952D01*
X277315714Y-60971190D01*
X275410952Y-60590238D02*
X275315714Y-60495000D01*
X275125238Y-60399761D01*
X274649047Y-60399761D01*
X274458571Y-60495000D01*
X274363333Y-60590238D01*
X274268095Y-60780714D01*
X274268095Y-60971190D01*
X274363333Y-61256904D01*
X275506190Y-62399761D01*
X274268095Y-62399761D01*
X261250952Y-92744761D02*
X262393809Y-92744761D01*
X261822380Y-92744761D02*
X261822380Y-90744761D01*
X262012857Y-91030476D01*
X262203333Y-91220952D01*
X262393809Y-91316190D01*
X260584285Y-90744761D02*
X259250952Y-90744761D01*
X260108095Y-92744761D01*
X278553809Y-106310238D02*
X278458571Y-106215000D01*
X278268095Y-106119761D01*
X277791904Y-106119761D01*
X277601428Y-106215000D01*
X277506190Y-106310238D01*
X277410952Y-106500714D01*
X277410952Y-106691190D01*
X277506190Y-106976904D01*
X278649047Y-108119761D01*
X277410952Y-108119761D01*
X276172857Y-106119761D02*
X275982380Y-106119761D01*
X275791904Y-106215000D01*
X275696666Y-106310238D01*
X275601428Y-106500714D01*
X275506190Y-106881666D01*
X275506190Y-107357857D01*
X275601428Y-107738809D01*
X275696666Y-107929285D01*
X275791904Y-108024523D01*
X275982380Y-108119761D01*
X276172857Y-108119761D01*
X276363333Y-108024523D01*
X276458571Y-107929285D01*
X276553809Y-107738809D01*
X276649047Y-107357857D01*
X276649047Y-106881666D01*
X276553809Y-106500714D01*
X276458571Y-106310238D01*
X276363333Y-106215000D01*
X276172857Y-106119761D01*
X262489047Y-161864761D02*
X261250952Y-161864761D01*
X261917619Y-162626666D01*
X261631904Y-162626666D01*
X261441428Y-162721904D01*
X261346190Y-162817142D01*
X261250952Y-163007619D01*
X261250952Y-163483809D01*
X261346190Y-163674285D01*
X261441428Y-163769523D01*
X261631904Y-163864761D01*
X262203333Y-163864761D01*
X262393809Y-163769523D01*
X262489047Y-163674285D01*
X259346190Y-163864761D02*
X260489047Y-163864761D01*
X259917619Y-163864761D02*
X259917619Y-161864761D01*
X260108095Y-162150476D01*
X260298571Y-162340952D01*
X260489047Y-162436190D01*
X277410952Y-97959761D02*
X278553809Y-97959761D01*
X277982380Y-97959761D02*
X277982380Y-95959761D01*
X278172857Y-96245476D01*
X278363333Y-96435952D01*
X278553809Y-96531190D01*
X276268095Y-96816904D02*
X276458571Y-96721666D01*
X276553809Y-96626428D01*
X276649047Y-96435952D01*
X276649047Y-96340714D01*
X276553809Y-96150238D01*
X276458571Y-96055000D01*
X276268095Y-95959761D01*
X275887142Y-95959761D01*
X275696666Y-96055000D01*
X275601428Y-96150238D01*
X275506190Y-96340714D01*
X275506190Y-96435952D01*
X275601428Y-96626428D01*
X275696666Y-96721666D01*
X275887142Y-96816904D01*
X276268095Y-96816904D01*
X276458571Y-96912142D01*
X276553809Y-97007380D01*
X276649047Y-97197857D01*
X276649047Y-97578809D01*
X276553809Y-97769285D01*
X276458571Y-97864523D01*
X276268095Y-97959761D01*
X275887142Y-97959761D01*
X275696666Y-97864523D01*
X275601428Y-97769285D01*
X275506190Y-97578809D01*
X275506190Y-97197857D01*
X275601428Y-97007380D01*
X275696666Y-96912142D01*
X275887142Y-96816904D01*
X278553809Y-177335000D02*
X278744285Y-177239761D01*
X279030000Y-177239761D01*
X279315714Y-177335000D01*
X279506190Y-177525476D01*
X279601428Y-177715952D01*
X279696666Y-178096904D01*
X279696666Y-178382619D01*
X279601428Y-178763571D01*
X279506190Y-178954047D01*
X279315714Y-179144523D01*
X279030000Y-179239761D01*
X278839523Y-179239761D01*
X278553809Y-179144523D01*
X278458571Y-179049285D01*
X278458571Y-178382619D01*
X278839523Y-178382619D01*
X277601428Y-179239761D02*
X277601428Y-177239761D01*
X276458571Y-179239761D01*
X276458571Y-177239761D01*
X275506190Y-179239761D02*
X275506190Y-177239761D01*
X275030000Y-177239761D01*
X274744285Y-177335000D01*
X274553809Y-177525476D01*
X274458571Y-177715952D01*
X274363333Y-178096904D01*
X274363333Y-178382619D01*
X274458571Y-178763571D01*
X274553809Y-178954047D01*
X274744285Y-179144523D01*
X275030000Y-179239761D01*
X275506190Y-179239761D01*
X261123809Y-70520000D02*
X261314285Y-70424761D01*
X261600000Y-70424761D01*
X261885714Y-70520000D01*
X262076190Y-70710476D01*
X262171428Y-70900952D01*
X262266666Y-71281904D01*
X262266666Y-71567619D01*
X262171428Y-71948571D01*
X262076190Y-72139047D01*
X261885714Y-72329523D01*
X261600000Y-72424761D01*
X261409523Y-72424761D01*
X261123809Y-72329523D01*
X261028571Y-72234285D01*
X261028571Y-71567619D01*
X261409523Y-71567619D01*
X260171428Y-72424761D02*
X260171428Y-70424761D01*
X259028571Y-72424761D01*
X259028571Y-70424761D01*
X258076190Y-72424761D02*
X258076190Y-70424761D01*
X257600000Y-70424761D01*
X257314285Y-70520000D01*
X257123809Y-70710476D01*
X257028571Y-70900952D01*
X256933333Y-71281904D01*
X256933333Y-71567619D01*
X257028571Y-71948571D01*
X257123809Y-72139047D01*
X257314285Y-72329523D01*
X257600000Y-72424761D01*
X258076190Y-72424761D01*
X301211428Y-188031428D02*
X301211428Y-189364761D01*
X301687619Y-187269523D02*
X302163809Y-188698095D01*
X300925714Y-188698095D01*
X299306666Y-188031428D02*
X299306666Y-189364761D01*
X299782857Y-187269523D02*
X300259047Y-188698095D01*
X299020952Y-188698095D01*
X278553809Y-70655000D02*
X278744285Y-70559761D01*
X279030000Y-70559761D01*
X279315714Y-70655000D01*
X279506190Y-70845476D01*
X279601428Y-71035952D01*
X279696666Y-71416904D01*
X279696666Y-71702619D01*
X279601428Y-72083571D01*
X279506190Y-72274047D01*
X279315714Y-72464523D01*
X279030000Y-72559761D01*
X278839523Y-72559761D01*
X278553809Y-72464523D01*
X278458571Y-72369285D01*
X278458571Y-71702619D01*
X278839523Y-71702619D01*
X277601428Y-72559761D02*
X277601428Y-70559761D01*
X276458571Y-72559761D01*
X276458571Y-70559761D01*
X275506190Y-72559761D02*
X275506190Y-70559761D01*
X275030000Y-70559761D01*
X274744285Y-70655000D01*
X274553809Y-70845476D01*
X274458571Y-71035952D01*
X274363333Y-71416904D01*
X274363333Y-71702619D01*
X274458571Y-72083571D01*
X274553809Y-72274047D01*
X274744285Y-72464523D01*
X275030000Y-72559761D01*
X275506190Y-72559761D01*
X302259047Y-141644761D02*
X301020952Y-141644761D01*
X301687619Y-142406666D01*
X301401904Y-142406666D01*
X301211428Y-142501904D01*
X301116190Y-142597142D01*
X301020952Y-142787619D01*
X301020952Y-143263809D01*
X301116190Y-143454285D01*
X301211428Y-143549523D01*
X301401904Y-143644761D01*
X301973333Y-143644761D01*
X302163809Y-143549523D01*
X302259047Y-143454285D01*
X299211428Y-141644761D02*
X300163809Y-141644761D01*
X300259047Y-142597142D01*
X300163809Y-142501904D01*
X299973333Y-142406666D01*
X299497142Y-142406666D01*
X299306666Y-142501904D01*
X299211428Y-142597142D01*
X299116190Y-142787619D01*
X299116190Y-143263809D01*
X299211428Y-143454285D01*
X299306666Y-143549523D01*
X299497142Y-143644761D01*
X299973333Y-143644761D01*
X300163809Y-143549523D01*
X300259047Y-143454285D01*
X300830476Y-86621904D02*
X301020952Y-86526666D01*
X301116190Y-86431428D01*
X301211428Y-86240952D01*
X301211428Y-86145714D01*
X301116190Y-85955238D01*
X301020952Y-85860000D01*
X300830476Y-85764761D01*
X300449523Y-85764761D01*
X300259047Y-85860000D01*
X300163809Y-85955238D01*
X300068571Y-86145714D01*
X300068571Y-86240952D01*
X300163809Y-86431428D01*
X300259047Y-86526666D01*
X300449523Y-86621904D01*
X300830476Y-86621904D01*
X301020952Y-86717142D01*
X301116190Y-86812380D01*
X301211428Y-87002857D01*
X301211428Y-87383809D01*
X301116190Y-87574285D01*
X301020952Y-87669523D01*
X300830476Y-87764761D01*
X300449523Y-87764761D01*
X300259047Y-87669523D01*
X300163809Y-87574285D01*
X300068571Y-87383809D01*
X300068571Y-87002857D01*
X300163809Y-86812380D01*
X300259047Y-86717142D01*
X300449523Y-86621904D01*
X284923809Y-70524761D02*
X285876190Y-70524761D01*
X285971428Y-71477142D01*
X285876190Y-71381904D01*
X285685714Y-71286666D01*
X285209523Y-71286666D01*
X285019047Y-71381904D01*
X284923809Y-71477142D01*
X284828571Y-71667619D01*
X284828571Y-72143809D01*
X284923809Y-72334285D01*
X285019047Y-72429523D01*
X285209523Y-72524761D01*
X285685714Y-72524761D01*
X285876190Y-72429523D01*
X285971428Y-72334285D01*
X285971428Y-182951428D02*
X285971428Y-184284761D01*
X286447619Y-182189523D02*
X286923809Y-183618095D01*
X285685714Y-183618095D01*
X285114285Y-182284761D02*
X283876190Y-182284761D01*
X284542857Y-183046666D01*
X284257142Y-183046666D01*
X284066666Y-183141904D01*
X283971428Y-183237142D01*
X283876190Y-183427619D01*
X283876190Y-183903809D01*
X283971428Y-184094285D01*
X284066666Y-184189523D01*
X284257142Y-184284761D01*
X284828571Y-184284761D01*
X285019047Y-184189523D01*
X285114285Y-184094285D01*
X285971428Y-177871428D02*
X285971428Y-179204761D01*
X286447619Y-177109523D02*
X286923809Y-178538095D01*
X285685714Y-178538095D01*
X285019047Y-177395238D02*
X284923809Y-177300000D01*
X284733333Y-177204761D01*
X284257142Y-177204761D01*
X284066666Y-177300000D01*
X283971428Y-177395238D01*
X283876190Y-177585714D01*
X283876190Y-177776190D01*
X283971428Y-178061904D01*
X285114285Y-179204761D01*
X283876190Y-179204761D01*
X300068571Y-52204761D02*
X301211428Y-52204761D01*
X300640000Y-52204761D02*
X300640000Y-50204761D01*
X300830476Y-50490476D01*
X301020952Y-50680952D01*
X301211428Y-50776190D01*
X278553809Y-152030238D02*
X278458571Y-151935000D01*
X278268095Y-151839761D01*
X277791904Y-151839761D01*
X277601428Y-151935000D01*
X277506190Y-152030238D01*
X277410952Y-152220714D01*
X277410952Y-152411190D01*
X277506190Y-152696904D01*
X278649047Y-153839761D01*
X277410952Y-153839761D01*
X276458571Y-153839761D02*
X276077619Y-153839761D01*
X275887142Y-153744523D01*
X275791904Y-153649285D01*
X275601428Y-153363571D01*
X275506190Y-152982619D01*
X275506190Y-152220714D01*
X275601428Y-152030238D01*
X275696666Y-151935000D01*
X275887142Y-151839761D01*
X276268095Y-151839761D01*
X276458571Y-151935000D01*
X276553809Y-152030238D01*
X276649047Y-152220714D01*
X276649047Y-152696904D01*
X276553809Y-152887380D01*
X276458571Y-152982619D01*
X276268095Y-153077857D01*
X275887142Y-153077857D01*
X275696666Y-152982619D01*
X275601428Y-152887380D01*
X275506190Y-152696904D01*
X302259047Y-161964761D02*
X301020952Y-161964761D01*
X301687619Y-162726666D01*
X301401904Y-162726666D01*
X301211428Y-162821904D01*
X301116190Y-162917142D01*
X301020952Y-163107619D01*
X301020952Y-163583809D01*
X301116190Y-163774285D01*
X301211428Y-163869523D01*
X301401904Y-163964761D01*
X301973333Y-163964761D01*
X302163809Y-163869523D01*
X302259047Y-163774285D01*
X300068571Y-163964761D02*
X299687619Y-163964761D01*
X299497142Y-163869523D01*
X299401904Y-163774285D01*
X299211428Y-163488571D01*
X299116190Y-163107619D01*
X299116190Y-162345714D01*
X299211428Y-162155238D01*
X299306666Y-162060000D01*
X299497142Y-161964761D01*
X299878095Y-161964761D01*
X300068571Y-162060000D01*
X300163809Y-162155238D01*
X300259047Y-162345714D01*
X300259047Y-162821904D01*
X300163809Y-163012380D01*
X300068571Y-163107619D01*
X299878095Y-163202857D01*
X299497142Y-163202857D01*
X299306666Y-163107619D01*
X299211428Y-163012380D01*
X299116190Y-162821904D01*
X301211428Y-172791428D02*
X301211428Y-174124761D01*
X301687619Y-172029523D02*
X302163809Y-173458095D01*
X300925714Y-173458095D01*
X299116190Y-174124761D02*
X300259047Y-174124761D01*
X299687619Y-174124761D02*
X299687619Y-172124761D01*
X299878095Y-172410476D01*
X300068571Y-172600952D01*
X300259047Y-172696190D01*
X301211428Y-203271428D02*
X301211428Y-204604761D01*
X301687619Y-202509523D02*
X302163809Y-203938095D01*
X300925714Y-203938095D01*
X300354285Y-202604761D02*
X299020952Y-202604761D01*
X299878095Y-204604761D01*
X301020952Y-103004761D02*
X302163809Y-103004761D01*
X301592380Y-103004761D02*
X301592380Y-101004761D01*
X301782857Y-101290476D01*
X301973333Y-101480952D01*
X302163809Y-101576190D01*
X299116190Y-103004761D02*
X300259047Y-103004761D01*
X299687619Y-103004761D02*
X299687619Y-101004761D01*
X299878095Y-101290476D01*
X300068571Y-101480952D01*
X300259047Y-101576190D01*
X277410952Y-103039761D02*
X278553809Y-103039761D01*
X277982380Y-103039761D02*
X277982380Y-101039761D01*
X278172857Y-101325476D01*
X278363333Y-101515952D01*
X278553809Y-101611190D01*
X276458571Y-103039761D02*
X276077619Y-103039761D01*
X275887142Y-102944523D01*
X275791904Y-102849285D01*
X275601428Y-102563571D01*
X275506190Y-102182619D01*
X275506190Y-101420714D01*
X275601428Y-101230238D01*
X275696666Y-101135000D01*
X275887142Y-101039761D01*
X276268095Y-101039761D01*
X276458571Y-101135000D01*
X276553809Y-101230238D01*
X276649047Y-101420714D01*
X276649047Y-101896904D01*
X276553809Y-102087380D01*
X276458571Y-102182619D01*
X276268095Y-102277857D01*
X275887142Y-102277857D01*
X275696666Y-102182619D01*
X275601428Y-102087380D01*
X275506190Y-101896904D01*
X278553809Y-75735000D02*
X278744285Y-75639761D01*
X279030000Y-75639761D01*
X279315714Y-75735000D01*
X279506190Y-75925476D01*
X279601428Y-76115952D01*
X279696666Y-76496904D01*
X279696666Y-76782619D01*
X279601428Y-77163571D01*
X279506190Y-77354047D01*
X279315714Y-77544523D01*
X279030000Y-77639761D01*
X278839523Y-77639761D01*
X278553809Y-77544523D01*
X278458571Y-77449285D01*
X278458571Y-76782619D01*
X278839523Y-76782619D01*
X277601428Y-77639761D02*
X277601428Y-75639761D01*
X276458571Y-77639761D01*
X276458571Y-75639761D01*
X275506190Y-77639761D02*
X275506190Y-75639761D01*
X275030000Y-75639761D01*
X274744285Y-75735000D01*
X274553809Y-75925476D01*
X274458571Y-76115952D01*
X274363333Y-76496904D01*
X274363333Y-76782619D01*
X274458571Y-77163571D01*
X274553809Y-77354047D01*
X274744285Y-77544523D01*
X275030000Y-77639761D01*
X275506190Y-77639761D01*
X262266666Y-61502857D02*
X260742857Y-61502857D01*
X261504761Y-62264761D02*
X261504761Y-60740952D01*
X258742857Y-62264761D02*
X259885714Y-62264761D01*
X259314285Y-62264761D02*
X259314285Y-60264761D01*
X259504761Y-60550476D01*
X259695238Y-60740952D01*
X259885714Y-60836190D01*
X257980952Y-60455238D02*
X257885714Y-60360000D01*
X257695238Y-60264761D01*
X257219047Y-60264761D01*
X257028571Y-60360000D01*
X256933333Y-60455238D01*
X256838095Y-60645714D01*
X256838095Y-60836190D01*
X256933333Y-61121904D01*
X258076190Y-62264761D01*
X256838095Y-62264761D01*
X301211428Y-193111428D02*
X301211428Y-194444761D01*
X301687619Y-192349523D02*
X302163809Y-193778095D01*
X300925714Y-193778095D01*
X299211428Y-192444761D02*
X300163809Y-192444761D01*
X300259047Y-193397142D01*
X300163809Y-193301904D01*
X299973333Y-193206666D01*
X299497142Y-193206666D01*
X299306666Y-193301904D01*
X299211428Y-193397142D01*
X299116190Y-193587619D01*
X299116190Y-194063809D01*
X299211428Y-194254285D01*
X299306666Y-194349523D01*
X299497142Y-194444761D01*
X299973333Y-194444761D01*
X300163809Y-194349523D01*
X300259047Y-194254285D01*
X278553809Y-146950238D02*
X278458571Y-146855000D01*
X278268095Y-146759761D01*
X277791904Y-146759761D01*
X277601428Y-146855000D01*
X277506190Y-146950238D01*
X277410952Y-147140714D01*
X277410952Y-147331190D01*
X277506190Y-147616904D01*
X278649047Y-148759761D01*
X277410952Y-148759761D01*
X276268095Y-147616904D02*
X276458571Y-147521666D01*
X276553809Y-147426428D01*
X276649047Y-147235952D01*
X276649047Y-147140714D01*
X276553809Y-146950238D01*
X276458571Y-146855000D01*
X276268095Y-146759761D01*
X275887142Y-146759761D01*
X275696666Y-146855000D01*
X275601428Y-146950238D01*
X275506190Y-147140714D01*
X275506190Y-147235952D01*
X275601428Y-147426428D01*
X275696666Y-147521666D01*
X275887142Y-147616904D01*
X276268095Y-147616904D01*
X276458571Y-147712142D01*
X276553809Y-147807380D01*
X276649047Y-147997857D01*
X276649047Y-148378809D01*
X276553809Y-148569285D01*
X276458571Y-148664523D01*
X276268095Y-148759761D01*
X275887142Y-148759761D01*
X275696666Y-148664523D01*
X275601428Y-148569285D01*
X275506190Y-148378809D01*
X275506190Y-147997857D01*
X275601428Y-147807380D01*
X275696666Y-147712142D01*
X275887142Y-147616904D01*
X279696666Y-208957857D02*
X278172857Y-208957857D01*
X278934761Y-209719761D02*
X278934761Y-208195952D01*
X276172857Y-209719761D02*
X277315714Y-209719761D01*
X276744285Y-209719761D02*
X276744285Y-207719761D01*
X276934761Y-208005476D01*
X277125238Y-208195952D01*
X277315714Y-208291190D01*
X275410952Y-207910238D02*
X275315714Y-207815000D01*
X275125238Y-207719761D01*
X274649047Y-207719761D01*
X274458571Y-207815000D01*
X274363333Y-207910238D01*
X274268095Y-208100714D01*
X274268095Y-208291190D01*
X274363333Y-208576904D01*
X275506190Y-209719761D01*
X274268095Y-209719761D01*
X278553809Y-121550238D02*
X278458571Y-121455000D01*
X278268095Y-121359761D01*
X277791904Y-121359761D01*
X277601428Y-121455000D01*
X277506190Y-121550238D01*
X277410952Y-121740714D01*
X277410952Y-121931190D01*
X277506190Y-122216904D01*
X278649047Y-123359761D01*
X277410952Y-123359761D01*
X276744285Y-121359761D02*
X275506190Y-121359761D01*
X276172857Y-122121666D01*
X275887142Y-122121666D01*
X275696666Y-122216904D01*
X275601428Y-122312142D01*
X275506190Y-122502619D01*
X275506190Y-122978809D01*
X275601428Y-123169285D01*
X275696666Y-123264523D01*
X275887142Y-123359761D01*
X276458571Y-123359761D01*
X276649047Y-123264523D01*
X276744285Y-123169285D01*
X302259047Y-156884761D02*
X301020952Y-156884761D01*
X301687619Y-157646666D01*
X301401904Y-157646666D01*
X301211428Y-157741904D01*
X301116190Y-157837142D01*
X301020952Y-158027619D01*
X301020952Y-158503809D01*
X301116190Y-158694285D01*
X301211428Y-158789523D01*
X301401904Y-158884761D01*
X301973333Y-158884761D01*
X302163809Y-158789523D01*
X302259047Y-158694285D01*
X299878095Y-157741904D02*
X300068571Y-157646666D01*
X300163809Y-157551428D01*
X300259047Y-157360952D01*
X300259047Y-157265714D01*
X300163809Y-157075238D01*
X300068571Y-156980000D01*
X299878095Y-156884761D01*
X299497142Y-156884761D01*
X299306666Y-156980000D01*
X299211428Y-157075238D01*
X299116190Y-157265714D01*
X299116190Y-157360952D01*
X299211428Y-157551428D01*
X299306666Y-157646666D01*
X299497142Y-157741904D01*
X299878095Y-157741904D01*
X300068571Y-157837142D01*
X300163809Y-157932380D01*
X300259047Y-158122857D01*
X300259047Y-158503809D01*
X300163809Y-158694285D01*
X300068571Y-158789523D01*
X299878095Y-158884761D01*
X299497142Y-158884761D01*
X299306666Y-158789523D01*
X299211428Y-158694285D01*
X299116190Y-158503809D01*
X299116190Y-158122857D01*
X299211428Y-157932380D01*
X299306666Y-157837142D01*
X299497142Y-157741904D01*
X262266666Y-66582857D02*
X260742857Y-66582857D01*
X261504761Y-67344761D02*
X261504761Y-65820952D01*
X258742857Y-67344761D02*
X259885714Y-67344761D01*
X259314285Y-67344761D02*
X259314285Y-65344761D01*
X259504761Y-65630476D01*
X259695238Y-65820952D01*
X259885714Y-65916190D01*
X257980952Y-65535238D02*
X257885714Y-65440000D01*
X257695238Y-65344761D01*
X257219047Y-65344761D01*
X257028571Y-65440000D01*
X256933333Y-65535238D01*
X256838095Y-65725714D01*
X256838095Y-65916190D01*
X256933333Y-66201904D01*
X258076190Y-67344761D01*
X256838095Y-67344761D01*
X285019047Y-66111428D02*
X285019047Y-67444761D01*
X285495238Y-65349523D02*
X285971428Y-66778095D01*
X284733333Y-66778095D01*
X278553809Y-126630238D02*
X278458571Y-126535000D01*
X278268095Y-126439761D01*
X277791904Y-126439761D01*
X277601428Y-126535000D01*
X277506190Y-126630238D01*
X277410952Y-126820714D01*
X277410952Y-127011190D01*
X277506190Y-127296904D01*
X278649047Y-128439761D01*
X277410952Y-128439761D01*
X275696666Y-127106428D02*
X275696666Y-128439761D01*
X276172857Y-126344523D02*
X276649047Y-127773095D01*
X275410952Y-127773095D01*
X262393809Y-116335238D02*
X262298571Y-116240000D01*
X262108095Y-116144761D01*
X261631904Y-116144761D01*
X261441428Y-116240000D01*
X261346190Y-116335238D01*
X261250952Y-116525714D01*
X261250952Y-116716190D01*
X261346190Y-117001904D01*
X262489047Y-118144761D01*
X261250952Y-118144761D01*
X260489047Y-116335238D02*
X260393809Y-116240000D01*
X260203333Y-116144761D01*
X259727142Y-116144761D01*
X259536666Y-116240000D01*
X259441428Y-116335238D01*
X259346190Y-116525714D01*
X259346190Y-116716190D01*
X259441428Y-117001904D01*
X260584285Y-118144761D01*
X259346190Y-118144761D01*
X302259047Y-136564761D02*
X301020952Y-136564761D01*
X301687619Y-137326666D01*
X301401904Y-137326666D01*
X301211428Y-137421904D01*
X301116190Y-137517142D01*
X301020952Y-137707619D01*
X301020952Y-138183809D01*
X301116190Y-138374285D01*
X301211428Y-138469523D01*
X301401904Y-138564761D01*
X301973333Y-138564761D01*
X302163809Y-138469523D01*
X302259047Y-138374285D01*
X299306666Y-137231428D02*
X299306666Y-138564761D01*
X299782857Y-136469523D02*
X300259047Y-137898095D01*
X299020952Y-137898095D01*
X285780952Y-123324761D02*
X286923809Y-123324761D01*
X286352380Y-123324761D02*
X286352380Y-121324761D01*
X286542857Y-121610476D01*
X286733333Y-121800952D01*
X286923809Y-121896190D01*
X283971428Y-121324761D02*
X284923809Y-121324761D01*
X285019047Y-122277142D01*
X284923809Y-122181904D01*
X284733333Y-122086666D01*
X284257142Y-122086666D01*
X284066666Y-122181904D01*
X283971428Y-122277142D01*
X283876190Y-122467619D01*
X283876190Y-122943809D01*
X283971428Y-123134285D01*
X284066666Y-123229523D01*
X284257142Y-123324761D01*
X284733333Y-123324761D01*
X284923809Y-123229523D01*
X285019047Y-123134285D01*
X301306666Y-80684761D02*
X299973333Y-80684761D01*
X300830476Y-82684761D01*
X262266666Y-203742857D02*
X260742857Y-203742857D01*
X261504761Y-204504761D02*
X261504761Y-202980952D01*
X258742857Y-204504761D02*
X259885714Y-204504761D01*
X259314285Y-204504761D02*
X259314285Y-202504761D01*
X259504761Y-202790476D01*
X259695238Y-202980952D01*
X259885714Y-203076190D01*
X257980952Y-202695238D02*
X257885714Y-202600000D01*
X257695238Y-202504761D01*
X257219047Y-202504761D01*
X257028571Y-202600000D01*
X256933333Y-202695238D01*
X256838095Y-202885714D01*
X256838095Y-203076190D01*
X256933333Y-203361904D01*
X258076190Y-204504761D01*
X256838095Y-204504761D01*
X278553809Y-172255000D02*
X278744285Y-172159761D01*
X279030000Y-172159761D01*
X279315714Y-172255000D01*
X279506190Y-172445476D01*
X279601428Y-172635952D01*
X279696666Y-173016904D01*
X279696666Y-173302619D01*
X279601428Y-173683571D01*
X279506190Y-173874047D01*
X279315714Y-174064523D01*
X279030000Y-174159761D01*
X278839523Y-174159761D01*
X278553809Y-174064523D01*
X278458571Y-173969285D01*
X278458571Y-173302619D01*
X278839523Y-173302619D01*
X277601428Y-174159761D02*
X277601428Y-172159761D01*
X276458571Y-174159761D01*
X276458571Y-172159761D01*
X275506190Y-174159761D02*
X275506190Y-172159761D01*
X275030000Y-172159761D01*
X274744285Y-172255000D01*
X274553809Y-172445476D01*
X274458571Y-172635952D01*
X274363333Y-173016904D01*
X274363333Y-173302619D01*
X274458571Y-173683571D01*
X274553809Y-173874047D01*
X274744285Y-174064523D01*
X275030000Y-174159761D01*
X275506190Y-174159761D01*
X301211428Y-167711428D02*
X301211428Y-169044761D01*
X301687619Y-166949523D02*
X302163809Y-168378095D01*
X300925714Y-168378095D01*
X299782857Y-167044761D02*
X299592380Y-167044761D01*
X299401904Y-167140000D01*
X299306666Y-167235238D01*
X299211428Y-167425714D01*
X299116190Y-167806666D01*
X299116190Y-168282857D01*
X299211428Y-168663809D01*
X299306666Y-168854285D01*
X299401904Y-168949523D01*
X299592380Y-169044761D01*
X299782857Y-169044761D01*
X299973333Y-168949523D01*
X300068571Y-168854285D01*
X300163809Y-168663809D01*
X300259047Y-168282857D01*
X300259047Y-167806666D01*
X300163809Y-167425714D01*
X300068571Y-167235238D01*
X299973333Y-167140000D01*
X299782857Y-167044761D01*
X261123809Y-187360000D02*
X261314285Y-187264761D01*
X261600000Y-187264761D01*
X261885714Y-187360000D01*
X262076190Y-187550476D01*
X262171428Y-187740952D01*
X262266666Y-188121904D01*
X262266666Y-188407619D01*
X262171428Y-188788571D01*
X262076190Y-188979047D01*
X261885714Y-189169523D01*
X261600000Y-189264761D01*
X261409523Y-189264761D01*
X261123809Y-189169523D01*
X261028571Y-189074285D01*
X261028571Y-188407619D01*
X261409523Y-188407619D01*
X260171428Y-189264761D02*
X260171428Y-187264761D01*
X259028571Y-189264761D01*
X259028571Y-187264761D01*
X258076190Y-189264761D02*
X258076190Y-187264761D01*
X257600000Y-187264761D01*
X257314285Y-187360000D01*
X257123809Y-187550476D01*
X257028571Y-187740952D01*
X256933333Y-188121904D01*
X256933333Y-188407619D01*
X257028571Y-188788571D01*
X257123809Y-188979047D01*
X257314285Y-189169523D01*
X257600000Y-189264761D01*
X258076190Y-189264761D01*
X262393809Y-131575238D02*
X262298571Y-131480000D01*
X262108095Y-131384761D01*
X261631904Y-131384761D01*
X261441428Y-131480000D01*
X261346190Y-131575238D01*
X261250952Y-131765714D01*
X261250952Y-131956190D01*
X261346190Y-132241904D01*
X262489047Y-133384761D01*
X261250952Y-133384761D01*
X259441428Y-131384761D02*
X260393809Y-131384761D01*
X260489047Y-132337142D01*
X260393809Y-132241904D01*
X260203333Y-132146666D01*
X259727142Y-132146666D01*
X259536666Y-132241904D01*
X259441428Y-132337142D01*
X259346190Y-132527619D01*
X259346190Y-133003809D01*
X259441428Y-133194285D01*
X259536666Y-133289523D01*
X259727142Y-133384761D01*
X260203333Y-133384761D01*
X260393809Y-133289523D01*
X260489047Y-133194285D01*
X302259047Y-131484761D02*
X301020952Y-131484761D01*
X301687619Y-132246666D01*
X301401904Y-132246666D01*
X301211428Y-132341904D01*
X301116190Y-132437142D01*
X301020952Y-132627619D01*
X301020952Y-133103809D01*
X301116190Y-133294285D01*
X301211428Y-133389523D01*
X301401904Y-133484761D01*
X301973333Y-133484761D01*
X302163809Y-133389523D01*
X302259047Y-133294285D01*
X300354285Y-131484761D02*
X299116190Y-131484761D01*
X299782857Y-132246666D01*
X299497142Y-132246666D01*
X299306666Y-132341904D01*
X299211428Y-132437142D01*
X299116190Y-132627619D01*
X299116190Y-133103809D01*
X299211428Y-133294285D01*
X299306666Y-133389523D01*
X299497142Y-133484761D01*
X300068571Y-133484761D01*
X300259047Y-133389523D01*
X300354285Y-133294285D01*
X262393809Y-151895238D02*
X262298571Y-151800000D01*
X262108095Y-151704761D01*
X261631904Y-151704761D01*
X261441428Y-151800000D01*
X261346190Y-151895238D01*
X261250952Y-152085714D01*
X261250952Y-152276190D01*
X261346190Y-152561904D01*
X262489047Y-153704761D01*
X261250952Y-153704761D01*
X260298571Y-153704761D02*
X259917619Y-153704761D01*
X259727142Y-153609523D01*
X259631904Y-153514285D01*
X259441428Y-153228571D01*
X259346190Y-152847619D01*
X259346190Y-152085714D01*
X259441428Y-151895238D01*
X259536666Y-151800000D01*
X259727142Y-151704761D01*
X260108095Y-151704761D01*
X260298571Y-151800000D01*
X260393809Y-151895238D01*
X260489047Y-152085714D01*
X260489047Y-152561904D01*
X260393809Y-152752380D01*
X260298571Y-152847619D01*
X260108095Y-152942857D01*
X259727142Y-152942857D01*
X259536666Y-152847619D01*
X259441428Y-152752380D01*
X259346190Y-152561904D01*
X285780952Y-97924761D02*
X286923809Y-97924761D01*
X286352380Y-97924761D02*
X286352380Y-95924761D01*
X286542857Y-96210476D01*
X286733333Y-96400952D01*
X286923809Y-96496190D01*
X284542857Y-95924761D02*
X284352380Y-95924761D01*
X284161904Y-96020000D01*
X284066666Y-96115238D01*
X283971428Y-96305714D01*
X283876190Y-96686666D01*
X283876190Y-97162857D01*
X283971428Y-97543809D01*
X284066666Y-97734285D01*
X284161904Y-97829523D01*
X284352380Y-97924761D01*
X284542857Y-97924761D01*
X284733333Y-97829523D01*
X284828571Y-97734285D01*
X284923809Y-97543809D01*
X285019047Y-97162857D01*
X285019047Y-96686666D01*
X284923809Y-96305714D01*
X284828571Y-96115238D01*
X284733333Y-96020000D01*
X284542857Y-95924761D01*
X285971428Y-193111428D02*
X285971428Y-194444761D01*
X286447619Y-192349523D02*
X286923809Y-193778095D01*
X285685714Y-193778095D01*
X283971428Y-192444761D02*
X284923809Y-192444761D01*
X285019047Y-193397142D01*
X284923809Y-193301904D01*
X284733333Y-193206666D01*
X284257142Y-193206666D01*
X284066666Y-193301904D01*
X283971428Y-193397142D01*
X283876190Y-193587619D01*
X283876190Y-194063809D01*
X283971428Y-194254285D01*
X284066666Y-194349523D01*
X284257142Y-194444761D01*
X284733333Y-194444761D01*
X284923809Y-194349523D01*
X285019047Y-194254285D01*
X284828571Y-52204761D02*
X285971428Y-52204761D01*
X285400000Y-52204761D02*
X285400000Y-50204761D01*
X285590476Y-50490476D01*
X285780952Y-50680952D01*
X285971428Y-50776190D01*
X278553809Y-187495000D02*
X278744285Y-187399761D01*
X279030000Y-187399761D01*
X279315714Y-187495000D01*
X279506190Y-187685476D01*
X279601428Y-187875952D01*
X279696666Y-188256904D01*
X279696666Y-188542619D01*
X279601428Y-188923571D01*
X279506190Y-189114047D01*
X279315714Y-189304523D01*
X279030000Y-189399761D01*
X278839523Y-189399761D01*
X278553809Y-189304523D01*
X278458571Y-189209285D01*
X278458571Y-188542619D01*
X278839523Y-188542619D01*
X277601428Y-189399761D02*
X277601428Y-187399761D01*
X276458571Y-189399761D01*
X276458571Y-187399761D01*
X275506190Y-189399761D02*
X275506190Y-187399761D01*
X275030000Y-187399761D01*
X274744285Y-187495000D01*
X274553809Y-187685476D01*
X274458571Y-187875952D01*
X274363333Y-188256904D01*
X274363333Y-188542619D01*
X274458571Y-188923571D01*
X274553809Y-189114047D01*
X274744285Y-189304523D01*
X275030000Y-189399761D01*
X275506190Y-189399761D01*
X261123809Y-75600000D02*
X261314285Y-75504761D01*
X261600000Y-75504761D01*
X261885714Y-75600000D01*
X262076190Y-75790476D01*
X262171428Y-75980952D01*
X262266666Y-76361904D01*
X262266666Y-76647619D01*
X262171428Y-77028571D01*
X262076190Y-77219047D01*
X261885714Y-77409523D01*
X261600000Y-77504761D01*
X261409523Y-77504761D01*
X261123809Y-77409523D01*
X261028571Y-77314285D01*
X261028571Y-76647619D01*
X261409523Y-76647619D01*
X260171428Y-77504761D02*
X260171428Y-75504761D01*
X259028571Y-77504761D01*
X259028571Y-75504761D01*
X258076190Y-77504761D02*
X258076190Y-75504761D01*
X257600000Y-75504761D01*
X257314285Y-75600000D01*
X257123809Y-75790476D01*
X257028571Y-75980952D01*
X256933333Y-76361904D01*
X256933333Y-76647619D01*
X257028571Y-77028571D01*
X257123809Y-77219047D01*
X257314285Y-77409523D01*
X257600000Y-77504761D01*
X258076190Y-77504761D01*
X287019047Y-156884761D02*
X285780952Y-156884761D01*
X286447619Y-157646666D01*
X286161904Y-157646666D01*
X285971428Y-157741904D01*
X285876190Y-157837142D01*
X285780952Y-158027619D01*
X285780952Y-158503809D01*
X285876190Y-158694285D01*
X285971428Y-158789523D01*
X286161904Y-158884761D01*
X286733333Y-158884761D01*
X286923809Y-158789523D01*
X287019047Y-158694285D01*
X284638095Y-157741904D02*
X284828571Y-157646666D01*
X284923809Y-157551428D01*
X285019047Y-157360952D01*
X285019047Y-157265714D01*
X284923809Y-157075238D01*
X284828571Y-156980000D01*
X284638095Y-156884761D01*
X284257142Y-156884761D01*
X284066666Y-156980000D01*
X283971428Y-157075238D01*
X283876190Y-157265714D01*
X283876190Y-157360952D01*
X283971428Y-157551428D01*
X284066666Y-157646666D01*
X284257142Y-157741904D01*
X284638095Y-157741904D01*
X284828571Y-157837142D01*
X284923809Y-157932380D01*
X285019047Y-158122857D01*
X285019047Y-158503809D01*
X284923809Y-158694285D01*
X284828571Y-158789523D01*
X284638095Y-158884761D01*
X284257142Y-158884761D01*
X284066666Y-158789523D01*
X283971428Y-158694285D01*
X283876190Y-158503809D01*
X283876190Y-158122857D01*
X283971428Y-157932380D01*
X284066666Y-157837142D01*
X284257142Y-157741904D01*
X301211428Y-177871428D02*
X301211428Y-179204761D01*
X301687619Y-177109523D02*
X302163809Y-178538095D01*
X300925714Y-178538095D01*
X300259047Y-177395238D02*
X300163809Y-177300000D01*
X299973333Y-177204761D01*
X299497142Y-177204761D01*
X299306666Y-177300000D01*
X299211428Y-177395238D01*
X299116190Y-177585714D01*
X299116190Y-177776190D01*
X299211428Y-178061904D01*
X300354285Y-179204761D01*
X299116190Y-179204761D01*
X285971428Y-172791428D02*
X285971428Y-174124761D01*
X286447619Y-172029523D02*
X286923809Y-173458095D01*
X285685714Y-173458095D01*
X283876190Y-174124761D02*
X285019047Y-174124761D01*
X284447619Y-174124761D02*
X284447619Y-172124761D01*
X284638095Y-172410476D01*
X284828571Y-172600952D01*
X285019047Y-172696190D01*
X301020952Y-123324761D02*
X302163809Y-123324761D01*
X301592380Y-123324761D02*
X301592380Y-121324761D01*
X301782857Y-121610476D01*
X301973333Y-121800952D01*
X302163809Y-121896190D01*
X299211428Y-121324761D02*
X300163809Y-121324761D01*
X300259047Y-122277142D01*
X300163809Y-122181904D01*
X299973333Y-122086666D01*
X299497142Y-122086666D01*
X299306666Y-122181904D01*
X299211428Y-122277142D01*
X299116190Y-122467619D01*
X299116190Y-122943809D01*
X299211428Y-123134285D01*
X299306666Y-123229523D01*
X299497142Y-123324761D01*
X299973333Y-123324761D01*
X300163809Y-123229523D01*
X300259047Y-123134285D01*
M02*
