%TF.GenerationSoftware,KiCad,Pcbnew,(5.99.0-10483-ga6ad7a4a70)*%
%TF.CreationDate,2021-07-29T00:24:03+03:00*%
%TF.ProjectId,digital_inputs,64696769-7461-46c5-9f69-6e707574732e,rev?*%
%TF.SameCoordinates,Original*%
%TF.FileFunction,Soldermask,Bot*%
%TF.FilePolarity,Negative*%
%FSLAX46Y46*%
G04 Gerber Fmt 4.6, Leading zero omitted, Abs format (unit mm)*
G04 Created by KiCad (PCBNEW (5.99.0-10483-ga6ad7a4a70)) date 2021-07-29 00:24:03*
%MOMM*%
%LPD*%
G01*
G04 APERTURE LIST*
%ADD10R,2.550000X2.550000*%
%ADD11C,0.800000*%
%ADD12C,6.400000*%
%ADD13R,2.600000X2.600000*%
%ADD14C,2.600000*%
%ADD15R,1.530000X1.530000*%
%ADD16C,1.530000*%
%ADD17C,3.200000*%
G04 APERTURE END LIST*
D10*
%TO.C,J4*%
X248580000Y-208780000D03*
%TD*%
D11*
%TO.C,J12*%
X208000000Y-206100000D03*
X206302944Y-206802944D03*
X205600000Y-208500000D03*
X206302944Y-210197056D03*
D12*
X208000000Y-208500000D03*
D11*
X209697056Y-210197056D03*
X209697056Y-206802944D03*
X210400000Y-208500000D03*
X208000000Y-210900000D03*
%TD*%
D13*
%TO.C,J6*%
X267925000Y-188459999D03*
D14*
X267925000Y-183379999D03*
X267925000Y-178299999D03*
X267925000Y-173219999D03*
%TD*%
D13*
%TO.C,J5*%
X167005000Y-203835000D03*
D14*
X172085000Y-203835000D03*
%TD*%
D11*
%TO.C,J10*%
X206100000Y-129500000D03*
X210900000Y-129500000D03*
X210197056Y-131197056D03*
X208500000Y-131900000D03*
X206802944Y-131197056D03*
D12*
X208500000Y-129500000D03*
D11*
X206802944Y-127802944D03*
X210197056Y-127802944D03*
X208500000Y-127100000D03*
%TD*%
D13*
%TO.C,J7*%
X267925000Y-86860000D03*
D14*
X267925000Y-81780000D03*
X267925000Y-76700000D03*
X267925000Y-71620000D03*
%TD*%
D13*
%TO.C,J8*%
X267925000Y-66540000D03*
D14*
X267925000Y-61460000D03*
X267925000Y-56380000D03*
X267925000Y-51300000D03*
%TD*%
D13*
%TO.C,J3*%
X293020000Y-208780000D03*
D14*
X293020000Y-203700000D03*
X293020000Y-198620000D03*
X293020000Y-193540000D03*
X293020000Y-188460000D03*
X293020000Y-183380000D03*
X293020000Y-178300000D03*
X293020000Y-173220000D03*
X293020000Y-168140000D03*
X293020000Y-163060000D03*
X293020000Y-157980000D03*
X293020000Y-152900000D03*
X293020000Y-147820000D03*
X293020000Y-142740000D03*
X293020000Y-137660000D03*
X293020000Y-132580000D03*
%TD*%
D11*
%TO.C,J16*%
X305914214Y-206100000D03*
D12*
X305914214Y-208500000D03*
D11*
X308314214Y-208500000D03*
X304217158Y-210197056D03*
X307611270Y-206802944D03*
X305914214Y-210900000D03*
X303514214Y-208500000D03*
X304217158Y-206802944D03*
X307611270Y-210197056D03*
%TD*%
%TO.C,J11*%
X304217158Y-52197056D03*
X305914214Y-48100000D03*
X308314214Y-50500000D03*
D12*
X305914214Y-50500000D03*
D11*
X304217158Y-48802944D03*
X305914214Y-52900000D03*
X307611270Y-48802944D03*
X307611270Y-52197056D03*
X303514214Y-50500000D03*
%TD*%
D15*
%TO.C,U11*%
X191090000Y-91816000D03*
D16*
X193630000Y-91816000D03*
X191090000Y-94356000D03*
X193630000Y-94356000D03*
X191090000Y-96896000D03*
X193630000Y-96896000D03*
X191090000Y-99436000D03*
X193630000Y-99436000D03*
X191090000Y-101976000D03*
X193630000Y-101976000D03*
X191090000Y-104516000D03*
X193630000Y-104516000D03*
X191090000Y-107056000D03*
X193630000Y-107056000D03*
X191090000Y-109596000D03*
X193630000Y-109596000D03*
X191090000Y-112136000D03*
X193630000Y-112136000D03*
X191090000Y-114676000D03*
X193630000Y-114676000D03*
D15*
X145370000Y-100960000D03*
D16*
X147910000Y-100960000D03*
X145370000Y-103500000D03*
X147910000Y-103500000D03*
X145370000Y-106040000D03*
X147910000Y-106040000D03*
X145370000Y-108580000D03*
X147910000Y-108580000D03*
X145370000Y-111120000D03*
X147910000Y-111120000D03*
X145370000Y-113660000D03*
X147910000Y-113660000D03*
X145370000Y-116200000D03*
X147910000Y-116200000D03*
X145370000Y-118740000D03*
X147910000Y-118740000D03*
D15*
X145370000Y-123820000D03*
D16*
X147910000Y-123820000D03*
X145370000Y-126360000D03*
X147910000Y-126360000D03*
X145370000Y-128900000D03*
X147910000Y-128900000D03*
X145370000Y-131440000D03*
X147910000Y-131440000D03*
X145370000Y-133980000D03*
X147910000Y-133980000D03*
X145370000Y-136520000D03*
X147910000Y-136520000D03*
X145370000Y-139060000D03*
X147910000Y-139060000D03*
X145370000Y-141600000D03*
X147910000Y-141600000D03*
X145370000Y-144140000D03*
X147910000Y-144140000D03*
X145370000Y-146680000D03*
X147910000Y-146680000D03*
X145370000Y-149220000D03*
X147910000Y-149220000D03*
X145370000Y-151760000D03*
X147910000Y-151760000D03*
X145370000Y-154300000D03*
X147910000Y-154300000D03*
X145370000Y-156840000D03*
X147910000Y-156840000D03*
X145370000Y-159380000D03*
X147910000Y-159380000D03*
D15*
X191090000Y-118740000D03*
D16*
X193630000Y-118740000D03*
X191090000Y-121280000D03*
X193630000Y-121280000D03*
X191090000Y-123820000D03*
X193630000Y-123820000D03*
X191090000Y-126360000D03*
X193630000Y-126360000D03*
X191090000Y-128900000D03*
X193630000Y-128900000D03*
X191090000Y-131440000D03*
X193630000Y-131440000D03*
X191090000Y-133980000D03*
X193630000Y-133980000D03*
X191090000Y-136520000D03*
X193630000Y-136520000D03*
X191090000Y-139060000D03*
X193630000Y-139060000D03*
X191090000Y-141600000D03*
X193630000Y-141600000D03*
X191090000Y-144140000D03*
X193630000Y-144140000D03*
X191090000Y-146680000D03*
X193630000Y-146680000D03*
X191090000Y-149220000D03*
X193630000Y-149220000D03*
X191090000Y-151760000D03*
X193630000Y-151760000D03*
X191090000Y-154300000D03*
X193630000Y-154300000D03*
X191090000Y-156840000D03*
X193630000Y-156840000D03*
X191090000Y-159380000D03*
X193630000Y-159380000D03*
D15*
X137750000Y-90800000D03*
D16*
X140290000Y-90800000D03*
X137750000Y-93340000D03*
X140290000Y-93340000D03*
X137750000Y-95880000D03*
X140290000Y-95880000D03*
X137750000Y-98420000D03*
X140290000Y-98420000D03*
X137750000Y-100960000D03*
X140290000Y-100960000D03*
X137750000Y-103500000D03*
X140290000Y-103500000D03*
X137750000Y-106040000D03*
X140290000Y-106040000D03*
X137750000Y-108580000D03*
X140290000Y-108580000D03*
X137750000Y-111120000D03*
X140290000Y-111120000D03*
X137750000Y-113660000D03*
X140290000Y-113660000D03*
X137750000Y-116200000D03*
X140290000Y-116200000D03*
X137750000Y-118740000D03*
X140290000Y-118740000D03*
X137750000Y-121280000D03*
X140290000Y-121280000D03*
X137750000Y-123820000D03*
X140290000Y-123820000D03*
X137750000Y-126360000D03*
X140290000Y-126360000D03*
X137750000Y-128900000D03*
X140290000Y-128900000D03*
X137750000Y-131440000D03*
X140290000Y-131440000D03*
X137750000Y-133980000D03*
X140290000Y-133980000D03*
X137750000Y-136520000D03*
X140290000Y-136520000D03*
X137750000Y-139060000D03*
X140290000Y-139060000D03*
X137750000Y-141600000D03*
X140290000Y-141600000D03*
X137750000Y-144140000D03*
X140290000Y-144140000D03*
X137750000Y-146680000D03*
X140290000Y-146680000D03*
X137750000Y-149220000D03*
X140290000Y-149220000D03*
X137750000Y-151760000D03*
X140290000Y-151760000D03*
X137750000Y-154300000D03*
X140290000Y-154300000D03*
X137750000Y-156840000D03*
X140290000Y-156840000D03*
X137750000Y-159380000D03*
X140290000Y-159380000D03*
X137750000Y-161920000D03*
X140290000Y-161920000D03*
X137750000Y-164460000D03*
X140290000Y-164460000D03*
X137750000Y-167000000D03*
X140290000Y-167000000D03*
X137750000Y-169540000D03*
X140290000Y-169540000D03*
X137750000Y-172080000D03*
X140290000Y-172080000D03*
X137750000Y-174620000D03*
X140290000Y-174620000D03*
X137750000Y-177160000D03*
X140290000Y-177160000D03*
X137750000Y-179700000D03*
X140290000Y-179700000D03*
D15*
X198710000Y-90820000D03*
D16*
X201250000Y-90820000D03*
X198710000Y-93360000D03*
X201250000Y-93360000D03*
X198710000Y-95900000D03*
X201250000Y-95900000D03*
X198710000Y-98440000D03*
X201250000Y-98440000D03*
X198710000Y-100980000D03*
X201250000Y-100980000D03*
X198710000Y-103520000D03*
X201250000Y-103520000D03*
X198710000Y-106060000D03*
X201250000Y-106060000D03*
X198710000Y-108600000D03*
X201250000Y-108600000D03*
X198710000Y-111140000D03*
X201250000Y-111140000D03*
X198710000Y-113680000D03*
X201250000Y-113680000D03*
X198710000Y-116220000D03*
X201250000Y-116220000D03*
X198710000Y-118760000D03*
X201250000Y-118760000D03*
X198710000Y-121300000D03*
X201250000Y-121300000D03*
X198710000Y-123840000D03*
X201250000Y-123840000D03*
X198710000Y-126380000D03*
X201250000Y-126380000D03*
X198710000Y-128920000D03*
X201250000Y-128920000D03*
X198710000Y-131460000D03*
X201250000Y-131460000D03*
X198710000Y-134000000D03*
X201250000Y-134000000D03*
X198710000Y-136540000D03*
X201250000Y-136540000D03*
X198710000Y-139080000D03*
X201250000Y-139080000D03*
X198710000Y-141620000D03*
X201250000Y-141620000D03*
X198710000Y-144160000D03*
X201250000Y-144160000D03*
X198710000Y-146700000D03*
X201250000Y-146700000D03*
X198710000Y-149240000D03*
X201250000Y-149240000D03*
X198710000Y-151780000D03*
X201250000Y-151780000D03*
X198710000Y-154320000D03*
X201250000Y-154320000D03*
X198710000Y-156860000D03*
X201250000Y-156860000D03*
X198710000Y-159400000D03*
X201250000Y-159400000D03*
X198710000Y-161940000D03*
X201250000Y-161940000D03*
X198710000Y-164480000D03*
X201250000Y-164480000D03*
X198710000Y-167020000D03*
X201250000Y-167020000D03*
X198710000Y-169560000D03*
X201250000Y-169560000D03*
X198710000Y-172100000D03*
X201250000Y-172100000D03*
X198710000Y-174640000D03*
X201250000Y-174640000D03*
X198710000Y-177180000D03*
X201250000Y-177180000D03*
X198710000Y-179720000D03*
X201250000Y-179720000D03*
D17*
X192360000Y-163190000D03*
X178390000Y-139060000D03*
X145370000Y-86990000D03*
X146640000Y-163190000D03*
X193630000Y-88260000D03*
%TD*%
D13*
%TO.C,J1*%
X293020000Y-127500000D03*
D14*
X293020000Y-122420000D03*
X293020000Y-117340000D03*
X293020000Y-112260000D03*
X293020000Y-107180000D03*
X293020000Y-102100000D03*
X293020000Y-97020000D03*
X293020000Y-91940000D03*
X293020000Y-86860000D03*
X293020000Y-81780000D03*
X293020000Y-76700000D03*
X293020000Y-71620000D03*
X293020000Y-66540000D03*
X293020000Y-61460000D03*
X293020000Y-56380000D03*
X293020000Y-51300000D03*
%TD*%
D13*
%TO.C,J2*%
X267925000Y-168140000D03*
D14*
X267925000Y-163060000D03*
X267925000Y-157980000D03*
X267925000Y-152900000D03*
X267925000Y-147820000D03*
X267925000Y-142740000D03*
X267925000Y-137660000D03*
X267925000Y-132580000D03*
X267925000Y-127500000D03*
X267925000Y-122420000D03*
X267925000Y-117340000D03*
X267925000Y-112260000D03*
X267925000Y-107180000D03*
X267925000Y-102100000D03*
X267925000Y-97020000D03*
X267925000Y-91940000D03*
%TD*%
D11*
%TO.C,J13*%
X128802944Y-48802944D03*
X128802944Y-52197056D03*
X132197056Y-52197056D03*
X130500000Y-48100000D03*
X128100000Y-50500000D03*
X130500000Y-52900000D03*
X132900000Y-50500000D03*
D12*
X130500000Y-50500000D03*
D11*
X132197056Y-48802944D03*
%TD*%
%TO.C,J14*%
X208500000Y-52900000D03*
X208500000Y-48100000D03*
X206100000Y-50500000D03*
X210197056Y-52197056D03*
X210197056Y-48802944D03*
X206802944Y-48802944D03*
X210900000Y-50500000D03*
D12*
X208500000Y-50500000D03*
D11*
X206802944Y-52197056D03*
%TD*%
%TO.C,J17*%
X130500000Y-206100000D03*
X130500000Y-210900000D03*
X132900000Y-208500000D03*
D12*
X130500000Y-208500000D03*
D11*
X128100000Y-208500000D03*
X128802944Y-206802944D03*
X132197056Y-206802944D03*
X132197056Y-210197056D03*
X128802944Y-210197056D03*
%TD*%
%TO.C,J15*%
X128802944Y-131197056D03*
X128802944Y-127802944D03*
D12*
X130500000Y-129500000D03*
D11*
X132197056Y-127802944D03*
X128100000Y-129500000D03*
X132197056Y-131197056D03*
X130500000Y-127100000D03*
X130500000Y-131900000D03*
X132900000Y-129500000D03*
%TD*%
D13*
%TO.C,J9*%
X267925000Y-208780000D03*
D14*
X267925000Y-203700000D03*
X267925000Y-198620000D03*
X267925000Y-193540000D03*
%TD*%
M02*
