%TF.GenerationSoftware,KiCad,Pcbnew,(5.99.0-10483-ga6ad7a4a70)*%
%TF.CreationDate,2021-07-25T14:43:05+03:00*%
%TF.ProjectId,digital_inputs,64696769-7461-46c5-9f69-6e707574732e,rev?*%
%TF.SameCoordinates,Original*%
%TF.FileFunction,Paste,Top*%
%TF.FilePolarity,Positive*%
%FSLAX46Y46*%
G04 Gerber Fmt 4.6, Leading zero omitted, Abs format (unit mm)*
G04 Created by KiCad (PCBNEW (5.99.0-10483-ga6ad7a4a70)) date 2021-07-25 14:43:05*
%MOMM*%
%LPD*%
G01*
G04 APERTURE LIST*
G04 Aperture macros list*
%AMRoundRect*
0 Rectangle with rounded corners*
0 $1 Rounding radius*
0 $2 $3 $4 $5 $6 $7 $8 $9 X,Y pos of 4 corners*
0 Add a 4 corners polygon primitive as box body*
4,1,4,$2,$3,$4,$5,$6,$7,$8,$9,$2,$3,0*
0 Add four circle primitives for the rounded corners*
1,1,$1+$1,$2,$3*
1,1,$1+$1,$4,$5*
1,1,$1+$1,$6,$7*
1,1,$1+$1,$8,$9*
0 Add four rect primitives between the rounded corners*
20,1,$1+$1,$2,$3,$4,$5,0*
20,1,$1+$1,$4,$5,$6,$7,0*
20,1,$1+$1,$6,$7,$8,$9,0*
20,1,$1+$1,$8,$9,$2,$3,0*%
G04 Aperture macros list end*
%ADD10RoundRect,0.243750X0.456250X-0.243750X0.456250X0.243750X-0.456250X0.243750X-0.456250X-0.243750X0*%
%ADD11RoundRect,0.250000X0.312500X0.625000X-0.312500X0.625000X-0.312500X-0.625000X0.312500X-0.625000X0*%
%ADD12R,0.500000X0.800000*%
%ADD13R,0.400000X0.800000*%
%ADD14RoundRect,0.200000X-0.200000X-0.275000X0.200000X-0.275000X0.200000X0.275000X-0.200000X0.275000X0*%
%ADD15RoundRect,0.225000X0.225000X0.250000X-0.225000X0.250000X-0.225000X-0.250000X0.225000X-0.250000X0*%
%ADD16RoundRect,0.100000X-0.637500X-0.100000X0.637500X-0.100000X0.637500X0.100000X-0.637500X0.100000X0*%
%ADD17RoundRect,0.250000X0.375000X0.625000X-0.375000X0.625000X-0.375000X-0.625000X0.375000X-0.625000X0*%
%ADD18RoundRect,0.200000X0.200000X0.275000X-0.200000X0.275000X-0.200000X-0.275000X0.200000X-0.275000X0*%
%ADD19RoundRect,0.225000X-0.250000X0.225000X-0.250000X-0.225000X0.250000X-0.225000X0.250000X0.225000X0*%
%ADD20RoundRect,0.150000X-0.150000X0.875000X-0.150000X-0.875000X0.150000X-0.875000X0.150000X0.875000X0*%
%ADD21RoundRect,0.200000X0.275000X-0.200000X0.275000X0.200000X-0.275000X0.200000X-0.275000X-0.200000X0*%
%ADD22R,0.800000X0.500000*%
%ADD23R,0.800000X0.400000*%
%ADD24RoundRect,0.150000X-0.825000X-0.150000X0.825000X-0.150000X0.825000X0.150000X-0.825000X0.150000X0*%
G04 APERTURE END LIST*
D10*
%TO.C,D1*%
X178300000Y-204637500D03*
X178300000Y-202762500D03*
%TD*%
D11*
%TO.C,R1*%
X249112500Y-93940000D03*
X246187500Y-93940000D03*
%TD*%
D12*
%TO.C,RN12*%
X217240000Y-196440000D03*
D13*
X218040000Y-196440000D03*
X218840000Y-196440000D03*
D12*
X219640000Y-196440000D03*
X219640000Y-194640000D03*
D13*
X218840000Y-194640000D03*
X218040000Y-194640000D03*
D12*
X217240000Y-194640000D03*
%TD*%
D14*
%TO.C,R7*%
X222740000Y-159500000D03*
X224390000Y-159500000D03*
%TD*%
D15*
%TO.C,C8*%
X240805000Y-99020000D03*
X239255000Y-99020000D03*
%TD*%
D12*
%TO.C,RN9*%
X219640000Y-174320000D03*
D13*
X218840000Y-174320000D03*
X218040000Y-174320000D03*
D12*
X217240000Y-174320000D03*
X217240000Y-176120000D03*
D13*
X218040000Y-176120000D03*
X218840000Y-176120000D03*
D12*
X219640000Y-176120000D03*
%TD*%
D11*
%TO.C,R12*%
X249112500Y-107910000D03*
X246187500Y-107910000D03*
%TD*%
D16*
%TO.C,U1*%
X230817500Y-155490000D03*
X230817500Y-156140000D03*
X230817500Y-156790000D03*
X230817500Y-157440000D03*
X230817500Y-158090000D03*
X230817500Y-158740000D03*
X230817500Y-159390000D03*
X236542500Y-159390000D03*
X236542500Y-158740000D03*
X236542500Y-158090000D03*
X236542500Y-157440000D03*
X236542500Y-156790000D03*
X236542500Y-156140000D03*
X236542500Y-155490000D03*
%TD*%
D17*
%TO.C,F1*%
X169800000Y-195580000D03*
X167000000Y-195580000D03*
%TD*%
D18*
%TO.C,R11*%
X244560000Y-155400000D03*
X242910000Y-155400000D03*
%TD*%
D15*
%TO.C,C9*%
X240805000Y-109180000D03*
X239255000Y-109180000D03*
%TD*%
D19*
%TO.C,C2*%
X251460000Y-72845000D03*
X251460000Y-74395000D03*
%TD*%
D14*
%TO.C,R5*%
X222695000Y-155400000D03*
X224345000Y-155400000D03*
%TD*%
D20*
%TO.C,U2*%
X248285000Y-66430000D03*
X247015000Y-66430000D03*
X245745000Y-66430000D03*
X244475000Y-66430000D03*
X243205000Y-66430000D03*
X241935000Y-66430000D03*
X240665000Y-66430000D03*
X239395000Y-66430000D03*
X238125000Y-66430000D03*
X236855000Y-66430000D03*
X235585000Y-66430000D03*
X234315000Y-66430000D03*
X234315000Y-75730000D03*
X235585000Y-75730000D03*
X236855000Y-75730000D03*
X238125000Y-75730000D03*
X239395000Y-75730000D03*
X240665000Y-75730000D03*
X241935000Y-75730000D03*
X243205000Y-75730000D03*
X244475000Y-75730000D03*
X245745000Y-75730000D03*
X247015000Y-75730000D03*
X248285000Y-75730000D03*
%TD*%
D12*
%TO.C,RN3*%
X227260000Y-80340000D03*
D13*
X226460000Y-80340000D03*
X225660000Y-80340000D03*
D12*
X224860000Y-80340000D03*
X224860000Y-82140000D03*
D13*
X225660000Y-82140000D03*
X226460000Y-82140000D03*
D12*
X227260000Y-82140000D03*
%TD*%
D20*
%TO.C,U4*%
X248285000Y-180730000D03*
X247015000Y-180730000D03*
X245745000Y-180730000D03*
X244475000Y-180730000D03*
X243205000Y-180730000D03*
X241935000Y-180730000D03*
X240665000Y-180730000D03*
X239395000Y-180730000D03*
X238125000Y-180730000D03*
X236855000Y-180730000D03*
X235585000Y-180730000D03*
X234315000Y-180730000D03*
X234315000Y-190030000D03*
X235585000Y-190030000D03*
X236855000Y-190030000D03*
X238125000Y-190030000D03*
X239395000Y-190030000D03*
X240665000Y-190030000D03*
X241935000Y-190030000D03*
X243205000Y-190030000D03*
X244475000Y-190030000D03*
X245745000Y-190030000D03*
X247015000Y-190030000D03*
X248285000Y-190030000D03*
%TD*%
D12*
%TO.C,RN10*%
X227260000Y-174320000D03*
D13*
X226460000Y-174320000D03*
X225660000Y-174320000D03*
D12*
X224860000Y-174320000D03*
X224860000Y-176120000D03*
D13*
X225660000Y-176120000D03*
X226460000Y-176120000D03*
D12*
X227260000Y-176120000D03*
%TD*%
D19*
%TO.C,C7*%
X231140000Y-187050000D03*
X231140000Y-188600000D03*
%TD*%
D21*
%TO.C,R13*%
X178300000Y-208125000D03*
X178300000Y-206475000D03*
%TD*%
D22*
%TO.C,RN13*%
X225810000Y-97890000D03*
D23*
X225810000Y-97090000D03*
X225810000Y-96290000D03*
D22*
X225810000Y-95490000D03*
X224010000Y-95490000D03*
D23*
X224010000Y-96290000D03*
X224010000Y-97090000D03*
D22*
X224010000Y-97890000D03*
%TD*%
D19*
%TO.C,C6*%
X231140000Y-131225000D03*
X231140000Y-132775000D03*
%TD*%
D15*
%TO.C,C1*%
X234455000Y-161250000D03*
X232905000Y-161250000D03*
%TD*%
D11*
%TO.C,R3*%
X249112500Y-104100000D03*
X246187500Y-104100000D03*
%TD*%
D20*
%TO.C,U5*%
X227965000Y-66430000D03*
X226695000Y-66430000D03*
X225425000Y-66430000D03*
X224155000Y-66430000D03*
X222885000Y-66430000D03*
X221615000Y-66430000D03*
X220345000Y-66430000D03*
X219075000Y-66430000D03*
X217805000Y-66430000D03*
X216535000Y-66430000D03*
X215265000Y-66430000D03*
X213995000Y-66430000D03*
X213995000Y-75730000D03*
X215265000Y-75730000D03*
X216535000Y-75730000D03*
X217805000Y-75730000D03*
X219075000Y-75730000D03*
X220345000Y-75730000D03*
X221615000Y-75730000D03*
X222885000Y-75730000D03*
X224155000Y-75730000D03*
X225425000Y-75730000D03*
X226695000Y-75730000D03*
X227965000Y-75730000D03*
%TD*%
D11*
%TO.C,R2*%
X249112500Y-97750000D03*
X246187500Y-97750000D03*
%TD*%
D12*
%TO.C,RN6*%
X227260000Y-118440000D03*
D13*
X226460000Y-118440000D03*
X225660000Y-118440000D03*
D12*
X224860000Y-118440000D03*
X224860000Y-120240000D03*
D13*
X225660000Y-120240000D03*
X226460000Y-120240000D03*
D12*
X227260000Y-120240000D03*
%TD*%
%TO.C,RN11*%
X224860000Y-196440000D03*
D13*
X225660000Y-196440000D03*
X226460000Y-196440000D03*
D12*
X227260000Y-196440000D03*
X227260000Y-194640000D03*
D13*
X226460000Y-194640000D03*
X225660000Y-194640000D03*
D12*
X224860000Y-194640000D03*
%TD*%
D24*
%TO.C,U10*%
X214695000Y-94575000D03*
X214695000Y-95845000D03*
X214695000Y-97115000D03*
X214695000Y-98385000D03*
X214695000Y-99655000D03*
X214695000Y-100925000D03*
X214695000Y-102195000D03*
X214695000Y-103465000D03*
X219645000Y-103465000D03*
X219645000Y-102195000D03*
X219645000Y-100925000D03*
X219645000Y-99655000D03*
X219645000Y-98385000D03*
X219645000Y-97115000D03*
X219645000Y-95845000D03*
X219645000Y-94575000D03*
%TD*%
D18*
%TO.C,R8*%
X240750000Y-159500000D03*
X239100000Y-159500000D03*
%TD*%
D14*
%TO.C,R6*%
X226550000Y-159500000D03*
X228200000Y-159500000D03*
%TD*%
D24*
%TO.C,U8*%
X237555000Y-93305000D03*
X237555000Y-94575000D03*
X237555000Y-95845000D03*
X237555000Y-97115000D03*
X242505000Y-97115000D03*
X242505000Y-95845000D03*
X242505000Y-94575000D03*
X242505000Y-93305000D03*
%TD*%
D12*
%TO.C,RN2*%
X224860000Y-61820000D03*
D13*
X225660000Y-61820000D03*
X226460000Y-61820000D03*
D12*
X227260000Y-61820000D03*
X227260000Y-60020000D03*
D13*
X226460000Y-60020000D03*
X225660000Y-60020000D03*
D12*
X224860000Y-60020000D03*
%TD*%
D14*
%TO.C,R4*%
X226505000Y-155400000D03*
X228155000Y-155400000D03*
%TD*%
D12*
%TO.C,RN8*%
X217240000Y-140560000D03*
D13*
X218040000Y-140560000D03*
X218840000Y-140560000D03*
D12*
X219640000Y-140560000D03*
X219640000Y-138760000D03*
D13*
X218840000Y-138760000D03*
X218040000Y-138760000D03*
D12*
X217240000Y-138760000D03*
%TD*%
D18*
%TO.C,R10*%
X240750000Y-155400000D03*
X239100000Y-155400000D03*
%TD*%
D20*
%TO.C,U6*%
X227965000Y-124850000D03*
X226695000Y-124850000D03*
X225425000Y-124850000D03*
X224155000Y-124850000D03*
X222885000Y-124850000D03*
X221615000Y-124850000D03*
X220345000Y-124850000D03*
X219075000Y-124850000D03*
X217805000Y-124850000D03*
X216535000Y-124850000D03*
X215265000Y-124850000D03*
X213995000Y-124850000D03*
X213995000Y-134150000D03*
X215265000Y-134150000D03*
X216535000Y-134150000D03*
X217805000Y-134150000D03*
X219075000Y-134150000D03*
X220345000Y-134150000D03*
X221615000Y-134150000D03*
X222885000Y-134150000D03*
X224155000Y-134150000D03*
X225425000Y-134150000D03*
X226695000Y-134150000D03*
X227965000Y-134150000D03*
%TD*%
D12*
%TO.C,RN7*%
X224860000Y-140560000D03*
D13*
X225660000Y-140560000D03*
X226460000Y-140560000D03*
D12*
X227260000Y-140560000D03*
X227260000Y-138760000D03*
D13*
X226460000Y-138760000D03*
X225660000Y-138760000D03*
D12*
X224860000Y-138760000D03*
%TD*%
D20*
%TO.C,U3*%
X248285000Y-124850000D03*
X247015000Y-124850000D03*
X245745000Y-124850000D03*
X244475000Y-124850000D03*
X243205000Y-124850000D03*
X241935000Y-124850000D03*
X240665000Y-124850000D03*
X239395000Y-124850000D03*
X238125000Y-124850000D03*
X236855000Y-124850000D03*
X235585000Y-124850000D03*
X234315000Y-124850000D03*
X234315000Y-134150000D03*
X235585000Y-134150000D03*
X236855000Y-134150000D03*
X238125000Y-134150000D03*
X239395000Y-134150000D03*
X240665000Y-134150000D03*
X241935000Y-134150000D03*
X243205000Y-134150000D03*
X244475000Y-134150000D03*
X245745000Y-134150000D03*
X247015000Y-134150000D03*
X248285000Y-134150000D03*
%TD*%
D12*
%TO.C,RN5*%
X219640000Y-118440000D03*
D13*
X218840000Y-118440000D03*
X218040000Y-118440000D03*
D12*
X217240000Y-118440000D03*
X217240000Y-120240000D03*
D13*
X218040000Y-120240000D03*
X218840000Y-120240000D03*
D12*
X219640000Y-120240000D03*
%TD*%
D19*
%TO.C,C4*%
X251460000Y-187145000D03*
X251460000Y-188695000D03*
%TD*%
D12*
%TO.C,RN4*%
X219640000Y-80340000D03*
D13*
X218840000Y-80340000D03*
X218040000Y-80340000D03*
D12*
X217240000Y-80340000D03*
X217240000Y-82140000D03*
D13*
X218040000Y-82140000D03*
X218840000Y-82140000D03*
D12*
X219640000Y-82140000D03*
%TD*%
D20*
%TO.C,U7*%
X227965000Y-180730000D03*
X226695000Y-180730000D03*
X225425000Y-180730000D03*
X224155000Y-180730000D03*
X222885000Y-180730000D03*
X221615000Y-180730000D03*
X220345000Y-180730000D03*
X219075000Y-180730000D03*
X217805000Y-180730000D03*
X216535000Y-180730000D03*
X215265000Y-180730000D03*
X213995000Y-180730000D03*
X213995000Y-190030000D03*
X215265000Y-190030000D03*
X216535000Y-190030000D03*
X217805000Y-190030000D03*
X219075000Y-190030000D03*
X220345000Y-190030000D03*
X221615000Y-190030000D03*
X222885000Y-190030000D03*
X224155000Y-190030000D03*
X225425000Y-190030000D03*
X226695000Y-190030000D03*
X227965000Y-190030000D03*
%TD*%
D19*
%TO.C,C5*%
X231140000Y-72750000D03*
X231140000Y-74300000D03*
%TD*%
D22*
%TO.C,RN14*%
X225810000Y-104240000D03*
D23*
X225810000Y-103440000D03*
X225810000Y-102640000D03*
D22*
X225810000Y-101840000D03*
X224010000Y-101840000D03*
D23*
X224010000Y-102640000D03*
X224010000Y-103440000D03*
D22*
X224010000Y-104240000D03*
%TD*%
D24*
%TO.C,U9*%
X237555000Y-103465000D03*
X237555000Y-104735000D03*
X237555000Y-106005000D03*
X237555000Y-107275000D03*
X242505000Y-107275000D03*
X242505000Y-106005000D03*
X242505000Y-104735000D03*
X242505000Y-103465000D03*
%TD*%
D18*
%TO.C,R9*%
X244560000Y-159500000D03*
X242910000Y-159500000D03*
%TD*%
D19*
%TO.C,C3*%
X251500000Y-131125000D03*
X251500000Y-132675000D03*
%TD*%
D12*
%TO.C,RN1*%
X217240000Y-61820000D03*
D13*
X218040000Y-61820000D03*
X218840000Y-61820000D03*
D12*
X219640000Y-61820000D03*
X219640000Y-60020000D03*
D13*
X218840000Y-60020000D03*
X218040000Y-60020000D03*
D12*
X217240000Y-60020000D03*
%TD*%
M02*
