G04 #@! TF.GenerationSoftware,KiCad,Pcbnew,7.0.7-7.0.7~ubuntu22.04.1*
G04 #@! TF.CreationDate,2023-08-21T19:34:13+00:00*
G04 #@! TF.ProjectId,digital_inputs,64696769-7461-46c5-9f69-6e707574732e,rev?*
G04 #@! TF.SameCoordinates,PX791ddc0PYca2dd00*
G04 #@! TF.FileFunction,Paste,Top*
G04 #@! TF.FilePolarity,Positive*
%FSLAX46Y46*%
G04 Gerber Fmt 4.6, Leading zero omitted, Abs format (unit mm)*
G04 Created by KiCad (PCBNEW 7.0.7-7.0.7~ubuntu22.04.1) date 2023-08-21 19:34:13*
%MOMM*%
%LPD*%
G01*
G04 APERTURE LIST*
%ADD10R,0.500000X0.800000*%
%ADD11R,0.400000X0.800000*%
%ADD12R,0.800000X0.500000*%
%ADD13R,0.800000X0.400000*%
G04 APERTURE END LIST*
G04 #@! TO.C,R38*
G36*
G01*
X166025000Y15475000D02*
X166025000Y14925000D01*
G75*
G02*
X165825000Y14725000I-200000J0D01*
G01*
X165425000Y14725000D01*
G75*
G02*
X165225000Y14925000I0J200000D01*
G01*
X165225000Y15475000D01*
G75*
G02*
X165425000Y15675000I200000J0D01*
G01*
X165825000Y15675000D01*
G75*
G02*
X166025000Y15475000I0J-200000D01*
G01*
G37*
G36*
G01*
X164375000Y15475000D02*
X164375000Y14925000D01*
G75*
G02*
X164175000Y14725000I-200000J0D01*
G01*
X163775000Y14725000D01*
G75*
G02*
X163575000Y14925000I0J200000D01*
G01*
X163575000Y15475000D01*
G75*
G02*
X163775000Y15675000I200000J0D01*
G01*
X164175000Y15675000D01*
G75*
G02*
X164375000Y15475000I0J-200000D01*
G01*
G37*
G04 #@! TD*
G04 #@! TO.C,F6*
G36*
G01*
X149775000Y152575000D02*
X149775000Y153825000D01*
G75*
G02*
X150025000Y154075000I250000J0D01*
G01*
X150775000Y154075000D01*
G75*
G02*
X151025000Y153825000I0J-250000D01*
G01*
X151025000Y152575000D01*
G75*
G02*
X150775000Y152325000I-250000J0D01*
G01*
X150025000Y152325000D01*
G75*
G02*
X149775000Y152575000I0J250000D01*
G01*
G37*
G36*
G01*
X152575000Y152575000D02*
X152575000Y153825000D01*
G75*
G02*
X152825000Y154075000I250000J0D01*
G01*
X153575000Y154075000D01*
G75*
G02*
X153825000Y153825000I0J-250000D01*
G01*
X153825000Y152575000D01*
G75*
G02*
X153575000Y152325000I-250000J0D01*
G01*
X152825000Y152325000D01*
G75*
G02*
X152575000Y152575000I0J250000D01*
G01*
G37*
G04 #@! TD*
G04 #@! TO.C,R59*
G36*
G01*
X172050000Y156875000D02*
X172050000Y156325000D01*
G75*
G02*
X171850000Y156125000I-200000J0D01*
G01*
X171450000Y156125000D01*
G75*
G02*
X171250000Y156325000I0J200000D01*
G01*
X171250000Y156875000D01*
G75*
G02*
X171450000Y157075000I200000J0D01*
G01*
X171850000Y157075000D01*
G75*
G02*
X172050000Y156875000I0J-200000D01*
G01*
G37*
G36*
G01*
X170400000Y156875000D02*
X170400000Y156325000D01*
G75*
G02*
X170200000Y156125000I-200000J0D01*
G01*
X169800000Y156125000D01*
G75*
G02*
X169600000Y156325000I0J200000D01*
G01*
X169600000Y156875000D01*
G75*
G02*
X169800000Y157075000I200000J0D01*
G01*
X170200000Y157075000D01*
G75*
G02*
X170400000Y156875000I0J-200000D01*
G01*
G37*
G04 #@! TD*
G04 #@! TO.C,R41*
G36*
G01*
X159500000Y40275000D02*
X158950000Y40275000D01*
G75*
G02*
X158750000Y40475000I0J200000D01*
G01*
X158750000Y40875000D01*
G75*
G02*
X158950000Y41075000I200000J0D01*
G01*
X159500000Y41075000D01*
G75*
G02*
X159700000Y40875000I0J-200000D01*
G01*
X159700000Y40475000D01*
G75*
G02*
X159500000Y40275000I-200000J0D01*
G01*
G37*
G36*
G01*
X159500000Y41925000D02*
X158950000Y41925000D01*
G75*
G02*
X158750000Y42125000I0J200000D01*
G01*
X158750000Y42525000D01*
G75*
G02*
X158950000Y42725000I200000J0D01*
G01*
X159500000Y42725000D01*
G75*
G02*
X159700000Y42525000I0J-200000D01*
G01*
X159700000Y42125000D01*
G75*
G02*
X159500000Y41925000I-200000J0D01*
G01*
G37*
G04 #@! TD*
G04 #@! TO.C,Q3*
G36*
G01*
X143787500Y146771430D02*
X143787500Y147071430D01*
G75*
G02*
X143937500Y147221430I150000J0D01*
G01*
X145112500Y147221430D01*
G75*
G02*
X145262500Y147071430I0J-150000D01*
G01*
X145262500Y146771430D01*
G75*
G02*
X145112500Y146621430I-150000J0D01*
G01*
X143937500Y146621430D01*
G75*
G02*
X143787500Y146771430I0J150000D01*
G01*
G37*
G36*
G01*
X145662500Y145821430D02*
X145662500Y146121430D01*
G75*
G02*
X145812500Y146271430I150000J0D01*
G01*
X146987500Y146271430D01*
G75*
G02*
X147137500Y146121430I0J-150000D01*
G01*
X147137500Y145821430D01*
G75*
G02*
X146987500Y145671430I-150000J0D01*
G01*
X145812500Y145671430D01*
G75*
G02*
X145662500Y145821430I0J150000D01*
G01*
G37*
G36*
G01*
X143787500Y144871430D02*
X143787500Y145171430D01*
G75*
G02*
X143937500Y145321430I150000J0D01*
G01*
X145112500Y145321430D01*
G75*
G02*
X145262500Y145171430I0J-150000D01*
G01*
X145262500Y144871430D01*
G75*
G02*
X145112500Y144721430I-150000J0D01*
G01*
X143937500Y144721430D01*
G75*
G02*
X143787500Y144871430I0J150000D01*
G01*
G37*
G04 #@! TD*
G04 #@! TO.C,D1*
G36*
G01*
X51756250Y6875000D02*
X50843750Y6875000D01*
G75*
G02*
X50600000Y7118750I0J243750D01*
G01*
X50600000Y7606250D01*
G75*
G02*
X50843750Y7850000I243750J0D01*
G01*
X51756250Y7850000D01*
G75*
G02*
X52000000Y7606250I0J-243750D01*
G01*
X52000000Y7118750D01*
G75*
G02*
X51756250Y6875000I-243750J0D01*
G01*
G37*
G36*
G01*
X51756250Y8750000D02*
X50843750Y8750000D01*
G75*
G02*
X50600000Y8993750I0J243750D01*
G01*
X50600000Y9481250D01*
G75*
G02*
X50843750Y9725000I243750J0D01*
G01*
X51756250Y9725000D01*
G75*
G02*
X52000000Y9481250I0J-243750D01*
G01*
X52000000Y8993750D01*
G75*
G02*
X51756250Y8750000I-243750J0D01*
G01*
G37*
G04 #@! TD*
G04 #@! TO.C,R44*
G36*
G01*
X166025000Y9275000D02*
X166025000Y8725000D01*
G75*
G02*
X165825000Y8525000I-200000J0D01*
G01*
X165425000Y8525000D01*
G75*
G02*
X165225000Y8725000I0J200000D01*
G01*
X165225000Y9275000D01*
G75*
G02*
X165425000Y9475000I200000J0D01*
G01*
X165825000Y9475000D01*
G75*
G02*
X166025000Y9275000I0J-200000D01*
G01*
G37*
G36*
G01*
X164375000Y9275000D02*
X164375000Y8725000D01*
G75*
G02*
X164175000Y8525000I-200000J0D01*
G01*
X163775000Y8525000D01*
G75*
G02*
X163575000Y8725000I0J200000D01*
G01*
X163575000Y9275000D01*
G75*
G02*
X163775000Y9475000I200000J0D01*
G01*
X164175000Y9475000D01*
G75*
G02*
X164375000Y9275000I0J-200000D01*
G01*
G37*
G04 #@! TD*
G04 #@! TO.C,R34*
G36*
G01*
X161475000Y160825000D02*
X161475000Y161375000D01*
G75*
G02*
X161675000Y161575000I200000J0D01*
G01*
X162075000Y161575000D01*
G75*
G02*
X162275000Y161375000I0J-200000D01*
G01*
X162275000Y160825000D01*
G75*
G02*
X162075000Y160625000I-200000J0D01*
G01*
X161675000Y160625000D01*
G75*
G02*
X161475000Y160825000I0J200000D01*
G01*
G37*
G36*
G01*
X163125000Y160825000D02*
X163125000Y161375000D01*
G75*
G02*
X163325000Y161575000I200000J0D01*
G01*
X163725000Y161575000D01*
G75*
G02*
X163925000Y161375000I0J-200000D01*
G01*
X163925000Y160825000D01*
G75*
G02*
X163725000Y160625000I-200000J0D01*
G01*
X163325000Y160625000D01*
G75*
G02*
X163125000Y160825000I0J200000D01*
G01*
G37*
G04 #@! TD*
G04 #@! TO.C,F2*
G36*
G01*
X149775000Y138117860D02*
X149775000Y139367860D01*
G75*
G02*
X150025000Y139617860I250000J0D01*
G01*
X150775000Y139617860D01*
G75*
G02*
X151025000Y139367860I0J-250000D01*
G01*
X151025000Y138117860D01*
G75*
G02*
X150775000Y137867860I-250000J0D01*
G01*
X150025000Y137867860D01*
G75*
G02*
X149775000Y138117860I0J250000D01*
G01*
G37*
G36*
G01*
X152575000Y138117860D02*
X152575000Y139367860D01*
G75*
G02*
X152825000Y139617860I250000J0D01*
G01*
X153575000Y139617860D01*
G75*
G02*
X153825000Y139367860I0J-250000D01*
G01*
X153825000Y138117860D01*
G75*
G02*
X153575000Y137867860I-250000J0D01*
G01*
X152825000Y137867860D01*
G75*
G02*
X152575000Y138117860I0J250000D01*
G01*
G37*
G04 #@! TD*
G04 #@! TO.C,C12*
G36*
G01*
X138950000Y160425000D02*
X139450000Y160425000D01*
G75*
G02*
X139675000Y160200000I0J-225000D01*
G01*
X139675000Y159750000D01*
G75*
G02*
X139450000Y159525000I-225000J0D01*
G01*
X138950000Y159525000D01*
G75*
G02*
X138725000Y159750000I0J225000D01*
G01*
X138725000Y160200000D01*
G75*
G02*
X138950000Y160425000I225000J0D01*
G01*
G37*
G36*
G01*
X138950000Y158875000D02*
X139450000Y158875000D01*
G75*
G02*
X139675000Y158650000I0J-225000D01*
G01*
X139675000Y158200000D01*
G75*
G02*
X139450000Y157975000I-225000J0D01*
G01*
X138950000Y157975000D01*
G75*
G02*
X138725000Y158200000I0J225000D01*
G01*
X138725000Y158650000D01*
G75*
G02*
X138950000Y158875000I225000J0D01*
G01*
G37*
G04 #@! TD*
G04 #@! TO.C,R1*
G36*
G01*
X122675000Y118685000D02*
X122675000Y117435000D01*
G75*
G02*
X122425000Y117185000I-250000J0D01*
G01*
X121800000Y117185000D01*
G75*
G02*
X121550000Y117435000I0J250000D01*
G01*
X121550000Y118685000D01*
G75*
G02*
X121800000Y118935000I250000J0D01*
G01*
X122425000Y118935000D01*
G75*
G02*
X122675000Y118685000I0J-250000D01*
G01*
G37*
G36*
G01*
X119750000Y118685000D02*
X119750000Y117435000D01*
G75*
G02*
X119500000Y117185000I-250000J0D01*
G01*
X118875000Y117185000D01*
G75*
G02*
X118625000Y117435000I0J250000D01*
G01*
X118625000Y118685000D01*
G75*
G02*
X118875000Y118935000I250000J0D01*
G01*
X119500000Y118935000D01*
G75*
G02*
X119750000Y118685000I0J-250000D01*
G01*
G37*
G04 #@! TD*
D10*
G04 #@! TO.C,RN12*
X90240000Y15560000D03*
D11*
X91040000Y15560000D03*
X91840000Y15560000D03*
D10*
X92640000Y15560000D03*
X92640000Y17360000D03*
D11*
X91840000Y17360000D03*
X91040000Y17360000D03*
D10*
X90240000Y17360000D03*
G04 #@! TD*
G04 #@! TO.C,C8*
G36*
G01*
X114255000Y113230000D02*
X114255000Y112730000D01*
G75*
G02*
X114030000Y112505000I-225000J0D01*
G01*
X113580000Y112505000D01*
G75*
G02*
X113355000Y112730000I0J225000D01*
G01*
X113355000Y113230000D01*
G75*
G02*
X113580000Y113455000I225000J0D01*
G01*
X114030000Y113455000D01*
G75*
G02*
X114255000Y113230000I0J-225000D01*
G01*
G37*
G36*
G01*
X112705000Y113230000D02*
X112705000Y112730000D01*
G75*
G02*
X112480000Y112505000I-225000J0D01*
G01*
X112030000Y112505000D01*
G75*
G02*
X111805000Y112730000I0J225000D01*
G01*
X111805000Y113230000D01*
G75*
G02*
X112030000Y113455000I225000J0D01*
G01*
X112480000Y113455000D01*
G75*
G02*
X112705000Y113230000I0J-225000D01*
G01*
G37*
G04 #@! TD*
G04 #@! TO.C,RN9*
X92640000Y37680000D03*
D11*
X91840000Y37680000D03*
X91040000Y37680000D03*
D10*
X90240000Y37680000D03*
X90240000Y35880000D03*
D11*
X91040000Y35880000D03*
X91840000Y35880000D03*
D10*
X92640000Y35880000D03*
G04 #@! TD*
G04 #@! TO.C,R12*
G36*
G01*
X122675000Y104715000D02*
X122675000Y103465000D01*
G75*
G02*
X122425000Y103215000I-250000J0D01*
G01*
X121800000Y103215000D01*
G75*
G02*
X121550000Y103465000I0J250000D01*
G01*
X121550000Y104715000D01*
G75*
G02*
X121800000Y104965000I250000J0D01*
G01*
X122425000Y104965000D01*
G75*
G02*
X122675000Y104715000I0J-250000D01*
G01*
G37*
G36*
G01*
X119750000Y104715000D02*
X119750000Y103465000D01*
G75*
G02*
X119500000Y103215000I-250000J0D01*
G01*
X118875000Y103215000D01*
G75*
G02*
X118625000Y103465000I0J250000D01*
G01*
X118625000Y104715000D01*
G75*
G02*
X118875000Y104965000I250000J0D01*
G01*
X119500000Y104965000D01*
G75*
G02*
X119750000Y104715000I0J-250000D01*
G01*
G37*
G04 #@! TD*
G04 #@! TO.C,R48*
G36*
G01*
X170200000Y70975000D02*
X170200000Y70425000D01*
G75*
G02*
X170000000Y70225000I-200000J0D01*
G01*
X169600000Y70225000D01*
G75*
G02*
X169400000Y70425000I0J200000D01*
G01*
X169400000Y70975000D01*
G75*
G02*
X169600000Y71175000I200000J0D01*
G01*
X170000000Y71175000D01*
G75*
G02*
X170200000Y70975000I0J-200000D01*
G01*
G37*
G36*
G01*
X168550000Y70975000D02*
X168550000Y70425000D01*
G75*
G02*
X168350000Y70225000I-200000J0D01*
G01*
X167950000Y70225000D01*
G75*
G02*
X167750000Y70425000I0J200000D01*
G01*
X167750000Y70975000D01*
G75*
G02*
X167950000Y71175000I200000J0D01*
G01*
X168350000Y71175000D01*
G75*
G02*
X168550000Y70975000I0J-200000D01*
G01*
G37*
G04 #@! TD*
G04 #@! TO.C,U1*
G36*
G01*
X102050000Y62455000D02*
X102050000Y62755000D01*
G75*
G02*
X102200000Y62905000I150000J0D01*
G01*
X103650000Y62905000D01*
G75*
G02*
X103800000Y62755000I0J-150000D01*
G01*
X103800000Y62455000D01*
G75*
G02*
X103650000Y62305000I-150000J0D01*
G01*
X102200000Y62305000D01*
G75*
G02*
X102050000Y62455000I0J150000D01*
G01*
G37*
G36*
G01*
X102050000Y61185000D02*
X102050000Y61485000D01*
G75*
G02*
X102200000Y61635000I150000J0D01*
G01*
X103650000Y61635000D01*
G75*
G02*
X103800000Y61485000I0J-150000D01*
G01*
X103800000Y61185000D01*
G75*
G02*
X103650000Y61035000I-150000J0D01*
G01*
X102200000Y61035000D01*
G75*
G02*
X102050000Y61185000I0J150000D01*
G01*
G37*
G36*
G01*
X102050000Y59915000D02*
X102050000Y60215000D01*
G75*
G02*
X102200000Y60365000I150000J0D01*
G01*
X103650000Y60365000D01*
G75*
G02*
X103800000Y60215000I0J-150000D01*
G01*
X103800000Y59915000D01*
G75*
G02*
X103650000Y59765000I-150000J0D01*
G01*
X102200000Y59765000D01*
G75*
G02*
X102050000Y59915000I0J150000D01*
G01*
G37*
G36*
G01*
X102050000Y58645000D02*
X102050000Y58945000D01*
G75*
G02*
X102200000Y59095000I150000J0D01*
G01*
X103650000Y59095000D01*
G75*
G02*
X103800000Y58945000I0J-150000D01*
G01*
X103800000Y58645000D01*
G75*
G02*
X103650000Y58495000I-150000J0D01*
G01*
X102200000Y58495000D01*
G75*
G02*
X102050000Y58645000I0J150000D01*
G01*
G37*
G36*
G01*
X107200000Y58645000D02*
X107200000Y58945000D01*
G75*
G02*
X107350000Y59095000I150000J0D01*
G01*
X108800000Y59095000D01*
G75*
G02*
X108950000Y58945000I0J-150000D01*
G01*
X108950000Y58645000D01*
G75*
G02*
X108800000Y58495000I-150000J0D01*
G01*
X107350000Y58495000D01*
G75*
G02*
X107200000Y58645000I0J150000D01*
G01*
G37*
G36*
G01*
X107200000Y59915000D02*
X107200000Y60215000D01*
G75*
G02*
X107350000Y60365000I150000J0D01*
G01*
X108800000Y60365000D01*
G75*
G02*
X108950000Y60215000I0J-150000D01*
G01*
X108950000Y59915000D01*
G75*
G02*
X108800000Y59765000I-150000J0D01*
G01*
X107350000Y59765000D01*
G75*
G02*
X107200000Y59915000I0J150000D01*
G01*
G37*
G36*
G01*
X107200000Y61185000D02*
X107200000Y61485000D01*
G75*
G02*
X107350000Y61635000I150000J0D01*
G01*
X108800000Y61635000D01*
G75*
G02*
X108950000Y61485000I0J-150000D01*
G01*
X108950000Y61185000D01*
G75*
G02*
X108800000Y61035000I-150000J0D01*
G01*
X107350000Y61035000D01*
G75*
G02*
X107200000Y61185000I0J150000D01*
G01*
G37*
G36*
G01*
X107200000Y62455000D02*
X107200000Y62755000D01*
G75*
G02*
X107350000Y62905000I150000J0D01*
G01*
X108800000Y62905000D01*
G75*
G02*
X108950000Y62755000I0J-150000D01*
G01*
X108950000Y62455000D01*
G75*
G02*
X108800000Y62305000I-150000J0D01*
G01*
X107350000Y62305000D01*
G75*
G02*
X107200000Y62455000I0J150000D01*
G01*
G37*
G04 #@! TD*
G04 #@! TO.C,D2*
G36*
G01*
X152625000Y159900000D02*
X152625000Y160200000D01*
G75*
G02*
X152775000Y160350000I150000J0D01*
G01*
X153950000Y160350000D01*
G75*
G02*
X154100000Y160200000I0J-150000D01*
G01*
X154100000Y159900000D01*
G75*
G02*
X153950000Y159750000I-150000J0D01*
G01*
X152775000Y159750000D01*
G75*
G02*
X152625000Y159900000I0J150000D01*
G01*
G37*
G36*
G01*
X152625000Y158000000D02*
X152625000Y158300000D01*
G75*
G02*
X152775000Y158450000I150000J0D01*
G01*
X153950000Y158450000D01*
G75*
G02*
X154100000Y158300000I0J-150000D01*
G01*
X154100000Y158000000D01*
G75*
G02*
X153950000Y157850000I-150000J0D01*
G01*
X152775000Y157850000D01*
G75*
G02*
X152625000Y158000000I0J150000D01*
G01*
G37*
G36*
G01*
X154500000Y158950000D02*
X154500000Y159250000D01*
G75*
G02*
X154650000Y159400000I150000J0D01*
G01*
X155825000Y159400000D01*
G75*
G02*
X155975000Y159250000I0J-150000D01*
G01*
X155975000Y158950000D01*
G75*
G02*
X155825000Y158800000I-150000J0D01*
G01*
X154650000Y158800000D01*
G75*
G02*
X154500000Y158950000I0J150000D01*
G01*
G37*
G04 #@! TD*
G04 #@! TO.C,U11*
G36*
G01*
X102070000Y52995000D02*
X102070000Y53295000D01*
G75*
G02*
X102220000Y53445000I150000J0D01*
G01*
X103670000Y53445000D01*
G75*
G02*
X103820000Y53295000I0J-150000D01*
G01*
X103820000Y52995000D01*
G75*
G02*
X103670000Y52845000I-150000J0D01*
G01*
X102220000Y52845000D01*
G75*
G02*
X102070000Y52995000I0J150000D01*
G01*
G37*
G36*
G01*
X102070000Y51725000D02*
X102070000Y52025000D01*
G75*
G02*
X102220000Y52175000I150000J0D01*
G01*
X103670000Y52175000D01*
G75*
G02*
X103820000Y52025000I0J-150000D01*
G01*
X103820000Y51725000D01*
G75*
G02*
X103670000Y51575000I-150000J0D01*
G01*
X102220000Y51575000D01*
G75*
G02*
X102070000Y51725000I0J150000D01*
G01*
G37*
G36*
G01*
X102070000Y50455000D02*
X102070000Y50755000D01*
G75*
G02*
X102220000Y50905000I150000J0D01*
G01*
X103670000Y50905000D01*
G75*
G02*
X103820000Y50755000I0J-150000D01*
G01*
X103820000Y50455000D01*
G75*
G02*
X103670000Y50305000I-150000J0D01*
G01*
X102220000Y50305000D01*
G75*
G02*
X102070000Y50455000I0J150000D01*
G01*
G37*
G36*
G01*
X102070000Y49185000D02*
X102070000Y49485000D01*
G75*
G02*
X102220000Y49635000I150000J0D01*
G01*
X103670000Y49635000D01*
G75*
G02*
X103820000Y49485000I0J-150000D01*
G01*
X103820000Y49185000D01*
G75*
G02*
X103670000Y49035000I-150000J0D01*
G01*
X102220000Y49035000D01*
G75*
G02*
X102070000Y49185000I0J150000D01*
G01*
G37*
G36*
G01*
X107220000Y49185000D02*
X107220000Y49485000D01*
G75*
G02*
X107370000Y49635000I150000J0D01*
G01*
X108820000Y49635000D01*
G75*
G02*
X108970000Y49485000I0J-150000D01*
G01*
X108970000Y49185000D01*
G75*
G02*
X108820000Y49035000I-150000J0D01*
G01*
X107370000Y49035000D01*
G75*
G02*
X107220000Y49185000I0J150000D01*
G01*
G37*
G36*
G01*
X107220000Y50455000D02*
X107220000Y50755000D01*
G75*
G02*
X107370000Y50905000I150000J0D01*
G01*
X108820000Y50905000D01*
G75*
G02*
X108970000Y50755000I0J-150000D01*
G01*
X108970000Y50455000D01*
G75*
G02*
X108820000Y50305000I-150000J0D01*
G01*
X107370000Y50305000D01*
G75*
G02*
X107220000Y50455000I0J150000D01*
G01*
G37*
G36*
G01*
X107220000Y51725000D02*
X107220000Y52025000D01*
G75*
G02*
X107370000Y52175000I150000J0D01*
G01*
X108820000Y52175000D01*
G75*
G02*
X108970000Y52025000I0J-150000D01*
G01*
X108970000Y51725000D01*
G75*
G02*
X108820000Y51575000I-150000J0D01*
G01*
X107370000Y51575000D01*
G75*
G02*
X107220000Y51725000I0J150000D01*
G01*
G37*
G36*
G01*
X107220000Y52995000D02*
X107220000Y53295000D01*
G75*
G02*
X107370000Y53445000I150000J0D01*
G01*
X108820000Y53445000D01*
G75*
G02*
X108970000Y53295000I0J-150000D01*
G01*
X108970000Y52995000D01*
G75*
G02*
X108820000Y52845000I-150000J0D01*
G01*
X107370000Y52845000D01*
G75*
G02*
X107220000Y52995000I0J150000D01*
G01*
G37*
G04 #@! TD*
G04 #@! TO.C,F1*
G36*
G01*
X43425000Y17045000D02*
X43425000Y15795000D01*
G75*
G02*
X43175000Y15545000I-250000J0D01*
G01*
X42425000Y15545000D01*
G75*
G02*
X42175000Y15795000I0J250000D01*
G01*
X42175000Y17045000D01*
G75*
G02*
X42425000Y17295000I250000J0D01*
G01*
X43175000Y17295000D01*
G75*
G02*
X43425000Y17045000I0J-250000D01*
G01*
G37*
G36*
G01*
X40625000Y17045000D02*
X40625000Y15795000D01*
G75*
G02*
X40375000Y15545000I-250000J0D01*
G01*
X39625000Y15545000D01*
G75*
G02*
X39375000Y15795000I0J250000D01*
G01*
X39375000Y17045000D01*
G75*
G02*
X39625000Y17295000I250000J0D01*
G01*
X40375000Y17295000D01*
G75*
G02*
X40625000Y17045000I0J-250000D01*
G01*
G37*
G04 #@! TD*
G04 #@! TO.C,R11*
G36*
G01*
X97345000Y63165000D02*
X97895000Y63165000D01*
G75*
G02*
X98095000Y62965000I0J-200000D01*
G01*
X98095000Y62565000D01*
G75*
G02*
X97895000Y62365000I-200000J0D01*
G01*
X97345000Y62365000D01*
G75*
G02*
X97145000Y62565000I0J200000D01*
G01*
X97145000Y62965000D01*
G75*
G02*
X97345000Y63165000I200000J0D01*
G01*
G37*
G36*
G01*
X97345000Y61515000D02*
X97895000Y61515000D01*
G75*
G02*
X98095000Y61315000I0J-200000D01*
G01*
X98095000Y60915000D01*
G75*
G02*
X97895000Y60715000I-200000J0D01*
G01*
X97345000Y60715000D01*
G75*
G02*
X97145000Y60915000I0J200000D01*
G01*
X97145000Y61315000D01*
G75*
G02*
X97345000Y61515000I200000J0D01*
G01*
G37*
G04 #@! TD*
G04 #@! TO.C,R33*
G36*
G01*
X157475000Y158925000D02*
X157475000Y159475000D01*
G75*
G02*
X157675000Y159675000I200000J0D01*
G01*
X158075000Y159675000D01*
G75*
G02*
X158275000Y159475000I0J-200000D01*
G01*
X158275000Y158925000D01*
G75*
G02*
X158075000Y158725000I-200000J0D01*
G01*
X157675000Y158725000D01*
G75*
G02*
X157475000Y158925000I0J200000D01*
G01*
G37*
G36*
G01*
X159125000Y158925000D02*
X159125000Y159475000D01*
G75*
G02*
X159325000Y159675000I200000J0D01*
G01*
X159725000Y159675000D01*
G75*
G02*
X159925000Y159475000I0J-200000D01*
G01*
X159925000Y158925000D01*
G75*
G02*
X159725000Y158725000I-200000J0D01*
G01*
X159325000Y158725000D01*
G75*
G02*
X159125000Y158925000I0J200000D01*
G01*
G37*
G04 #@! TD*
G04 #@! TO.C,R50*
G36*
G01*
X167750000Y64625000D02*
X167750000Y65175000D01*
G75*
G02*
X167950000Y65375000I200000J0D01*
G01*
X168350000Y65375000D01*
G75*
G02*
X168550000Y65175000I0J-200000D01*
G01*
X168550000Y64625000D01*
G75*
G02*
X168350000Y64425000I-200000J0D01*
G01*
X167950000Y64425000D01*
G75*
G02*
X167750000Y64625000I0J200000D01*
G01*
G37*
G36*
G01*
X169400000Y64625000D02*
X169400000Y65175000D01*
G75*
G02*
X169600000Y65375000I200000J0D01*
G01*
X170000000Y65375000D01*
G75*
G02*
X170200000Y65175000I0J-200000D01*
G01*
X170200000Y64625000D01*
G75*
G02*
X170000000Y64425000I-200000J0D01*
G01*
X169600000Y64425000D01*
G75*
G02*
X169400000Y64625000I0J200000D01*
G01*
G37*
G04 #@! TD*
G04 #@! TO.C,Q2*
G36*
G01*
X143787500Y143157145D02*
X143787500Y143457145D01*
G75*
G02*
X143937500Y143607145I150000J0D01*
G01*
X145112500Y143607145D01*
G75*
G02*
X145262500Y143457145I0J-150000D01*
G01*
X145262500Y143157145D01*
G75*
G02*
X145112500Y143007145I-150000J0D01*
G01*
X143937500Y143007145D01*
G75*
G02*
X143787500Y143157145I0J150000D01*
G01*
G37*
G36*
G01*
X145662500Y142207145D02*
X145662500Y142507145D01*
G75*
G02*
X145812500Y142657145I150000J0D01*
G01*
X146987500Y142657145D01*
G75*
G02*
X147137500Y142507145I0J-150000D01*
G01*
X147137500Y142207145D01*
G75*
G02*
X146987500Y142057145I-150000J0D01*
G01*
X145812500Y142057145D01*
G75*
G02*
X145662500Y142207145I0J150000D01*
G01*
G37*
G36*
G01*
X143787500Y141257145D02*
X143787500Y141557145D01*
G75*
G02*
X143937500Y141707145I150000J0D01*
G01*
X145112500Y141707145D01*
G75*
G02*
X145262500Y141557145I0J-150000D01*
G01*
X145262500Y141257145D01*
G75*
G02*
X145112500Y141107145I-150000J0D01*
G01*
X143937500Y141107145D01*
G75*
G02*
X143787500Y141257145I0J150000D01*
G01*
G37*
G04 #@! TD*
G04 #@! TO.C,R42*
G36*
G01*
X167550000Y16750000D02*
X167550000Y17300000D01*
G75*
G02*
X167750000Y17500000I200000J0D01*
G01*
X168150000Y17500000D01*
G75*
G02*
X168350000Y17300000I0J-200000D01*
G01*
X168350000Y16750000D01*
G75*
G02*
X168150000Y16550000I-200000J0D01*
G01*
X167750000Y16550000D01*
G75*
G02*
X167550000Y16750000I0J200000D01*
G01*
G37*
G36*
G01*
X169200000Y16750000D02*
X169200000Y17300000D01*
G75*
G02*
X169400000Y17500000I200000J0D01*
G01*
X169800000Y17500000D01*
G75*
G02*
X170000000Y17300000I0J-200000D01*
G01*
X170000000Y16750000D01*
G75*
G02*
X169800000Y16550000I-200000J0D01*
G01*
X169400000Y16550000D01*
G75*
G02*
X169200000Y16750000I0J200000D01*
G01*
G37*
G04 #@! TD*
G04 #@! TO.C,R14*
G36*
G01*
X141775000Y137617860D02*
X141225000Y137617860D01*
G75*
G02*
X141025000Y137817860I0J200000D01*
G01*
X141025000Y138217860D01*
G75*
G02*
X141225000Y138417860I200000J0D01*
G01*
X141775000Y138417860D01*
G75*
G02*
X141975000Y138217860I0J-200000D01*
G01*
X141975000Y137817860D01*
G75*
G02*
X141775000Y137617860I-200000J0D01*
G01*
G37*
G36*
G01*
X141775000Y139267860D02*
X141225000Y139267860D01*
G75*
G02*
X141025000Y139467860I0J200000D01*
G01*
X141025000Y139867860D01*
G75*
G02*
X141225000Y140067860I200000J0D01*
G01*
X141775000Y140067860D01*
G75*
G02*
X141975000Y139867860I0J-200000D01*
G01*
X141975000Y139467860D01*
G75*
G02*
X141775000Y139267860I-200000J0D01*
G01*
G37*
G04 #@! TD*
G04 #@! TO.C,C9*
G36*
G01*
X114255000Y103070000D02*
X114255000Y102570000D01*
G75*
G02*
X114030000Y102345000I-225000J0D01*
G01*
X113580000Y102345000D01*
G75*
G02*
X113355000Y102570000I0J225000D01*
G01*
X113355000Y103070000D01*
G75*
G02*
X113580000Y103295000I225000J0D01*
G01*
X114030000Y103295000D01*
G75*
G02*
X114255000Y103070000I0J-225000D01*
G01*
G37*
G36*
G01*
X112705000Y103070000D02*
X112705000Y102570000D01*
G75*
G02*
X112480000Y102345000I-225000J0D01*
G01*
X112030000Y102345000D01*
G75*
G02*
X111805000Y102570000I0J225000D01*
G01*
X111805000Y103070000D01*
G75*
G02*
X112030000Y103295000I225000J0D01*
G01*
X112480000Y103295000D01*
G75*
G02*
X112705000Y103070000I0J-225000D01*
G01*
G37*
G04 #@! TD*
G04 #@! TO.C,R25*
G36*
G01*
X157475000Y156325000D02*
X157475000Y156875000D01*
G75*
G02*
X157675000Y157075000I200000J0D01*
G01*
X158075000Y157075000D01*
G75*
G02*
X158275000Y156875000I0J-200000D01*
G01*
X158275000Y156325000D01*
G75*
G02*
X158075000Y156125000I-200000J0D01*
G01*
X157675000Y156125000D01*
G75*
G02*
X157475000Y156325000I0J200000D01*
G01*
G37*
G36*
G01*
X159125000Y156325000D02*
X159125000Y156875000D01*
G75*
G02*
X159325000Y157075000I200000J0D01*
G01*
X159725000Y157075000D01*
G75*
G02*
X159925000Y156875000I0J-200000D01*
G01*
X159925000Y156325000D01*
G75*
G02*
X159725000Y156125000I-200000J0D01*
G01*
X159325000Y156125000D01*
G75*
G02*
X159125000Y156325000I0J200000D01*
G01*
G37*
G04 #@! TD*
G04 #@! TO.C,C2*
G36*
G01*
X124210000Y139605000D02*
X124710000Y139605000D01*
G75*
G02*
X124935000Y139380000I0J-225000D01*
G01*
X124935000Y138930000D01*
G75*
G02*
X124710000Y138705000I-225000J0D01*
G01*
X124210000Y138705000D01*
G75*
G02*
X123985000Y138930000I0J225000D01*
G01*
X123985000Y139380000D01*
G75*
G02*
X124210000Y139605000I225000J0D01*
G01*
G37*
G36*
G01*
X124210000Y138055000D02*
X124710000Y138055000D01*
G75*
G02*
X124935000Y137830000I0J-225000D01*
G01*
X124935000Y137380000D01*
G75*
G02*
X124710000Y137155000I-225000J0D01*
G01*
X124210000Y137155000D01*
G75*
G02*
X123985000Y137380000I0J225000D01*
G01*
X123985000Y137830000D01*
G75*
G02*
X124210000Y138055000I225000J0D01*
G01*
G37*
G04 #@! TD*
G04 #@! TO.C,U12*
G36*
G01*
X140950000Y160855000D02*
X140950000Y161155000D01*
G75*
G02*
X141100000Y161305000I150000J0D01*
G01*
X142750000Y161305000D01*
G75*
G02*
X142900000Y161155000I0J-150000D01*
G01*
X142900000Y160855000D01*
G75*
G02*
X142750000Y160705000I-150000J0D01*
G01*
X141100000Y160705000D01*
G75*
G02*
X140950000Y160855000I0J150000D01*
G01*
G37*
G36*
G01*
X140950000Y159585000D02*
X140950000Y159885000D01*
G75*
G02*
X141100000Y160035000I150000J0D01*
G01*
X142750000Y160035000D01*
G75*
G02*
X142900000Y159885000I0J-150000D01*
G01*
X142900000Y159585000D01*
G75*
G02*
X142750000Y159435000I-150000J0D01*
G01*
X141100000Y159435000D01*
G75*
G02*
X140950000Y159585000I0J150000D01*
G01*
G37*
G36*
G01*
X140950000Y158315000D02*
X140950000Y158615000D01*
G75*
G02*
X141100000Y158765000I150000J0D01*
G01*
X142750000Y158765000D01*
G75*
G02*
X142900000Y158615000I0J-150000D01*
G01*
X142900000Y158315000D01*
G75*
G02*
X142750000Y158165000I-150000J0D01*
G01*
X141100000Y158165000D01*
G75*
G02*
X140950000Y158315000I0J150000D01*
G01*
G37*
G36*
G01*
X140950000Y157045000D02*
X140950000Y157345000D01*
G75*
G02*
X141100000Y157495000I150000J0D01*
G01*
X142750000Y157495000D01*
G75*
G02*
X142900000Y157345000I0J-150000D01*
G01*
X142900000Y157045000D01*
G75*
G02*
X142750000Y156895000I-150000J0D01*
G01*
X141100000Y156895000D01*
G75*
G02*
X140950000Y157045000I0J150000D01*
G01*
G37*
G36*
G01*
X145900000Y157045000D02*
X145900000Y157345000D01*
G75*
G02*
X146050000Y157495000I150000J0D01*
G01*
X147700000Y157495000D01*
G75*
G02*
X147850000Y157345000I0J-150000D01*
G01*
X147850000Y157045000D01*
G75*
G02*
X147700000Y156895000I-150000J0D01*
G01*
X146050000Y156895000D01*
G75*
G02*
X145900000Y157045000I0J150000D01*
G01*
G37*
G36*
G01*
X145900000Y158315000D02*
X145900000Y158615000D01*
G75*
G02*
X146050000Y158765000I150000J0D01*
G01*
X147700000Y158765000D01*
G75*
G02*
X147850000Y158615000I0J-150000D01*
G01*
X147850000Y158315000D01*
G75*
G02*
X147700000Y158165000I-150000J0D01*
G01*
X146050000Y158165000D01*
G75*
G02*
X145900000Y158315000I0J150000D01*
G01*
G37*
G36*
G01*
X145900000Y159585000D02*
X145900000Y159885000D01*
G75*
G02*
X146050000Y160035000I150000J0D01*
G01*
X147700000Y160035000D01*
G75*
G02*
X147850000Y159885000I0J-150000D01*
G01*
X147850000Y159585000D01*
G75*
G02*
X147700000Y159435000I-150000J0D01*
G01*
X146050000Y159435000D01*
G75*
G02*
X145900000Y159585000I0J150000D01*
G01*
G37*
G36*
G01*
X145900000Y160855000D02*
X145900000Y161155000D01*
G75*
G02*
X146050000Y161305000I150000J0D01*
G01*
X147700000Y161305000D01*
G75*
G02*
X147850000Y161155000I0J-150000D01*
G01*
X147850000Y160855000D01*
G75*
G02*
X147700000Y160705000I-150000J0D01*
G01*
X146050000Y160705000D01*
G75*
G02*
X145900000Y160855000I0J150000D01*
G01*
G37*
G04 #@! TD*
G04 #@! TO.C,R5*
G36*
G01*
X113245000Y60690000D02*
X113795000Y60690000D01*
G75*
G02*
X113995000Y60490000I0J-200000D01*
G01*
X113995000Y60090000D01*
G75*
G02*
X113795000Y59890000I-200000J0D01*
G01*
X113245000Y59890000D01*
G75*
G02*
X113045000Y60090000I0J200000D01*
G01*
X113045000Y60490000D01*
G75*
G02*
X113245000Y60690000I200000J0D01*
G01*
G37*
G36*
G01*
X113245000Y59040000D02*
X113795000Y59040000D01*
G75*
G02*
X113995000Y58840000I0J-200000D01*
G01*
X113995000Y58440000D01*
G75*
G02*
X113795000Y58240000I-200000J0D01*
G01*
X113245000Y58240000D01*
G75*
G02*
X113045000Y58440000I0J200000D01*
G01*
X113045000Y58840000D01*
G75*
G02*
X113245000Y59040000I200000J0D01*
G01*
G37*
G04 #@! TD*
G04 #@! TO.C,R40*
G36*
G01*
X159500000Y37075000D02*
X158950000Y37075000D01*
G75*
G02*
X158750000Y37275000I0J200000D01*
G01*
X158750000Y37675000D01*
G75*
G02*
X158950000Y37875000I200000J0D01*
G01*
X159500000Y37875000D01*
G75*
G02*
X159700000Y37675000I0J-200000D01*
G01*
X159700000Y37275000D01*
G75*
G02*
X159500000Y37075000I-200000J0D01*
G01*
G37*
G36*
G01*
X159500000Y38725000D02*
X158950000Y38725000D01*
G75*
G02*
X158750000Y38925000I0J200000D01*
G01*
X158750000Y39325000D01*
G75*
G02*
X158950000Y39525000I200000J0D01*
G01*
X159500000Y39525000D01*
G75*
G02*
X159700000Y39325000I0J-200000D01*
G01*
X159700000Y38925000D01*
G75*
G02*
X159500000Y38725000I-200000J0D01*
G01*
G37*
G04 #@! TD*
G04 #@! TO.C,U2*
G36*
G01*
X121135000Y146595000D02*
X121435000Y146595000D01*
G75*
G02*
X121585000Y146445000I0J-150000D01*
G01*
X121585000Y144695000D01*
G75*
G02*
X121435000Y144545000I-150000J0D01*
G01*
X121135000Y144545000D01*
G75*
G02*
X120985000Y144695000I0J150000D01*
G01*
X120985000Y146445000D01*
G75*
G02*
X121135000Y146595000I150000J0D01*
G01*
G37*
G36*
G01*
X119865000Y146595000D02*
X120165000Y146595000D01*
G75*
G02*
X120315000Y146445000I0J-150000D01*
G01*
X120315000Y144695000D01*
G75*
G02*
X120165000Y144545000I-150000J0D01*
G01*
X119865000Y144545000D01*
G75*
G02*
X119715000Y144695000I0J150000D01*
G01*
X119715000Y146445000D01*
G75*
G02*
X119865000Y146595000I150000J0D01*
G01*
G37*
G36*
G01*
X118595000Y146595000D02*
X118895000Y146595000D01*
G75*
G02*
X119045000Y146445000I0J-150000D01*
G01*
X119045000Y144695000D01*
G75*
G02*
X118895000Y144545000I-150000J0D01*
G01*
X118595000Y144545000D01*
G75*
G02*
X118445000Y144695000I0J150000D01*
G01*
X118445000Y146445000D01*
G75*
G02*
X118595000Y146595000I150000J0D01*
G01*
G37*
G36*
G01*
X117325000Y146595000D02*
X117625000Y146595000D01*
G75*
G02*
X117775000Y146445000I0J-150000D01*
G01*
X117775000Y144695000D01*
G75*
G02*
X117625000Y144545000I-150000J0D01*
G01*
X117325000Y144545000D01*
G75*
G02*
X117175000Y144695000I0J150000D01*
G01*
X117175000Y146445000D01*
G75*
G02*
X117325000Y146595000I150000J0D01*
G01*
G37*
G36*
G01*
X116055000Y146595000D02*
X116355000Y146595000D01*
G75*
G02*
X116505000Y146445000I0J-150000D01*
G01*
X116505000Y144695000D01*
G75*
G02*
X116355000Y144545000I-150000J0D01*
G01*
X116055000Y144545000D01*
G75*
G02*
X115905000Y144695000I0J150000D01*
G01*
X115905000Y146445000D01*
G75*
G02*
X116055000Y146595000I150000J0D01*
G01*
G37*
G36*
G01*
X114785000Y146595000D02*
X115085000Y146595000D01*
G75*
G02*
X115235000Y146445000I0J-150000D01*
G01*
X115235000Y144695000D01*
G75*
G02*
X115085000Y144545000I-150000J0D01*
G01*
X114785000Y144545000D01*
G75*
G02*
X114635000Y144695000I0J150000D01*
G01*
X114635000Y146445000D01*
G75*
G02*
X114785000Y146595000I150000J0D01*
G01*
G37*
G36*
G01*
X113515000Y146595000D02*
X113815000Y146595000D01*
G75*
G02*
X113965000Y146445000I0J-150000D01*
G01*
X113965000Y144695000D01*
G75*
G02*
X113815000Y144545000I-150000J0D01*
G01*
X113515000Y144545000D01*
G75*
G02*
X113365000Y144695000I0J150000D01*
G01*
X113365000Y146445000D01*
G75*
G02*
X113515000Y146595000I150000J0D01*
G01*
G37*
G36*
G01*
X112245000Y146595000D02*
X112545000Y146595000D01*
G75*
G02*
X112695000Y146445000I0J-150000D01*
G01*
X112695000Y144695000D01*
G75*
G02*
X112545000Y144545000I-150000J0D01*
G01*
X112245000Y144545000D01*
G75*
G02*
X112095000Y144695000I0J150000D01*
G01*
X112095000Y146445000D01*
G75*
G02*
X112245000Y146595000I150000J0D01*
G01*
G37*
G36*
G01*
X110975000Y146595000D02*
X111275000Y146595000D01*
G75*
G02*
X111425000Y146445000I0J-150000D01*
G01*
X111425000Y144695000D01*
G75*
G02*
X111275000Y144545000I-150000J0D01*
G01*
X110975000Y144545000D01*
G75*
G02*
X110825000Y144695000I0J150000D01*
G01*
X110825000Y146445000D01*
G75*
G02*
X110975000Y146595000I150000J0D01*
G01*
G37*
G36*
G01*
X109705000Y146595000D02*
X110005000Y146595000D01*
G75*
G02*
X110155000Y146445000I0J-150000D01*
G01*
X110155000Y144695000D01*
G75*
G02*
X110005000Y144545000I-150000J0D01*
G01*
X109705000Y144545000D01*
G75*
G02*
X109555000Y144695000I0J150000D01*
G01*
X109555000Y146445000D01*
G75*
G02*
X109705000Y146595000I150000J0D01*
G01*
G37*
G36*
G01*
X108435000Y146595000D02*
X108735000Y146595000D01*
G75*
G02*
X108885000Y146445000I0J-150000D01*
G01*
X108885000Y144695000D01*
G75*
G02*
X108735000Y144545000I-150000J0D01*
G01*
X108435000Y144545000D01*
G75*
G02*
X108285000Y144695000I0J150000D01*
G01*
X108285000Y146445000D01*
G75*
G02*
X108435000Y146595000I150000J0D01*
G01*
G37*
G36*
G01*
X107165000Y146595000D02*
X107465000Y146595000D01*
G75*
G02*
X107615000Y146445000I0J-150000D01*
G01*
X107615000Y144695000D01*
G75*
G02*
X107465000Y144545000I-150000J0D01*
G01*
X107165000Y144545000D01*
G75*
G02*
X107015000Y144695000I0J150000D01*
G01*
X107015000Y146445000D01*
G75*
G02*
X107165000Y146595000I150000J0D01*
G01*
G37*
G36*
G01*
X107165000Y137295000D02*
X107465000Y137295000D01*
G75*
G02*
X107615000Y137145000I0J-150000D01*
G01*
X107615000Y135395000D01*
G75*
G02*
X107465000Y135245000I-150000J0D01*
G01*
X107165000Y135245000D01*
G75*
G02*
X107015000Y135395000I0J150000D01*
G01*
X107015000Y137145000D01*
G75*
G02*
X107165000Y137295000I150000J0D01*
G01*
G37*
G36*
G01*
X108435000Y137295000D02*
X108735000Y137295000D01*
G75*
G02*
X108885000Y137145000I0J-150000D01*
G01*
X108885000Y135395000D01*
G75*
G02*
X108735000Y135245000I-150000J0D01*
G01*
X108435000Y135245000D01*
G75*
G02*
X108285000Y135395000I0J150000D01*
G01*
X108285000Y137145000D01*
G75*
G02*
X108435000Y137295000I150000J0D01*
G01*
G37*
G36*
G01*
X109705000Y137295000D02*
X110005000Y137295000D01*
G75*
G02*
X110155000Y137145000I0J-150000D01*
G01*
X110155000Y135395000D01*
G75*
G02*
X110005000Y135245000I-150000J0D01*
G01*
X109705000Y135245000D01*
G75*
G02*
X109555000Y135395000I0J150000D01*
G01*
X109555000Y137145000D01*
G75*
G02*
X109705000Y137295000I150000J0D01*
G01*
G37*
G36*
G01*
X110975000Y137295000D02*
X111275000Y137295000D01*
G75*
G02*
X111425000Y137145000I0J-150000D01*
G01*
X111425000Y135395000D01*
G75*
G02*
X111275000Y135245000I-150000J0D01*
G01*
X110975000Y135245000D01*
G75*
G02*
X110825000Y135395000I0J150000D01*
G01*
X110825000Y137145000D01*
G75*
G02*
X110975000Y137295000I150000J0D01*
G01*
G37*
G36*
G01*
X112245000Y137295000D02*
X112545000Y137295000D01*
G75*
G02*
X112695000Y137145000I0J-150000D01*
G01*
X112695000Y135395000D01*
G75*
G02*
X112545000Y135245000I-150000J0D01*
G01*
X112245000Y135245000D01*
G75*
G02*
X112095000Y135395000I0J150000D01*
G01*
X112095000Y137145000D01*
G75*
G02*
X112245000Y137295000I150000J0D01*
G01*
G37*
G36*
G01*
X113515000Y137295000D02*
X113815000Y137295000D01*
G75*
G02*
X113965000Y137145000I0J-150000D01*
G01*
X113965000Y135395000D01*
G75*
G02*
X113815000Y135245000I-150000J0D01*
G01*
X113515000Y135245000D01*
G75*
G02*
X113365000Y135395000I0J150000D01*
G01*
X113365000Y137145000D01*
G75*
G02*
X113515000Y137295000I150000J0D01*
G01*
G37*
G36*
G01*
X114785000Y137295000D02*
X115085000Y137295000D01*
G75*
G02*
X115235000Y137145000I0J-150000D01*
G01*
X115235000Y135395000D01*
G75*
G02*
X115085000Y135245000I-150000J0D01*
G01*
X114785000Y135245000D01*
G75*
G02*
X114635000Y135395000I0J150000D01*
G01*
X114635000Y137145000D01*
G75*
G02*
X114785000Y137295000I150000J0D01*
G01*
G37*
G36*
G01*
X116055000Y137295000D02*
X116355000Y137295000D01*
G75*
G02*
X116505000Y137145000I0J-150000D01*
G01*
X116505000Y135395000D01*
G75*
G02*
X116355000Y135245000I-150000J0D01*
G01*
X116055000Y135245000D01*
G75*
G02*
X115905000Y135395000I0J150000D01*
G01*
X115905000Y137145000D01*
G75*
G02*
X116055000Y137295000I150000J0D01*
G01*
G37*
G36*
G01*
X117325000Y137295000D02*
X117625000Y137295000D01*
G75*
G02*
X117775000Y137145000I0J-150000D01*
G01*
X117775000Y135395000D01*
G75*
G02*
X117625000Y135245000I-150000J0D01*
G01*
X117325000Y135245000D01*
G75*
G02*
X117175000Y135395000I0J150000D01*
G01*
X117175000Y137145000D01*
G75*
G02*
X117325000Y137295000I150000J0D01*
G01*
G37*
G36*
G01*
X118595000Y137295000D02*
X118895000Y137295000D01*
G75*
G02*
X119045000Y137145000I0J-150000D01*
G01*
X119045000Y135395000D01*
G75*
G02*
X118895000Y135245000I-150000J0D01*
G01*
X118595000Y135245000D01*
G75*
G02*
X118445000Y135395000I0J150000D01*
G01*
X118445000Y137145000D01*
G75*
G02*
X118595000Y137295000I150000J0D01*
G01*
G37*
G36*
G01*
X119865000Y137295000D02*
X120165000Y137295000D01*
G75*
G02*
X120315000Y137145000I0J-150000D01*
G01*
X120315000Y135395000D01*
G75*
G02*
X120165000Y135245000I-150000J0D01*
G01*
X119865000Y135245000D01*
G75*
G02*
X119715000Y135395000I0J150000D01*
G01*
X119715000Y137145000D01*
G75*
G02*
X119865000Y137295000I150000J0D01*
G01*
G37*
G36*
G01*
X121135000Y137295000D02*
X121435000Y137295000D01*
G75*
G02*
X121585000Y137145000I0J-150000D01*
G01*
X121585000Y135395000D01*
G75*
G02*
X121435000Y135245000I-150000J0D01*
G01*
X121135000Y135245000D01*
G75*
G02*
X120985000Y135395000I0J150000D01*
G01*
X120985000Y137145000D01*
G75*
G02*
X121135000Y137295000I150000J0D01*
G01*
G37*
G04 #@! TD*
G04 #@! TO.C,R30*
G36*
G01*
X167825000Y161375000D02*
X167825000Y160825000D01*
G75*
G02*
X167625000Y160625000I-200000J0D01*
G01*
X167225000Y160625000D01*
G75*
G02*
X167025000Y160825000I0J200000D01*
G01*
X167025000Y161375000D01*
G75*
G02*
X167225000Y161575000I200000J0D01*
G01*
X167625000Y161575000D01*
G75*
G02*
X167825000Y161375000I0J-200000D01*
G01*
G37*
G36*
G01*
X166175000Y161375000D02*
X166175000Y160825000D01*
G75*
G02*
X165975000Y160625000I-200000J0D01*
G01*
X165575000Y160625000D01*
G75*
G02*
X165375000Y160825000I0J200000D01*
G01*
X165375000Y161375000D01*
G75*
G02*
X165575000Y161575000I200000J0D01*
G01*
X165975000Y161575000D01*
G75*
G02*
X166175000Y161375000I0J-200000D01*
G01*
G37*
G04 #@! TD*
G04 #@! TO.C,R28*
G36*
G01*
X167925000Y154975000D02*
X167925000Y154425000D01*
G75*
G02*
X167725000Y154225000I-200000J0D01*
G01*
X167325000Y154225000D01*
G75*
G02*
X167125000Y154425000I0J200000D01*
G01*
X167125000Y154975000D01*
G75*
G02*
X167325000Y155175000I200000J0D01*
G01*
X167725000Y155175000D01*
G75*
G02*
X167925000Y154975000I0J-200000D01*
G01*
G37*
G36*
G01*
X166275000Y154975000D02*
X166275000Y154425000D01*
G75*
G02*
X166075000Y154225000I-200000J0D01*
G01*
X165675000Y154225000D01*
G75*
G02*
X165475000Y154425000I0J200000D01*
G01*
X165475000Y154975000D01*
G75*
G02*
X165675000Y155175000I200000J0D01*
G01*
X166075000Y155175000D01*
G75*
G02*
X166275000Y154975000I0J-200000D01*
G01*
G37*
G04 #@! TD*
G04 #@! TO.C,R39*
G36*
G01*
X166025000Y17275000D02*
X166025000Y16725000D01*
G75*
G02*
X165825000Y16525000I-200000J0D01*
G01*
X165425000Y16525000D01*
G75*
G02*
X165225000Y16725000I0J200000D01*
G01*
X165225000Y17275000D01*
G75*
G02*
X165425000Y17475000I200000J0D01*
G01*
X165825000Y17475000D01*
G75*
G02*
X166025000Y17275000I0J-200000D01*
G01*
G37*
G36*
G01*
X164375000Y17275000D02*
X164375000Y16725000D01*
G75*
G02*
X164175000Y16525000I-200000J0D01*
G01*
X163775000Y16525000D01*
G75*
G02*
X163575000Y16725000I0J200000D01*
G01*
X163575000Y17275000D01*
G75*
G02*
X163775000Y17475000I200000J0D01*
G01*
X164175000Y17475000D01*
G75*
G02*
X164375000Y17275000I0J-200000D01*
G01*
G37*
G04 #@! TD*
G04 #@! TO.C,RN3*
X100260000Y131660000D03*
D11*
X99460000Y131660000D03*
X98660000Y131660000D03*
D10*
X97860000Y131660000D03*
X97860000Y129860000D03*
D11*
X98660000Y129860000D03*
X99460000Y129860000D03*
D10*
X100260000Y129860000D03*
G04 #@! TD*
G04 #@! TO.C,R36*
G36*
G01*
X169575000Y160825000D02*
X169575000Y161375000D01*
G75*
G02*
X169775000Y161575000I200000J0D01*
G01*
X170175000Y161575000D01*
G75*
G02*
X170375000Y161375000I0J-200000D01*
G01*
X170375000Y160825000D01*
G75*
G02*
X170175000Y160625000I-200000J0D01*
G01*
X169775000Y160625000D01*
G75*
G02*
X169575000Y160825000I0J200000D01*
G01*
G37*
G36*
G01*
X171225000Y160825000D02*
X171225000Y161375000D01*
G75*
G02*
X171425000Y161575000I200000J0D01*
G01*
X171825000Y161575000D01*
G75*
G02*
X172025000Y161375000I0J-200000D01*
G01*
X172025000Y160825000D01*
G75*
G02*
X171825000Y160625000I-200000J0D01*
G01*
X171425000Y160625000D01*
G75*
G02*
X171225000Y160825000I0J200000D01*
G01*
G37*
G04 #@! TD*
G04 #@! TO.C,U4*
G36*
G01*
X121135000Y32295000D02*
X121435000Y32295000D01*
G75*
G02*
X121585000Y32145000I0J-150000D01*
G01*
X121585000Y30395000D01*
G75*
G02*
X121435000Y30245000I-150000J0D01*
G01*
X121135000Y30245000D01*
G75*
G02*
X120985000Y30395000I0J150000D01*
G01*
X120985000Y32145000D01*
G75*
G02*
X121135000Y32295000I150000J0D01*
G01*
G37*
G36*
G01*
X119865000Y32295000D02*
X120165000Y32295000D01*
G75*
G02*
X120315000Y32145000I0J-150000D01*
G01*
X120315000Y30395000D01*
G75*
G02*
X120165000Y30245000I-150000J0D01*
G01*
X119865000Y30245000D01*
G75*
G02*
X119715000Y30395000I0J150000D01*
G01*
X119715000Y32145000D01*
G75*
G02*
X119865000Y32295000I150000J0D01*
G01*
G37*
G36*
G01*
X118595000Y32295000D02*
X118895000Y32295000D01*
G75*
G02*
X119045000Y32145000I0J-150000D01*
G01*
X119045000Y30395000D01*
G75*
G02*
X118895000Y30245000I-150000J0D01*
G01*
X118595000Y30245000D01*
G75*
G02*
X118445000Y30395000I0J150000D01*
G01*
X118445000Y32145000D01*
G75*
G02*
X118595000Y32295000I150000J0D01*
G01*
G37*
G36*
G01*
X117325000Y32295000D02*
X117625000Y32295000D01*
G75*
G02*
X117775000Y32145000I0J-150000D01*
G01*
X117775000Y30395000D01*
G75*
G02*
X117625000Y30245000I-150000J0D01*
G01*
X117325000Y30245000D01*
G75*
G02*
X117175000Y30395000I0J150000D01*
G01*
X117175000Y32145000D01*
G75*
G02*
X117325000Y32295000I150000J0D01*
G01*
G37*
G36*
G01*
X116055000Y32295000D02*
X116355000Y32295000D01*
G75*
G02*
X116505000Y32145000I0J-150000D01*
G01*
X116505000Y30395000D01*
G75*
G02*
X116355000Y30245000I-150000J0D01*
G01*
X116055000Y30245000D01*
G75*
G02*
X115905000Y30395000I0J150000D01*
G01*
X115905000Y32145000D01*
G75*
G02*
X116055000Y32295000I150000J0D01*
G01*
G37*
G36*
G01*
X114785000Y32295000D02*
X115085000Y32295000D01*
G75*
G02*
X115235000Y32145000I0J-150000D01*
G01*
X115235000Y30395000D01*
G75*
G02*
X115085000Y30245000I-150000J0D01*
G01*
X114785000Y30245000D01*
G75*
G02*
X114635000Y30395000I0J150000D01*
G01*
X114635000Y32145000D01*
G75*
G02*
X114785000Y32295000I150000J0D01*
G01*
G37*
G36*
G01*
X113515000Y32295000D02*
X113815000Y32295000D01*
G75*
G02*
X113965000Y32145000I0J-150000D01*
G01*
X113965000Y30395000D01*
G75*
G02*
X113815000Y30245000I-150000J0D01*
G01*
X113515000Y30245000D01*
G75*
G02*
X113365000Y30395000I0J150000D01*
G01*
X113365000Y32145000D01*
G75*
G02*
X113515000Y32295000I150000J0D01*
G01*
G37*
G36*
G01*
X112245000Y32295000D02*
X112545000Y32295000D01*
G75*
G02*
X112695000Y32145000I0J-150000D01*
G01*
X112695000Y30395000D01*
G75*
G02*
X112545000Y30245000I-150000J0D01*
G01*
X112245000Y30245000D01*
G75*
G02*
X112095000Y30395000I0J150000D01*
G01*
X112095000Y32145000D01*
G75*
G02*
X112245000Y32295000I150000J0D01*
G01*
G37*
G36*
G01*
X110975000Y32295000D02*
X111275000Y32295000D01*
G75*
G02*
X111425000Y32145000I0J-150000D01*
G01*
X111425000Y30395000D01*
G75*
G02*
X111275000Y30245000I-150000J0D01*
G01*
X110975000Y30245000D01*
G75*
G02*
X110825000Y30395000I0J150000D01*
G01*
X110825000Y32145000D01*
G75*
G02*
X110975000Y32295000I150000J0D01*
G01*
G37*
G36*
G01*
X109705000Y32295000D02*
X110005000Y32295000D01*
G75*
G02*
X110155000Y32145000I0J-150000D01*
G01*
X110155000Y30395000D01*
G75*
G02*
X110005000Y30245000I-150000J0D01*
G01*
X109705000Y30245000D01*
G75*
G02*
X109555000Y30395000I0J150000D01*
G01*
X109555000Y32145000D01*
G75*
G02*
X109705000Y32295000I150000J0D01*
G01*
G37*
G36*
G01*
X108435000Y32295000D02*
X108735000Y32295000D01*
G75*
G02*
X108885000Y32145000I0J-150000D01*
G01*
X108885000Y30395000D01*
G75*
G02*
X108735000Y30245000I-150000J0D01*
G01*
X108435000Y30245000D01*
G75*
G02*
X108285000Y30395000I0J150000D01*
G01*
X108285000Y32145000D01*
G75*
G02*
X108435000Y32295000I150000J0D01*
G01*
G37*
G36*
G01*
X107165000Y32295000D02*
X107465000Y32295000D01*
G75*
G02*
X107615000Y32145000I0J-150000D01*
G01*
X107615000Y30395000D01*
G75*
G02*
X107465000Y30245000I-150000J0D01*
G01*
X107165000Y30245000D01*
G75*
G02*
X107015000Y30395000I0J150000D01*
G01*
X107015000Y32145000D01*
G75*
G02*
X107165000Y32295000I150000J0D01*
G01*
G37*
G36*
G01*
X107165000Y22995000D02*
X107465000Y22995000D01*
G75*
G02*
X107615000Y22845000I0J-150000D01*
G01*
X107615000Y21095000D01*
G75*
G02*
X107465000Y20945000I-150000J0D01*
G01*
X107165000Y20945000D01*
G75*
G02*
X107015000Y21095000I0J150000D01*
G01*
X107015000Y22845000D01*
G75*
G02*
X107165000Y22995000I150000J0D01*
G01*
G37*
G36*
G01*
X108435000Y22995000D02*
X108735000Y22995000D01*
G75*
G02*
X108885000Y22845000I0J-150000D01*
G01*
X108885000Y21095000D01*
G75*
G02*
X108735000Y20945000I-150000J0D01*
G01*
X108435000Y20945000D01*
G75*
G02*
X108285000Y21095000I0J150000D01*
G01*
X108285000Y22845000D01*
G75*
G02*
X108435000Y22995000I150000J0D01*
G01*
G37*
G36*
G01*
X109705000Y22995000D02*
X110005000Y22995000D01*
G75*
G02*
X110155000Y22845000I0J-150000D01*
G01*
X110155000Y21095000D01*
G75*
G02*
X110005000Y20945000I-150000J0D01*
G01*
X109705000Y20945000D01*
G75*
G02*
X109555000Y21095000I0J150000D01*
G01*
X109555000Y22845000D01*
G75*
G02*
X109705000Y22995000I150000J0D01*
G01*
G37*
G36*
G01*
X110975000Y22995000D02*
X111275000Y22995000D01*
G75*
G02*
X111425000Y22845000I0J-150000D01*
G01*
X111425000Y21095000D01*
G75*
G02*
X111275000Y20945000I-150000J0D01*
G01*
X110975000Y20945000D01*
G75*
G02*
X110825000Y21095000I0J150000D01*
G01*
X110825000Y22845000D01*
G75*
G02*
X110975000Y22995000I150000J0D01*
G01*
G37*
G36*
G01*
X112245000Y22995000D02*
X112545000Y22995000D01*
G75*
G02*
X112695000Y22845000I0J-150000D01*
G01*
X112695000Y21095000D01*
G75*
G02*
X112545000Y20945000I-150000J0D01*
G01*
X112245000Y20945000D01*
G75*
G02*
X112095000Y21095000I0J150000D01*
G01*
X112095000Y22845000D01*
G75*
G02*
X112245000Y22995000I150000J0D01*
G01*
G37*
G36*
G01*
X113515000Y22995000D02*
X113815000Y22995000D01*
G75*
G02*
X113965000Y22845000I0J-150000D01*
G01*
X113965000Y21095000D01*
G75*
G02*
X113815000Y20945000I-150000J0D01*
G01*
X113515000Y20945000D01*
G75*
G02*
X113365000Y21095000I0J150000D01*
G01*
X113365000Y22845000D01*
G75*
G02*
X113515000Y22995000I150000J0D01*
G01*
G37*
G36*
G01*
X114785000Y22995000D02*
X115085000Y22995000D01*
G75*
G02*
X115235000Y22845000I0J-150000D01*
G01*
X115235000Y21095000D01*
G75*
G02*
X115085000Y20945000I-150000J0D01*
G01*
X114785000Y20945000D01*
G75*
G02*
X114635000Y21095000I0J150000D01*
G01*
X114635000Y22845000D01*
G75*
G02*
X114785000Y22995000I150000J0D01*
G01*
G37*
G36*
G01*
X116055000Y22995000D02*
X116355000Y22995000D01*
G75*
G02*
X116505000Y22845000I0J-150000D01*
G01*
X116505000Y21095000D01*
G75*
G02*
X116355000Y20945000I-150000J0D01*
G01*
X116055000Y20945000D01*
G75*
G02*
X115905000Y21095000I0J150000D01*
G01*
X115905000Y22845000D01*
G75*
G02*
X116055000Y22995000I150000J0D01*
G01*
G37*
G36*
G01*
X117325000Y22995000D02*
X117625000Y22995000D01*
G75*
G02*
X117775000Y22845000I0J-150000D01*
G01*
X117775000Y21095000D01*
G75*
G02*
X117625000Y20945000I-150000J0D01*
G01*
X117325000Y20945000D01*
G75*
G02*
X117175000Y21095000I0J150000D01*
G01*
X117175000Y22845000D01*
G75*
G02*
X117325000Y22995000I150000J0D01*
G01*
G37*
G36*
G01*
X118595000Y22995000D02*
X118895000Y22995000D01*
G75*
G02*
X119045000Y22845000I0J-150000D01*
G01*
X119045000Y21095000D01*
G75*
G02*
X118895000Y20945000I-150000J0D01*
G01*
X118595000Y20945000D01*
G75*
G02*
X118445000Y21095000I0J150000D01*
G01*
X118445000Y22845000D01*
G75*
G02*
X118595000Y22995000I150000J0D01*
G01*
G37*
G36*
G01*
X119865000Y22995000D02*
X120165000Y22995000D01*
G75*
G02*
X120315000Y22845000I0J-150000D01*
G01*
X120315000Y21095000D01*
G75*
G02*
X120165000Y20945000I-150000J0D01*
G01*
X119865000Y20945000D01*
G75*
G02*
X119715000Y21095000I0J150000D01*
G01*
X119715000Y22845000D01*
G75*
G02*
X119865000Y22995000I150000J0D01*
G01*
G37*
G36*
G01*
X121135000Y22995000D02*
X121435000Y22995000D01*
G75*
G02*
X121585000Y22845000I0J-150000D01*
G01*
X121585000Y21095000D01*
G75*
G02*
X121435000Y20945000I-150000J0D01*
G01*
X121135000Y20945000D01*
G75*
G02*
X120985000Y21095000I0J150000D01*
G01*
X120985000Y22845000D01*
G75*
G02*
X121135000Y22995000I150000J0D01*
G01*
G37*
G04 #@! TD*
G04 #@! TO.C,RN10*
X100260000Y37680000D03*
D11*
X99460000Y37680000D03*
X98660000Y37680000D03*
D10*
X97860000Y37680000D03*
X97860000Y35880000D03*
D11*
X98660000Y35880000D03*
X99460000Y35880000D03*
D10*
X100260000Y35880000D03*
G04 #@! TD*
G04 #@! TO.C,R21*
G36*
G01*
X141775000Y134003575D02*
X141225000Y134003575D01*
G75*
G02*
X141025000Y134203575I0J200000D01*
G01*
X141025000Y134603575D01*
G75*
G02*
X141225000Y134803575I200000J0D01*
G01*
X141775000Y134803575D01*
G75*
G02*
X141975000Y134603575I0J-200000D01*
G01*
X141975000Y134203575D01*
G75*
G02*
X141775000Y134003575I-200000J0D01*
G01*
G37*
G36*
G01*
X141775000Y135653575D02*
X141225000Y135653575D01*
G75*
G02*
X141025000Y135853575I0J200000D01*
G01*
X141025000Y136253575D01*
G75*
G02*
X141225000Y136453575I200000J0D01*
G01*
X141775000Y136453575D01*
G75*
G02*
X141975000Y136253575I0J-200000D01*
G01*
X141975000Y135853575D01*
G75*
G02*
X141775000Y135653575I-200000J0D01*
G01*
G37*
G04 #@! TD*
G04 #@! TO.C,C7*
G36*
G01*
X103890000Y25400000D02*
X104390000Y25400000D01*
G75*
G02*
X104615000Y25175000I0J-225000D01*
G01*
X104615000Y24725000D01*
G75*
G02*
X104390000Y24500000I-225000J0D01*
G01*
X103890000Y24500000D01*
G75*
G02*
X103665000Y24725000I0J225000D01*
G01*
X103665000Y25175000D01*
G75*
G02*
X103890000Y25400000I225000J0D01*
G01*
G37*
G36*
G01*
X103890000Y23850000D02*
X104390000Y23850000D01*
G75*
G02*
X104615000Y23625000I0J-225000D01*
G01*
X104615000Y23175000D01*
G75*
G02*
X104390000Y22950000I-225000J0D01*
G01*
X103890000Y22950000D01*
G75*
G02*
X103665000Y23175000I0J225000D01*
G01*
X103665000Y23625000D01*
G75*
G02*
X103890000Y23850000I225000J0D01*
G01*
G37*
G04 #@! TD*
G04 #@! TO.C,Q5*
G36*
G01*
X143787500Y154000000D02*
X143787500Y154300000D01*
G75*
G02*
X143937500Y154450000I150000J0D01*
G01*
X145112500Y154450000D01*
G75*
G02*
X145262500Y154300000I0J-150000D01*
G01*
X145262500Y154000000D01*
G75*
G02*
X145112500Y153850000I-150000J0D01*
G01*
X143937500Y153850000D01*
G75*
G02*
X143787500Y154000000I0J150000D01*
G01*
G37*
G36*
G01*
X145662500Y153050000D02*
X145662500Y153350000D01*
G75*
G02*
X145812500Y153500000I150000J0D01*
G01*
X146987500Y153500000D01*
G75*
G02*
X147137500Y153350000I0J-150000D01*
G01*
X147137500Y153050000D01*
G75*
G02*
X146987500Y152900000I-150000J0D01*
G01*
X145812500Y152900000D01*
G75*
G02*
X145662500Y153050000I0J150000D01*
G01*
G37*
G36*
G01*
X143787500Y152100000D02*
X143787500Y152400000D01*
G75*
G02*
X143937500Y152550000I150000J0D01*
G01*
X145112500Y152550000D01*
G75*
G02*
X145262500Y152400000I0J-150000D01*
G01*
X145262500Y152100000D01*
G75*
G02*
X145112500Y151950000I-150000J0D01*
G01*
X143937500Y151950000D01*
G75*
G02*
X143787500Y152100000I0J150000D01*
G01*
G37*
G04 #@! TD*
G04 #@! TO.C,R37*
G36*
G01*
X172025000Y159475000D02*
X172025000Y158925000D01*
G75*
G02*
X171825000Y158725000I-200000J0D01*
G01*
X171425000Y158725000D01*
G75*
G02*
X171225000Y158925000I0J200000D01*
G01*
X171225000Y159475000D01*
G75*
G02*
X171425000Y159675000I200000J0D01*
G01*
X171825000Y159675000D01*
G75*
G02*
X172025000Y159475000I0J-200000D01*
G01*
G37*
G36*
G01*
X170375000Y159475000D02*
X170375000Y158925000D01*
G75*
G02*
X170175000Y158725000I-200000J0D01*
G01*
X169775000Y158725000D01*
G75*
G02*
X169575000Y158925000I0J200000D01*
G01*
X169575000Y159475000D01*
G75*
G02*
X169775000Y159675000I200000J0D01*
G01*
X170175000Y159675000D01*
G75*
G02*
X170375000Y159475000I0J-200000D01*
G01*
G37*
G04 #@! TD*
G04 #@! TO.C,F7*
G36*
G01*
X149775000Y127275000D02*
X149775000Y128525000D01*
G75*
G02*
X150025000Y128775000I250000J0D01*
G01*
X150775000Y128775000D01*
G75*
G02*
X151025000Y128525000I0J-250000D01*
G01*
X151025000Y127275000D01*
G75*
G02*
X150775000Y127025000I-250000J0D01*
G01*
X150025000Y127025000D01*
G75*
G02*
X149775000Y127275000I0J250000D01*
G01*
G37*
G36*
G01*
X152575000Y127275000D02*
X152575000Y128525000D01*
G75*
G02*
X152825000Y128775000I250000J0D01*
G01*
X153575000Y128775000D01*
G75*
G02*
X153825000Y128525000I0J-250000D01*
G01*
X153825000Y127275000D01*
G75*
G02*
X153575000Y127025000I-250000J0D01*
G01*
X152825000Y127025000D01*
G75*
G02*
X152575000Y127275000I0J250000D01*
G01*
G37*
G04 #@! TD*
G04 #@! TO.C,C11*
G36*
G01*
X150150000Y156350000D02*
X149650000Y156350000D01*
G75*
G02*
X149425000Y156575000I0J225000D01*
G01*
X149425000Y157025000D01*
G75*
G02*
X149650000Y157250000I225000J0D01*
G01*
X150150000Y157250000D01*
G75*
G02*
X150375000Y157025000I0J-225000D01*
G01*
X150375000Y156575000D01*
G75*
G02*
X150150000Y156350000I-225000J0D01*
G01*
G37*
G36*
G01*
X150150000Y157900000D02*
X149650000Y157900000D01*
G75*
G02*
X149425000Y158125000I0J225000D01*
G01*
X149425000Y158575000D01*
G75*
G02*
X149650000Y158800000I225000J0D01*
G01*
X150150000Y158800000D01*
G75*
G02*
X150375000Y158575000I0J-225000D01*
G01*
X150375000Y158125000D01*
G75*
G02*
X150150000Y157900000I-225000J0D01*
G01*
G37*
G04 #@! TD*
G04 #@! TO.C,R15*
G36*
G01*
X141775000Y141232145D02*
X141225000Y141232145D01*
G75*
G02*
X141025000Y141432145I0J200000D01*
G01*
X141025000Y141832145D01*
G75*
G02*
X141225000Y142032145I200000J0D01*
G01*
X141775000Y142032145D01*
G75*
G02*
X141975000Y141832145I0J-200000D01*
G01*
X141975000Y141432145D01*
G75*
G02*
X141775000Y141232145I-200000J0D01*
G01*
G37*
G36*
G01*
X141775000Y142882145D02*
X141225000Y142882145D01*
G75*
G02*
X141025000Y143082145I0J200000D01*
G01*
X141025000Y143482145D01*
G75*
G02*
X141225000Y143682145I200000J0D01*
G01*
X141775000Y143682145D01*
G75*
G02*
X141975000Y143482145I0J-200000D01*
G01*
X141975000Y143082145D01*
G75*
G02*
X141775000Y142882145I-200000J0D01*
G01*
G37*
G04 #@! TD*
G04 #@! TO.C,R13*
G36*
G01*
X51575000Y3475000D02*
X51025000Y3475000D01*
G75*
G02*
X50825000Y3675000I0J200000D01*
G01*
X50825000Y4075000D01*
G75*
G02*
X51025000Y4275000I200000J0D01*
G01*
X51575000Y4275000D01*
G75*
G02*
X51775000Y4075000I0J-200000D01*
G01*
X51775000Y3675000D01*
G75*
G02*
X51575000Y3475000I-200000J0D01*
G01*
G37*
G36*
G01*
X51575000Y5125000D02*
X51025000Y5125000D01*
G75*
G02*
X50825000Y5325000I0J200000D01*
G01*
X50825000Y5725000D01*
G75*
G02*
X51025000Y5925000I200000J0D01*
G01*
X51575000Y5925000D01*
G75*
G02*
X51775000Y5725000I0J-200000D01*
G01*
X51775000Y5325000D01*
G75*
G02*
X51575000Y5125000I-200000J0D01*
G01*
G37*
G04 #@! TD*
G04 #@! TO.C,F8*
G36*
G01*
X149775000Y130889290D02*
X149775000Y132139290D01*
G75*
G02*
X150025000Y132389290I250000J0D01*
G01*
X150775000Y132389290D01*
G75*
G02*
X151025000Y132139290I0J-250000D01*
G01*
X151025000Y130889290D01*
G75*
G02*
X150775000Y130639290I-250000J0D01*
G01*
X150025000Y130639290D01*
G75*
G02*
X149775000Y130889290I0J250000D01*
G01*
G37*
G36*
G01*
X152575000Y130889290D02*
X152575000Y132139290D01*
G75*
G02*
X152825000Y132389290I250000J0D01*
G01*
X153575000Y132389290D01*
G75*
G02*
X153825000Y132139290I0J-250000D01*
G01*
X153825000Y130889290D01*
G75*
G02*
X153575000Y130639290I-250000J0D01*
G01*
X152825000Y130639290D01*
G75*
G02*
X152575000Y130889290I0J250000D01*
G01*
G37*
G04 #@! TD*
D12*
G04 #@! TO.C,RN13*
X98810000Y114110000D03*
D13*
X98810000Y114910000D03*
X98810000Y115710000D03*
D12*
X98810000Y116510000D03*
X97010000Y116510000D03*
D13*
X97010000Y115710000D03*
X97010000Y114910000D03*
D12*
X97010000Y114110000D03*
G04 #@! TD*
G04 #@! TO.C,F5*
G36*
G01*
X149775000Y148960715D02*
X149775000Y150210715D01*
G75*
G02*
X150025000Y150460715I250000J0D01*
G01*
X150775000Y150460715D01*
G75*
G02*
X151025000Y150210715I0J-250000D01*
G01*
X151025000Y148960715D01*
G75*
G02*
X150775000Y148710715I-250000J0D01*
G01*
X150025000Y148710715D01*
G75*
G02*
X149775000Y148960715I0J250000D01*
G01*
G37*
G36*
G01*
X152575000Y148960715D02*
X152575000Y150210715D01*
G75*
G02*
X152825000Y150460715I250000J0D01*
G01*
X153575000Y150460715D01*
G75*
G02*
X153825000Y150210715I0J-250000D01*
G01*
X153825000Y148960715D01*
G75*
G02*
X153575000Y148710715I-250000J0D01*
G01*
X152825000Y148710715D01*
G75*
G02*
X152575000Y148960715I0J250000D01*
G01*
G37*
G04 #@! TD*
G04 #@! TO.C,Q1*
G36*
G01*
X143787500Y139542860D02*
X143787500Y139842860D01*
G75*
G02*
X143937500Y139992860I150000J0D01*
G01*
X145112500Y139992860D01*
G75*
G02*
X145262500Y139842860I0J-150000D01*
G01*
X145262500Y139542860D01*
G75*
G02*
X145112500Y139392860I-150000J0D01*
G01*
X143937500Y139392860D01*
G75*
G02*
X143787500Y139542860I0J150000D01*
G01*
G37*
G36*
G01*
X145662500Y138592860D02*
X145662500Y138892860D01*
G75*
G02*
X145812500Y139042860I150000J0D01*
G01*
X146987500Y139042860D01*
G75*
G02*
X147137500Y138892860I0J-150000D01*
G01*
X147137500Y138592860D01*
G75*
G02*
X146987500Y138442860I-150000J0D01*
G01*
X145812500Y138442860D01*
G75*
G02*
X145662500Y138592860I0J150000D01*
G01*
G37*
G36*
G01*
X143787500Y137642860D02*
X143787500Y137942860D01*
G75*
G02*
X143937500Y138092860I150000J0D01*
G01*
X145112500Y138092860D01*
G75*
G02*
X145262500Y137942860I0J-150000D01*
G01*
X145262500Y137642860D01*
G75*
G02*
X145112500Y137492860I-150000J0D01*
G01*
X143937500Y137492860D01*
G75*
G02*
X143787500Y137642860I0J150000D01*
G01*
G37*
G04 #@! TD*
G04 #@! TO.C,R58*
G36*
G01*
X169600000Y154425000D02*
X169600000Y154975000D01*
G75*
G02*
X169800000Y155175000I200000J0D01*
G01*
X170200000Y155175000D01*
G75*
G02*
X170400000Y154975000I0J-200000D01*
G01*
X170400000Y154425000D01*
G75*
G02*
X170200000Y154225000I-200000J0D01*
G01*
X169800000Y154225000D01*
G75*
G02*
X169600000Y154425000I0J200000D01*
G01*
G37*
G36*
G01*
X171250000Y154425000D02*
X171250000Y154975000D01*
G75*
G02*
X171450000Y155175000I200000J0D01*
G01*
X171850000Y155175000D01*
G75*
G02*
X172050000Y154975000I0J-200000D01*
G01*
X172050000Y154425000D01*
G75*
G02*
X171850000Y154225000I-200000J0D01*
G01*
X171450000Y154225000D01*
G75*
G02*
X171250000Y154425000I0J200000D01*
G01*
G37*
G04 #@! TD*
G04 #@! TO.C,R35*
G36*
G01*
X163925000Y159475000D02*
X163925000Y158925000D01*
G75*
G02*
X163725000Y158725000I-200000J0D01*
G01*
X163325000Y158725000D01*
G75*
G02*
X163125000Y158925000I0J200000D01*
G01*
X163125000Y159475000D01*
G75*
G02*
X163325000Y159675000I200000J0D01*
G01*
X163725000Y159675000D01*
G75*
G02*
X163925000Y159475000I0J-200000D01*
G01*
G37*
G36*
G01*
X162275000Y159475000D02*
X162275000Y158925000D01*
G75*
G02*
X162075000Y158725000I-200000J0D01*
G01*
X161675000Y158725000D01*
G75*
G02*
X161475000Y158925000I0J200000D01*
G01*
X161475000Y159475000D01*
G75*
G02*
X161675000Y159675000I200000J0D01*
G01*
X162075000Y159675000D01*
G75*
G02*
X162275000Y159475000I0J-200000D01*
G01*
G37*
G04 #@! TD*
G04 #@! TO.C,R7*
G36*
G01*
X97325000Y53650000D02*
X97875000Y53650000D01*
G75*
G02*
X98075000Y53450000I0J-200000D01*
G01*
X98075000Y53050000D01*
G75*
G02*
X97875000Y52850000I-200000J0D01*
G01*
X97325000Y52850000D01*
G75*
G02*
X97125000Y53050000I0J200000D01*
G01*
X97125000Y53450000D01*
G75*
G02*
X97325000Y53650000I200000J0D01*
G01*
G37*
G36*
G01*
X97325000Y52000000D02*
X97875000Y52000000D01*
G75*
G02*
X98075000Y51800000I0J-200000D01*
G01*
X98075000Y51400000D01*
G75*
G02*
X97875000Y51200000I-200000J0D01*
G01*
X97325000Y51200000D01*
G75*
G02*
X97125000Y51400000I0J200000D01*
G01*
X97125000Y51800000D01*
G75*
G02*
X97325000Y52000000I200000J0D01*
G01*
G37*
G04 #@! TD*
G04 #@! TO.C,C6*
G36*
G01*
X103890000Y81225000D02*
X104390000Y81225000D01*
G75*
G02*
X104615000Y81000000I0J-225000D01*
G01*
X104615000Y80550000D01*
G75*
G02*
X104390000Y80325000I-225000J0D01*
G01*
X103890000Y80325000D01*
G75*
G02*
X103665000Y80550000I0J225000D01*
G01*
X103665000Y81000000D01*
G75*
G02*
X103890000Y81225000I225000J0D01*
G01*
G37*
G36*
G01*
X103890000Y79675000D02*
X104390000Y79675000D01*
G75*
G02*
X104615000Y79450000I0J-225000D01*
G01*
X104615000Y79000000D01*
G75*
G02*
X104390000Y78775000I-225000J0D01*
G01*
X103890000Y78775000D01*
G75*
G02*
X103665000Y79000000I0J225000D01*
G01*
X103665000Y79450000D01*
G75*
G02*
X103890000Y79675000I225000J0D01*
G01*
G37*
G04 #@! TD*
G04 #@! TO.C,C1*
G36*
G01*
X113645000Y63890000D02*
X113645000Y63390000D01*
G75*
G02*
X113420000Y63165000I-225000J0D01*
G01*
X112970000Y63165000D01*
G75*
G02*
X112745000Y63390000I0J225000D01*
G01*
X112745000Y63890000D01*
G75*
G02*
X112970000Y64115000I225000J0D01*
G01*
X113420000Y64115000D01*
G75*
G02*
X113645000Y63890000I0J-225000D01*
G01*
G37*
G36*
G01*
X112095000Y63890000D02*
X112095000Y63390000D01*
G75*
G02*
X111870000Y63165000I-225000J0D01*
G01*
X111420000Y63165000D01*
G75*
G02*
X111195000Y63390000I0J225000D01*
G01*
X111195000Y63890000D01*
G75*
G02*
X111420000Y64115000I225000J0D01*
G01*
X111870000Y64115000D01*
G75*
G02*
X112095000Y63890000I0J-225000D01*
G01*
G37*
G04 #@! TD*
G04 #@! TO.C,R3*
G36*
G01*
X122675000Y108525000D02*
X122675000Y107275000D01*
G75*
G02*
X122425000Y107025000I-250000J0D01*
G01*
X121800000Y107025000D01*
G75*
G02*
X121550000Y107275000I0J250000D01*
G01*
X121550000Y108525000D01*
G75*
G02*
X121800000Y108775000I250000J0D01*
G01*
X122425000Y108775000D01*
G75*
G02*
X122675000Y108525000I0J-250000D01*
G01*
G37*
G36*
G01*
X119750000Y108525000D02*
X119750000Y107275000D01*
G75*
G02*
X119500000Y107025000I-250000J0D01*
G01*
X118875000Y107025000D01*
G75*
G02*
X118625000Y107275000I0J250000D01*
G01*
X118625000Y108525000D01*
G75*
G02*
X118875000Y108775000I250000J0D01*
G01*
X119500000Y108775000D01*
G75*
G02*
X119750000Y108525000I0J-250000D01*
G01*
G37*
G04 #@! TD*
G04 #@! TO.C,F3*
G36*
G01*
X149775000Y141732145D02*
X149775000Y142982145D01*
G75*
G02*
X150025000Y143232145I250000J0D01*
G01*
X150775000Y143232145D01*
G75*
G02*
X151025000Y142982145I0J-250000D01*
G01*
X151025000Y141732145D01*
G75*
G02*
X150775000Y141482145I-250000J0D01*
G01*
X150025000Y141482145D01*
G75*
G02*
X149775000Y141732145I0J250000D01*
G01*
G37*
G36*
G01*
X152575000Y141732145D02*
X152575000Y142982145D01*
G75*
G02*
X152825000Y143232145I250000J0D01*
G01*
X153575000Y143232145D01*
G75*
G02*
X153825000Y142982145I0J-250000D01*
G01*
X153825000Y141732145D01*
G75*
G02*
X153575000Y141482145I-250000J0D01*
G01*
X152825000Y141482145D01*
G75*
G02*
X152575000Y141732145I0J250000D01*
G01*
G37*
G04 #@! TD*
G04 #@! TO.C,R51*
G36*
G01*
X170200000Y66975000D02*
X170200000Y66425000D01*
G75*
G02*
X170000000Y66225000I-200000J0D01*
G01*
X169600000Y66225000D01*
G75*
G02*
X169400000Y66425000I0J200000D01*
G01*
X169400000Y66975000D01*
G75*
G02*
X169600000Y67175000I200000J0D01*
G01*
X170000000Y67175000D01*
G75*
G02*
X170200000Y66975000I0J-200000D01*
G01*
G37*
G36*
G01*
X168550000Y66975000D02*
X168550000Y66425000D01*
G75*
G02*
X168350000Y66225000I-200000J0D01*
G01*
X167950000Y66225000D01*
G75*
G02*
X167750000Y66425000I0J200000D01*
G01*
X167750000Y66975000D01*
G75*
G02*
X167950000Y67175000I200000J0D01*
G01*
X168350000Y67175000D01*
G75*
G02*
X168550000Y66975000I0J-200000D01*
G01*
G37*
G04 #@! TD*
G04 #@! TO.C,R31*
G36*
G01*
X165375000Y158925000D02*
X165375000Y159475000D01*
G75*
G02*
X165575000Y159675000I200000J0D01*
G01*
X165975000Y159675000D01*
G75*
G02*
X166175000Y159475000I0J-200000D01*
G01*
X166175000Y158925000D01*
G75*
G02*
X165975000Y158725000I-200000J0D01*
G01*
X165575000Y158725000D01*
G75*
G02*
X165375000Y158925000I0J200000D01*
G01*
G37*
G36*
G01*
X167025000Y158925000D02*
X167025000Y159475000D01*
G75*
G02*
X167225000Y159675000I200000J0D01*
G01*
X167625000Y159675000D01*
G75*
G02*
X167825000Y159475000I0J-200000D01*
G01*
X167825000Y158925000D01*
G75*
G02*
X167625000Y158725000I-200000J0D01*
G01*
X167225000Y158725000D01*
G75*
G02*
X167025000Y158925000I0J200000D01*
G01*
G37*
G04 #@! TD*
G04 #@! TO.C,F4*
G36*
G01*
X149775000Y145346430D02*
X149775000Y146596430D01*
G75*
G02*
X150025000Y146846430I250000J0D01*
G01*
X150775000Y146846430D01*
G75*
G02*
X151025000Y146596430I0J-250000D01*
G01*
X151025000Y145346430D01*
G75*
G02*
X150775000Y145096430I-250000J0D01*
G01*
X150025000Y145096430D01*
G75*
G02*
X149775000Y145346430I0J250000D01*
G01*
G37*
G36*
G01*
X152575000Y145346430D02*
X152575000Y146596430D01*
G75*
G02*
X152825000Y146846430I250000J0D01*
G01*
X153575000Y146846430D01*
G75*
G02*
X153825000Y146596430I0J-250000D01*
G01*
X153825000Y145346430D01*
G75*
G02*
X153575000Y145096430I-250000J0D01*
G01*
X152825000Y145096430D01*
G75*
G02*
X152575000Y145346430I0J250000D01*
G01*
G37*
G04 #@! TD*
G04 #@! TO.C,R52*
G36*
G01*
X166025000Y72775000D02*
X166025000Y72225000D01*
G75*
G02*
X165825000Y72025000I-200000J0D01*
G01*
X165425000Y72025000D01*
G75*
G02*
X165225000Y72225000I0J200000D01*
G01*
X165225000Y72775000D01*
G75*
G02*
X165425000Y72975000I200000J0D01*
G01*
X165825000Y72975000D01*
G75*
G02*
X166025000Y72775000I0J-200000D01*
G01*
G37*
G36*
G01*
X164375000Y72775000D02*
X164375000Y72225000D01*
G75*
G02*
X164175000Y72025000I-200000J0D01*
G01*
X163775000Y72025000D01*
G75*
G02*
X163575000Y72225000I0J200000D01*
G01*
X163575000Y72775000D01*
G75*
G02*
X163775000Y72975000I200000J0D01*
G01*
X164175000Y72975000D01*
G75*
G02*
X164375000Y72775000I0J-200000D01*
G01*
G37*
G04 #@! TD*
G04 #@! TO.C,U5*
G36*
G01*
X100815000Y146595000D02*
X101115000Y146595000D01*
G75*
G02*
X101265000Y146445000I0J-150000D01*
G01*
X101265000Y144695000D01*
G75*
G02*
X101115000Y144545000I-150000J0D01*
G01*
X100815000Y144545000D01*
G75*
G02*
X100665000Y144695000I0J150000D01*
G01*
X100665000Y146445000D01*
G75*
G02*
X100815000Y146595000I150000J0D01*
G01*
G37*
G36*
G01*
X99545000Y146595000D02*
X99845000Y146595000D01*
G75*
G02*
X99995000Y146445000I0J-150000D01*
G01*
X99995000Y144695000D01*
G75*
G02*
X99845000Y144545000I-150000J0D01*
G01*
X99545000Y144545000D01*
G75*
G02*
X99395000Y144695000I0J150000D01*
G01*
X99395000Y146445000D01*
G75*
G02*
X99545000Y146595000I150000J0D01*
G01*
G37*
G36*
G01*
X98275000Y146595000D02*
X98575000Y146595000D01*
G75*
G02*
X98725000Y146445000I0J-150000D01*
G01*
X98725000Y144695000D01*
G75*
G02*
X98575000Y144545000I-150000J0D01*
G01*
X98275000Y144545000D01*
G75*
G02*
X98125000Y144695000I0J150000D01*
G01*
X98125000Y146445000D01*
G75*
G02*
X98275000Y146595000I150000J0D01*
G01*
G37*
G36*
G01*
X97005000Y146595000D02*
X97305000Y146595000D01*
G75*
G02*
X97455000Y146445000I0J-150000D01*
G01*
X97455000Y144695000D01*
G75*
G02*
X97305000Y144545000I-150000J0D01*
G01*
X97005000Y144545000D01*
G75*
G02*
X96855000Y144695000I0J150000D01*
G01*
X96855000Y146445000D01*
G75*
G02*
X97005000Y146595000I150000J0D01*
G01*
G37*
G36*
G01*
X95735000Y146595000D02*
X96035000Y146595000D01*
G75*
G02*
X96185000Y146445000I0J-150000D01*
G01*
X96185000Y144695000D01*
G75*
G02*
X96035000Y144545000I-150000J0D01*
G01*
X95735000Y144545000D01*
G75*
G02*
X95585000Y144695000I0J150000D01*
G01*
X95585000Y146445000D01*
G75*
G02*
X95735000Y146595000I150000J0D01*
G01*
G37*
G36*
G01*
X94465000Y146595000D02*
X94765000Y146595000D01*
G75*
G02*
X94915000Y146445000I0J-150000D01*
G01*
X94915000Y144695000D01*
G75*
G02*
X94765000Y144545000I-150000J0D01*
G01*
X94465000Y144545000D01*
G75*
G02*
X94315000Y144695000I0J150000D01*
G01*
X94315000Y146445000D01*
G75*
G02*
X94465000Y146595000I150000J0D01*
G01*
G37*
G36*
G01*
X93195000Y146595000D02*
X93495000Y146595000D01*
G75*
G02*
X93645000Y146445000I0J-150000D01*
G01*
X93645000Y144695000D01*
G75*
G02*
X93495000Y144545000I-150000J0D01*
G01*
X93195000Y144545000D01*
G75*
G02*
X93045000Y144695000I0J150000D01*
G01*
X93045000Y146445000D01*
G75*
G02*
X93195000Y146595000I150000J0D01*
G01*
G37*
G36*
G01*
X91925000Y146595000D02*
X92225000Y146595000D01*
G75*
G02*
X92375000Y146445000I0J-150000D01*
G01*
X92375000Y144695000D01*
G75*
G02*
X92225000Y144545000I-150000J0D01*
G01*
X91925000Y144545000D01*
G75*
G02*
X91775000Y144695000I0J150000D01*
G01*
X91775000Y146445000D01*
G75*
G02*
X91925000Y146595000I150000J0D01*
G01*
G37*
G36*
G01*
X90655000Y146595000D02*
X90955000Y146595000D01*
G75*
G02*
X91105000Y146445000I0J-150000D01*
G01*
X91105000Y144695000D01*
G75*
G02*
X90955000Y144545000I-150000J0D01*
G01*
X90655000Y144545000D01*
G75*
G02*
X90505000Y144695000I0J150000D01*
G01*
X90505000Y146445000D01*
G75*
G02*
X90655000Y146595000I150000J0D01*
G01*
G37*
G36*
G01*
X89385000Y146595000D02*
X89685000Y146595000D01*
G75*
G02*
X89835000Y146445000I0J-150000D01*
G01*
X89835000Y144695000D01*
G75*
G02*
X89685000Y144545000I-150000J0D01*
G01*
X89385000Y144545000D01*
G75*
G02*
X89235000Y144695000I0J150000D01*
G01*
X89235000Y146445000D01*
G75*
G02*
X89385000Y146595000I150000J0D01*
G01*
G37*
G36*
G01*
X88115000Y146595000D02*
X88415000Y146595000D01*
G75*
G02*
X88565000Y146445000I0J-150000D01*
G01*
X88565000Y144695000D01*
G75*
G02*
X88415000Y144545000I-150000J0D01*
G01*
X88115000Y144545000D01*
G75*
G02*
X87965000Y144695000I0J150000D01*
G01*
X87965000Y146445000D01*
G75*
G02*
X88115000Y146595000I150000J0D01*
G01*
G37*
G36*
G01*
X86845000Y146595000D02*
X87145000Y146595000D01*
G75*
G02*
X87295000Y146445000I0J-150000D01*
G01*
X87295000Y144695000D01*
G75*
G02*
X87145000Y144545000I-150000J0D01*
G01*
X86845000Y144545000D01*
G75*
G02*
X86695000Y144695000I0J150000D01*
G01*
X86695000Y146445000D01*
G75*
G02*
X86845000Y146595000I150000J0D01*
G01*
G37*
G36*
G01*
X86845000Y137295000D02*
X87145000Y137295000D01*
G75*
G02*
X87295000Y137145000I0J-150000D01*
G01*
X87295000Y135395000D01*
G75*
G02*
X87145000Y135245000I-150000J0D01*
G01*
X86845000Y135245000D01*
G75*
G02*
X86695000Y135395000I0J150000D01*
G01*
X86695000Y137145000D01*
G75*
G02*
X86845000Y137295000I150000J0D01*
G01*
G37*
G36*
G01*
X88115000Y137295000D02*
X88415000Y137295000D01*
G75*
G02*
X88565000Y137145000I0J-150000D01*
G01*
X88565000Y135395000D01*
G75*
G02*
X88415000Y135245000I-150000J0D01*
G01*
X88115000Y135245000D01*
G75*
G02*
X87965000Y135395000I0J150000D01*
G01*
X87965000Y137145000D01*
G75*
G02*
X88115000Y137295000I150000J0D01*
G01*
G37*
G36*
G01*
X89385000Y137295000D02*
X89685000Y137295000D01*
G75*
G02*
X89835000Y137145000I0J-150000D01*
G01*
X89835000Y135395000D01*
G75*
G02*
X89685000Y135245000I-150000J0D01*
G01*
X89385000Y135245000D01*
G75*
G02*
X89235000Y135395000I0J150000D01*
G01*
X89235000Y137145000D01*
G75*
G02*
X89385000Y137295000I150000J0D01*
G01*
G37*
G36*
G01*
X90655000Y137295000D02*
X90955000Y137295000D01*
G75*
G02*
X91105000Y137145000I0J-150000D01*
G01*
X91105000Y135395000D01*
G75*
G02*
X90955000Y135245000I-150000J0D01*
G01*
X90655000Y135245000D01*
G75*
G02*
X90505000Y135395000I0J150000D01*
G01*
X90505000Y137145000D01*
G75*
G02*
X90655000Y137295000I150000J0D01*
G01*
G37*
G36*
G01*
X91925000Y137295000D02*
X92225000Y137295000D01*
G75*
G02*
X92375000Y137145000I0J-150000D01*
G01*
X92375000Y135395000D01*
G75*
G02*
X92225000Y135245000I-150000J0D01*
G01*
X91925000Y135245000D01*
G75*
G02*
X91775000Y135395000I0J150000D01*
G01*
X91775000Y137145000D01*
G75*
G02*
X91925000Y137295000I150000J0D01*
G01*
G37*
G36*
G01*
X93195000Y137295000D02*
X93495000Y137295000D01*
G75*
G02*
X93645000Y137145000I0J-150000D01*
G01*
X93645000Y135395000D01*
G75*
G02*
X93495000Y135245000I-150000J0D01*
G01*
X93195000Y135245000D01*
G75*
G02*
X93045000Y135395000I0J150000D01*
G01*
X93045000Y137145000D01*
G75*
G02*
X93195000Y137295000I150000J0D01*
G01*
G37*
G36*
G01*
X94465000Y137295000D02*
X94765000Y137295000D01*
G75*
G02*
X94915000Y137145000I0J-150000D01*
G01*
X94915000Y135395000D01*
G75*
G02*
X94765000Y135245000I-150000J0D01*
G01*
X94465000Y135245000D01*
G75*
G02*
X94315000Y135395000I0J150000D01*
G01*
X94315000Y137145000D01*
G75*
G02*
X94465000Y137295000I150000J0D01*
G01*
G37*
G36*
G01*
X95735000Y137295000D02*
X96035000Y137295000D01*
G75*
G02*
X96185000Y137145000I0J-150000D01*
G01*
X96185000Y135395000D01*
G75*
G02*
X96035000Y135245000I-150000J0D01*
G01*
X95735000Y135245000D01*
G75*
G02*
X95585000Y135395000I0J150000D01*
G01*
X95585000Y137145000D01*
G75*
G02*
X95735000Y137295000I150000J0D01*
G01*
G37*
G36*
G01*
X97005000Y137295000D02*
X97305000Y137295000D01*
G75*
G02*
X97455000Y137145000I0J-150000D01*
G01*
X97455000Y135395000D01*
G75*
G02*
X97305000Y135245000I-150000J0D01*
G01*
X97005000Y135245000D01*
G75*
G02*
X96855000Y135395000I0J150000D01*
G01*
X96855000Y137145000D01*
G75*
G02*
X97005000Y137295000I150000J0D01*
G01*
G37*
G36*
G01*
X98275000Y137295000D02*
X98575000Y137295000D01*
G75*
G02*
X98725000Y137145000I0J-150000D01*
G01*
X98725000Y135395000D01*
G75*
G02*
X98575000Y135245000I-150000J0D01*
G01*
X98275000Y135245000D01*
G75*
G02*
X98125000Y135395000I0J150000D01*
G01*
X98125000Y137145000D01*
G75*
G02*
X98275000Y137295000I150000J0D01*
G01*
G37*
G36*
G01*
X99545000Y137295000D02*
X99845000Y137295000D01*
G75*
G02*
X99995000Y137145000I0J-150000D01*
G01*
X99995000Y135395000D01*
G75*
G02*
X99845000Y135245000I-150000J0D01*
G01*
X99545000Y135245000D01*
G75*
G02*
X99395000Y135395000I0J150000D01*
G01*
X99395000Y137145000D01*
G75*
G02*
X99545000Y137295000I150000J0D01*
G01*
G37*
G36*
G01*
X100815000Y137295000D02*
X101115000Y137295000D01*
G75*
G02*
X101265000Y137145000I0J-150000D01*
G01*
X101265000Y135395000D01*
G75*
G02*
X101115000Y135245000I-150000J0D01*
G01*
X100815000Y135245000D01*
G75*
G02*
X100665000Y135395000I0J150000D01*
G01*
X100665000Y137145000D01*
G75*
G02*
X100815000Y137295000I150000J0D01*
G01*
G37*
G04 #@! TD*
G04 #@! TO.C,C13*
G36*
G01*
X113645000Y54390000D02*
X113645000Y53890000D01*
G75*
G02*
X113420000Y53665000I-225000J0D01*
G01*
X112970000Y53665000D01*
G75*
G02*
X112745000Y53890000I0J225000D01*
G01*
X112745000Y54390000D01*
G75*
G02*
X112970000Y54615000I225000J0D01*
G01*
X113420000Y54615000D01*
G75*
G02*
X113645000Y54390000I0J-225000D01*
G01*
G37*
G36*
G01*
X112095000Y54390000D02*
X112095000Y53890000D01*
G75*
G02*
X111870000Y53665000I-225000J0D01*
G01*
X111420000Y53665000D01*
G75*
G02*
X111195000Y53890000I0J225000D01*
G01*
X111195000Y54390000D01*
G75*
G02*
X111420000Y54615000I225000J0D01*
G01*
X111870000Y54615000D01*
G75*
G02*
X112095000Y54390000I0J-225000D01*
G01*
G37*
G04 #@! TD*
G04 #@! TO.C,R57*
G36*
G01*
X169375000Y58599999D02*
X169375000Y58049999D01*
G75*
G02*
X169175000Y57849999I-200000J0D01*
G01*
X168775000Y57849999D01*
G75*
G02*
X168575000Y58049999I0J200000D01*
G01*
X168575000Y58599999D01*
G75*
G02*
X168775000Y58799999I200000J0D01*
G01*
X169175000Y58799999D01*
G75*
G02*
X169375000Y58599999I0J-200000D01*
G01*
G37*
G36*
G01*
X167725000Y58599999D02*
X167725000Y58049999D01*
G75*
G02*
X167525000Y57849999I-200000J0D01*
G01*
X167125000Y57849999D01*
G75*
G02*
X166925000Y58049999I0J200000D01*
G01*
X166925000Y58599999D01*
G75*
G02*
X167125000Y58799999I200000J0D01*
G01*
X167525000Y58799999D01*
G75*
G02*
X167725000Y58599999I0J-200000D01*
G01*
G37*
G04 #@! TD*
G04 #@! TO.C,R2*
G36*
G01*
X122675000Y114875000D02*
X122675000Y113625000D01*
G75*
G02*
X122425000Y113375000I-250000J0D01*
G01*
X121800000Y113375000D01*
G75*
G02*
X121550000Y113625000I0J250000D01*
G01*
X121550000Y114875000D01*
G75*
G02*
X121800000Y115125000I250000J0D01*
G01*
X122425000Y115125000D01*
G75*
G02*
X122675000Y114875000I0J-250000D01*
G01*
G37*
G36*
G01*
X119750000Y114875000D02*
X119750000Y113625000D01*
G75*
G02*
X119500000Y113375000I-250000J0D01*
G01*
X118875000Y113375000D01*
G75*
G02*
X118625000Y113625000I0J250000D01*
G01*
X118625000Y114875000D01*
G75*
G02*
X118875000Y115125000I250000J0D01*
G01*
X119500000Y115125000D01*
G75*
G02*
X119750000Y114875000I0J-250000D01*
G01*
G37*
G04 #@! TD*
D10*
G04 #@! TO.C,RN6*
X100260000Y93560000D03*
D11*
X99460000Y93560000D03*
X98660000Y93560000D03*
D10*
X97860000Y93560000D03*
X97860000Y91760000D03*
D11*
X98660000Y91760000D03*
X99460000Y91760000D03*
D10*
X100260000Y91760000D03*
G04 #@! TD*
G04 #@! TO.C,RN11*
X97860000Y15560000D03*
D11*
X98660000Y15560000D03*
X99460000Y15560000D03*
D10*
X100260000Y15560000D03*
X100260000Y17360000D03*
D11*
X99460000Y17360000D03*
X98660000Y17360000D03*
D10*
X97860000Y17360000D03*
G04 #@! TD*
G04 #@! TO.C,R56*
G36*
G01*
X151215000Y159880000D02*
X151585000Y159880000D01*
G75*
G02*
X151720000Y159745000I0J-135000D01*
G01*
X151720000Y159475000D01*
G75*
G02*
X151585000Y159340000I-135000J0D01*
G01*
X151215000Y159340000D01*
G75*
G02*
X151080000Y159475000I0J135000D01*
G01*
X151080000Y159745000D01*
G75*
G02*
X151215000Y159880000I135000J0D01*
G01*
G37*
G36*
G01*
X151215000Y158860000D02*
X151585000Y158860000D01*
G75*
G02*
X151720000Y158725000I0J-135000D01*
G01*
X151720000Y158455000D01*
G75*
G02*
X151585000Y158320000I-135000J0D01*
G01*
X151215000Y158320000D01*
G75*
G02*
X151080000Y158455000I0J135000D01*
G01*
X151080000Y158725000D01*
G75*
G02*
X151215000Y158860000I135000J0D01*
G01*
G37*
G04 #@! TD*
G04 #@! TO.C,U10*
G36*
G01*
X86720000Y117275000D02*
X86720000Y117575000D01*
G75*
G02*
X86870000Y117725000I150000J0D01*
G01*
X88520000Y117725000D01*
G75*
G02*
X88670000Y117575000I0J-150000D01*
G01*
X88670000Y117275000D01*
G75*
G02*
X88520000Y117125000I-150000J0D01*
G01*
X86870000Y117125000D01*
G75*
G02*
X86720000Y117275000I0J150000D01*
G01*
G37*
G36*
G01*
X86720000Y116005000D02*
X86720000Y116305000D01*
G75*
G02*
X86870000Y116455000I150000J0D01*
G01*
X88520000Y116455000D01*
G75*
G02*
X88670000Y116305000I0J-150000D01*
G01*
X88670000Y116005000D01*
G75*
G02*
X88520000Y115855000I-150000J0D01*
G01*
X86870000Y115855000D01*
G75*
G02*
X86720000Y116005000I0J150000D01*
G01*
G37*
G36*
G01*
X86720000Y114735000D02*
X86720000Y115035000D01*
G75*
G02*
X86870000Y115185000I150000J0D01*
G01*
X88520000Y115185000D01*
G75*
G02*
X88670000Y115035000I0J-150000D01*
G01*
X88670000Y114735000D01*
G75*
G02*
X88520000Y114585000I-150000J0D01*
G01*
X86870000Y114585000D01*
G75*
G02*
X86720000Y114735000I0J150000D01*
G01*
G37*
G36*
G01*
X86720000Y113465000D02*
X86720000Y113765000D01*
G75*
G02*
X86870000Y113915000I150000J0D01*
G01*
X88520000Y113915000D01*
G75*
G02*
X88670000Y113765000I0J-150000D01*
G01*
X88670000Y113465000D01*
G75*
G02*
X88520000Y113315000I-150000J0D01*
G01*
X86870000Y113315000D01*
G75*
G02*
X86720000Y113465000I0J150000D01*
G01*
G37*
G36*
G01*
X86720000Y112195000D02*
X86720000Y112495000D01*
G75*
G02*
X86870000Y112645000I150000J0D01*
G01*
X88520000Y112645000D01*
G75*
G02*
X88670000Y112495000I0J-150000D01*
G01*
X88670000Y112195000D01*
G75*
G02*
X88520000Y112045000I-150000J0D01*
G01*
X86870000Y112045000D01*
G75*
G02*
X86720000Y112195000I0J150000D01*
G01*
G37*
G36*
G01*
X86720000Y110925000D02*
X86720000Y111225000D01*
G75*
G02*
X86870000Y111375000I150000J0D01*
G01*
X88520000Y111375000D01*
G75*
G02*
X88670000Y111225000I0J-150000D01*
G01*
X88670000Y110925000D01*
G75*
G02*
X88520000Y110775000I-150000J0D01*
G01*
X86870000Y110775000D01*
G75*
G02*
X86720000Y110925000I0J150000D01*
G01*
G37*
G36*
G01*
X86720000Y109655000D02*
X86720000Y109955000D01*
G75*
G02*
X86870000Y110105000I150000J0D01*
G01*
X88520000Y110105000D01*
G75*
G02*
X88670000Y109955000I0J-150000D01*
G01*
X88670000Y109655000D01*
G75*
G02*
X88520000Y109505000I-150000J0D01*
G01*
X86870000Y109505000D01*
G75*
G02*
X86720000Y109655000I0J150000D01*
G01*
G37*
G36*
G01*
X86720000Y108385000D02*
X86720000Y108685000D01*
G75*
G02*
X86870000Y108835000I150000J0D01*
G01*
X88520000Y108835000D01*
G75*
G02*
X88670000Y108685000I0J-150000D01*
G01*
X88670000Y108385000D01*
G75*
G02*
X88520000Y108235000I-150000J0D01*
G01*
X86870000Y108235000D01*
G75*
G02*
X86720000Y108385000I0J150000D01*
G01*
G37*
G36*
G01*
X91670000Y108385000D02*
X91670000Y108685000D01*
G75*
G02*
X91820000Y108835000I150000J0D01*
G01*
X93470000Y108835000D01*
G75*
G02*
X93620000Y108685000I0J-150000D01*
G01*
X93620000Y108385000D01*
G75*
G02*
X93470000Y108235000I-150000J0D01*
G01*
X91820000Y108235000D01*
G75*
G02*
X91670000Y108385000I0J150000D01*
G01*
G37*
G36*
G01*
X91670000Y109655000D02*
X91670000Y109955000D01*
G75*
G02*
X91820000Y110105000I150000J0D01*
G01*
X93470000Y110105000D01*
G75*
G02*
X93620000Y109955000I0J-150000D01*
G01*
X93620000Y109655000D01*
G75*
G02*
X93470000Y109505000I-150000J0D01*
G01*
X91820000Y109505000D01*
G75*
G02*
X91670000Y109655000I0J150000D01*
G01*
G37*
G36*
G01*
X91670000Y110925000D02*
X91670000Y111225000D01*
G75*
G02*
X91820000Y111375000I150000J0D01*
G01*
X93470000Y111375000D01*
G75*
G02*
X93620000Y111225000I0J-150000D01*
G01*
X93620000Y110925000D01*
G75*
G02*
X93470000Y110775000I-150000J0D01*
G01*
X91820000Y110775000D01*
G75*
G02*
X91670000Y110925000I0J150000D01*
G01*
G37*
G36*
G01*
X91670000Y112195000D02*
X91670000Y112495000D01*
G75*
G02*
X91820000Y112645000I150000J0D01*
G01*
X93470000Y112645000D01*
G75*
G02*
X93620000Y112495000I0J-150000D01*
G01*
X93620000Y112195000D01*
G75*
G02*
X93470000Y112045000I-150000J0D01*
G01*
X91820000Y112045000D01*
G75*
G02*
X91670000Y112195000I0J150000D01*
G01*
G37*
G36*
G01*
X91670000Y113465000D02*
X91670000Y113765000D01*
G75*
G02*
X91820000Y113915000I150000J0D01*
G01*
X93470000Y113915000D01*
G75*
G02*
X93620000Y113765000I0J-150000D01*
G01*
X93620000Y113465000D01*
G75*
G02*
X93470000Y113315000I-150000J0D01*
G01*
X91820000Y113315000D01*
G75*
G02*
X91670000Y113465000I0J150000D01*
G01*
G37*
G36*
G01*
X91670000Y114735000D02*
X91670000Y115035000D01*
G75*
G02*
X91820000Y115185000I150000J0D01*
G01*
X93470000Y115185000D01*
G75*
G02*
X93620000Y115035000I0J-150000D01*
G01*
X93620000Y114735000D01*
G75*
G02*
X93470000Y114585000I-150000J0D01*
G01*
X91820000Y114585000D01*
G75*
G02*
X91670000Y114735000I0J150000D01*
G01*
G37*
G36*
G01*
X91670000Y116005000D02*
X91670000Y116305000D01*
G75*
G02*
X91820000Y116455000I150000J0D01*
G01*
X93470000Y116455000D01*
G75*
G02*
X93620000Y116305000I0J-150000D01*
G01*
X93620000Y116005000D01*
G75*
G02*
X93470000Y115855000I-150000J0D01*
G01*
X91820000Y115855000D01*
G75*
G02*
X91670000Y116005000I0J150000D01*
G01*
G37*
G36*
G01*
X91670000Y117275000D02*
X91670000Y117575000D01*
G75*
G02*
X91820000Y117725000I150000J0D01*
G01*
X93470000Y117725000D01*
G75*
G02*
X93620000Y117575000I0J-150000D01*
G01*
X93620000Y117275000D01*
G75*
G02*
X93470000Y117125000I-150000J0D01*
G01*
X91820000Y117125000D01*
G75*
G02*
X91670000Y117275000I0J150000D01*
G01*
G37*
G04 #@! TD*
G04 #@! TO.C,R55*
G36*
G01*
X163575000Y66425000D02*
X163575000Y66975000D01*
G75*
G02*
X163775000Y67175000I200000J0D01*
G01*
X164175000Y67175000D01*
G75*
G02*
X164375000Y66975000I0J-200000D01*
G01*
X164375000Y66425000D01*
G75*
G02*
X164175000Y66225000I-200000J0D01*
G01*
X163775000Y66225000D01*
G75*
G02*
X163575000Y66425000I0J200000D01*
G01*
G37*
G36*
G01*
X165225000Y66425000D02*
X165225000Y66975000D01*
G75*
G02*
X165425000Y67175000I200000J0D01*
G01*
X165825000Y67175000D01*
G75*
G02*
X166025000Y66975000I0J-200000D01*
G01*
X166025000Y66425000D01*
G75*
G02*
X165825000Y66225000I-200000J0D01*
G01*
X165425000Y66225000D01*
G75*
G02*
X165225000Y66425000I0J200000D01*
G01*
G37*
G04 #@! TD*
G04 #@! TO.C,Q8*
G36*
G01*
X143787500Y135928575D02*
X143787500Y136228575D01*
G75*
G02*
X143937500Y136378575I150000J0D01*
G01*
X145112500Y136378575D01*
G75*
G02*
X145262500Y136228575I0J-150000D01*
G01*
X145262500Y135928575D01*
G75*
G02*
X145112500Y135778575I-150000J0D01*
G01*
X143937500Y135778575D01*
G75*
G02*
X143787500Y135928575I0J150000D01*
G01*
G37*
G36*
G01*
X145662500Y134978575D02*
X145662500Y135278575D01*
G75*
G02*
X145812500Y135428575I150000J0D01*
G01*
X146987500Y135428575D01*
G75*
G02*
X147137500Y135278575I0J-150000D01*
G01*
X147137500Y134978575D01*
G75*
G02*
X146987500Y134828575I-150000J0D01*
G01*
X145812500Y134828575D01*
G75*
G02*
X145662500Y134978575I0J150000D01*
G01*
G37*
G36*
G01*
X143787500Y134028575D02*
X143787500Y134328575D01*
G75*
G02*
X143937500Y134478575I150000J0D01*
G01*
X145112500Y134478575D01*
G75*
G02*
X145262500Y134328575I0J-150000D01*
G01*
X145262500Y134028575D01*
G75*
G02*
X145112500Y133878575I-150000J0D01*
G01*
X143937500Y133878575D01*
G75*
G02*
X143787500Y134028575I0J150000D01*
G01*
G37*
G04 #@! TD*
G04 #@! TO.C,D4*
G36*
G01*
X165125000Y60700002D02*
X165125000Y61600002D01*
G75*
G02*
X165225000Y61700002I100000J0D01*
G01*
X166025000Y61700002D01*
G75*
G02*
X166125000Y61600002I0J-100000D01*
G01*
X166125000Y60700002D01*
G75*
G02*
X166025000Y60600002I-100000J0D01*
G01*
X165225000Y60600002D01*
G75*
G02*
X165125000Y60700002I0J100000D01*
G01*
G37*
G36*
G01*
X166825000Y60700002D02*
X166825000Y61600002D01*
G75*
G02*
X166925000Y61700002I100000J0D01*
G01*
X167725000Y61700002D01*
G75*
G02*
X167825000Y61600002I0J-100000D01*
G01*
X167825000Y60700002D01*
G75*
G02*
X167725000Y60600002I-100000J0D01*
G01*
X166925000Y60600002D01*
G75*
G02*
X166825000Y60700002I0J100000D01*
G01*
G37*
G04 #@! TD*
G04 #@! TO.C,R8*
G36*
G01*
X111895000Y48815000D02*
X111345000Y48815000D01*
G75*
G02*
X111145000Y49015000I0J200000D01*
G01*
X111145000Y49415000D01*
G75*
G02*
X111345000Y49615000I200000J0D01*
G01*
X111895000Y49615000D01*
G75*
G02*
X112095000Y49415000I0J-200000D01*
G01*
X112095000Y49015000D01*
G75*
G02*
X111895000Y48815000I-200000J0D01*
G01*
G37*
G36*
G01*
X111895000Y50465000D02*
X111345000Y50465000D01*
G75*
G02*
X111145000Y50665000I0J200000D01*
G01*
X111145000Y51065000D01*
G75*
G02*
X111345000Y51265000I200000J0D01*
G01*
X111895000Y51265000D01*
G75*
G02*
X112095000Y51065000I0J-200000D01*
G01*
X112095000Y50665000D01*
G75*
G02*
X111895000Y50465000I-200000J0D01*
G01*
G37*
G04 #@! TD*
G04 #@! TO.C,R49*
G36*
G01*
X170050000Y11075000D02*
X170050000Y10525000D01*
G75*
G02*
X169850000Y10325000I-200000J0D01*
G01*
X169450000Y10325000D01*
G75*
G02*
X169250000Y10525000I0J200000D01*
G01*
X169250000Y11075000D01*
G75*
G02*
X169450000Y11275000I200000J0D01*
G01*
X169850000Y11275000D01*
G75*
G02*
X170050000Y11075000I0J-200000D01*
G01*
G37*
G36*
G01*
X168400000Y11075000D02*
X168400000Y10525000D01*
G75*
G02*
X168200000Y10325000I-200000J0D01*
G01*
X167800000Y10325000D01*
G75*
G02*
X167600000Y10525000I0J200000D01*
G01*
X167600000Y11075000D01*
G75*
G02*
X167800000Y11275000I200000J0D01*
G01*
X168200000Y11275000D01*
G75*
G02*
X168400000Y11075000I0J-200000D01*
G01*
G37*
G04 #@! TD*
G04 #@! TO.C,Q6*
G36*
G01*
X143787500Y128700000D02*
X143787500Y129000000D01*
G75*
G02*
X143937500Y129150000I150000J0D01*
G01*
X145112500Y129150000D01*
G75*
G02*
X145262500Y129000000I0J-150000D01*
G01*
X145262500Y128700000D01*
G75*
G02*
X145112500Y128550000I-150000J0D01*
G01*
X143937500Y128550000D01*
G75*
G02*
X143787500Y128700000I0J150000D01*
G01*
G37*
G36*
G01*
X145662500Y127750000D02*
X145662500Y128050000D01*
G75*
G02*
X145812500Y128200000I150000J0D01*
G01*
X146987500Y128200000D01*
G75*
G02*
X147137500Y128050000I0J-150000D01*
G01*
X147137500Y127750000D01*
G75*
G02*
X146987500Y127600000I-150000J0D01*
G01*
X145812500Y127600000D01*
G75*
G02*
X145662500Y127750000I0J150000D01*
G01*
G37*
G36*
G01*
X143787500Y126800000D02*
X143787500Y127100000D01*
G75*
G02*
X143937500Y127250000I150000J0D01*
G01*
X145112500Y127250000D01*
G75*
G02*
X145262500Y127100000I0J-150000D01*
G01*
X145262500Y126800000D01*
G75*
G02*
X145112500Y126650000I-150000J0D01*
G01*
X143937500Y126650000D01*
G75*
G02*
X143787500Y126800000I0J150000D01*
G01*
G37*
G04 #@! TD*
G04 #@! TO.C,R29*
G36*
G01*
X165475000Y156325000D02*
X165475000Y156875000D01*
G75*
G02*
X165675000Y157075000I200000J0D01*
G01*
X166075000Y157075000D01*
G75*
G02*
X166275000Y156875000I0J-200000D01*
G01*
X166275000Y156325000D01*
G75*
G02*
X166075000Y156125000I-200000J0D01*
G01*
X165675000Y156125000D01*
G75*
G02*
X165475000Y156325000I0J200000D01*
G01*
G37*
G36*
G01*
X167125000Y156325000D02*
X167125000Y156875000D01*
G75*
G02*
X167325000Y157075000I200000J0D01*
G01*
X167725000Y157075000D01*
G75*
G02*
X167925000Y156875000I0J-200000D01*
G01*
X167925000Y156325000D01*
G75*
G02*
X167725000Y156125000I-200000J0D01*
G01*
X167325000Y156125000D01*
G75*
G02*
X167125000Y156325000I0J200000D01*
G01*
G37*
G04 #@! TD*
G04 #@! TO.C,R6*
G36*
G01*
X99895000Y51215000D02*
X99345000Y51215000D01*
G75*
G02*
X99145000Y51415000I0J200000D01*
G01*
X99145000Y51815000D01*
G75*
G02*
X99345000Y52015000I200000J0D01*
G01*
X99895000Y52015000D01*
G75*
G02*
X100095000Y51815000I0J-200000D01*
G01*
X100095000Y51415000D01*
G75*
G02*
X99895000Y51215000I-200000J0D01*
G01*
G37*
G36*
G01*
X99895000Y52865000D02*
X99345000Y52865000D01*
G75*
G02*
X99145000Y53065000I0J200000D01*
G01*
X99145000Y53465000D01*
G75*
G02*
X99345000Y53665000I200000J0D01*
G01*
X99895000Y53665000D01*
G75*
G02*
X100095000Y53465000I0J-200000D01*
G01*
X100095000Y53065000D01*
G75*
G02*
X99895000Y52865000I-200000J0D01*
G01*
G37*
G04 #@! TD*
G04 #@! TO.C,R24*
G36*
G01*
X159925000Y154975000D02*
X159925000Y154425000D01*
G75*
G02*
X159725000Y154225000I-200000J0D01*
G01*
X159325000Y154225000D01*
G75*
G02*
X159125000Y154425000I0J200000D01*
G01*
X159125000Y154975000D01*
G75*
G02*
X159325000Y155175000I200000J0D01*
G01*
X159725000Y155175000D01*
G75*
G02*
X159925000Y154975000I0J-200000D01*
G01*
G37*
G36*
G01*
X158275000Y154975000D02*
X158275000Y154425000D01*
G75*
G02*
X158075000Y154225000I-200000J0D01*
G01*
X157675000Y154225000D01*
G75*
G02*
X157475000Y154425000I0J200000D01*
G01*
X157475000Y154975000D01*
G75*
G02*
X157675000Y155175000I200000J0D01*
G01*
X158075000Y155175000D01*
G75*
G02*
X158275000Y154975000I0J-200000D01*
G01*
G37*
G04 #@! TD*
G04 #@! TO.C,U8*
G36*
G01*
X109580000Y118545000D02*
X109580000Y118845000D01*
G75*
G02*
X109730000Y118995000I150000J0D01*
G01*
X111380000Y118995000D01*
G75*
G02*
X111530000Y118845000I0J-150000D01*
G01*
X111530000Y118545000D01*
G75*
G02*
X111380000Y118395000I-150000J0D01*
G01*
X109730000Y118395000D01*
G75*
G02*
X109580000Y118545000I0J150000D01*
G01*
G37*
G36*
G01*
X109580000Y117275000D02*
X109580000Y117575000D01*
G75*
G02*
X109730000Y117725000I150000J0D01*
G01*
X111380000Y117725000D01*
G75*
G02*
X111530000Y117575000I0J-150000D01*
G01*
X111530000Y117275000D01*
G75*
G02*
X111380000Y117125000I-150000J0D01*
G01*
X109730000Y117125000D01*
G75*
G02*
X109580000Y117275000I0J150000D01*
G01*
G37*
G36*
G01*
X109580000Y116005000D02*
X109580000Y116305000D01*
G75*
G02*
X109730000Y116455000I150000J0D01*
G01*
X111380000Y116455000D01*
G75*
G02*
X111530000Y116305000I0J-150000D01*
G01*
X111530000Y116005000D01*
G75*
G02*
X111380000Y115855000I-150000J0D01*
G01*
X109730000Y115855000D01*
G75*
G02*
X109580000Y116005000I0J150000D01*
G01*
G37*
G36*
G01*
X109580000Y114735000D02*
X109580000Y115035000D01*
G75*
G02*
X109730000Y115185000I150000J0D01*
G01*
X111380000Y115185000D01*
G75*
G02*
X111530000Y115035000I0J-150000D01*
G01*
X111530000Y114735000D01*
G75*
G02*
X111380000Y114585000I-150000J0D01*
G01*
X109730000Y114585000D01*
G75*
G02*
X109580000Y114735000I0J150000D01*
G01*
G37*
G36*
G01*
X114530000Y114735000D02*
X114530000Y115035000D01*
G75*
G02*
X114680000Y115185000I150000J0D01*
G01*
X116330000Y115185000D01*
G75*
G02*
X116480000Y115035000I0J-150000D01*
G01*
X116480000Y114735000D01*
G75*
G02*
X116330000Y114585000I-150000J0D01*
G01*
X114680000Y114585000D01*
G75*
G02*
X114530000Y114735000I0J150000D01*
G01*
G37*
G36*
G01*
X114530000Y116005000D02*
X114530000Y116305000D01*
G75*
G02*
X114680000Y116455000I150000J0D01*
G01*
X116330000Y116455000D01*
G75*
G02*
X116480000Y116305000I0J-150000D01*
G01*
X116480000Y116005000D01*
G75*
G02*
X116330000Y115855000I-150000J0D01*
G01*
X114680000Y115855000D01*
G75*
G02*
X114530000Y116005000I0J150000D01*
G01*
G37*
G36*
G01*
X114530000Y117275000D02*
X114530000Y117575000D01*
G75*
G02*
X114680000Y117725000I150000J0D01*
G01*
X116330000Y117725000D01*
G75*
G02*
X116480000Y117575000I0J-150000D01*
G01*
X116480000Y117275000D01*
G75*
G02*
X116330000Y117125000I-150000J0D01*
G01*
X114680000Y117125000D01*
G75*
G02*
X114530000Y117275000I0J150000D01*
G01*
G37*
G36*
G01*
X114530000Y118545000D02*
X114530000Y118845000D01*
G75*
G02*
X114680000Y118995000I150000J0D01*
G01*
X116330000Y118995000D01*
G75*
G02*
X116480000Y118845000I0J-150000D01*
G01*
X116480000Y118545000D01*
G75*
G02*
X116330000Y118395000I-150000J0D01*
G01*
X114680000Y118395000D01*
G75*
G02*
X114530000Y118545000I0J150000D01*
G01*
G37*
G04 #@! TD*
G04 #@! TO.C,R32*
G36*
G01*
X159925000Y161375000D02*
X159925000Y160825000D01*
G75*
G02*
X159725000Y160625000I-200000J0D01*
G01*
X159325000Y160625000D01*
G75*
G02*
X159125000Y160825000I0J200000D01*
G01*
X159125000Y161375000D01*
G75*
G02*
X159325000Y161575000I200000J0D01*
G01*
X159725000Y161575000D01*
G75*
G02*
X159925000Y161375000I0J-200000D01*
G01*
G37*
G36*
G01*
X158275000Y161375000D02*
X158275000Y160825000D01*
G75*
G02*
X158075000Y160625000I-200000J0D01*
G01*
X157675000Y160625000D01*
G75*
G02*
X157475000Y160825000I0J200000D01*
G01*
X157475000Y161375000D01*
G75*
G02*
X157675000Y161575000I200000J0D01*
G01*
X158075000Y161575000D01*
G75*
G02*
X158275000Y161375000I0J-200000D01*
G01*
G37*
G04 #@! TD*
G04 #@! TO.C,R23*
G36*
G01*
X157625000Y142850000D02*
X158175000Y142850000D01*
G75*
G02*
X158375000Y142650000I0J-200000D01*
G01*
X158375000Y142250000D01*
G75*
G02*
X158175000Y142050000I-200000J0D01*
G01*
X157625000Y142050000D01*
G75*
G02*
X157425000Y142250000I0J200000D01*
G01*
X157425000Y142650000D01*
G75*
G02*
X157625000Y142850000I200000J0D01*
G01*
G37*
G36*
G01*
X157625000Y141200000D02*
X158175000Y141200000D01*
G75*
G02*
X158375000Y141000000I0J-200000D01*
G01*
X158375000Y140600000D01*
G75*
G02*
X158175000Y140400000I-200000J0D01*
G01*
X157625000Y140400000D01*
G75*
G02*
X157425000Y140600000I0J200000D01*
G01*
X157425000Y141000000D01*
G75*
G02*
X157625000Y141200000I200000J0D01*
G01*
G37*
G04 #@! TD*
G04 #@! TO.C,RN2*
X97860000Y150180000D03*
D11*
X98660000Y150180000D03*
X99460000Y150180000D03*
D10*
X100260000Y150180000D03*
X100260000Y151980000D03*
D11*
X99460000Y151980000D03*
X98660000Y151980000D03*
D10*
X97860000Y151980000D03*
G04 #@! TD*
G04 #@! TO.C,R17*
G36*
G01*
X141775000Y148460715D02*
X141225000Y148460715D01*
G75*
G02*
X141025000Y148660715I0J200000D01*
G01*
X141025000Y149060715D01*
G75*
G02*
X141225000Y149260715I200000J0D01*
G01*
X141775000Y149260715D01*
G75*
G02*
X141975000Y149060715I0J-200000D01*
G01*
X141975000Y148660715D01*
G75*
G02*
X141775000Y148460715I-200000J0D01*
G01*
G37*
G36*
G01*
X141775000Y150110715D02*
X141225000Y150110715D01*
G75*
G02*
X141025000Y150310715I0J200000D01*
G01*
X141025000Y150710715D01*
G75*
G02*
X141225000Y150910715I200000J0D01*
G01*
X141775000Y150910715D01*
G75*
G02*
X141975000Y150710715I0J-200000D01*
G01*
X141975000Y150310715D01*
G75*
G02*
X141775000Y150110715I-200000J0D01*
G01*
G37*
G04 #@! TD*
G04 #@! TO.C,R4*
G36*
G01*
X111895000Y58240000D02*
X111345000Y58240000D01*
G75*
G02*
X111145000Y58440000I0J200000D01*
G01*
X111145000Y58840000D01*
G75*
G02*
X111345000Y59040000I200000J0D01*
G01*
X111895000Y59040000D01*
G75*
G02*
X112095000Y58840000I0J-200000D01*
G01*
X112095000Y58440000D01*
G75*
G02*
X111895000Y58240000I-200000J0D01*
G01*
G37*
G36*
G01*
X111895000Y59890000D02*
X111345000Y59890000D01*
G75*
G02*
X111145000Y60090000I0J200000D01*
G01*
X111145000Y60490000D01*
G75*
G02*
X111345000Y60690000I200000J0D01*
G01*
X111895000Y60690000D01*
G75*
G02*
X112095000Y60490000I0J-200000D01*
G01*
X112095000Y60090000D01*
G75*
G02*
X111895000Y59890000I-200000J0D01*
G01*
G37*
G04 #@! TD*
G04 #@! TO.C,RN8*
X90240000Y71440000D03*
D11*
X91040000Y71440000D03*
X91840000Y71440000D03*
D10*
X92640000Y71440000D03*
X92640000Y73240000D03*
D11*
X91840000Y73240000D03*
X91040000Y73240000D03*
D10*
X90240000Y73240000D03*
G04 #@! TD*
G04 #@! TO.C,R10*
G36*
G01*
X99895000Y60715000D02*
X99345000Y60715000D01*
G75*
G02*
X99145000Y60915000I0J200000D01*
G01*
X99145000Y61315000D01*
G75*
G02*
X99345000Y61515000I200000J0D01*
G01*
X99895000Y61515000D01*
G75*
G02*
X100095000Y61315000I0J-200000D01*
G01*
X100095000Y60915000D01*
G75*
G02*
X99895000Y60715000I-200000J0D01*
G01*
G37*
G36*
G01*
X99895000Y62365000D02*
X99345000Y62365000D01*
G75*
G02*
X99145000Y62565000I0J200000D01*
G01*
X99145000Y62965000D01*
G75*
G02*
X99345000Y63165000I200000J0D01*
G01*
X99895000Y63165000D01*
G75*
G02*
X100095000Y62965000I0J-200000D01*
G01*
X100095000Y62565000D01*
G75*
G02*
X99895000Y62365000I-200000J0D01*
G01*
G37*
G04 #@! TD*
G04 #@! TO.C,R18*
G36*
G01*
X141775000Y152075000D02*
X141225000Y152075000D01*
G75*
G02*
X141025000Y152275000I0J200000D01*
G01*
X141025000Y152675000D01*
G75*
G02*
X141225000Y152875000I200000J0D01*
G01*
X141775000Y152875000D01*
G75*
G02*
X141975000Y152675000I0J-200000D01*
G01*
X141975000Y152275000D01*
G75*
G02*
X141775000Y152075000I-200000J0D01*
G01*
G37*
G36*
G01*
X141775000Y153725000D02*
X141225000Y153725000D01*
G75*
G02*
X141025000Y153925000I0J200000D01*
G01*
X141025000Y154325000D01*
G75*
G02*
X141225000Y154525000I200000J0D01*
G01*
X141775000Y154525000D01*
G75*
G02*
X141975000Y154325000I0J-200000D01*
G01*
X141975000Y153925000D01*
G75*
G02*
X141775000Y153725000I-200000J0D01*
G01*
G37*
G04 #@! TD*
G04 #@! TO.C,U6*
G36*
G01*
X100815000Y88175000D02*
X101115000Y88175000D01*
G75*
G02*
X101265000Y88025000I0J-150000D01*
G01*
X101265000Y86275000D01*
G75*
G02*
X101115000Y86125000I-150000J0D01*
G01*
X100815000Y86125000D01*
G75*
G02*
X100665000Y86275000I0J150000D01*
G01*
X100665000Y88025000D01*
G75*
G02*
X100815000Y88175000I150000J0D01*
G01*
G37*
G36*
G01*
X99545000Y88175000D02*
X99845000Y88175000D01*
G75*
G02*
X99995000Y88025000I0J-150000D01*
G01*
X99995000Y86275000D01*
G75*
G02*
X99845000Y86125000I-150000J0D01*
G01*
X99545000Y86125000D01*
G75*
G02*
X99395000Y86275000I0J150000D01*
G01*
X99395000Y88025000D01*
G75*
G02*
X99545000Y88175000I150000J0D01*
G01*
G37*
G36*
G01*
X98275000Y88175000D02*
X98575000Y88175000D01*
G75*
G02*
X98725000Y88025000I0J-150000D01*
G01*
X98725000Y86275000D01*
G75*
G02*
X98575000Y86125000I-150000J0D01*
G01*
X98275000Y86125000D01*
G75*
G02*
X98125000Y86275000I0J150000D01*
G01*
X98125000Y88025000D01*
G75*
G02*
X98275000Y88175000I150000J0D01*
G01*
G37*
G36*
G01*
X97005000Y88175000D02*
X97305000Y88175000D01*
G75*
G02*
X97455000Y88025000I0J-150000D01*
G01*
X97455000Y86275000D01*
G75*
G02*
X97305000Y86125000I-150000J0D01*
G01*
X97005000Y86125000D01*
G75*
G02*
X96855000Y86275000I0J150000D01*
G01*
X96855000Y88025000D01*
G75*
G02*
X97005000Y88175000I150000J0D01*
G01*
G37*
G36*
G01*
X95735000Y88175000D02*
X96035000Y88175000D01*
G75*
G02*
X96185000Y88025000I0J-150000D01*
G01*
X96185000Y86275000D01*
G75*
G02*
X96035000Y86125000I-150000J0D01*
G01*
X95735000Y86125000D01*
G75*
G02*
X95585000Y86275000I0J150000D01*
G01*
X95585000Y88025000D01*
G75*
G02*
X95735000Y88175000I150000J0D01*
G01*
G37*
G36*
G01*
X94465000Y88175000D02*
X94765000Y88175000D01*
G75*
G02*
X94915000Y88025000I0J-150000D01*
G01*
X94915000Y86275000D01*
G75*
G02*
X94765000Y86125000I-150000J0D01*
G01*
X94465000Y86125000D01*
G75*
G02*
X94315000Y86275000I0J150000D01*
G01*
X94315000Y88025000D01*
G75*
G02*
X94465000Y88175000I150000J0D01*
G01*
G37*
G36*
G01*
X93195000Y88175000D02*
X93495000Y88175000D01*
G75*
G02*
X93645000Y88025000I0J-150000D01*
G01*
X93645000Y86275000D01*
G75*
G02*
X93495000Y86125000I-150000J0D01*
G01*
X93195000Y86125000D01*
G75*
G02*
X93045000Y86275000I0J150000D01*
G01*
X93045000Y88025000D01*
G75*
G02*
X93195000Y88175000I150000J0D01*
G01*
G37*
G36*
G01*
X91925000Y88175000D02*
X92225000Y88175000D01*
G75*
G02*
X92375000Y88025000I0J-150000D01*
G01*
X92375000Y86275000D01*
G75*
G02*
X92225000Y86125000I-150000J0D01*
G01*
X91925000Y86125000D01*
G75*
G02*
X91775000Y86275000I0J150000D01*
G01*
X91775000Y88025000D01*
G75*
G02*
X91925000Y88175000I150000J0D01*
G01*
G37*
G36*
G01*
X90655000Y88175000D02*
X90955000Y88175000D01*
G75*
G02*
X91105000Y88025000I0J-150000D01*
G01*
X91105000Y86275000D01*
G75*
G02*
X90955000Y86125000I-150000J0D01*
G01*
X90655000Y86125000D01*
G75*
G02*
X90505000Y86275000I0J150000D01*
G01*
X90505000Y88025000D01*
G75*
G02*
X90655000Y88175000I150000J0D01*
G01*
G37*
G36*
G01*
X89385000Y88175000D02*
X89685000Y88175000D01*
G75*
G02*
X89835000Y88025000I0J-150000D01*
G01*
X89835000Y86275000D01*
G75*
G02*
X89685000Y86125000I-150000J0D01*
G01*
X89385000Y86125000D01*
G75*
G02*
X89235000Y86275000I0J150000D01*
G01*
X89235000Y88025000D01*
G75*
G02*
X89385000Y88175000I150000J0D01*
G01*
G37*
G36*
G01*
X88115000Y88175000D02*
X88415000Y88175000D01*
G75*
G02*
X88565000Y88025000I0J-150000D01*
G01*
X88565000Y86275000D01*
G75*
G02*
X88415000Y86125000I-150000J0D01*
G01*
X88115000Y86125000D01*
G75*
G02*
X87965000Y86275000I0J150000D01*
G01*
X87965000Y88025000D01*
G75*
G02*
X88115000Y88175000I150000J0D01*
G01*
G37*
G36*
G01*
X86845000Y88175000D02*
X87145000Y88175000D01*
G75*
G02*
X87295000Y88025000I0J-150000D01*
G01*
X87295000Y86275000D01*
G75*
G02*
X87145000Y86125000I-150000J0D01*
G01*
X86845000Y86125000D01*
G75*
G02*
X86695000Y86275000I0J150000D01*
G01*
X86695000Y88025000D01*
G75*
G02*
X86845000Y88175000I150000J0D01*
G01*
G37*
G36*
G01*
X86845000Y78875000D02*
X87145000Y78875000D01*
G75*
G02*
X87295000Y78725000I0J-150000D01*
G01*
X87295000Y76975000D01*
G75*
G02*
X87145000Y76825000I-150000J0D01*
G01*
X86845000Y76825000D01*
G75*
G02*
X86695000Y76975000I0J150000D01*
G01*
X86695000Y78725000D01*
G75*
G02*
X86845000Y78875000I150000J0D01*
G01*
G37*
G36*
G01*
X88115000Y78875000D02*
X88415000Y78875000D01*
G75*
G02*
X88565000Y78725000I0J-150000D01*
G01*
X88565000Y76975000D01*
G75*
G02*
X88415000Y76825000I-150000J0D01*
G01*
X88115000Y76825000D01*
G75*
G02*
X87965000Y76975000I0J150000D01*
G01*
X87965000Y78725000D01*
G75*
G02*
X88115000Y78875000I150000J0D01*
G01*
G37*
G36*
G01*
X89385000Y78875000D02*
X89685000Y78875000D01*
G75*
G02*
X89835000Y78725000I0J-150000D01*
G01*
X89835000Y76975000D01*
G75*
G02*
X89685000Y76825000I-150000J0D01*
G01*
X89385000Y76825000D01*
G75*
G02*
X89235000Y76975000I0J150000D01*
G01*
X89235000Y78725000D01*
G75*
G02*
X89385000Y78875000I150000J0D01*
G01*
G37*
G36*
G01*
X90655000Y78875000D02*
X90955000Y78875000D01*
G75*
G02*
X91105000Y78725000I0J-150000D01*
G01*
X91105000Y76975000D01*
G75*
G02*
X90955000Y76825000I-150000J0D01*
G01*
X90655000Y76825000D01*
G75*
G02*
X90505000Y76975000I0J150000D01*
G01*
X90505000Y78725000D01*
G75*
G02*
X90655000Y78875000I150000J0D01*
G01*
G37*
G36*
G01*
X91925000Y78875000D02*
X92225000Y78875000D01*
G75*
G02*
X92375000Y78725000I0J-150000D01*
G01*
X92375000Y76975000D01*
G75*
G02*
X92225000Y76825000I-150000J0D01*
G01*
X91925000Y76825000D01*
G75*
G02*
X91775000Y76975000I0J150000D01*
G01*
X91775000Y78725000D01*
G75*
G02*
X91925000Y78875000I150000J0D01*
G01*
G37*
G36*
G01*
X93195000Y78875000D02*
X93495000Y78875000D01*
G75*
G02*
X93645000Y78725000I0J-150000D01*
G01*
X93645000Y76975000D01*
G75*
G02*
X93495000Y76825000I-150000J0D01*
G01*
X93195000Y76825000D01*
G75*
G02*
X93045000Y76975000I0J150000D01*
G01*
X93045000Y78725000D01*
G75*
G02*
X93195000Y78875000I150000J0D01*
G01*
G37*
G36*
G01*
X94465000Y78875000D02*
X94765000Y78875000D01*
G75*
G02*
X94915000Y78725000I0J-150000D01*
G01*
X94915000Y76975000D01*
G75*
G02*
X94765000Y76825000I-150000J0D01*
G01*
X94465000Y76825000D01*
G75*
G02*
X94315000Y76975000I0J150000D01*
G01*
X94315000Y78725000D01*
G75*
G02*
X94465000Y78875000I150000J0D01*
G01*
G37*
G36*
G01*
X95735000Y78875000D02*
X96035000Y78875000D01*
G75*
G02*
X96185000Y78725000I0J-150000D01*
G01*
X96185000Y76975000D01*
G75*
G02*
X96035000Y76825000I-150000J0D01*
G01*
X95735000Y76825000D01*
G75*
G02*
X95585000Y76975000I0J150000D01*
G01*
X95585000Y78725000D01*
G75*
G02*
X95735000Y78875000I150000J0D01*
G01*
G37*
G36*
G01*
X97005000Y78875000D02*
X97305000Y78875000D01*
G75*
G02*
X97455000Y78725000I0J-150000D01*
G01*
X97455000Y76975000D01*
G75*
G02*
X97305000Y76825000I-150000J0D01*
G01*
X97005000Y76825000D01*
G75*
G02*
X96855000Y76975000I0J150000D01*
G01*
X96855000Y78725000D01*
G75*
G02*
X97005000Y78875000I150000J0D01*
G01*
G37*
G36*
G01*
X98275000Y78875000D02*
X98575000Y78875000D01*
G75*
G02*
X98725000Y78725000I0J-150000D01*
G01*
X98725000Y76975000D01*
G75*
G02*
X98575000Y76825000I-150000J0D01*
G01*
X98275000Y76825000D01*
G75*
G02*
X98125000Y76975000I0J150000D01*
G01*
X98125000Y78725000D01*
G75*
G02*
X98275000Y78875000I150000J0D01*
G01*
G37*
G36*
G01*
X99545000Y78875000D02*
X99845000Y78875000D01*
G75*
G02*
X99995000Y78725000I0J-150000D01*
G01*
X99995000Y76975000D01*
G75*
G02*
X99845000Y76825000I-150000J0D01*
G01*
X99545000Y76825000D01*
G75*
G02*
X99395000Y76975000I0J150000D01*
G01*
X99395000Y78725000D01*
G75*
G02*
X99545000Y78875000I150000J0D01*
G01*
G37*
G36*
G01*
X100815000Y78875000D02*
X101115000Y78875000D01*
G75*
G02*
X101265000Y78725000I0J-150000D01*
G01*
X101265000Y76975000D01*
G75*
G02*
X101115000Y76825000I-150000J0D01*
G01*
X100815000Y76825000D01*
G75*
G02*
X100665000Y76975000I0J150000D01*
G01*
X100665000Y78725000D01*
G75*
G02*
X100815000Y78875000I150000J0D01*
G01*
G37*
G04 #@! TD*
G04 #@! TO.C,Q7*
G36*
G01*
X143787500Y132314290D02*
X143787500Y132614290D01*
G75*
G02*
X143937500Y132764290I150000J0D01*
G01*
X145112500Y132764290D01*
G75*
G02*
X145262500Y132614290I0J-150000D01*
G01*
X145262500Y132314290D01*
G75*
G02*
X145112500Y132164290I-150000J0D01*
G01*
X143937500Y132164290D01*
G75*
G02*
X143787500Y132314290I0J150000D01*
G01*
G37*
G36*
G01*
X145662500Y131364290D02*
X145662500Y131664290D01*
G75*
G02*
X145812500Y131814290I150000J0D01*
G01*
X146987500Y131814290D01*
G75*
G02*
X147137500Y131664290I0J-150000D01*
G01*
X147137500Y131364290D01*
G75*
G02*
X146987500Y131214290I-150000J0D01*
G01*
X145812500Y131214290D01*
G75*
G02*
X145662500Y131364290I0J150000D01*
G01*
G37*
G36*
G01*
X143787500Y130414290D02*
X143787500Y130714290D01*
G75*
G02*
X143937500Y130864290I150000J0D01*
G01*
X145112500Y130864290D01*
G75*
G02*
X145262500Y130714290I0J-150000D01*
G01*
X145262500Y130414290D01*
G75*
G02*
X145112500Y130264290I-150000J0D01*
G01*
X143937500Y130264290D01*
G75*
G02*
X143787500Y130414290I0J150000D01*
G01*
G37*
G04 #@! TD*
G04 #@! TO.C,R54*
G36*
G01*
X166025000Y65175000D02*
X166025000Y64625000D01*
G75*
G02*
X165825000Y64425000I-200000J0D01*
G01*
X165425000Y64425000D01*
G75*
G02*
X165225000Y64625000I0J200000D01*
G01*
X165225000Y65175000D01*
G75*
G02*
X165425000Y65375000I200000J0D01*
G01*
X165825000Y65375000D01*
G75*
G02*
X166025000Y65175000I0J-200000D01*
G01*
G37*
G36*
G01*
X164375000Y65175000D02*
X164375000Y64625000D01*
G75*
G02*
X164175000Y64425000I-200000J0D01*
G01*
X163775000Y64425000D01*
G75*
G02*
X163575000Y64625000I0J200000D01*
G01*
X163575000Y65175000D01*
G75*
G02*
X163775000Y65375000I200000J0D01*
G01*
X164175000Y65375000D01*
G75*
G02*
X164375000Y65175000I0J-200000D01*
G01*
G37*
G04 #@! TD*
G04 #@! TO.C,RN7*
X97860000Y71440000D03*
D11*
X98660000Y71440000D03*
X99460000Y71440000D03*
D10*
X100260000Y71440000D03*
X100260000Y73240000D03*
D11*
X99460000Y73240000D03*
X98660000Y73240000D03*
D10*
X97860000Y73240000D03*
G04 #@! TD*
G04 #@! TO.C,U3*
G36*
G01*
X121135000Y88175000D02*
X121435000Y88175000D01*
G75*
G02*
X121585000Y88025000I0J-150000D01*
G01*
X121585000Y86275000D01*
G75*
G02*
X121435000Y86125000I-150000J0D01*
G01*
X121135000Y86125000D01*
G75*
G02*
X120985000Y86275000I0J150000D01*
G01*
X120985000Y88025000D01*
G75*
G02*
X121135000Y88175000I150000J0D01*
G01*
G37*
G36*
G01*
X119865000Y88175000D02*
X120165000Y88175000D01*
G75*
G02*
X120315000Y88025000I0J-150000D01*
G01*
X120315000Y86275000D01*
G75*
G02*
X120165000Y86125000I-150000J0D01*
G01*
X119865000Y86125000D01*
G75*
G02*
X119715000Y86275000I0J150000D01*
G01*
X119715000Y88025000D01*
G75*
G02*
X119865000Y88175000I150000J0D01*
G01*
G37*
G36*
G01*
X118595000Y88175000D02*
X118895000Y88175000D01*
G75*
G02*
X119045000Y88025000I0J-150000D01*
G01*
X119045000Y86275000D01*
G75*
G02*
X118895000Y86125000I-150000J0D01*
G01*
X118595000Y86125000D01*
G75*
G02*
X118445000Y86275000I0J150000D01*
G01*
X118445000Y88025000D01*
G75*
G02*
X118595000Y88175000I150000J0D01*
G01*
G37*
G36*
G01*
X117325000Y88175000D02*
X117625000Y88175000D01*
G75*
G02*
X117775000Y88025000I0J-150000D01*
G01*
X117775000Y86275000D01*
G75*
G02*
X117625000Y86125000I-150000J0D01*
G01*
X117325000Y86125000D01*
G75*
G02*
X117175000Y86275000I0J150000D01*
G01*
X117175000Y88025000D01*
G75*
G02*
X117325000Y88175000I150000J0D01*
G01*
G37*
G36*
G01*
X116055000Y88175000D02*
X116355000Y88175000D01*
G75*
G02*
X116505000Y88025000I0J-150000D01*
G01*
X116505000Y86275000D01*
G75*
G02*
X116355000Y86125000I-150000J0D01*
G01*
X116055000Y86125000D01*
G75*
G02*
X115905000Y86275000I0J150000D01*
G01*
X115905000Y88025000D01*
G75*
G02*
X116055000Y88175000I150000J0D01*
G01*
G37*
G36*
G01*
X114785000Y88175000D02*
X115085000Y88175000D01*
G75*
G02*
X115235000Y88025000I0J-150000D01*
G01*
X115235000Y86275000D01*
G75*
G02*
X115085000Y86125000I-150000J0D01*
G01*
X114785000Y86125000D01*
G75*
G02*
X114635000Y86275000I0J150000D01*
G01*
X114635000Y88025000D01*
G75*
G02*
X114785000Y88175000I150000J0D01*
G01*
G37*
G36*
G01*
X113515000Y88175000D02*
X113815000Y88175000D01*
G75*
G02*
X113965000Y88025000I0J-150000D01*
G01*
X113965000Y86275000D01*
G75*
G02*
X113815000Y86125000I-150000J0D01*
G01*
X113515000Y86125000D01*
G75*
G02*
X113365000Y86275000I0J150000D01*
G01*
X113365000Y88025000D01*
G75*
G02*
X113515000Y88175000I150000J0D01*
G01*
G37*
G36*
G01*
X112245000Y88175000D02*
X112545000Y88175000D01*
G75*
G02*
X112695000Y88025000I0J-150000D01*
G01*
X112695000Y86275000D01*
G75*
G02*
X112545000Y86125000I-150000J0D01*
G01*
X112245000Y86125000D01*
G75*
G02*
X112095000Y86275000I0J150000D01*
G01*
X112095000Y88025000D01*
G75*
G02*
X112245000Y88175000I150000J0D01*
G01*
G37*
G36*
G01*
X110975000Y88175000D02*
X111275000Y88175000D01*
G75*
G02*
X111425000Y88025000I0J-150000D01*
G01*
X111425000Y86275000D01*
G75*
G02*
X111275000Y86125000I-150000J0D01*
G01*
X110975000Y86125000D01*
G75*
G02*
X110825000Y86275000I0J150000D01*
G01*
X110825000Y88025000D01*
G75*
G02*
X110975000Y88175000I150000J0D01*
G01*
G37*
G36*
G01*
X109705000Y88175000D02*
X110005000Y88175000D01*
G75*
G02*
X110155000Y88025000I0J-150000D01*
G01*
X110155000Y86275000D01*
G75*
G02*
X110005000Y86125000I-150000J0D01*
G01*
X109705000Y86125000D01*
G75*
G02*
X109555000Y86275000I0J150000D01*
G01*
X109555000Y88025000D01*
G75*
G02*
X109705000Y88175000I150000J0D01*
G01*
G37*
G36*
G01*
X108435000Y88175000D02*
X108735000Y88175000D01*
G75*
G02*
X108885000Y88025000I0J-150000D01*
G01*
X108885000Y86275000D01*
G75*
G02*
X108735000Y86125000I-150000J0D01*
G01*
X108435000Y86125000D01*
G75*
G02*
X108285000Y86275000I0J150000D01*
G01*
X108285000Y88025000D01*
G75*
G02*
X108435000Y88175000I150000J0D01*
G01*
G37*
G36*
G01*
X107165000Y88175000D02*
X107465000Y88175000D01*
G75*
G02*
X107615000Y88025000I0J-150000D01*
G01*
X107615000Y86275000D01*
G75*
G02*
X107465000Y86125000I-150000J0D01*
G01*
X107165000Y86125000D01*
G75*
G02*
X107015000Y86275000I0J150000D01*
G01*
X107015000Y88025000D01*
G75*
G02*
X107165000Y88175000I150000J0D01*
G01*
G37*
G36*
G01*
X107165000Y78875000D02*
X107465000Y78875000D01*
G75*
G02*
X107615000Y78725000I0J-150000D01*
G01*
X107615000Y76975000D01*
G75*
G02*
X107465000Y76825000I-150000J0D01*
G01*
X107165000Y76825000D01*
G75*
G02*
X107015000Y76975000I0J150000D01*
G01*
X107015000Y78725000D01*
G75*
G02*
X107165000Y78875000I150000J0D01*
G01*
G37*
G36*
G01*
X108435000Y78875000D02*
X108735000Y78875000D01*
G75*
G02*
X108885000Y78725000I0J-150000D01*
G01*
X108885000Y76975000D01*
G75*
G02*
X108735000Y76825000I-150000J0D01*
G01*
X108435000Y76825000D01*
G75*
G02*
X108285000Y76975000I0J150000D01*
G01*
X108285000Y78725000D01*
G75*
G02*
X108435000Y78875000I150000J0D01*
G01*
G37*
G36*
G01*
X109705000Y78875000D02*
X110005000Y78875000D01*
G75*
G02*
X110155000Y78725000I0J-150000D01*
G01*
X110155000Y76975000D01*
G75*
G02*
X110005000Y76825000I-150000J0D01*
G01*
X109705000Y76825000D01*
G75*
G02*
X109555000Y76975000I0J150000D01*
G01*
X109555000Y78725000D01*
G75*
G02*
X109705000Y78875000I150000J0D01*
G01*
G37*
G36*
G01*
X110975000Y78875000D02*
X111275000Y78875000D01*
G75*
G02*
X111425000Y78725000I0J-150000D01*
G01*
X111425000Y76975000D01*
G75*
G02*
X111275000Y76825000I-150000J0D01*
G01*
X110975000Y76825000D01*
G75*
G02*
X110825000Y76975000I0J150000D01*
G01*
X110825000Y78725000D01*
G75*
G02*
X110975000Y78875000I150000J0D01*
G01*
G37*
G36*
G01*
X112245000Y78875000D02*
X112545000Y78875000D01*
G75*
G02*
X112695000Y78725000I0J-150000D01*
G01*
X112695000Y76975000D01*
G75*
G02*
X112545000Y76825000I-150000J0D01*
G01*
X112245000Y76825000D01*
G75*
G02*
X112095000Y76975000I0J150000D01*
G01*
X112095000Y78725000D01*
G75*
G02*
X112245000Y78875000I150000J0D01*
G01*
G37*
G36*
G01*
X113515000Y78875000D02*
X113815000Y78875000D01*
G75*
G02*
X113965000Y78725000I0J-150000D01*
G01*
X113965000Y76975000D01*
G75*
G02*
X113815000Y76825000I-150000J0D01*
G01*
X113515000Y76825000D01*
G75*
G02*
X113365000Y76975000I0J150000D01*
G01*
X113365000Y78725000D01*
G75*
G02*
X113515000Y78875000I150000J0D01*
G01*
G37*
G36*
G01*
X114785000Y78875000D02*
X115085000Y78875000D01*
G75*
G02*
X115235000Y78725000I0J-150000D01*
G01*
X115235000Y76975000D01*
G75*
G02*
X115085000Y76825000I-150000J0D01*
G01*
X114785000Y76825000D01*
G75*
G02*
X114635000Y76975000I0J150000D01*
G01*
X114635000Y78725000D01*
G75*
G02*
X114785000Y78875000I150000J0D01*
G01*
G37*
G36*
G01*
X116055000Y78875000D02*
X116355000Y78875000D01*
G75*
G02*
X116505000Y78725000I0J-150000D01*
G01*
X116505000Y76975000D01*
G75*
G02*
X116355000Y76825000I-150000J0D01*
G01*
X116055000Y76825000D01*
G75*
G02*
X115905000Y76975000I0J150000D01*
G01*
X115905000Y78725000D01*
G75*
G02*
X116055000Y78875000I150000J0D01*
G01*
G37*
G36*
G01*
X117325000Y78875000D02*
X117625000Y78875000D01*
G75*
G02*
X117775000Y78725000I0J-150000D01*
G01*
X117775000Y76975000D01*
G75*
G02*
X117625000Y76825000I-150000J0D01*
G01*
X117325000Y76825000D01*
G75*
G02*
X117175000Y76975000I0J150000D01*
G01*
X117175000Y78725000D01*
G75*
G02*
X117325000Y78875000I150000J0D01*
G01*
G37*
G36*
G01*
X118595000Y78875000D02*
X118895000Y78875000D01*
G75*
G02*
X119045000Y78725000I0J-150000D01*
G01*
X119045000Y76975000D01*
G75*
G02*
X118895000Y76825000I-150000J0D01*
G01*
X118595000Y76825000D01*
G75*
G02*
X118445000Y76975000I0J150000D01*
G01*
X118445000Y78725000D01*
G75*
G02*
X118595000Y78875000I150000J0D01*
G01*
G37*
G36*
G01*
X119865000Y78875000D02*
X120165000Y78875000D01*
G75*
G02*
X120315000Y78725000I0J-150000D01*
G01*
X120315000Y76975000D01*
G75*
G02*
X120165000Y76825000I-150000J0D01*
G01*
X119865000Y76825000D01*
G75*
G02*
X119715000Y76975000I0J150000D01*
G01*
X119715000Y78725000D01*
G75*
G02*
X119865000Y78875000I150000J0D01*
G01*
G37*
G36*
G01*
X121135000Y78875000D02*
X121435000Y78875000D01*
G75*
G02*
X121585000Y78725000I0J-150000D01*
G01*
X121585000Y76975000D01*
G75*
G02*
X121435000Y76825000I-150000J0D01*
G01*
X121135000Y76825000D01*
G75*
G02*
X120985000Y76975000I0J150000D01*
G01*
X120985000Y78725000D01*
G75*
G02*
X121135000Y78875000I150000J0D01*
G01*
G37*
G04 #@! TD*
G04 #@! TO.C,R53*
G36*
G01*
X163575000Y70425000D02*
X163575000Y70975000D01*
G75*
G02*
X163775000Y71175000I200000J0D01*
G01*
X164175000Y71175000D01*
G75*
G02*
X164375000Y70975000I0J-200000D01*
G01*
X164375000Y70425000D01*
G75*
G02*
X164175000Y70225000I-200000J0D01*
G01*
X163775000Y70225000D01*
G75*
G02*
X163575000Y70425000I0J200000D01*
G01*
G37*
G36*
G01*
X165225000Y70425000D02*
X165225000Y70975000D01*
G75*
G02*
X165425000Y71175000I200000J0D01*
G01*
X165825000Y71175000D01*
G75*
G02*
X166025000Y70975000I0J-200000D01*
G01*
X166025000Y70425000D01*
G75*
G02*
X165825000Y70225000I-200000J0D01*
G01*
X165425000Y70225000D01*
G75*
G02*
X165225000Y70425000I0J200000D01*
G01*
G37*
G04 #@! TD*
G04 #@! TO.C,F9*
G36*
G01*
X149775000Y134503575D02*
X149775000Y135753575D01*
G75*
G02*
X150025000Y136003575I250000J0D01*
G01*
X150775000Y136003575D01*
G75*
G02*
X151025000Y135753575I0J-250000D01*
G01*
X151025000Y134503575D01*
G75*
G02*
X150775000Y134253575I-250000J0D01*
G01*
X150025000Y134253575D01*
G75*
G02*
X149775000Y134503575I0J250000D01*
G01*
G37*
G36*
G01*
X152575000Y134503575D02*
X152575000Y135753575D01*
G75*
G02*
X152825000Y136003575I250000J0D01*
G01*
X153575000Y136003575D01*
G75*
G02*
X153825000Y135753575I0J-250000D01*
G01*
X153825000Y134503575D01*
G75*
G02*
X153575000Y134253575I-250000J0D01*
G01*
X152825000Y134253575D01*
G75*
G02*
X152575000Y134503575I0J250000D01*
G01*
G37*
G04 #@! TD*
G04 #@! TO.C,RN5*
X92640000Y93560000D03*
D11*
X91840000Y93560000D03*
X91040000Y93560000D03*
D10*
X90240000Y93560000D03*
X90240000Y91760000D03*
D11*
X91040000Y91760000D03*
X91840000Y91760000D03*
D10*
X92640000Y91760000D03*
G04 #@! TD*
G04 #@! TO.C,C4*
G36*
G01*
X124210000Y25305000D02*
X124710000Y25305000D01*
G75*
G02*
X124935000Y25080000I0J-225000D01*
G01*
X124935000Y24630000D01*
G75*
G02*
X124710000Y24405000I-225000J0D01*
G01*
X124210000Y24405000D01*
G75*
G02*
X123985000Y24630000I0J225000D01*
G01*
X123985000Y25080000D01*
G75*
G02*
X124210000Y25305000I225000J0D01*
G01*
G37*
G36*
G01*
X124210000Y23755000D02*
X124710000Y23755000D01*
G75*
G02*
X124935000Y23530000I0J-225000D01*
G01*
X124935000Y23080000D01*
G75*
G02*
X124710000Y22855000I-225000J0D01*
G01*
X124210000Y22855000D01*
G75*
G02*
X123985000Y23080000I0J225000D01*
G01*
X123985000Y23530000D01*
G75*
G02*
X124210000Y23755000I225000J0D01*
G01*
G37*
G04 #@! TD*
G04 #@! TO.C,RN4*
X92640000Y131660000D03*
D11*
X91840000Y131660000D03*
X91040000Y131660000D03*
D10*
X90240000Y131660000D03*
X90240000Y129860000D03*
D11*
X91040000Y129860000D03*
X91840000Y129860000D03*
D10*
X92640000Y129860000D03*
G04 #@! TD*
G04 #@! TO.C,U7*
G36*
G01*
X100815000Y32295000D02*
X101115000Y32295000D01*
G75*
G02*
X101265000Y32145000I0J-150000D01*
G01*
X101265000Y30395000D01*
G75*
G02*
X101115000Y30245000I-150000J0D01*
G01*
X100815000Y30245000D01*
G75*
G02*
X100665000Y30395000I0J150000D01*
G01*
X100665000Y32145000D01*
G75*
G02*
X100815000Y32295000I150000J0D01*
G01*
G37*
G36*
G01*
X99545000Y32295000D02*
X99845000Y32295000D01*
G75*
G02*
X99995000Y32145000I0J-150000D01*
G01*
X99995000Y30395000D01*
G75*
G02*
X99845000Y30245000I-150000J0D01*
G01*
X99545000Y30245000D01*
G75*
G02*
X99395000Y30395000I0J150000D01*
G01*
X99395000Y32145000D01*
G75*
G02*
X99545000Y32295000I150000J0D01*
G01*
G37*
G36*
G01*
X98275000Y32295000D02*
X98575000Y32295000D01*
G75*
G02*
X98725000Y32145000I0J-150000D01*
G01*
X98725000Y30395000D01*
G75*
G02*
X98575000Y30245000I-150000J0D01*
G01*
X98275000Y30245000D01*
G75*
G02*
X98125000Y30395000I0J150000D01*
G01*
X98125000Y32145000D01*
G75*
G02*
X98275000Y32295000I150000J0D01*
G01*
G37*
G36*
G01*
X97005000Y32295000D02*
X97305000Y32295000D01*
G75*
G02*
X97455000Y32145000I0J-150000D01*
G01*
X97455000Y30395000D01*
G75*
G02*
X97305000Y30245000I-150000J0D01*
G01*
X97005000Y30245000D01*
G75*
G02*
X96855000Y30395000I0J150000D01*
G01*
X96855000Y32145000D01*
G75*
G02*
X97005000Y32295000I150000J0D01*
G01*
G37*
G36*
G01*
X95735000Y32295000D02*
X96035000Y32295000D01*
G75*
G02*
X96185000Y32145000I0J-150000D01*
G01*
X96185000Y30395000D01*
G75*
G02*
X96035000Y30245000I-150000J0D01*
G01*
X95735000Y30245000D01*
G75*
G02*
X95585000Y30395000I0J150000D01*
G01*
X95585000Y32145000D01*
G75*
G02*
X95735000Y32295000I150000J0D01*
G01*
G37*
G36*
G01*
X94465000Y32295000D02*
X94765000Y32295000D01*
G75*
G02*
X94915000Y32145000I0J-150000D01*
G01*
X94915000Y30395000D01*
G75*
G02*
X94765000Y30245000I-150000J0D01*
G01*
X94465000Y30245000D01*
G75*
G02*
X94315000Y30395000I0J150000D01*
G01*
X94315000Y32145000D01*
G75*
G02*
X94465000Y32295000I150000J0D01*
G01*
G37*
G36*
G01*
X93195000Y32295000D02*
X93495000Y32295000D01*
G75*
G02*
X93645000Y32145000I0J-150000D01*
G01*
X93645000Y30395000D01*
G75*
G02*
X93495000Y30245000I-150000J0D01*
G01*
X93195000Y30245000D01*
G75*
G02*
X93045000Y30395000I0J150000D01*
G01*
X93045000Y32145000D01*
G75*
G02*
X93195000Y32295000I150000J0D01*
G01*
G37*
G36*
G01*
X91925000Y32295000D02*
X92225000Y32295000D01*
G75*
G02*
X92375000Y32145000I0J-150000D01*
G01*
X92375000Y30395000D01*
G75*
G02*
X92225000Y30245000I-150000J0D01*
G01*
X91925000Y30245000D01*
G75*
G02*
X91775000Y30395000I0J150000D01*
G01*
X91775000Y32145000D01*
G75*
G02*
X91925000Y32295000I150000J0D01*
G01*
G37*
G36*
G01*
X90655000Y32295000D02*
X90955000Y32295000D01*
G75*
G02*
X91105000Y32145000I0J-150000D01*
G01*
X91105000Y30395000D01*
G75*
G02*
X90955000Y30245000I-150000J0D01*
G01*
X90655000Y30245000D01*
G75*
G02*
X90505000Y30395000I0J150000D01*
G01*
X90505000Y32145000D01*
G75*
G02*
X90655000Y32295000I150000J0D01*
G01*
G37*
G36*
G01*
X89385000Y32295000D02*
X89685000Y32295000D01*
G75*
G02*
X89835000Y32145000I0J-150000D01*
G01*
X89835000Y30395000D01*
G75*
G02*
X89685000Y30245000I-150000J0D01*
G01*
X89385000Y30245000D01*
G75*
G02*
X89235000Y30395000I0J150000D01*
G01*
X89235000Y32145000D01*
G75*
G02*
X89385000Y32295000I150000J0D01*
G01*
G37*
G36*
G01*
X88115000Y32295000D02*
X88415000Y32295000D01*
G75*
G02*
X88565000Y32145000I0J-150000D01*
G01*
X88565000Y30395000D01*
G75*
G02*
X88415000Y30245000I-150000J0D01*
G01*
X88115000Y30245000D01*
G75*
G02*
X87965000Y30395000I0J150000D01*
G01*
X87965000Y32145000D01*
G75*
G02*
X88115000Y32295000I150000J0D01*
G01*
G37*
G36*
G01*
X86845000Y32295000D02*
X87145000Y32295000D01*
G75*
G02*
X87295000Y32145000I0J-150000D01*
G01*
X87295000Y30395000D01*
G75*
G02*
X87145000Y30245000I-150000J0D01*
G01*
X86845000Y30245000D01*
G75*
G02*
X86695000Y30395000I0J150000D01*
G01*
X86695000Y32145000D01*
G75*
G02*
X86845000Y32295000I150000J0D01*
G01*
G37*
G36*
G01*
X86845000Y22995000D02*
X87145000Y22995000D01*
G75*
G02*
X87295000Y22845000I0J-150000D01*
G01*
X87295000Y21095000D01*
G75*
G02*
X87145000Y20945000I-150000J0D01*
G01*
X86845000Y20945000D01*
G75*
G02*
X86695000Y21095000I0J150000D01*
G01*
X86695000Y22845000D01*
G75*
G02*
X86845000Y22995000I150000J0D01*
G01*
G37*
G36*
G01*
X88115000Y22995000D02*
X88415000Y22995000D01*
G75*
G02*
X88565000Y22845000I0J-150000D01*
G01*
X88565000Y21095000D01*
G75*
G02*
X88415000Y20945000I-150000J0D01*
G01*
X88115000Y20945000D01*
G75*
G02*
X87965000Y21095000I0J150000D01*
G01*
X87965000Y22845000D01*
G75*
G02*
X88115000Y22995000I150000J0D01*
G01*
G37*
G36*
G01*
X89385000Y22995000D02*
X89685000Y22995000D01*
G75*
G02*
X89835000Y22845000I0J-150000D01*
G01*
X89835000Y21095000D01*
G75*
G02*
X89685000Y20945000I-150000J0D01*
G01*
X89385000Y20945000D01*
G75*
G02*
X89235000Y21095000I0J150000D01*
G01*
X89235000Y22845000D01*
G75*
G02*
X89385000Y22995000I150000J0D01*
G01*
G37*
G36*
G01*
X90655000Y22995000D02*
X90955000Y22995000D01*
G75*
G02*
X91105000Y22845000I0J-150000D01*
G01*
X91105000Y21095000D01*
G75*
G02*
X90955000Y20945000I-150000J0D01*
G01*
X90655000Y20945000D01*
G75*
G02*
X90505000Y21095000I0J150000D01*
G01*
X90505000Y22845000D01*
G75*
G02*
X90655000Y22995000I150000J0D01*
G01*
G37*
G36*
G01*
X91925000Y22995000D02*
X92225000Y22995000D01*
G75*
G02*
X92375000Y22845000I0J-150000D01*
G01*
X92375000Y21095000D01*
G75*
G02*
X92225000Y20945000I-150000J0D01*
G01*
X91925000Y20945000D01*
G75*
G02*
X91775000Y21095000I0J150000D01*
G01*
X91775000Y22845000D01*
G75*
G02*
X91925000Y22995000I150000J0D01*
G01*
G37*
G36*
G01*
X93195000Y22995000D02*
X93495000Y22995000D01*
G75*
G02*
X93645000Y22845000I0J-150000D01*
G01*
X93645000Y21095000D01*
G75*
G02*
X93495000Y20945000I-150000J0D01*
G01*
X93195000Y20945000D01*
G75*
G02*
X93045000Y21095000I0J150000D01*
G01*
X93045000Y22845000D01*
G75*
G02*
X93195000Y22995000I150000J0D01*
G01*
G37*
G36*
G01*
X94465000Y22995000D02*
X94765000Y22995000D01*
G75*
G02*
X94915000Y22845000I0J-150000D01*
G01*
X94915000Y21095000D01*
G75*
G02*
X94765000Y20945000I-150000J0D01*
G01*
X94465000Y20945000D01*
G75*
G02*
X94315000Y21095000I0J150000D01*
G01*
X94315000Y22845000D01*
G75*
G02*
X94465000Y22995000I150000J0D01*
G01*
G37*
G36*
G01*
X95735000Y22995000D02*
X96035000Y22995000D01*
G75*
G02*
X96185000Y22845000I0J-150000D01*
G01*
X96185000Y21095000D01*
G75*
G02*
X96035000Y20945000I-150000J0D01*
G01*
X95735000Y20945000D01*
G75*
G02*
X95585000Y21095000I0J150000D01*
G01*
X95585000Y22845000D01*
G75*
G02*
X95735000Y22995000I150000J0D01*
G01*
G37*
G36*
G01*
X97005000Y22995000D02*
X97305000Y22995000D01*
G75*
G02*
X97455000Y22845000I0J-150000D01*
G01*
X97455000Y21095000D01*
G75*
G02*
X97305000Y20945000I-150000J0D01*
G01*
X97005000Y20945000D01*
G75*
G02*
X96855000Y21095000I0J150000D01*
G01*
X96855000Y22845000D01*
G75*
G02*
X97005000Y22995000I150000J0D01*
G01*
G37*
G36*
G01*
X98275000Y22995000D02*
X98575000Y22995000D01*
G75*
G02*
X98725000Y22845000I0J-150000D01*
G01*
X98725000Y21095000D01*
G75*
G02*
X98575000Y20945000I-150000J0D01*
G01*
X98275000Y20945000D01*
G75*
G02*
X98125000Y21095000I0J150000D01*
G01*
X98125000Y22845000D01*
G75*
G02*
X98275000Y22995000I150000J0D01*
G01*
G37*
G36*
G01*
X99545000Y22995000D02*
X99845000Y22995000D01*
G75*
G02*
X99995000Y22845000I0J-150000D01*
G01*
X99995000Y21095000D01*
G75*
G02*
X99845000Y20945000I-150000J0D01*
G01*
X99545000Y20945000D01*
G75*
G02*
X99395000Y21095000I0J150000D01*
G01*
X99395000Y22845000D01*
G75*
G02*
X99545000Y22995000I150000J0D01*
G01*
G37*
G36*
G01*
X100815000Y22995000D02*
X101115000Y22995000D01*
G75*
G02*
X101265000Y22845000I0J-150000D01*
G01*
X101265000Y21095000D01*
G75*
G02*
X101115000Y20945000I-150000J0D01*
G01*
X100815000Y20945000D01*
G75*
G02*
X100665000Y21095000I0J150000D01*
G01*
X100665000Y22845000D01*
G75*
G02*
X100815000Y22995000I150000J0D01*
G01*
G37*
G04 #@! TD*
G04 #@! TO.C,C10*
G36*
G01*
X150150000Y159350000D02*
X149650000Y159350000D01*
G75*
G02*
X149425000Y159575000I0J225000D01*
G01*
X149425000Y160025000D01*
G75*
G02*
X149650000Y160250000I225000J0D01*
G01*
X150150000Y160250000D01*
G75*
G02*
X150375000Y160025000I0J-225000D01*
G01*
X150375000Y159575000D01*
G75*
G02*
X150150000Y159350000I-225000J0D01*
G01*
G37*
G36*
G01*
X150150000Y160900000D02*
X149650000Y160900000D01*
G75*
G02*
X149425000Y161125000I0J225000D01*
G01*
X149425000Y161575000D01*
G75*
G02*
X149650000Y161800000I225000J0D01*
G01*
X150150000Y161800000D01*
G75*
G02*
X150375000Y161575000I0J-225000D01*
G01*
X150375000Y161125000D01*
G75*
G02*
X150150000Y160900000I-225000J0D01*
G01*
G37*
G04 #@! TD*
G04 #@! TO.C,C5*
G36*
G01*
X103890000Y139700000D02*
X104390000Y139700000D01*
G75*
G02*
X104615000Y139475000I0J-225000D01*
G01*
X104615000Y139025000D01*
G75*
G02*
X104390000Y138800000I-225000J0D01*
G01*
X103890000Y138800000D01*
G75*
G02*
X103665000Y139025000I0J225000D01*
G01*
X103665000Y139475000D01*
G75*
G02*
X103890000Y139700000I225000J0D01*
G01*
G37*
G36*
G01*
X103890000Y138150000D02*
X104390000Y138150000D01*
G75*
G02*
X104615000Y137925000I0J-225000D01*
G01*
X104615000Y137475000D01*
G75*
G02*
X104390000Y137250000I-225000J0D01*
G01*
X103890000Y137250000D01*
G75*
G02*
X103665000Y137475000I0J225000D01*
G01*
X103665000Y137925000D01*
G75*
G02*
X103890000Y138150000I225000J0D01*
G01*
G37*
G04 #@! TD*
G04 #@! TO.C,R43*
G36*
G01*
X170000000Y15500000D02*
X170000000Y14950000D01*
G75*
G02*
X169800000Y14750000I-200000J0D01*
G01*
X169400000Y14750000D01*
G75*
G02*
X169200000Y14950000I0J200000D01*
G01*
X169200000Y15500000D01*
G75*
G02*
X169400000Y15700000I200000J0D01*
G01*
X169800000Y15700000D01*
G75*
G02*
X170000000Y15500000I0J-200000D01*
G01*
G37*
G36*
G01*
X168350000Y15500000D02*
X168350000Y14950000D01*
G75*
G02*
X168150000Y14750000I-200000J0D01*
G01*
X167750000Y14750000D01*
G75*
G02*
X167550000Y14950000I0J200000D01*
G01*
X167550000Y15500000D01*
G75*
G02*
X167750000Y15700000I200000J0D01*
G01*
X168150000Y15700000D01*
G75*
G02*
X168350000Y15500000I0J-200000D01*
G01*
G37*
G04 #@! TD*
D12*
G04 #@! TO.C,RN14*
X98810000Y107760000D03*
D13*
X98810000Y108560000D03*
X98810000Y109360000D03*
D12*
X98810000Y110160000D03*
X97010000Y110160000D03*
D13*
X97010000Y109360000D03*
X97010000Y108560000D03*
D12*
X97010000Y107760000D03*
G04 #@! TD*
G04 #@! TO.C,R45*
G36*
G01*
X163575000Y10525000D02*
X163575000Y11075000D01*
G75*
G02*
X163775000Y11275000I200000J0D01*
G01*
X164175000Y11275000D01*
G75*
G02*
X164375000Y11075000I0J-200000D01*
G01*
X164375000Y10525000D01*
G75*
G02*
X164175000Y10325000I-200000J0D01*
G01*
X163775000Y10325000D01*
G75*
G02*
X163575000Y10525000I0J200000D01*
G01*
G37*
G36*
G01*
X165225000Y10525000D02*
X165225000Y11075000D01*
G75*
G02*
X165425000Y11275000I200000J0D01*
G01*
X165825000Y11275000D01*
G75*
G02*
X166025000Y11075000I0J-200000D01*
G01*
X166025000Y10525000D01*
G75*
G02*
X165825000Y10325000I-200000J0D01*
G01*
X165425000Y10325000D01*
G75*
G02*
X165225000Y10525000I0J200000D01*
G01*
G37*
G04 #@! TD*
G04 #@! TO.C,R46*
G36*
G01*
X167600000Y8725000D02*
X167600000Y9275000D01*
G75*
G02*
X167800000Y9475000I200000J0D01*
G01*
X168200000Y9475000D01*
G75*
G02*
X168400000Y9275000I0J-200000D01*
G01*
X168400000Y8725000D01*
G75*
G02*
X168200000Y8525000I-200000J0D01*
G01*
X167800000Y8525000D01*
G75*
G02*
X167600000Y8725000I0J200000D01*
G01*
G37*
G36*
G01*
X169250000Y8725000D02*
X169250000Y9275000D01*
G75*
G02*
X169450000Y9475000I200000J0D01*
G01*
X169850000Y9475000D01*
G75*
G02*
X170050000Y9275000I0J-200000D01*
G01*
X170050000Y8725000D01*
G75*
G02*
X169850000Y8525000I-200000J0D01*
G01*
X169450000Y8525000D01*
G75*
G02*
X169250000Y8725000I0J200000D01*
G01*
G37*
G04 #@! TD*
G04 #@! TO.C,U9*
G36*
G01*
X109580000Y108385000D02*
X109580000Y108685000D01*
G75*
G02*
X109730000Y108835000I150000J0D01*
G01*
X111380000Y108835000D01*
G75*
G02*
X111530000Y108685000I0J-150000D01*
G01*
X111530000Y108385000D01*
G75*
G02*
X111380000Y108235000I-150000J0D01*
G01*
X109730000Y108235000D01*
G75*
G02*
X109580000Y108385000I0J150000D01*
G01*
G37*
G36*
G01*
X109580000Y107115000D02*
X109580000Y107415000D01*
G75*
G02*
X109730000Y107565000I150000J0D01*
G01*
X111380000Y107565000D01*
G75*
G02*
X111530000Y107415000I0J-150000D01*
G01*
X111530000Y107115000D01*
G75*
G02*
X111380000Y106965000I-150000J0D01*
G01*
X109730000Y106965000D01*
G75*
G02*
X109580000Y107115000I0J150000D01*
G01*
G37*
G36*
G01*
X109580000Y105845000D02*
X109580000Y106145000D01*
G75*
G02*
X109730000Y106295000I150000J0D01*
G01*
X111380000Y106295000D01*
G75*
G02*
X111530000Y106145000I0J-150000D01*
G01*
X111530000Y105845000D01*
G75*
G02*
X111380000Y105695000I-150000J0D01*
G01*
X109730000Y105695000D01*
G75*
G02*
X109580000Y105845000I0J150000D01*
G01*
G37*
G36*
G01*
X109580000Y104575000D02*
X109580000Y104875000D01*
G75*
G02*
X109730000Y105025000I150000J0D01*
G01*
X111380000Y105025000D01*
G75*
G02*
X111530000Y104875000I0J-150000D01*
G01*
X111530000Y104575000D01*
G75*
G02*
X111380000Y104425000I-150000J0D01*
G01*
X109730000Y104425000D01*
G75*
G02*
X109580000Y104575000I0J150000D01*
G01*
G37*
G36*
G01*
X114530000Y104575000D02*
X114530000Y104875000D01*
G75*
G02*
X114680000Y105025000I150000J0D01*
G01*
X116330000Y105025000D01*
G75*
G02*
X116480000Y104875000I0J-150000D01*
G01*
X116480000Y104575000D01*
G75*
G02*
X116330000Y104425000I-150000J0D01*
G01*
X114680000Y104425000D01*
G75*
G02*
X114530000Y104575000I0J150000D01*
G01*
G37*
G36*
G01*
X114530000Y105845000D02*
X114530000Y106145000D01*
G75*
G02*
X114680000Y106295000I150000J0D01*
G01*
X116330000Y106295000D01*
G75*
G02*
X116480000Y106145000I0J-150000D01*
G01*
X116480000Y105845000D01*
G75*
G02*
X116330000Y105695000I-150000J0D01*
G01*
X114680000Y105695000D01*
G75*
G02*
X114530000Y105845000I0J150000D01*
G01*
G37*
G36*
G01*
X114530000Y107115000D02*
X114530000Y107415000D01*
G75*
G02*
X114680000Y107565000I150000J0D01*
G01*
X116330000Y107565000D01*
G75*
G02*
X116480000Y107415000I0J-150000D01*
G01*
X116480000Y107115000D01*
G75*
G02*
X116330000Y106965000I-150000J0D01*
G01*
X114680000Y106965000D01*
G75*
G02*
X114530000Y107115000I0J150000D01*
G01*
G37*
G36*
G01*
X114530000Y108385000D02*
X114530000Y108685000D01*
G75*
G02*
X114680000Y108835000I150000J0D01*
G01*
X116330000Y108835000D01*
G75*
G02*
X116480000Y108685000I0J-150000D01*
G01*
X116480000Y108385000D01*
G75*
G02*
X116330000Y108235000I-150000J0D01*
G01*
X114680000Y108235000D01*
G75*
G02*
X114530000Y108385000I0J150000D01*
G01*
G37*
G04 #@! TD*
G04 #@! TO.C,R19*
G36*
G01*
X141775000Y126775000D02*
X141225000Y126775000D01*
G75*
G02*
X141025000Y126975000I0J200000D01*
G01*
X141025000Y127375000D01*
G75*
G02*
X141225000Y127575000I200000J0D01*
G01*
X141775000Y127575000D01*
G75*
G02*
X141975000Y127375000I0J-200000D01*
G01*
X141975000Y126975000D01*
G75*
G02*
X141775000Y126775000I-200000J0D01*
G01*
G37*
G36*
G01*
X141775000Y128425000D02*
X141225000Y128425000D01*
G75*
G02*
X141025000Y128625000I0J200000D01*
G01*
X141025000Y129025000D01*
G75*
G02*
X141225000Y129225000I200000J0D01*
G01*
X141775000Y129225000D01*
G75*
G02*
X141975000Y129025000I0J-200000D01*
G01*
X141975000Y128625000D01*
G75*
G02*
X141775000Y128425000I-200000J0D01*
G01*
G37*
G04 #@! TD*
G04 #@! TO.C,D3*
G36*
G01*
X165099999Y76799998D02*
X165099999Y77699998D01*
G75*
G02*
X165199999Y77799998I100000J0D01*
G01*
X165999999Y77799998D01*
G75*
G02*
X166099999Y77699998I0J-100000D01*
G01*
X166099999Y76799998D01*
G75*
G02*
X165999999Y76699998I-100000J0D01*
G01*
X165199999Y76699998D01*
G75*
G02*
X165099999Y76799998I0J100000D01*
G01*
G37*
G36*
G01*
X166799999Y76799998D02*
X166799999Y77699998D01*
G75*
G02*
X166899999Y77799998I100000J0D01*
G01*
X167699999Y77799998D01*
G75*
G02*
X167799999Y77699998I0J-100000D01*
G01*
X167799999Y76799998D01*
G75*
G02*
X167699999Y76699998I-100000J0D01*
G01*
X166899999Y76699998D01*
G75*
G02*
X166799999Y76799998I0J100000D01*
G01*
G37*
G04 #@! TD*
G04 #@! TO.C,R27*
G36*
G01*
X163925000Y156875000D02*
X163925000Y156325000D01*
G75*
G02*
X163725000Y156125000I-200000J0D01*
G01*
X163325000Y156125000D01*
G75*
G02*
X163125000Y156325000I0J200000D01*
G01*
X163125000Y156875000D01*
G75*
G02*
X163325000Y157075000I200000J0D01*
G01*
X163725000Y157075000D01*
G75*
G02*
X163925000Y156875000I0J-200000D01*
G01*
G37*
G36*
G01*
X162275000Y156875000D02*
X162275000Y156325000D01*
G75*
G02*
X162075000Y156125000I-200000J0D01*
G01*
X161675000Y156125000D01*
G75*
G02*
X161475000Y156325000I0J200000D01*
G01*
X161475000Y156875000D01*
G75*
G02*
X161675000Y157075000I200000J0D01*
G01*
X162075000Y157075000D01*
G75*
G02*
X162275000Y156875000I0J-200000D01*
G01*
G37*
G04 #@! TD*
G04 #@! TO.C,R16*
G36*
G01*
X141775000Y144846430D02*
X141225000Y144846430D01*
G75*
G02*
X141025000Y145046430I0J200000D01*
G01*
X141025000Y145446430D01*
G75*
G02*
X141225000Y145646430I200000J0D01*
G01*
X141775000Y145646430D01*
G75*
G02*
X141975000Y145446430I0J-200000D01*
G01*
X141975000Y145046430D01*
G75*
G02*
X141775000Y144846430I-200000J0D01*
G01*
G37*
G36*
G01*
X141775000Y146496430D02*
X141225000Y146496430D01*
G75*
G02*
X141025000Y146696430I0J200000D01*
G01*
X141025000Y147096430D01*
G75*
G02*
X141225000Y147296430I200000J0D01*
G01*
X141775000Y147296430D01*
G75*
G02*
X141975000Y147096430I0J-200000D01*
G01*
X141975000Y146696430D01*
G75*
G02*
X141775000Y146496430I-200000J0D01*
G01*
G37*
G04 #@! TD*
G04 #@! TO.C,R9*
G36*
G01*
X113245000Y51265000D02*
X113795000Y51265000D01*
G75*
G02*
X113995000Y51065000I0J-200000D01*
G01*
X113995000Y50665000D01*
G75*
G02*
X113795000Y50465000I-200000J0D01*
G01*
X113245000Y50465000D01*
G75*
G02*
X113045000Y50665000I0J200000D01*
G01*
X113045000Y51065000D01*
G75*
G02*
X113245000Y51265000I200000J0D01*
G01*
G37*
G36*
G01*
X113245000Y49615000D02*
X113795000Y49615000D01*
G75*
G02*
X113995000Y49415000I0J-200000D01*
G01*
X113995000Y49015000D01*
G75*
G02*
X113795000Y48815000I-200000J0D01*
G01*
X113245000Y48815000D01*
G75*
G02*
X113045000Y49015000I0J200000D01*
G01*
X113045000Y49415000D01*
G75*
G02*
X113245000Y49615000I200000J0D01*
G01*
G37*
G04 #@! TD*
G04 #@! TO.C,C3*
G36*
G01*
X124250000Y81325000D02*
X124750000Y81325000D01*
G75*
G02*
X124975000Y81100000I0J-225000D01*
G01*
X124975000Y80650000D01*
G75*
G02*
X124750000Y80425000I-225000J0D01*
G01*
X124250000Y80425000D01*
G75*
G02*
X124025000Y80650000I0J225000D01*
G01*
X124025000Y81100000D01*
G75*
G02*
X124250000Y81325000I225000J0D01*
G01*
G37*
G36*
G01*
X124250000Y79775000D02*
X124750000Y79775000D01*
G75*
G02*
X124975000Y79550000I0J-225000D01*
G01*
X124975000Y79100000D01*
G75*
G02*
X124750000Y78875000I-225000J0D01*
G01*
X124250000Y78875000D01*
G75*
G02*
X124025000Y79100000I0J225000D01*
G01*
X124025000Y79550000D01*
G75*
G02*
X124250000Y79775000I225000J0D01*
G01*
G37*
G04 #@! TD*
G04 #@! TO.C,R47*
G36*
G01*
X167750000Y72225000D02*
X167750000Y72775000D01*
G75*
G02*
X167950000Y72975000I200000J0D01*
G01*
X168350000Y72975000D01*
G75*
G02*
X168550000Y72775000I0J-200000D01*
G01*
X168550000Y72225000D01*
G75*
G02*
X168350000Y72025000I-200000J0D01*
G01*
X167950000Y72025000D01*
G75*
G02*
X167750000Y72225000I0J200000D01*
G01*
G37*
G36*
G01*
X169400000Y72225000D02*
X169400000Y72775000D01*
G75*
G02*
X169600000Y72975000I200000J0D01*
G01*
X170000000Y72975000D01*
G75*
G02*
X170200000Y72775000I0J-200000D01*
G01*
X170200000Y72225000D01*
G75*
G02*
X170000000Y72025000I-200000J0D01*
G01*
X169600000Y72025000D01*
G75*
G02*
X169400000Y72225000I0J200000D01*
G01*
G37*
G04 #@! TD*
G04 #@! TO.C,R26*
G36*
G01*
X161475000Y154425000D02*
X161475000Y154975000D01*
G75*
G02*
X161675000Y155175000I200000J0D01*
G01*
X162075000Y155175000D01*
G75*
G02*
X162275000Y154975000I0J-200000D01*
G01*
X162275000Y154425000D01*
G75*
G02*
X162075000Y154225000I-200000J0D01*
G01*
X161675000Y154225000D01*
G75*
G02*
X161475000Y154425000I0J200000D01*
G01*
G37*
G36*
G01*
X163125000Y154425000D02*
X163125000Y154975000D01*
G75*
G02*
X163325000Y155175000I200000J0D01*
G01*
X163725000Y155175000D01*
G75*
G02*
X163925000Y154975000I0J-200000D01*
G01*
X163925000Y154425000D01*
G75*
G02*
X163725000Y154225000I-200000J0D01*
G01*
X163325000Y154225000D01*
G75*
G02*
X163125000Y154425000I0J200000D01*
G01*
G37*
G04 #@! TD*
G04 #@! TO.C,R60*
G36*
G01*
X169349999Y80350001D02*
X169349999Y79800001D01*
G75*
G02*
X169149999Y79600001I-200000J0D01*
G01*
X168749999Y79600001D01*
G75*
G02*
X168549999Y79800001I0J200000D01*
G01*
X168549999Y80350001D01*
G75*
G02*
X168749999Y80550001I200000J0D01*
G01*
X169149999Y80550001D01*
G75*
G02*
X169349999Y80350001I0J-200000D01*
G01*
G37*
G36*
G01*
X167699999Y80350001D02*
X167699999Y79800001D01*
G75*
G02*
X167499999Y79600001I-200000J0D01*
G01*
X167099999Y79600001D01*
G75*
G02*
X166899999Y79800001I0J200000D01*
G01*
X166899999Y80350001D01*
G75*
G02*
X167099999Y80550001I200000J0D01*
G01*
X167499999Y80550001D01*
G75*
G02*
X167699999Y80350001I0J-200000D01*
G01*
G37*
G04 #@! TD*
G04 #@! TO.C,R20*
G36*
G01*
X141775000Y130389290D02*
X141225000Y130389290D01*
G75*
G02*
X141025000Y130589290I0J200000D01*
G01*
X141025000Y130989290D01*
G75*
G02*
X141225000Y131189290I200000J0D01*
G01*
X141775000Y131189290D01*
G75*
G02*
X141975000Y130989290I0J-200000D01*
G01*
X141975000Y130589290D01*
G75*
G02*
X141775000Y130389290I-200000J0D01*
G01*
G37*
G36*
G01*
X141775000Y132039290D02*
X141225000Y132039290D01*
G75*
G02*
X141025000Y132239290I0J200000D01*
G01*
X141025000Y132639290D01*
G75*
G02*
X141225000Y132839290I200000J0D01*
G01*
X141775000Y132839290D01*
G75*
G02*
X141975000Y132639290I0J-200000D01*
G01*
X141975000Y132239290D01*
G75*
G02*
X141775000Y132039290I-200000J0D01*
G01*
G37*
G04 #@! TD*
G04 #@! TO.C,R22*
G36*
G01*
X158175000Y135750000D02*
X157625000Y135750000D01*
G75*
G02*
X157425000Y135950000I0J200000D01*
G01*
X157425000Y136350000D01*
G75*
G02*
X157625000Y136550000I200000J0D01*
G01*
X158175000Y136550000D01*
G75*
G02*
X158375000Y136350000I0J-200000D01*
G01*
X158375000Y135950000D01*
G75*
G02*
X158175000Y135750000I-200000J0D01*
G01*
G37*
G36*
G01*
X158175000Y137400000D02*
X157625000Y137400000D01*
G75*
G02*
X157425000Y137600000I0J200000D01*
G01*
X157425000Y138000000D01*
G75*
G02*
X157625000Y138200000I200000J0D01*
G01*
X158175000Y138200000D01*
G75*
G02*
X158375000Y138000000I0J-200000D01*
G01*
X158375000Y137600000D01*
G75*
G02*
X158175000Y137400000I-200000J0D01*
G01*
G37*
G04 #@! TD*
D10*
G04 #@! TO.C,RN1*
X90240000Y150180000D03*
D11*
X91040000Y150180000D03*
X91840000Y150180000D03*
D10*
X92640000Y150180000D03*
X92640000Y151980000D03*
D11*
X91840000Y151980000D03*
X91040000Y151980000D03*
D10*
X90240000Y151980000D03*
G04 #@! TD*
G04 #@! TO.C,Q4*
G36*
G01*
X143787500Y150385715D02*
X143787500Y150685715D01*
G75*
G02*
X143937500Y150835715I150000J0D01*
G01*
X145112500Y150835715D01*
G75*
G02*
X145262500Y150685715I0J-150000D01*
G01*
X145262500Y150385715D01*
G75*
G02*
X145112500Y150235715I-150000J0D01*
G01*
X143937500Y150235715D01*
G75*
G02*
X143787500Y150385715I0J150000D01*
G01*
G37*
G36*
G01*
X145662500Y149435715D02*
X145662500Y149735715D01*
G75*
G02*
X145812500Y149885715I150000J0D01*
G01*
X146987500Y149885715D01*
G75*
G02*
X147137500Y149735715I0J-150000D01*
G01*
X147137500Y149435715D01*
G75*
G02*
X146987500Y149285715I-150000J0D01*
G01*
X145812500Y149285715D01*
G75*
G02*
X145662500Y149435715I0J150000D01*
G01*
G37*
G36*
G01*
X143787500Y148485715D02*
X143787500Y148785715D01*
G75*
G02*
X143937500Y148935715I150000J0D01*
G01*
X145112500Y148935715D01*
G75*
G02*
X145262500Y148785715I0J-150000D01*
G01*
X145262500Y148485715D01*
G75*
G02*
X145112500Y148335715I-150000J0D01*
G01*
X143937500Y148335715D01*
G75*
G02*
X143787500Y148485715I0J150000D01*
G01*
G37*
G04 #@! TD*
M02*
